G04 #@! TF.GenerationSoftware,KiCad,Pcbnew,(5.0.1)-3*
G04 #@! TF.CreationDate,2019-01-05T12:05:47+10:00*
G04 #@! TF.ProjectId,stmsplat1,73746D73706C6174312E6B696361645F,rev?*
G04 #@! TF.SameCoordinates,Original*
G04 #@! TF.FileFunction,Legend,Top*
G04 #@! TF.FilePolarity,Positive*
%FSLAX46Y46*%
G04 Gerber Fmt 4.6, Leading zero omitted, Abs format (unit mm)*
G04 Created by KiCad (PCBNEW (5.0.1)-3) date 05/01/2019 12:05:47*
%MOMM*%
%LPD*%
G01*
G04 APERTURE LIST*
%ADD10C,0.300000*%
%ADD11C,0.150000*%
%ADD12C,0.120000*%
G04 APERTURE END LIST*
D10*
X65342914Y-151846442D02*
X65557200Y-151917871D01*
X65914342Y-151917871D01*
X66057200Y-151846442D01*
X66128628Y-151775014D01*
X66200057Y-151632157D01*
X66200057Y-151489300D01*
X66128628Y-151346442D01*
X66057200Y-151275014D01*
X65914342Y-151203585D01*
X65628628Y-151132157D01*
X65485771Y-151060728D01*
X65414342Y-150989300D01*
X65342914Y-150846442D01*
X65342914Y-150703585D01*
X65414342Y-150560728D01*
X65485771Y-150489300D01*
X65628628Y-150417871D01*
X65985771Y-150417871D01*
X66200057Y-150489300D01*
X66842914Y-150917871D02*
X66842914Y-152417871D01*
X66842914Y-150989300D02*
X66985771Y-150917871D01*
X67271485Y-150917871D01*
X67414342Y-150989300D01*
X67485771Y-151060728D01*
X67557200Y-151203585D01*
X67557200Y-151632157D01*
X67485771Y-151775014D01*
X67414342Y-151846442D01*
X67271485Y-151917871D01*
X66985771Y-151917871D01*
X66842914Y-151846442D01*
X68414342Y-151917871D02*
X68271485Y-151846442D01*
X68200057Y-151703585D01*
X68200057Y-150417871D01*
X69628628Y-151917871D02*
X69628628Y-151132157D01*
X69557200Y-150989300D01*
X69414342Y-150917871D01*
X69128628Y-150917871D01*
X68985771Y-150989300D01*
X69628628Y-151846442D02*
X69485771Y-151917871D01*
X69128628Y-151917871D01*
X68985771Y-151846442D01*
X68914342Y-151703585D01*
X68914342Y-151560728D01*
X68985771Y-151417871D01*
X69128628Y-151346442D01*
X69485771Y-151346442D01*
X69628628Y-151275014D01*
X70128628Y-150917871D02*
X70700057Y-150917871D01*
X70342914Y-150417871D02*
X70342914Y-151703585D01*
X70414342Y-151846442D01*
X70557200Y-151917871D01*
X70700057Y-151917871D01*
X73128628Y-151917871D02*
X72271485Y-151917871D01*
X72700057Y-151917871D02*
X72700057Y-150417871D01*
X72557200Y-150632157D01*
X72414342Y-150775014D01*
X72271485Y-150846442D01*
X73771485Y-151775014D02*
X73842914Y-151846442D01*
X73771485Y-151917871D01*
X73700057Y-151846442D01*
X73771485Y-151775014D01*
X73771485Y-151917871D01*
X74771485Y-150417871D02*
X74914342Y-150417871D01*
X75057200Y-150489300D01*
X75128628Y-150560728D01*
X75200057Y-150703585D01*
X75271485Y-150989300D01*
X75271485Y-151346442D01*
X75200057Y-151632157D01*
X75128628Y-151775014D01*
X75057200Y-151846442D01*
X74914342Y-151917871D01*
X74771485Y-151917871D01*
X74628628Y-151846442D01*
X74557200Y-151775014D01*
X74485771Y-151632157D01*
X74414342Y-151346442D01*
X74414342Y-150989300D01*
X74485771Y-150703585D01*
X74557200Y-150560728D01*
X74628628Y-150489300D01*
X74771485Y-150417871D01*
X67057200Y-152967871D02*
X67557200Y-154467871D01*
X68057200Y-152967871D01*
X68557200Y-154467871D02*
X68557200Y-152967871D01*
X69414342Y-154467871D02*
X68771485Y-153610728D01*
X69414342Y-152967871D02*
X68557200Y-153825014D01*
X70700057Y-153467871D02*
X70700057Y-154467871D01*
X70342914Y-152896442D02*
X69985771Y-153967871D01*
X70914342Y-153967871D01*
X71771485Y-153753585D02*
X71771485Y-154467871D01*
X71271485Y-152967871D02*
X71771485Y-153753585D01*
X72271485Y-152967871D01*
X72700057Y-154039300D02*
X73414342Y-154039300D01*
X72557200Y-154467871D02*
X73057200Y-152967871D01*
X73557200Y-154467871D01*
D11*
G04 #@! TO.C,U2*
X100330000Y-33782000D02*
X100330000Y-34290000D01*
X95250000Y-33782000D02*
X95250000Y-34290000D01*
X109220000Y-67310000D02*
X109220000Y-57150000D01*
X96520000Y-67310000D02*
X109220000Y-67310000D01*
X96520000Y-67310000D02*
X96520000Y-57150000D01*
X93980000Y-34290000D02*
X95250000Y-34290000D01*
X93980000Y-57150000D02*
X93980000Y-34290000D01*
X109220000Y-57150000D02*
X93980000Y-57150000D01*
X111760000Y-57150000D02*
X109220000Y-57150000D01*
X111760000Y-34290000D02*
X111760000Y-57150000D01*
X100330000Y-34290000D02*
X111760000Y-34290000D01*
X95290000Y-33782000D02*
X100290000Y-33782000D01*
D12*
G04 #@! TO.C,U11*
X95504000Y-156972000D02*
X103600000Y-150860000D01*
X77600000Y-150860000D02*
X85344000Y-156972000D01*
X103600000Y-150860000D02*
X103600000Y-129860000D01*
X103600000Y-129860000D02*
X77600000Y-129860000D01*
X77600000Y-129860000D02*
X77600000Y-150860000D01*
X85504000Y-156972000D02*
X95504000Y-156972000D01*
G04 #@! TO.C,U9*
X72760000Y-49870000D02*
X74560000Y-49870000D01*
X74560000Y-46650000D02*
X71610000Y-46650000D01*
G04 #@! TO.C,U1*
X100041001Y-33675001D02*
X124835001Y-33675001D01*
X92675344Y-157115001D02*
X55435001Y-157115001D01*
X55035001Y-34075001D02*
X55035001Y-156715001D01*
X100025001Y-33675001D02*
X55435001Y-33675001D01*
X125235001Y-156715001D02*
X125235001Y-34075001D01*
X92436241Y-157115001D02*
X124835001Y-157115001D01*
X124835001Y-157115001D02*
G75*
G03X125235001Y-156715001I0J400000D01*
G01*
X55035001Y-156715001D02*
G75*
G03X55435001Y-157115001I400000J0D01*
G01*
X55435001Y-33675001D02*
G75*
G03X55035001Y-34075001I0J-400000D01*
G01*
X125235001Y-34075001D02*
G75*
G03X124835001Y-33675001I-400000J0D01*
G01*
G04 #@! TO.C,TP14*
X97385000Y-100330000D02*
G75*
G03X97385000Y-100330000I-1500000J0D01*
G01*
G04 #@! TO.C,C21*
X69910000Y-67945000D02*
G75*
G03X69910000Y-67945000I-2620000J0D01*
G01*
X67290000Y-65365000D02*
X67290000Y-70525000D01*
X67330000Y-65365000D02*
X67330000Y-70525000D01*
X67370000Y-65366000D02*
X67370000Y-70524000D01*
X67410000Y-65367000D02*
X67410000Y-70523000D01*
X67450000Y-65369000D02*
X67450000Y-70521000D01*
X67490000Y-65372000D02*
X67490000Y-70518000D01*
X67530000Y-65376000D02*
X67530000Y-66905000D01*
X67530000Y-68985000D02*
X67530000Y-70514000D01*
X67570000Y-65380000D02*
X67570000Y-66905000D01*
X67570000Y-68985000D02*
X67570000Y-70510000D01*
X67610000Y-65384000D02*
X67610000Y-66905000D01*
X67610000Y-68985000D02*
X67610000Y-70506000D01*
X67650000Y-65389000D02*
X67650000Y-66905000D01*
X67650000Y-68985000D02*
X67650000Y-70501000D01*
X67690000Y-65395000D02*
X67690000Y-66905000D01*
X67690000Y-68985000D02*
X67690000Y-70495000D01*
X67730000Y-65402000D02*
X67730000Y-66905000D01*
X67730000Y-68985000D02*
X67730000Y-70488000D01*
X67770000Y-65409000D02*
X67770000Y-66905000D01*
X67770000Y-68985000D02*
X67770000Y-70481000D01*
X67810000Y-65417000D02*
X67810000Y-66905000D01*
X67810000Y-68985000D02*
X67810000Y-70473000D01*
X67850000Y-65425000D02*
X67850000Y-66905000D01*
X67850000Y-68985000D02*
X67850000Y-70465000D01*
X67890000Y-65434000D02*
X67890000Y-66905000D01*
X67890000Y-68985000D02*
X67890000Y-70456000D01*
X67930000Y-65444000D02*
X67930000Y-66905000D01*
X67930000Y-68985000D02*
X67930000Y-70446000D01*
X67970000Y-65454000D02*
X67970000Y-66905000D01*
X67970000Y-68985000D02*
X67970000Y-70436000D01*
X68011000Y-65465000D02*
X68011000Y-66905000D01*
X68011000Y-68985000D02*
X68011000Y-70425000D01*
X68051000Y-65477000D02*
X68051000Y-66905000D01*
X68051000Y-68985000D02*
X68051000Y-70413000D01*
X68091000Y-65490000D02*
X68091000Y-66905000D01*
X68091000Y-68985000D02*
X68091000Y-70400000D01*
X68131000Y-65503000D02*
X68131000Y-66905000D01*
X68131000Y-68985000D02*
X68131000Y-70387000D01*
X68171000Y-65517000D02*
X68171000Y-66905000D01*
X68171000Y-68985000D02*
X68171000Y-70373000D01*
X68211000Y-65531000D02*
X68211000Y-66905000D01*
X68211000Y-68985000D02*
X68211000Y-70359000D01*
X68251000Y-65547000D02*
X68251000Y-66905000D01*
X68251000Y-68985000D02*
X68251000Y-70343000D01*
X68291000Y-65563000D02*
X68291000Y-66905000D01*
X68291000Y-68985000D02*
X68291000Y-70327000D01*
X68331000Y-65580000D02*
X68331000Y-66905000D01*
X68331000Y-68985000D02*
X68331000Y-70310000D01*
X68371000Y-65597000D02*
X68371000Y-66905000D01*
X68371000Y-68985000D02*
X68371000Y-70293000D01*
X68411000Y-65616000D02*
X68411000Y-66905000D01*
X68411000Y-68985000D02*
X68411000Y-70274000D01*
X68451000Y-65635000D02*
X68451000Y-66905000D01*
X68451000Y-68985000D02*
X68451000Y-70255000D01*
X68491000Y-65655000D02*
X68491000Y-66905000D01*
X68491000Y-68985000D02*
X68491000Y-70235000D01*
X68531000Y-65677000D02*
X68531000Y-66905000D01*
X68531000Y-68985000D02*
X68531000Y-70213000D01*
X68571000Y-65698000D02*
X68571000Y-66905000D01*
X68571000Y-68985000D02*
X68571000Y-70192000D01*
X68611000Y-65721000D02*
X68611000Y-66905000D01*
X68611000Y-68985000D02*
X68611000Y-70169000D01*
X68651000Y-65745000D02*
X68651000Y-66905000D01*
X68651000Y-68985000D02*
X68651000Y-70145000D01*
X68691000Y-65770000D02*
X68691000Y-66905000D01*
X68691000Y-68985000D02*
X68691000Y-70120000D01*
X68731000Y-65796000D02*
X68731000Y-66905000D01*
X68731000Y-68985000D02*
X68731000Y-70094000D01*
X68771000Y-65823000D02*
X68771000Y-66905000D01*
X68771000Y-68985000D02*
X68771000Y-70067000D01*
X68811000Y-65850000D02*
X68811000Y-66905000D01*
X68811000Y-68985000D02*
X68811000Y-70040000D01*
X68851000Y-65880000D02*
X68851000Y-66905000D01*
X68851000Y-68985000D02*
X68851000Y-70010000D01*
X68891000Y-65910000D02*
X68891000Y-66905000D01*
X68891000Y-68985000D02*
X68891000Y-69980000D01*
X68931000Y-65941000D02*
X68931000Y-66905000D01*
X68931000Y-68985000D02*
X68931000Y-69949000D01*
X68971000Y-65974000D02*
X68971000Y-66905000D01*
X68971000Y-68985000D02*
X68971000Y-69916000D01*
X69011000Y-66008000D02*
X69011000Y-66905000D01*
X69011000Y-68985000D02*
X69011000Y-69882000D01*
X69051000Y-66044000D02*
X69051000Y-66905000D01*
X69051000Y-68985000D02*
X69051000Y-69846000D01*
X69091000Y-66081000D02*
X69091000Y-66905000D01*
X69091000Y-68985000D02*
X69091000Y-69809000D01*
X69131000Y-66119000D02*
X69131000Y-66905000D01*
X69131000Y-68985000D02*
X69131000Y-69771000D01*
X69171000Y-66160000D02*
X69171000Y-66905000D01*
X69171000Y-68985000D02*
X69171000Y-69730000D01*
X69211000Y-66202000D02*
X69211000Y-66905000D01*
X69211000Y-68985000D02*
X69211000Y-69688000D01*
X69251000Y-66246000D02*
X69251000Y-66905000D01*
X69251000Y-68985000D02*
X69251000Y-69644000D01*
X69291000Y-66292000D02*
X69291000Y-66905000D01*
X69291000Y-68985000D02*
X69291000Y-69598000D01*
X69331000Y-66340000D02*
X69331000Y-66905000D01*
X69331000Y-68985000D02*
X69331000Y-69550000D01*
X69371000Y-66391000D02*
X69371000Y-66905000D01*
X69371000Y-68985000D02*
X69371000Y-69499000D01*
X69411000Y-66445000D02*
X69411000Y-66905000D01*
X69411000Y-68985000D02*
X69411000Y-69445000D01*
X69451000Y-66502000D02*
X69451000Y-66905000D01*
X69451000Y-68985000D02*
X69451000Y-69388000D01*
X69491000Y-66562000D02*
X69491000Y-66905000D01*
X69491000Y-68985000D02*
X69491000Y-69328000D01*
X69531000Y-66626000D02*
X69531000Y-66905000D01*
X69531000Y-68985000D02*
X69531000Y-69264000D01*
X69571000Y-66694000D02*
X69571000Y-66905000D01*
X69571000Y-68985000D02*
X69571000Y-69196000D01*
X69611000Y-66767000D02*
X69611000Y-69123000D01*
X69651000Y-66847000D02*
X69651000Y-69043000D01*
X69691000Y-66934000D02*
X69691000Y-68956000D01*
X69731000Y-67030000D02*
X69731000Y-68860000D01*
X69771000Y-67140000D02*
X69771000Y-68750000D01*
X69811000Y-67268000D02*
X69811000Y-68622000D01*
X69851000Y-67427000D02*
X69851000Y-68463000D01*
X69891000Y-67661000D02*
X69891000Y-68229000D01*
X64485225Y-66470000D02*
X64985225Y-66470000D01*
X64735225Y-66220000D02*
X64735225Y-66720000D01*
D11*
G04 #@! TO.C,U5*
X73255000Y-70890000D02*
X72005000Y-70890000D01*
X73255000Y-74065000D02*
X76605000Y-74065000D01*
X73255000Y-70715000D02*
X76605000Y-70715000D01*
X73255000Y-74065000D02*
X73255000Y-73815000D01*
X76605000Y-74065000D02*
X76605000Y-73815000D01*
X76605000Y-70715000D02*
X76605000Y-70965000D01*
X73255000Y-70715000D02*
X73255000Y-70890000D01*
D12*
G04 #@! TO.C,J3*
X72330000Y-141030000D02*
X74990000Y-141030000D01*
X72330000Y-133350000D02*
X72330000Y-141030000D01*
X74990000Y-133350000D02*
X74990000Y-141030000D01*
X72330000Y-133350000D02*
X74990000Y-133350000D01*
X72330000Y-132080000D02*
X72330000Y-130750000D01*
X72330000Y-130750000D02*
X73660000Y-130750000D01*
G04 #@! TO.C,R1*
X73057936Y-35470000D02*
X74262064Y-35470000D01*
X73057936Y-38190000D02*
X74262064Y-38190000D01*
G04 #@! TO.C,R4*
X83952064Y-51980000D02*
X81147936Y-51980000D01*
X83952064Y-54700000D02*
X81147936Y-54700000D01*
G04 #@! TO.C,R5*
X88767936Y-51980000D02*
X91572064Y-51980000D01*
X88767936Y-54700000D02*
X91572064Y-54700000D01*
G04 #@! TO.C,C20*
X76461252Y-92150000D02*
X75938748Y-92150000D01*
X76461252Y-90730000D02*
X75938748Y-90730000D01*
G04 #@! TO.C,U12*
X74030000Y-89240000D02*
X75830000Y-89240000D01*
X75830000Y-86020000D02*
X73380000Y-86020000D01*
G04 #@! TO.C,TP7*
X104370000Y-81280000D02*
G75*
G03X104370000Y-81280000I-1500000J0D01*
G01*
G04 #@! TO.C,LS1*
X81810000Y-106680000D02*
G75*
G03X81810000Y-106680000I-3400000J0D01*
G01*
G04 #@! TO.C,C19*
X78800000Y-96520000D02*
G75*
G03X78800000Y-96520000I-2620000J0D01*
G01*
X76180000Y-93940000D02*
X76180000Y-99100000D01*
X76220000Y-93940000D02*
X76220000Y-99100000D01*
X76260000Y-93941000D02*
X76260000Y-99099000D01*
X76300000Y-93942000D02*
X76300000Y-99098000D01*
X76340000Y-93944000D02*
X76340000Y-99096000D01*
X76380000Y-93947000D02*
X76380000Y-99093000D01*
X76420000Y-93951000D02*
X76420000Y-95480000D01*
X76420000Y-97560000D02*
X76420000Y-99089000D01*
X76460000Y-93955000D02*
X76460000Y-95480000D01*
X76460000Y-97560000D02*
X76460000Y-99085000D01*
X76500000Y-93959000D02*
X76500000Y-95480000D01*
X76500000Y-97560000D02*
X76500000Y-99081000D01*
X76540000Y-93964000D02*
X76540000Y-95480000D01*
X76540000Y-97560000D02*
X76540000Y-99076000D01*
X76580000Y-93970000D02*
X76580000Y-95480000D01*
X76580000Y-97560000D02*
X76580000Y-99070000D01*
X76620000Y-93977000D02*
X76620000Y-95480000D01*
X76620000Y-97560000D02*
X76620000Y-99063000D01*
X76660000Y-93984000D02*
X76660000Y-95480000D01*
X76660000Y-97560000D02*
X76660000Y-99056000D01*
X76700000Y-93992000D02*
X76700000Y-95480000D01*
X76700000Y-97560000D02*
X76700000Y-99048000D01*
X76740000Y-94000000D02*
X76740000Y-95480000D01*
X76740000Y-97560000D02*
X76740000Y-99040000D01*
X76780000Y-94009000D02*
X76780000Y-95480000D01*
X76780000Y-97560000D02*
X76780000Y-99031000D01*
X76820000Y-94019000D02*
X76820000Y-95480000D01*
X76820000Y-97560000D02*
X76820000Y-99021000D01*
X76860000Y-94029000D02*
X76860000Y-95480000D01*
X76860000Y-97560000D02*
X76860000Y-99011000D01*
X76901000Y-94040000D02*
X76901000Y-95480000D01*
X76901000Y-97560000D02*
X76901000Y-99000000D01*
X76941000Y-94052000D02*
X76941000Y-95480000D01*
X76941000Y-97560000D02*
X76941000Y-98988000D01*
X76981000Y-94065000D02*
X76981000Y-95480000D01*
X76981000Y-97560000D02*
X76981000Y-98975000D01*
X77021000Y-94078000D02*
X77021000Y-95480000D01*
X77021000Y-97560000D02*
X77021000Y-98962000D01*
X77061000Y-94092000D02*
X77061000Y-95480000D01*
X77061000Y-97560000D02*
X77061000Y-98948000D01*
X77101000Y-94106000D02*
X77101000Y-95480000D01*
X77101000Y-97560000D02*
X77101000Y-98934000D01*
X77141000Y-94122000D02*
X77141000Y-95480000D01*
X77141000Y-97560000D02*
X77141000Y-98918000D01*
X77181000Y-94138000D02*
X77181000Y-95480000D01*
X77181000Y-97560000D02*
X77181000Y-98902000D01*
X77221000Y-94155000D02*
X77221000Y-95480000D01*
X77221000Y-97560000D02*
X77221000Y-98885000D01*
X77261000Y-94172000D02*
X77261000Y-95480000D01*
X77261000Y-97560000D02*
X77261000Y-98868000D01*
X77301000Y-94191000D02*
X77301000Y-95480000D01*
X77301000Y-97560000D02*
X77301000Y-98849000D01*
X77341000Y-94210000D02*
X77341000Y-95480000D01*
X77341000Y-97560000D02*
X77341000Y-98830000D01*
X77381000Y-94230000D02*
X77381000Y-95480000D01*
X77381000Y-97560000D02*
X77381000Y-98810000D01*
X77421000Y-94252000D02*
X77421000Y-95480000D01*
X77421000Y-97560000D02*
X77421000Y-98788000D01*
X77461000Y-94273000D02*
X77461000Y-95480000D01*
X77461000Y-97560000D02*
X77461000Y-98767000D01*
X77501000Y-94296000D02*
X77501000Y-95480000D01*
X77501000Y-97560000D02*
X77501000Y-98744000D01*
X77541000Y-94320000D02*
X77541000Y-95480000D01*
X77541000Y-97560000D02*
X77541000Y-98720000D01*
X77581000Y-94345000D02*
X77581000Y-95480000D01*
X77581000Y-97560000D02*
X77581000Y-98695000D01*
X77621000Y-94371000D02*
X77621000Y-95480000D01*
X77621000Y-97560000D02*
X77621000Y-98669000D01*
X77661000Y-94398000D02*
X77661000Y-95480000D01*
X77661000Y-97560000D02*
X77661000Y-98642000D01*
X77701000Y-94425000D02*
X77701000Y-95480000D01*
X77701000Y-97560000D02*
X77701000Y-98615000D01*
X77741000Y-94455000D02*
X77741000Y-95480000D01*
X77741000Y-97560000D02*
X77741000Y-98585000D01*
X77781000Y-94485000D02*
X77781000Y-95480000D01*
X77781000Y-97560000D02*
X77781000Y-98555000D01*
X77821000Y-94516000D02*
X77821000Y-95480000D01*
X77821000Y-97560000D02*
X77821000Y-98524000D01*
X77861000Y-94549000D02*
X77861000Y-95480000D01*
X77861000Y-97560000D02*
X77861000Y-98491000D01*
X77901000Y-94583000D02*
X77901000Y-95480000D01*
X77901000Y-97560000D02*
X77901000Y-98457000D01*
X77941000Y-94619000D02*
X77941000Y-95480000D01*
X77941000Y-97560000D02*
X77941000Y-98421000D01*
X77981000Y-94656000D02*
X77981000Y-95480000D01*
X77981000Y-97560000D02*
X77981000Y-98384000D01*
X78021000Y-94694000D02*
X78021000Y-95480000D01*
X78021000Y-97560000D02*
X78021000Y-98346000D01*
X78061000Y-94735000D02*
X78061000Y-95480000D01*
X78061000Y-97560000D02*
X78061000Y-98305000D01*
X78101000Y-94777000D02*
X78101000Y-95480000D01*
X78101000Y-97560000D02*
X78101000Y-98263000D01*
X78141000Y-94821000D02*
X78141000Y-95480000D01*
X78141000Y-97560000D02*
X78141000Y-98219000D01*
X78181000Y-94867000D02*
X78181000Y-95480000D01*
X78181000Y-97560000D02*
X78181000Y-98173000D01*
X78221000Y-94915000D02*
X78221000Y-95480000D01*
X78221000Y-97560000D02*
X78221000Y-98125000D01*
X78261000Y-94966000D02*
X78261000Y-95480000D01*
X78261000Y-97560000D02*
X78261000Y-98074000D01*
X78301000Y-95020000D02*
X78301000Y-95480000D01*
X78301000Y-97560000D02*
X78301000Y-98020000D01*
X78341000Y-95077000D02*
X78341000Y-95480000D01*
X78341000Y-97560000D02*
X78341000Y-97963000D01*
X78381000Y-95137000D02*
X78381000Y-95480000D01*
X78381000Y-97560000D02*
X78381000Y-97903000D01*
X78421000Y-95201000D02*
X78421000Y-95480000D01*
X78421000Y-97560000D02*
X78421000Y-97839000D01*
X78461000Y-95269000D02*
X78461000Y-95480000D01*
X78461000Y-97560000D02*
X78461000Y-97771000D01*
X78501000Y-95342000D02*
X78501000Y-97698000D01*
X78541000Y-95422000D02*
X78541000Y-97618000D01*
X78581000Y-95509000D02*
X78581000Y-97531000D01*
X78621000Y-95605000D02*
X78621000Y-97435000D01*
X78661000Y-95715000D02*
X78661000Y-97325000D01*
X78701000Y-95843000D02*
X78701000Y-97197000D01*
X78741000Y-96002000D02*
X78741000Y-97038000D01*
X78781000Y-96236000D02*
X78781000Y-96804000D01*
X73375225Y-95045000D02*
X73875225Y-95045000D01*
X73625225Y-94795000D02*
X73625225Y-95295000D01*
G04 #@! TO.C,RN4*
X117890000Y-59820000D02*
X115790000Y-59820000D01*
X117890000Y-54480000D02*
X115790000Y-54480000D01*
G04 #@! TO.C,TP1*
X114530000Y-142240000D02*
G75*
G03X114530000Y-142240000I-1500000J0D01*
G01*
G04 #@! TO.C,TP2*
X61190000Y-48895000D02*
G75*
G03X61190000Y-48895000I-1500000J0D01*
G01*
G04 #@! TO.C,D8*
X82895000Y-128600000D02*
X78245000Y-128600000D01*
X82895000Y-125400000D02*
X78245000Y-125400000D01*
X78245000Y-125400000D02*
X78245000Y-126200000D01*
G04 #@! TO.C,D7*
X77090000Y-48850000D02*
X80390000Y-48850000D01*
X80390000Y-48850000D02*
X80390000Y-41950000D01*
X77090000Y-48850000D02*
X77090000Y-41950000D01*
G04 #@! TO.C,D1*
X92420000Y-108280000D02*
X87770000Y-108280000D01*
X92420000Y-105080000D02*
X87770000Y-105080000D01*
X87770000Y-105080000D02*
X87770000Y-105880000D01*
G04 #@! TO.C,C18*
X110550000Y-138430000D02*
G75*
G03X110550000Y-138430000I-2620000J0D01*
G01*
X107930000Y-135850000D02*
X107930000Y-141010000D01*
X107970000Y-135850000D02*
X107970000Y-141010000D01*
X108010000Y-135851000D02*
X108010000Y-141009000D01*
X108050000Y-135852000D02*
X108050000Y-141008000D01*
X108090000Y-135854000D02*
X108090000Y-141006000D01*
X108130000Y-135857000D02*
X108130000Y-141003000D01*
X108170000Y-135861000D02*
X108170000Y-137390000D01*
X108170000Y-139470000D02*
X108170000Y-140999000D01*
X108210000Y-135865000D02*
X108210000Y-137390000D01*
X108210000Y-139470000D02*
X108210000Y-140995000D01*
X108250000Y-135869000D02*
X108250000Y-137390000D01*
X108250000Y-139470000D02*
X108250000Y-140991000D01*
X108290000Y-135874000D02*
X108290000Y-137390000D01*
X108290000Y-139470000D02*
X108290000Y-140986000D01*
X108330000Y-135880000D02*
X108330000Y-137390000D01*
X108330000Y-139470000D02*
X108330000Y-140980000D01*
X108370000Y-135887000D02*
X108370000Y-137390000D01*
X108370000Y-139470000D02*
X108370000Y-140973000D01*
X108410000Y-135894000D02*
X108410000Y-137390000D01*
X108410000Y-139470000D02*
X108410000Y-140966000D01*
X108450000Y-135902000D02*
X108450000Y-137390000D01*
X108450000Y-139470000D02*
X108450000Y-140958000D01*
X108490000Y-135910000D02*
X108490000Y-137390000D01*
X108490000Y-139470000D02*
X108490000Y-140950000D01*
X108530000Y-135919000D02*
X108530000Y-137390000D01*
X108530000Y-139470000D02*
X108530000Y-140941000D01*
X108570000Y-135929000D02*
X108570000Y-137390000D01*
X108570000Y-139470000D02*
X108570000Y-140931000D01*
X108610000Y-135939000D02*
X108610000Y-137390000D01*
X108610000Y-139470000D02*
X108610000Y-140921000D01*
X108651000Y-135950000D02*
X108651000Y-137390000D01*
X108651000Y-139470000D02*
X108651000Y-140910000D01*
X108691000Y-135962000D02*
X108691000Y-137390000D01*
X108691000Y-139470000D02*
X108691000Y-140898000D01*
X108731000Y-135975000D02*
X108731000Y-137390000D01*
X108731000Y-139470000D02*
X108731000Y-140885000D01*
X108771000Y-135988000D02*
X108771000Y-137390000D01*
X108771000Y-139470000D02*
X108771000Y-140872000D01*
X108811000Y-136002000D02*
X108811000Y-137390000D01*
X108811000Y-139470000D02*
X108811000Y-140858000D01*
X108851000Y-136016000D02*
X108851000Y-137390000D01*
X108851000Y-139470000D02*
X108851000Y-140844000D01*
X108891000Y-136032000D02*
X108891000Y-137390000D01*
X108891000Y-139470000D02*
X108891000Y-140828000D01*
X108931000Y-136048000D02*
X108931000Y-137390000D01*
X108931000Y-139470000D02*
X108931000Y-140812000D01*
X108971000Y-136065000D02*
X108971000Y-137390000D01*
X108971000Y-139470000D02*
X108971000Y-140795000D01*
X109011000Y-136082000D02*
X109011000Y-137390000D01*
X109011000Y-139470000D02*
X109011000Y-140778000D01*
X109051000Y-136101000D02*
X109051000Y-137390000D01*
X109051000Y-139470000D02*
X109051000Y-140759000D01*
X109091000Y-136120000D02*
X109091000Y-137390000D01*
X109091000Y-139470000D02*
X109091000Y-140740000D01*
X109131000Y-136140000D02*
X109131000Y-137390000D01*
X109131000Y-139470000D02*
X109131000Y-140720000D01*
X109171000Y-136162000D02*
X109171000Y-137390000D01*
X109171000Y-139470000D02*
X109171000Y-140698000D01*
X109211000Y-136183000D02*
X109211000Y-137390000D01*
X109211000Y-139470000D02*
X109211000Y-140677000D01*
X109251000Y-136206000D02*
X109251000Y-137390000D01*
X109251000Y-139470000D02*
X109251000Y-140654000D01*
X109291000Y-136230000D02*
X109291000Y-137390000D01*
X109291000Y-139470000D02*
X109291000Y-140630000D01*
X109331000Y-136255000D02*
X109331000Y-137390000D01*
X109331000Y-139470000D02*
X109331000Y-140605000D01*
X109371000Y-136281000D02*
X109371000Y-137390000D01*
X109371000Y-139470000D02*
X109371000Y-140579000D01*
X109411000Y-136308000D02*
X109411000Y-137390000D01*
X109411000Y-139470000D02*
X109411000Y-140552000D01*
X109451000Y-136335000D02*
X109451000Y-137390000D01*
X109451000Y-139470000D02*
X109451000Y-140525000D01*
X109491000Y-136365000D02*
X109491000Y-137390000D01*
X109491000Y-139470000D02*
X109491000Y-140495000D01*
X109531000Y-136395000D02*
X109531000Y-137390000D01*
X109531000Y-139470000D02*
X109531000Y-140465000D01*
X109571000Y-136426000D02*
X109571000Y-137390000D01*
X109571000Y-139470000D02*
X109571000Y-140434000D01*
X109611000Y-136459000D02*
X109611000Y-137390000D01*
X109611000Y-139470000D02*
X109611000Y-140401000D01*
X109651000Y-136493000D02*
X109651000Y-137390000D01*
X109651000Y-139470000D02*
X109651000Y-140367000D01*
X109691000Y-136529000D02*
X109691000Y-137390000D01*
X109691000Y-139470000D02*
X109691000Y-140331000D01*
X109731000Y-136566000D02*
X109731000Y-137390000D01*
X109731000Y-139470000D02*
X109731000Y-140294000D01*
X109771000Y-136604000D02*
X109771000Y-137390000D01*
X109771000Y-139470000D02*
X109771000Y-140256000D01*
X109811000Y-136645000D02*
X109811000Y-137390000D01*
X109811000Y-139470000D02*
X109811000Y-140215000D01*
X109851000Y-136687000D02*
X109851000Y-137390000D01*
X109851000Y-139470000D02*
X109851000Y-140173000D01*
X109891000Y-136731000D02*
X109891000Y-137390000D01*
X109891000Y-139470000D02*
X109891000Y-140129000D01*
X109931000Y-136777000D02*
X109931000Y-137390000D01*
X109931000Y-139470000D02*
X109931000Y-140083000D01*
X109971000Y-136825000D02*
X109971000Y-137390000D01*
X109971000Y-139470000D02*
X109971000Y-140035000D01*
X110011000Y-136876000D02*
X110011000Y-137390000D01*
X110011000Y-139470000D02*
X110011000Y-139984000D01*
X110051000Y-136930000D02*
X110051000Y-137390000D01*
X110051000Y-139470000D02*
X110051000Y-139930000D01*
X110091000Y-136987000D02*
X110091000Y-137390000D01*
X110091000Y-139470000D02*
X110091000Y-139873000D01*
X110131000Y-137047000D02*
X110131000Y-137390000D01*
X110131000Y-139470000D02*
X110131000Y-139813000D01*
X110171000Y-137111000D02*
X110171000Y-137390000D01*
X110171000Y-139470000D02*
X110171000Y-139749000D01*
X110211000Y-137179000D02*
X110211000Y-137390000D01*
X110211000Y-139470000D02*
X110211000Y-139681000D01*
X110251000Y-137252000D02*
X110251000Y-139608000D01*
X110291000Y-137332000D02*
X110291000Y-139528000D01*
X110331000Y-137419000D02*
X110331000Y-139441000D01*
X110371000Y-137515000D02*
X110371000Y-139345000D01*
X110411000Y-137625000D02*
X110411000Y-139235000D01*
X110451000Y-137753000D02*
X110451000Y-139107000D01*
X110491000Y-137912000D02*
X110491000Y-138948000D01*
X110531000Y-138146000D02*
X110531000Y-138714000D01*
X105125225Y-136955000D02*
X105625225Y-136955000D01*
X105375225Y-136705000D02*
X105375225Y-137205000D01*
G04 #@! TO.C,C16*
X79975225Y-89715000D02*
X79975225Y-90215000D01*
X79725225Y-89965000D02*
X80225225Y-89965000D01*
X85131000Y-91156000D02*
X85131000Y-91724000D01*
X85091000Y-90922000D02*
X85091000Y-91958000D01*
X85051000Y-90763000D02*
X85051000Y-92117000D01*
X85011000Y-90635000D02*
X85011000Y-92245000D01*
X84971000Y-90525000D02*
X84971000Y-92355000D01*
X84931000Y-90429000D02*
X84931000Y-92451000D01*
X84891000Y-90342000D02*
X84891000Y-92538000D01*
X84851000Y-90262000D02*
X84851000Y-92618000D01*
X84811000Y-92480000D02*
X84811000Y-92691000D01*
X84811000Y-90189000D02*
X84811000Y-90400000D01*
X84771000Y-92480000D02*
X84771000Y-92759000D01*
X84771000Y-90121000D02*
X84771000Y-90400000D01*
X84731000Y-92480000D02*
X84731000Y-92823000D01*
X84731000Y-90057000D02*
X84731000Y-90400000D01*
X84691000Y-92480000D02*
X84691000Y-92883000D01*
X84691000Y-89997000D02*
X84691000Y-90400000D01*
X84651000Y-92480000D02*
X84651000Y-92940000D01*
X84651000Y-89940000D02*
X84651000Y-90400000D01*
X84611000Y-92480000D02*
X84611000Y-92994000D01*
X84611000Y-89886000D02*
X84611000Y-90400000D01*
X84571000Y-92480000D02*
X84571000Y-93045000D01*
X84571000Y-89835000D02*
X84571000Y-90400000D01*
X84531000Y-92480000D02*
X84531000Y-93093000D01*
X84531000Y-89787000D02*
X84531000Y-90400000D01*
X84491000Y-92480000D02*
X84491000Y-93139000D01*
X84491000Y-89741000D02*
X84491000Y-90400000D01*
X84451000Y-92480000D02*
X84451000Y-93183000D01*
X84451000Y-89697000D02*
X84451000Y-90400000D01*
X84411000Y-92480000D02*
X84411000Y-93225000D01*
X84411000Y-89655000D02*
X84411000Y-90400000D01*
X84371000Y-92480000D02*
X84371000Y-93266000D01*
X84371000Y-89614000D02*
X84371000Y-90400000D01*
X84331000Y-92480000D02*
X84331000Y-93304000D01*
X84331000Y-89576000D02*
X84331000Y-90400000D01*
X84291000Y-92480000D02*
X84291000Y-93341000D01*
X84291000Y-89539000D02*
X84291000Y-90400000D01*
X84251000Y-92480000D02*
X84251000Y-93377000D01*
X84251000Y-89503000D02*
X84251000Y-90400000D01*
X84211000Y-92480000D02*
X84211000Y-93411000D01*
X84211000Y-89469000D02*
X84211000Y-90400000D01*
X84171000Y-92480000D02*
X84171000Y-93444000D01*
X84171000Y-89436000D02*
X84171000Y-90400000D01*
X84131000Y-92480000D02*
X84131000Y-93475000D01*
X84131000Y-89405000D02*
X84131000Y-90400000D01*
X84091000Y-92480000D02*
X84091000Y-93505000D01*
X84091000Y-89375000D02*
X84091000Y-90400000D01*
X84051000Y-92480000D02*
X84051000Y-93535000D01*
X84051000Y-89345000D02*
X84051000Y-90400000D01*
X84011000Y-92480000D02*
X84011000Y-93562000D01*
X84011000Y-89318000D02*
X84011000Y-90400000D01*
X83971000Y-92480000D02*
X83971000Y-93589000D01*
X83971000Y-89291000D02*
X83971000Y-90400000D01*
X83931000Y-92480000D02*
X83931000Y-93615000D01*
X83931000Y-89265000D02*
X83931000Y-90400000D01*
X83891000Y-92480000D02*
X83891000Y-93640000D01*
X83891000Y-89240000D02*
X83891000Y-90400000D01*
X83851000Y-92480000D02*
X83851000Y-93664000D01*
X83851000Y-89216000D02*
X83851000Y-90400000D01*
X83811000Y-92480000D02*
X83811000Y-93687000D01*
X83811000Y-89193000D02*
X83811000Y-90400000D01*
X83771000Y-92480000D02*
X83771000Y-93708000D01*
X83771000Y-89172000D02*
X83771000Y-90400000D01*
X83731000Y-92480000D02*
X83731000Y-93730000D01*
X83731000Y-89150000D02*
X83731000Y-90400000D01*
X83691000Y-92480000D02*
X83691000Y-93750000D01*
X83691000Y-89130000D02*
X83691000Y-90400000D01*
X83651000Y-92480000D02*
X83651000Y-93769000D01*
X83651000Y-89111000D02*
X83651000Y-90400000D01*
X83611000Y-92480000D02*
X83611000Y-93788000D01*
X83611000Y-89092000D02*
X83611000Y-90400000D01*
X83571000Y-92480000D02*
X83571000Y-93805000D01*
X83571000Y-89075000D02*
X83571000Y-90400000D01*
X83531000Y-92480000D02*
X83531000Y-93822000D01*
X83531000Y-89058000D02*
X83531000Y-90400000D01*
X83491000Y-92480000D02*
X83491000Y-93838000D01*
X83491000Y-89042000D02*
X83491000Y-90400000D01*
X83451000Y-92480000D02*
X83451000Y-93854000D01*
X83451000Y-89026000D02*
X83451000Y-90400000D01*
X83411000Y-92480000D02*
X83411000Y-93868000D01*
X83411000Y-89012000D02*
X83411000Y-90400000D01*
X83371000Y-92480000D02*
X83371000Y-93882000D01*
X83371000Y-88998000D02*
X83371000Y-90400000D01*
X83331000Y-92480000D02*
X83331000Y-93895000D01*
X83331000Y-88985000D02*
X83331000Y-90400000D01*
X83291000Y-92480000D02*
X83291000Y-93908000D01*
X83291000Y-88972000D02*
X83291000Y-90400000D01*
X83251000Y-92480000D02*
X83251000Y-93920000D01*
X83251000Y-88960000D02*
X83251000Y-90400000D01*
X83210000Y-92480000D02*
X83210000Y-93931000D01*
X83210000Y-88949000D02*
X83210000Y-90400000D01*
X83170000Y-92480000D02*
X83170000Y-93941000D01*
X83170000Y-88939000D02*
X83170000Y-90400000D01*
X83130000Y-92480000D02*
X83130000Y-93951000D01*
X83130000Y-88929000D02*
X83130000Y-90400000D01*
X83090000Y-92480000D02*
X83090000Y-93960000D01*
X83090000Y-88920000D02*
X83090000Y-90400000D01*
X83050000Y-92480000D02*
X83050000Y-93968000D01*
X83050000Y-88912000D02*
X83050000Y-90400000D01*
X83010000Y-92480000D02*
X83010000Y-93976000D01*
X83010000Y-88904000D02*
X83010000Y-90400000D01*
X82970000Y-92480000D02*
X82970000Y-93983000D01*
X82970000Y-88897000D02*
X82970000Y-90400000D01*
X82930000Y-92480000D02*
X82930000Y-93990000D01*
X82930000Y-88890000D02*
X82930000Y-90400000D01*
X82890000Y-92480000D02*
X82890000Y-93996000D01*
X82890000Y-88884000D02*
X82890000Y-90400000D01*
X82850000Y-92480000D02*
X82850000Y-94001000D01*
X82850000Y-88879000D02*
X82850000Y-90400000D01*
X82810000Y-92480000D02*
X82810000Y-94005000D01*
X82810000Y-88875000D02*
X82810000Y-90400000D01*
X82770000Y-92480000D02*
X82770000Y-94009000D01*
X82770000Y-88871000D02*
X82770000Y-90400000D01*
X82730000Y-88867000D02*
X82730000Y-94013000D01*
X82690000Y-88864000D02*
X82690000Y-94016000D01*
X82650000Y-88862000D02*
X82650000Y-94018000D01*
X82610000Y-88861000D02*
X82610000Y-94019000D01*
X82570000Y-88860000D02*
X82570000Y-94020000D01*
X82530000Y-88860000D02*
X82530000Y-94020000D01*
X85150000Y-91440000D02*
G75*
G03X85150000Y-91440000I-2620000J0D01*
G01*
G04 #@! TO.C,C17*
X68005000Y-48260000D02*
G75*
G03X68005000Y-48260000I-2620000J0D01*
G01*
X65385000Y-45680000D02*
X65385000Y-50840000D01*
X65425000Y-45680000D02*
X65425000Y-50840000D01*
X65465000Y-45681000D02*
X65465000Y-50839000D01*
X65505000Y-45682000D02*
X65505000Y-50838000D01*
X65545000Y-45684000D02*
X65545000Y-50836000D01*
X65585000Y-45687000D02*
X65585000Y-50833000D01*
X65625000Y-45691000D02*
X65625000Y-47220000D01*
X65625000Y-49300000D02*
X65625000Y-50829000D01*
X65665000Y-45695000D02*
X65665000Y-47220000D01*
X65665000Y-49300000D02*
X65665000Y-50825000D01*
X65705000Y-45699000D02*
X65705000Y-47220000D01*
X65705000Y-49300000D02*
X65705000Y-50821000D01*
X65745000Y-45704000D02*
X65745000Y-47220000D01*
X65745000Y-49300000D02*
X65745000Y-50816000D01*
X65785000Y-45710000D02*
X65785000Y-47220000D01*
X65785000Y-49300000D02*
X65785000Y-50810000D01*
X65825000Y-45717000D02*
X65825000Y-47220000D01*
X65825000Y-49300000D02*
X65825000Y-50803000D01*
X65865000Y-45724000D02*
X65865000Y-47220000D01*
X65865000Y-49300000D02*
X65865000Y-50796000D01*
X65905000Y-45732000D02*
X65905000Y-47220000D01*
X65905000Y-49300000D02*
X65905000Y-50788000D01*
X65945000Y-45740000D02*
X65945000Y-47220000D01*
X65945000Y-49300000D02*
X65945000Y-50780000D01*
X65985000Y-45749000D02*
X65985000Y-47220000D01*
X65985000Y-49300000D02*
X65985000Y-50771000D01*
X66025000Y-45759000D02*
X66025000Y-47220000D01*
X66025000Y-49300000D02*
X66025000Y-50761000D01*
X66065000Y-45769000D02*
X66065000Y-47220000D01*
X66065000Y-49300000D02*
X66065000Y-50751000D01*
X66106000Y-45780000D02*
X66106000Y-47220000D01*
X66106000Y-49300000D02*
X66106000Y-50740000D01*
X66146000Y-45792000D02*
X66146000Y-47220000D01*
X66146000Y-49300000D02*
X66146000Y-50728000D01*
X66186000Y-45805000D02*
X66186000Y-47220000D01*
X66186000Y-49300000D02*
X66186000Y-50715000D01*
X66226000Y-45818000D02*
X66226000Y-47220000D01*
X66226000Y-49300000D02*
X66226000Y-50702000D01*
X66266000Y-45832000D02*
X66266000Y-47220000D01*
X66266000Y-49300000D02*
X66266000Y-50688000D01*
X66306000Y-45846000D02*
X66306000Y-47220000D01*
X66306000Y-49300000D02*
X66306000Y-50674000D01*
X66346000Y-45862000D02*
X66346000Y-47220000D01*
X66346000Y-49300000D02*
X66346000Y-50658000D01*
X66386000Y-45878000D02*
X66386000Y-47220000D01*
X66386000Y-49300000D02*
X66386000Y-50642000D01*
X66426000Y-45895000D02*
X66426000Y-47220000D01*
X66426000Y-49300000D02*
X66426000Y-50625000D01*
X66466000Y-45912000D02*
X66466000Y-47220000D01*
X66466000Y-49300000D02*
X66466000Y-50608000D01*
X66506000Y-45931000D02*
X66506000Y-47220000D01*
X66506000Y-49300000D02*
X66506000Y-50589000D01*
X66546000Y-45950000D02*
X66546000Y-47220000D01*
X66546000Y-49300000D02*
X66546000Y-50570000D01*
X66586000Y-45970000D02*
X66586000Y-47220000D01*
X66586000Y-49300000D02*
X66586000Y-50550000D01*
X66626000Y-45992000D02*
X66626000Y-47220000D01*
X66626000Y-49300000D02*
X66626000Y-50528000D01*
X66666000Y-46013000D02*
X66666000Y-47220000D01*
X66666000Y-49300000D02*
X66666000Y-50507000D01*
X66706000Y-46036000D02*
X66706000Y-47220000D01*
X66706000Y-49300000D02*
X66706000Y-50484000D01*
X66746000Y-46060000D02*
X66746000Y-47220000D01*
X66746000Y-49300000D02*
X66746000Y-50460000D01*
X66786000Y-46085000D02*
X66786000Y-47220000D01*
X66786000Y-49300000D02*
X66786000Y-50435000D01*
X66826000Y-46111000D02*
X66826000Y-47220000D01*
X66826000Y-49300000D02*
X66826000Y-50409000D01*
X66866000Y-46138000D02*
X66866000Y-47220000D01*
X66866000Y-49300000D02*
X66866000Y-50382000D01*
X66906000Y-46165000D02*
X66906000Y-47220000D01*
X66906000Y-49300000D02*
X66906000Y-50355000D01*
X66946000Y-46195000D02*
X66946000Y-47220000D01*
X66946000Y-49300000D02*
X66946000Y-50325000D01*
X66986000Y-46225000D02*
X66986000Y-47220000D01*
X66986000Y-49300000D02*
X66986000Y-50295000D01*
X67026000Y-46256000D02*
X67026000Y-47220000D01*
X67026000Y-49300000D02*
X67026000Y-50264000D01*
X67066000Y-46289000D02*
X67066000Y-47220000D01*
X67066000Y-49300000D02*
X67066000Y-50231000D01*
X67106000Y-46323000D02*
X67106000Y-47220000D01*
X67106000Y-49300000D02*
X67106000Y-50197000D01*
X67146000Y-46359000D02*
X67146000Y-47220000D01*
X67146000Y-49300000D02*
X67146000Y-50161000D01*
X67186000Y-46396000D02*
X67186000Y-47220000D01*
X67186000Y-49300000D02*
X67186000Y-50124000D01*
X67226000Y-46434000D02*
X67226000Y-47220000D01*
X67226000Y-49300000D02*
X67226000Y-50086000D01*
X67266000Y-46475000D02*
X67266000Y-47220000D01*
X67266000Y-49300000D02*
X67266000Y-50045000D01*
X67306000Y-46517000D02*
X67306000Y-47220000D01*
X67306000Y-49300000D02*
X67306000Y-50003000D01*
X67346000Y-46561000D02*
X67346000Y-47220000D01*
X67346000Y-49300000D02*
X67346000Y-49959000D01*
X67386000Y-46607000D02*
X67386000Y-47220000D01*
X67386000Y-49300000D02*
X67386000Y-49913000D01*
X67426000Y-46655000D02*
X67426000Y-47220000D01*
X67426000Y-49300000D02*
X67426000Y-49865000D01*
X67466000Y-46706000D02*
X67466000Y-47220000D01*
X67466000Y-49300000D02*
X67466000Y-49814000D01*
X67506000Y-46760000D02*
X67506000Y-47220000D01*
X67506000Y-49300000D02*
X67506000Y-49760000D01*
X67546000Y-46817000D02*
X67546000Y-47220000D01*
X67546000Y-49300000D02*
X67546000Y-49703000D01*
X67586000Y-46877000D02*
X67586000Y-47220000D01*
X67586000Y-49300000D02*
X67586000Y-49643000D01*
X67626000Y-46941000D02*
X67626000Y-47220000D01*
X67626000Y-49300000D02*
X67626000Y-49579000D01*
X67666000Y-47009000D02*
X67666000Y-47220000D01*
X67666000Y-49300000D02*
X67666000Y-49511000D01*
X67706000Y-47082000D02*
X67706000Y-49438000D01*
X67746000Y-47162000D02*
X67746000Y-49358000D01*
X67786000Y-47249000D02*
X67786000Y-49271000D01*
X67826000Y-47345000D02*
X67826000Y-49175000D01*
X67866000Y-47455000D02*
X67866000Y-49065000D01*
X67906000Y-47583000D02*
X67906000Y-48937000D01*
X67946000Y-47742000D02*
X67946000Y-48778000D01*
X67986000Y-47976000D02*
X67986000Y-48544000D01*
X62580225Y-46785000D02*
X63080225Y-46785000D01*
X62830225Y-46535000D02*
X62830225Y-47035000D01*
G04 #@! TO.C,C15*
X83720000Y-98960000D02*
X91460000Y-98960000D01*
X83720000Y-101700000D02*
X91460000Y-101700000D01*
X83720000Y-98960000D02*
X83720000Y-101700000D01*
X91460000Y-98960000D02*
X91460000Y-101700000D01*
G04 #@! TO.C,D2*
X87770000Y-111430000D02*
X87770000Y-112230000D01*
X92420000Y-111430000D02*
X87770000Y-111430000D01*
X92420000Y-114630000D02*
X87770000Y-114630000D01*
G04 #@! TO.C,D5*
X98770000Y-120980000D02*
X94120000Y-120980000D01*
X98770000Y-117780000D02*
X94120000Y-117780000D01*
X94120000Y-117780000D02*
X94120000Y-118580000D01*
G04 #@! TO.C,D6*
X94120000Y-124130000D02*
X94120000Y-124930000D01*
X98770000Y-124130000D02*
X94120000Y-124130000D01*
X98770000Y-127330000D02*
X94120000Y-127330000D01*
G04 #@! TO.C,RN2*
X106460000Y-117980000D02*
X104360000Y-117980000D01*
X106460000Y-123320000D02*
X104360000Y-123320000D01*
G04 #@! TO.C,RN3*
X106460000Y-114430000D02*
X104360000Y-114430000D01*
X106460000Y-109090000D02*
X104360000Y-109090000D01*
G04 #@! TO.C,J2*
X72330000Y-127060000D02*
X74990000Y-127060000D01*
X72330000Y-119380000D02*
X72330000Y-127060000D01*
X74990000Y-119380000D02*
X74990000Y-127060000D01*
X72330000Y-119380000D02*
X74990000Y-119380000D01*
X72330000Y-118110000D02*
X72330000Y-116780000D01*
X72330000Y-116780000D02*
X73660000Y-116780000D01*
G04 #@! TO.C,D4*
X87770000Y-124130000D02*
X87770000Y-124930000D01*
X92420000Y-124130000D02*
X87770000Y-124130000D01*
X92420000Y-127330000D02*
X87770000Y-127330000D01*
G04 #@! TO.C,D3*
X92420000Y-120980000D02*
X87770000Y-120980000D01*
X92420000Y-117780000D02*
X87770000Y-117780000D01*
X87770000Y-117780000D02*
X87770000Y-118580000D01*
G04 #@! TO.C,C13*
X109280000Y-88900000D02*
G75*
G03X109280000Y-88900000I-2620000J0D01*
G01*
X106660000Y-86320000D02*
X106660000Y-91480000D01*
X106700000Y-86320000D02*
X106700000Y-91480000D01*
X106740000Y-86321000D02*
X106740000Y-91479000D01*
X106780000Y-86322000D02*
X106780000Y-91478000D01*
X106820000Y-86324000D02*
X106820000Y-91476000D01*
X106860000Y-86327000D02*
X106860000Y-91473000D01*
X106900000Y-86331000D02*
X106900000Y-87860000D01*
X106900000Y-89940000D02*
X106900000Y-91469000D01*
X106940000Y-86335000D02*
X106940000Y-87860000D01*
X106940000Y-89940000D02*
X106940000Y-91465000D01*
X106980000Y-86339000D02*
X106980000Y-87860000D01*
X106980000Y-89940000D02*
X106980000Y-91461000D01*
X107020000Y-86344000D02*
X107020000Y-87860000D01*
X107020000Y-89940000D02*
X107020000Y-91456000D01*
X107060000Y-86350000D02*
X107060000Y-87860000D01*
X107060000Y-89940000D02*
X107060000Y-91450000D01*
X107100000Y-86357000D02*
X107100000Y-87860000D01*
X107100000Y-89940000D02*
X107100000Y-91443000D01*
X107140000Y-86364000D02*
X107140000Y-87860000D01*
X107140000Y-89940000D02*
X107140000Y-91436000D01*
X107180000Y-86372000D02*
X107180000Y-87860000D01*
X107180000Y-89940000D02*
X107180000Y-91428000D01*
X107220000Y-86380000D02*
X107220000Y-87860000D01*
X107220000Y-89940000D02*
X107220000Y-91420000D01*
X107260000Y-86389000D02*
X107260000Y-87860000D01*
X107260000Y-89940000D02*
X107260000Y-91411000D01*
X107300000Y-86399000D02*
X107300000Y-87860000D01*
X107300000Y-89940000D02*
X107300000Y-91401000D01*
X107340000Y-86409000D02*
X107340000Y-87860000D01*
X107340000Y-89940000D02*
X107340000Y-91391000D01*
X107381000Y-86420000D02*
X107381000Y-87860000D01*
X107381000Y-89940000D02*
X107381000Y-91380000D01*
X107421000Y-86432000D02*
X107421000Y-87860000D01*
X107421000Y-89940000D02*
X107421000Y-91368000D01*
X107461000Y-86445000D02*
X107461000Y-87860000D01*
X107461000Y-89940000D02*
X107461000Y-91355000D01*
X107501000Y-86458000D02*
X107501000Y-87860000D01*
X107501000Y-89940000D02*
X107501000Y-91342000D01*
X107541000Y-86472000D02*
X107541000Y-87860000D01*
X107541000Y-89940000D02*
X107541000Y-91328000D01*
X107581000Y-86486000D02*
X107581000Y-87860000D01*
X107581000Y-89940000D02*
X107581000Y-91314000D01*
X107621000Y-86502000D02*
X107621000Y-87860000D01*
X107621000Y-89940000D02*
X107621000Y-91298000D01*
X107661000Y-86518000D02*
X107661000Y-87860000D01*
X107661000Y-89940000D02*
X107661000Y-91282000D01*
X107701000Y-86535000D02*
X107701000Y-87860000D01*
X107701000Y-89940000D02*
X107701000Y-91265000D01*
X107741000Y-86552000D02*
X107741000Y-87860000D01*
X107741000Y-89940000D02*
X107741000Y-91248000D01*
X107781000Y-86571000D02*
X107781000Y-87860000D01*
X107781000Y-89940000D02*
X107781000Y-91229000D01*
X107821000Y-86590000D02*
X107821000Y-87860000D01*
X107821000Y-89940000D02*
X107821000Y-91210000D01*
X107861000Y-86610000D02*
X107861000Y-87860000D01*
X107861000Y-89940000D02*
X107861000Y-91190000D01*
X107901000Y-86632000D02*
X107901000Y-87860000D01*
X107901000Y-89940000D02*
X107901000Y-91168000D01*
X107941000Y-86653000D02*
X107941000Y-87860000D01*
X107941000Y-89940000D02*
X107941000Y-91147000D01*
X107981000Y-86676000D02*
X107981000Y-87860000D01*
X107981000Y-89940000D02*
X107981000Y-91124000D01*
X108021000Y-86700000D02*
X108021000Y-87860000D01*
X108021000Y-89940000D02*
X108021000Y-91100000D01*
X108061000Y-86725000D02*
X108061000Y-87860000D01*
X108061000Y-89940000D02*
X108061000Y-91075000D01*
X108101000Y-86751000D02*
X108101000Y-87860000D01*
X108101000Y-89940000D02*
X108101000Y-91049000D01*
X108141000Y-86778000D02*
X108141000Y-87860000D01*
X108141000Y-89940000D02*
X108141000Y-91022000D01*
X108181000Y-86805000D02*
X108181000Y-87860000D01*
X108181000Y-89940000D02*
X108181000Y-90995000D01*
X108221000Y-86835000D02*
X108221000Y-87860000D01*
X108221000Y-89940000D02*
X108221000Y-90965000D01*
X108261000Y-86865000D02*
X108261000Y-87860000D01*
X108261000Y-89940000D02*
X108261000Y-90935000D01*
X108301000Y-86896000D02*
X108301000Y-87860000D01*
X108301000Y-89940000D02*
X108301000Y-90904000D01*
X108341000Y-86929000D02*
X108341000Y-87860000D01*
X108341000Y-89940000D02*
X108341000Y-90871000D01*
X108381000Y-86963000D02*
X108381000Y-87860000D01*
X108381000Y-89940000D02*
X108381000Y-90837000D01*
X108421000Y-86999000D02*
X108421000Y-87860000D01*
X108421000Y-89940000D02*
X108421000Y-90801000D01*
X108461000Y-87036000D02*
X108461000Y-87860000D01*
X108461000Y-89940000D02*
X108461000Y-90764000D01*
X108501000Y-87074000D02*
X108501000Y-87860000D01*
X108501000Y-89940000D02*
X108501000Y-90726000D01*
X108541000Y-87115000D02*
X108541000Y-87860000D01*
X108541000Y-89940000D02*
X108541000Y-90685000D01*
X108581000Y-87157000D02*
X108581000Y-87860000D01*
X108581000Y-89940000D02*
X108581000Y-90643000D01*
X108621000Y-87201000D02*
X108621000Y-87860000D01*
X108621000Y-89940000D02*
X108621000Y-90599000D01*
X108661000Y-87247000D02*
X108661000Y-87860000D01*
X108661000Y-89940000D02*
X108661000Y-90553000D01*
X108701000Y-87295000D02*
X108701000Y-87860000D01*
X108701000Y-89940000D02*
X108701000Y-90505000D01*
X108741000Y-87346000D02*
X108741000Y-87860000D01*
X108741000Y-89940000D02*
X108741000Y-90454000D01*
X108781000Y-87400000D02*
X108781000Y-87860000D01*
X108781000Y-89940000D02*
X108781000Y-90400000D01*
X108821000Y-87457000D02*
X108821000Y-87860000D01*
X108821000Y-89940000D02*
X108821000Y-90343000D01*
X108861000Y-87517000D02*
X108861000Y-87860000D01*
X108861000Y-89940000D02*
X108861000Y-90283000D01*
X108901000Y-87581000D02*
X108901000Y-87860000D01*
X108901000Y-89940000D02*
X108901000Y-90219000D01*
X108941000Y-87649000D02*
X108941000Y-87860000D01*
X108941000Y-89940000D02*
X108941000Y-90151000D01*
X108981000Y-87722000D02*
X108981000Y-90078000D01*
X109021000Y-87802000D02*
X109021000Y-89998000D01*
X109061000Y-87889000D02*
X109061000Y-89911000D01*
X109101000Y-87985000D02*
X109101000Y-89815000D01*
X109141000Y-88095000D02*
X109141000Y-89705000D01*
X109181000Y-88223000D02*
X109181000Y-89577000D01*
X109221000Y-88382000D02*
X109221000Y-89418000D01*
X109261000Y-88616000D02*
X109261000Y-89184000D01*
X103855225Y-87425000D02*
X104355225Y-87425000D01*
X104105225Y-87175000D02*
X104105225Y-87675000D01*
G04 #@! TO.C,C12*
X118075225Y-49075000D02*
X118075225Y-49575000D01*
X117825225Y-49325000D02*
X118325225Y-49325000D01*
X123231000Y-50516000D02*
X123231000Y-51084000D01*
X123191000Y-50282000D02*
X123191000Y-51318000D01*
X123151000Y-50123000D02*
X123151000Y-51477000D01*
X123111000Y-49995000D02*
X123111000Y-51605000D01*
X123071000Y-49885000D02*
X123071000Y-51715000D01*
X123031000Y-49789000D02*
X123031000Y-51811000D01*
X122991000Y-49702000D02*
X122991000Y-51898000D01*
X122951000Y-49622000D02*
X122951000Y-51978000D01*
X122911000Y-51840000D02*
X122911000Y-52051000D01*
X122911000Y-49549000D02*
X122911000Y-49760000D01*
X122871000Y-51840000D02*
X122871000Y-52119000D01*
X122871000Y-49481000D02*
X122871000Y-49760000D01*
X122831000Y-51840000D02*
X122831000Y-52183000D01*
X122831000Y-49417000D02*
X122831000Y-49760000D01*
X122791000Y-51840000D02*
X122791000Y-52243000D01*
X122791000Y-49357000D02*
X122791000Y-49760000D01*
X122751000Y-51840000D02*
X122751000Y-52300000D01*
X122751000Y-49300000D02*
X122751000Y-49760000D01*
X122711000Y-51840000D02*
X122711000Y-52354000D01*
X122711000Y-49246000D02*
X122711000Y-49760000D01*
X122671000Y-51840000D02*
X122671000Y-52405000D01*
X122671000Y-49195000D02*
X122671000Y-49760000D01*
X122631000Y-51840000D02*
X122631000Y-52453000D01*
X122631000Y-49147000D02*
X122631000Y-49760000D01*
X122591000Y-51840000D02*
X122591000Y-52499000D01*
X122591000Y-49101000D02*
X122591000Y-49760000D01*
X122551000Y-51840000D02*
X122551000Y-52543000D01*
X122551000Y-49057000D02*
X122551000Y-49760000D01*
X122511000Y-51840000D02*
X122511000Y-52585000D01*
X122511000Y-49015000D02*
X122511000Y-49760000D01*
X122471000Y-51840000D02*
X122471000Y-52626000D01*
X122471000Y-48974000D02*
X122471000Y-49760000D01*
X122431000Y-51840000D02*
X122431000Y-52664000D01*
X122431000Y-48936000D02*
X122431000Y-49760000D01*
X122391000Y-51840000D02*
X122391000Y-52701000D01*
X122391000Y-48899000D02*
X122391000Y-49760000D01*
X122351000Y-51840000D02*
X122351000Y-52737000D01*
X122351000Y-48863000D02*
X122351000Y-49760000D01*
X122311000Y-51840000D02*
X122311000Y-52771000D01*
X122311000Y-48829000D02*
X122311000Y-49760000D01*
X122271000Y-51840000D02*
X122271000Y-52804000D01*
X122271000Y-48796000D02*
X122271000Y-49760000D01*
X122231000Y-51840000D02*
X122231000Y-52835000D01*
X122231000Y-48765000D02*
X122231000Y-49760000D01*
X122191000Y-51840000D02*
X122191000Y-52865000D01*
X122191000Y-48735000D02*
X122191000Y-49760000D01*
X122151000Y-51840000D02*
X122151000Y-52895000D01*
X122151000Y-48705000D02*
X122151000Y-49760000D01*
X122111000Y-51840000D02*
X122111000Y-52922000D01*
X122111000Y-48678000D02*
X122111000Y-49760000D01*
X122071000Y-51840000D02*
X122071000Y-52949000D01*
X122071000Y-48651000D02*
X122071000Y-49760000D01*
X122031000Y-51840000D02*
X122031000Y-52975000D01*
X122031000Y-48625000D02*
X122031000Y-49760000D01*
X121991000Y-51840000D02*
X121991000Y-53000000D01*
X121991000Y-48600000D02*
X121991000Y-49760000D01*
X121951000Y-51840000D02*
X121951000Y-53024000D01*
X121951000Y-48576000D02*
X121951000Y-49760000D01*
X121911000Y-51840000D02*
X121911000Y-53047000D01*
X121911000Y-48553000D02*
X121911000Y-49760000D01*
X121871000Y-51840000D02*
X121871000Y-53068000D01*
X121871000Y-48532000D02*
X121871000Y-49760000D01*
X121831000Y-51840000D02*
X121831000Y-53090000D01*
X121831000Y-48510000D02*
X121831000Y-49760000D01*
X121791000Y-51840000D02*
X121791000Y-53110000D01*
X121791000Y-48490000D02*
X121791000Y-49760000D01*
X121751000Y-51840000D02*
X121751000Y-53129000D01*
X121751000Y-48471000D02*
X121751000Y-49760000D01*
X121711000Y-51840000D02*
X121711000Y-53148000D01*
X121711000Y-48452000D02*
X121711000Y-49760000D01*
X121671000Y-51840000D02*
X121671000Y-53165000D01*
X121671000Y-48435000D02*
X121671000Y-49760000D01*
X121631000Y-51840000D02*
X121631000Y-53182000D01*
X121631000Y-48418000D02*
X121631000Y-49760000D01*
X121591000Y-51840000D02*
X121591000Y-53198000D01*
X121591000Y-48402000D02*
X121591000Y-49760000D01*
X121551000Y-51840000D02*
X121551000Y-53214000D01*
X121551000Y-48386000D02*
X121551000Y-49760000D01*
X121511000Y-51840000D02*
X121511000Y-53228000D01*
X121511000Y-48372000D02*
X121511000Y-49760000D01*
X121471000Y-51840000D02*
X121471000Y-53242000D01*
X121471000Y-48358000D02*
X121471000Y-49760000D01*
X121431000Y-51840000D02*
X121431000Y-53255000D01*
X121431000Y-48345000D02*
X121431000Y-49760000D01*
X121391000Y-51840000D02*
X121391000Y-53268000D01*
X121391000Y-48332000D02*
X121391000Y-49760000D01*
X121351000Y-51840000D02*
X121351000Y-53280000D01*
X121351000Y-48320000D02*
X121351000Y-49760000D01*
X121310000Y-51840000D02*
X121310000Y-53291000D01*
X121310000Y-48309000D02*
X121310000Y-49760000D01*
X121270000Y-51840000D02*
X121270000Y-53301000D01*
X121270000Y-48299000D02*
X121270000Y-49760000D01*
X121230000Y-51840000D02*
X121230000Y-53311000D01*
X121230000Y-48289000D02*
X121230000Y-49760000D01*
X121190000Y-51840000D02*
X121190000Y-53320000D01*
X121190000Y-48280000D02*
X121190000Y-49760000D01*
X121150000Y-51840000D02*
X121150000Y-53328000D01*
X121150000Y-48272000D02*
X121150000Y-49760000D01*
X121110000Y-51840000D02*
X121110000Y-53336000D01*
X121110000Y-48264000D02*
X121110000Y-49760000D01*
X121070000Y-51840000D02*
X121070000Y-53343000D01*
X121070000Y-48257000D02*
X121070000Y-49760000D01*
X121030000Y-51840000D02*
X121030000Y-53350000D01*
X121030000Y-48250000D02*
X121030000Y-49760000D01*
X120990000Y-51840000D02*
X120990000Y-53356000D01*
X120990000Y-48244000D02*
X120990000Y-49760000D01*
X120950000Y-51840000D02*
X120950000Y-53361000D01*
X120950000Y-48239000D02*
X120950000Y-49760000D01*
X120910000Y-51840000D02*
X120910000Y-53365000D01*
X120910000Y-48235000D02*
X120910000Y-49760000D01*
X120870000Y-51840000D02*
X120870000Y-53369000D01*
X120870000Y-48231000D02*
X120870000Y-49760000D01*
X120830000Y-48227000D02*
X120830000Y-53373000D01*
X120790000Y-48224000D02*
X120790000Y-53376000D01*
X120750000Y-48222000D02*
X120750000Y-53378000D01*
X120710000Y-48221000D02*
X120710000Y-53379000D01*
X120670000Y-48220000D02*
X120670000Y-53380000D01*
X120630000Y-48220000D02*
X120630000Y-53380000D01*
X123250000Y-50800000D02*
G75*
G03X123250000Y-50800000I-2620000J0D01*
G01*
G04 #@! TO.C,C14*
X77530000Y-59690000D02*
G75*
G03X77530000Y-59690000I-2620000J0D01*
G01*
X74910000Y-57110000D02*
X74910000Y-62270000D01*
X74950000Y-57110000D02*
X74950000Y-62270000D01*
X74990000Y-57111000D02*
X74990000Y-62269000D01*
X75030000Y-57112000D02*
X75030000Y-62268000D01*
X75070000Y-57114000D02*
X75070000Y-62266000D01*
X75110000Y-57117000D02*
X75110000Y-62263000D01*
X75150000Y-57121000D02*
X75150000Y-58650000D01*
X75150000Y-60730000D02*
X75150000Y-62259000D01*
X75190000Y-57125000D02*
X75190000Y-58650000D01*
X75190000Y-60730000D02*
X75190000Y-62255000D01*
X75230000Y-57129000D02*
X75230000Y-58650000D01*
X75230000Y-60730000D02*
X75230000Y-62251000D01*
X75270000Y-57134000D02*
X75270000Y-58650000D01*
X75270000Y-60730000D02*
X75270000Y-62246000D01*
X75310000Y-57140000D02*
X75310000Y-58650000D01*
X75310000Y-60730000D02*
X75310000Y-62240000D01*
X75350000Y-57147000D02*
X75350000Y-58650000D01*
X75350000Y-60730000D02*
X75350000Y-62233000D01*
X75390000Y-57154000D02*
X75390000Y-58650000D01*
X75390000Y-60730000D02*
X75390000Y-62226000D01*
X75430000Y-57162000D02*
X75430000Y-58650000D01*
X75430000Y-60730000D02*
X75430000Y-62218000D01*
X75470000Y-57170000D02*
X75470000Y-58650000D01*
X75470000Y-60730000D02*
X75470000Y-62210000D01*
X75510000Y-57179000D02*
X75510000Y-58650000D01*
X75510000Y-60730000D02*
X75510000Y-62201000D01*
X75550000Y-57189000D02*
X75550000Y-58650000D01*
X75550000Y-60730000D02*
X75550000Y-62191000D01*
X75590000Y-57199000D02*
X75590000Y-58650000D01*
X75590000Y-60730000D02*
X75590000Y-62181000D01*
X75631000Y-57210000D02*
X75631000Y-58650000D01*
X75631000Y-60730000D02*
X75631000Y-62170000D01*
X75671000Y-57222000D02*
X75671000Y-58650000D01*
X75671000Y-60730000D02*
X75671000Y-62158000D01*
X75711000Y-57235000D02*
X75711000Y-58650000D01*
X75711000Y-60730000D02*
X75711000Y-62145000D01*
X75751000Y-57248000D02*
X75751000Y-58650000D01*
X75751000Y-60730000D02*
X75751000Y-62132000D01*
X75791000Y-57262000D02*
X75791000Y-58650000D01*
X75791000Y-60730000D02*
X75791000Y-62118000D01*
X75831000Y-57276000D02*
X75831000Y-58650000D01*
X75831000Y-60730000D02*
X75831000Y-62104000D01*
X75871000Y-57292000D02*
X75871000Y-58650000D01*
X75871000Y-60730000D02*
X75871000Y-62088000D01*
X75911000Y-57308000D02*
X75911000Y-58650000D01*
X75911000Y-60730000D02*
X75911000Y-62072000D01*
X75951000Y-57325000D02*
X75951000Y-58650000D01*
X75951000Y-60730000D02*
X75951000Y-62055000D01*
X75991000Y-57342000D02*
X75991000Y-58650000D01*
X75991000Y-60730000D02*
X75991000Y-62038000D01*
X76031000Y-57361000D02*
X76031000Y-58650000D01*
X76031000Y-60730000D02*
X76031000Y-62019000D01*
X76071000Y-57380000D02*
X76071000Y-58650000D01*
X76071000Y-60730000D02*
X76071000Y-62000000D01*
X76111000Y-57400000D02*
X76111000Y-58650000D01*
X76111000Y-60730000D02*
X76111000Y-61980000D01*
X76151000Y-57422000D02*
X76151000Y-58650000D01*
X76151000Y-60730000D02*
X76151000Y-61958000D01*
X76191000Y-57443000D02*
X76191000Y-58650000D01*
X76191000Y-60730000D02*
X76191000Y-61937000D01*
X76231000Y-57466000D02*
X76231000Y-58650000D01*
X76231000Y-60730000D02*
X76231000Y-61914000D01*
X76271000Y-57490000D02*
X76271000Y-58650000D01*
X76271000Y-60730000D02*
X76271000Y-61890000D01*
X76311000Y-57515000D02*
X76311000Y-58650000D01*
X76311000Y-60730000D02*
X76311000Y-61865000D01*
X76351000Y-57541000D02*
X76351000Y-58650000D01*
X76351000Y-60730000D02*
X76351000Y-61839000D01*
X76391000Y-57568000D02*
X76391000Y-58650000D01*
X76391000Y-60730000D02*
X76391000Y-61812000D01*
X76431000Y-57595000D02*
X76431000Y-58650000D01*
X76431000Y-60730000D02*
X76431000Y-61785000D01*
X76471000Y-57625000D02*
X76471000Y-58650000D01*
X76471000Y-60730000D02*
X76471000Y-61755000D01*
X76511000Y-57655000D02*
X76511000Y-58650000D01*
X76511000Y-60730000D02*
X76511000Y-61725000D01*
X76551000Y-57686000D02*
X76551000Y-58650000D01*
X76551000Y-60730000D02*
X76551000Y-61694000D01*
X76591000Y-57719000D02*
X76591000Y-58650000D01*
X76591000Y-60730000D02*
X76591000Y-61661000D01*
X76631000Y-57753000D02*
X76631000Y-58650000D01*
X76631000Y-60730000D02*
X76631000Y-61627000D01*
X76671000Y-57789000D02*
X76671000Y-58650000D01*
X76671000Y-60730000D02*
X76671000Y-61591000D01*
X76711000Y-57826000D02*
X76711000Y-58650000D01*
X76711000Y-60730000D02*
X76711000Y-61554000D01*
X76751000Y-57864000D02*
X76751000Y-58650000D01*
X76751000Y-60730000D02*
X76751000Y-61516000D01*
X76791000Y-57905000D02*
X76791000Y-58650000D01*
X76791000Y-60730000D02*
X76791000Y-61475000D01*
X76831000Y-57947000D02*
X76831000Y-58650000D01*
X76831000Y-60730000D02*
X76831000Y-61433000D01*
X76871000Y-57991000D02*
X76871000Y-58650000D01*
X76871000Y-60730000D02*
X76871000Y-61389000D01*
X76911000Y-58037000D02*
X76911000Y-58650000D01*
X76911000Y-60730000D02*
X76911000Y-61343000D01*
X76951000Y-58085000D02*
X76951000Y-58650000D01*
X76951000Y-60730000D02*
X76951000Y-61295000D01*
X76991000Y-58136000D02*
X76991000Y-58650000D01*
X76991000Y-60730000D02*
X76991000Y-61244000D01*
X77031000Y-58190000D02*
X77031000Y-58650000D01*
X77031000Y-60730000D02*
X77031000Y-61190000D01*
X77071000Y-58247000D02*
X77071000Y-58650000D01*
X77071000Y-60730000D02*
X77071000Y-61133000D01*
X77111000Y-58307000D02*
X77111000Y-58650000D01*
X77111000Y-60730000D02*
X77111000Y-61073000D01*
X77151000Y-58371000D02*
X77151000Y-58650000D01*
X77151000Y-60730000D02*
X77151000Y-61009000D01*
X77191000Y-58439000D02*
X77191000Y-58650000D01*
X77191000Y-60730000D02*
X77191000Y-60941000D01*
X77231000Y-58512000D02*
X77231000Y-60868000D01*
X77271000Y-58592000D02*
X77271000Y-60788000D01*
X77311000Y-58679000D02*
X77311000Y-60701000D01*
X77351000Y-58775000D02*
X77351000Y-60605000D01*
X77391000Y-58885000D02*
X77391000Y-60495000D01*
X77431000Y-59013000D02*
X77431000Y-60367000D01*
X77471000Y-59172000D02*
X77471000Y-60208000D01*
X77511000Y-59406000D02*
X77511000Y-59974000D01*
X72105225Y-58215000D02*
X72605225Y-58215000D01*
X72355225Y-57965000D02*
X72355225Y-58465000D01*
G04 #@! TO.C,U10*
X88780000Y-91380000D02*
X89280000Y-91380000D01*
X89280000Y-91380000D02*
X89280000Y-91880000D01*
X89280000Y-96080000D02*
X89280000Y-96580000D01*
X89280000Y-96580000D02*
X88780000Y-96580000D01*
X86480000Y-96580000D02*
X85980000Y-96580000D01*
X85980000Y-96580000D02*
X85980000Y-96080000D01*
X86080000Y-91380000D02*
X87030000Y-91380000D01*
G04 #@! TO.C,C8*
X78840000Y-78840000D02*
X71100000Y-78840000D01*
X78840000Y-76100000D02*
X71100000Y-76100000D01*
X78840000Y-78840000D02*
X78840000Y-76100000D01*
X71100000Y-78840000D02*
X71100000Y-76100000D01*
G04 #@! TO.C,C11*
X90772064Y-59780000D02*
X89567936Y-59780000D01*
X90772064Y-57060000D02*
X89567936Y-57060000D01*
G04 #@! TO.C,C10*
X85757936Y-40730000D02*
X86962064Y-40730000D01*
X85757936Y-38010000D02*
X86962064Y-38010000D01*
G04 #@! TO.C,C9*
X73275436Y-51980000D02*
X74479564Y-51980000D01*
X73275436Y-54700000D02*
X74479564Y-54700000D01*
G04 #@! TO.C,C7*
X83217936Y-63410000D02*
X84422064Y-63410000D01*
X83217936Y-66130000D02*
X84422064Y-66130000D01*
G04 #@! TO.C,C6*
X89567936Y-66130000D02*
X90772064Y-66130000D01*
X89567936Y-63410000D02*
X90772064Y-63410000D01*
G04 #@! TO.C,C5*
X74262064Y-44540000D02*
X73057936Y-44540000D01*
X74262064Y-41820000D02*
X73057936Y-41820000D01*
D11*
G04 #@! TO.C,U8*
X94445000Y-69210000D02*
X94445000Y-69235000D01*
X98595000Y-69210000D02*
X98595000Y-69325000D01*
X98595000Y-78110000D02*
X98595000Y-77995000D01*
X94445000Y-78110000D02*
X94445000Y-77995000D01*
X94445000Y-69210000D02*
X98595000Y-69210000D01*
X94445000Y-78110000D02*
X98595000Y-78110000D01*
X94445000Y-69235000D02*
X93070000Y-69235000D01*
D12*
G04 #@! TO.C,TP6*
X65635000Y-56515000D02*
G75*
G03X65635000Y-56515000I-1500000J0D01*
G01*
G04 #@! TO.C,TP13*
X118340000Y-45720000D02*
G75*
G03X118340000Y-45720000I-1500000J0D01*
G01*
G04 #@! TO.C,TP12*
X81510000Y-115570000D02*
G75*
G03X81510000Y-115570000I-1500000J0D01*
G01*
G04 #@! TO.C,TP11*
X81510000Y-121920000D02*
G75*
G03X81510000Y-121920000I-1500000J0D01*
G01*
G04 #@! TO.C,TP10*
X97385000Y-105410000D02*
G75*
G03X97385000Y-105410000I-1500000J0D01*
G01*
G04 #@! TO.C,TP8*
X61190000Y-56515000D02*
G75*
G03X61190000Y-56515000I-1500000J0D01*
G01*
G04 #@! TO.C,TP5*
X80240000Y-36830000D02*
G75*
G03X80240000Y-36830000I-1500000J0D01*
G01*
G04 #@! TO.C,TP4*
X70080000Y-56515000D02*
G75*
G03X70080000Y-56515000I-1500000J0D01*
G01*
G04 #@! TO.C,TP3*
X86590000Y-74930000D02*
G75*
G03X86590000Y-74930000I-1500000J0D01*
G01*
G04 #@! TO.C,TP9*
X109450000Y-81280000D02*
G75*
G03X109450000Y-81280000I-1500000J0D01*
G01*
G04 #@! TO.C,U3*
X81650000Y-60030000D02*
X83450000Y-60030000D01*
X83450000Y-56810000D02*
X80500000Y-56810000D01*
D11*
G04 #@! TO.C,U7*
X94320000Y-96705000D02*
X98720000Y-96705000D01*
X92745000Y-91180000D02*
X98720000Y-91180000D01*
G04 #@! TO.C,U6*
X73255000Y-64365000D02*
X73255000Y-64590000D01*
X76605000Y-64365000D02*
X76605000Y-64665000D01*
X76605000Y-67715000D02*
X76605000Y-67415000D01*
X73255000Y-67715000D02*
X73255000Y-67415000D01*
X73255000Y-64365000D02*
X76605000Y-64365000D01*
X73255000Y-67715000D02*
X76605000Y-67715000D01*
X73255000Y-64590000D02*
X72030000Y-64590000D01*
G04 #@! TO.C,U4*
X84285000Y-78100000D02*
X84285000Y-78125000D01*
X88435000Y-78100000D02*
X88435000Y-78215000D01*
X88435000Y-87000000D02*
X88435000Y-86885000D01*
X84285000Y-87000000D02*
X84285000Y-86885000D01*
X84285000Y-78100000D02*
X88435000Y-78100000D01*
X84285000Y-87000000D02*
X88435000Y-87000000D01*
X84285000Y-78125000D02*
X82910000Y-78125000D01*
D12*
G04 #@! TO.C,C3*
X85351252Y-48970000D02*
X84828748Y-48970000D01*
X85351252Y-47550000D02*
X84828748Y-47550000D01*
G04 #@! TO.C,C1*
X108010000Y-73660000D02*
G75*
G03X108010000Y-73660000I-2620000J0D01*
G01*
X105390000Y-71080000D02*
X105390000Y-76240000D01*
X105430000Y-71080000D02*
X105430000Y-76240000D01*
X105470000Y-71081000D02*
X105470000Y-76239000D01*
X105510000Y-71082000D02*
X105510000Y-76238000D01*
X105550000Y-71084000D02*
X105550000Y-76236000D01*
X105590000Y-71087000D02*
X105590000Y-76233000D01*
X105630000Y-71091000D02*
X105630000Y-72620000D01*
X105630000Y-74700000D02*
X105630000Y-76229000D01*
X105670000Y-71095000D02*
X105670000Y-72620000D01*
X105670000Y-74700000D02*
X105670000Y-76225000D01*
X105710000Y-71099000D02*
X105710000Y-72620000D01*
X105710000Y-74700000D02*
X105710000Y-76221000D01*
X105750000Y-71104000D02*
X105750000Y-72620000D01*
X105750000Y-74700000D02*
X105750000Y-76216000D01*
X105790000Y-71110000D02*
X105790000Y-72620000D01*
X105790000Y-74700000D02*
X105790000Y-76210000D01*
X105830000Y-71117000D02*
X105830000Y-72620000D01*
X105830000Y-74700000D02*
X105830000Y-76203000D01*
X105870000Y-71124000D02*
X105870000Y-72620000D01*
X105870000Y-74700000D02*
X105870000Y-76196000D01*
X105910000Y-71132000D02*
X105910000Y-72620000D01*
X105910000Y-74700000D02*
X105910000Y-76188000D01*
X105950000Y-71140000D02*
X105950000Y-72620000D01*
X105950000Y-74700000D02*
X105950000Y-76180000D01*
X105990000Y-71149000D02*
X105990000Y-72620000D01*
X105990000Y-74700000D02*
X105990000Y-76171000D01*
X106030000Y-71159000D02*
X106030000Y-72620000D01*
X106030000Y-74700000D02*
X106030000Y-76161000D01*
X106070000Y-71169000D02*
X106070000Y-72620000D01*
X106070000Y-74700000D02*
X106070000Y-76151000D01*
X106111000Y-71180000D02*
X106111000Y-72620000D01*
X106111000Y-74700000D02*
X106111000Y-76140000D01*
X106151000Y-71192000D02*
X106151000Y-72620000D01*
X106151000Y-74700000D02*
X106151000Y-76128000D01*
X106191000Y-71205000D02*
X106191000Y-72620000D01*
X106191000Y-74700000D02*
X106191000Y-76115000D01*
X106231000Y-71218000D02*
X106231000Y-72620000D01*
X106231000Y-74700000D02*
X106231000Y-76102000D01*
X106271000Y-71232000D02*
X106271000Y-72620000D01*
X106271000Y-74700000D02*
X106271000Y-76088000D01*
X106311000Y-71246000D02*
X106311000Y-72620000D01*
X106311000Y-74700000D02*
X106311000Y-76074000D01*
X106351000Y-71262000D02*
X106351000Y-72620000D01*
X106351000Y-74700000D02*
X106351000Y-76058000D01*
X106391000Y-71278000D02*
X106391000Y-72620000D01*
X106391000Y-74700000D02*
X106391000Y-76042000D01*
X106431000Y-71295000D02*
X106431000Y-72620000D01*
X106431000Y-74700000D02*
X106431000Y-76025000D01*
X106471000Y-71312000D02*
X106471000Y-72620000D01*
X106471000Y-74700000D02*
X106471000Y-76008000D01*
X106511000Y-71331000D02*
X106511000Y-72620000D01*
X106511000Y-74700000D02*
X106511000Y-75989000D01*
X106551000Y-71350000D02*
X106551000Y-72620000D01*
X106551000Y-74700000D02*
X106551000Y-75970000D01*
X106591000Y-71370000D02*
X106591000Y-72620000D01*
X106591000Y-74700000D02*
X106591000Y-75950000D01*
X106631000Y-71392000D02*
X106631000Y-72620000D01*
X106631000Y-74700000D02*
X106631000Y-75928000D01*
X106671000Y-71413000D02*
X106671000Y-72620000D01*
X106671000Y-74700000D02*
X106671000Y-75907000D01*
X106711000Y-71436000D02*
X106711000Y-72620000D01*
X106711000Y-74700000D02*
X106711000Y-75884000D01*
X106751000Y-71460000D02*
X106751000Y-72620000D01*
X106751000Y-74700000D02*
X106751000Y-75860000D01*
X106791000Y-71485000D02*
X106791000Y-72620000D01*
X106791000Y-74700000D02*
X106791000Y-75835000D01*
X106831000Y-71511000D02*
X106831000Y-72620000D01*
X106831000Y-74700000D02*
X106831000Y-75809000D01*
X106871000Y-71538000D02*
X106871000Y-72620000D01*
X106871000Y-74700000D02*
X106871000Y-75782000D01*
X106911000Y-71565000D02*
X106911000Y-72620000D01*
X106911000Y-74700000D02*
X106911000Y-75755000D01*
X106951000Y-71595000D02*
X106951000Y-72620000D01*
X106951000Y-74700000D02*
X106951000Y-75725000D01*
X106991000Y-71625000D02*
X106991000Y-72620000D01*
X106991000Y-74700000D02*
X106991000Y-75695000D01*
X107031000Y-71656000D02*
X107031000Y-72620000D01*
X107031000Y-74700000D02*
X107031000Y-75664000D01*
X107071000Y-71689000D02*
X107071000Y-72620000D01*
X107071000Y-74700000D02*
X107071000Y-75631000D01*
X107111000Y-71723000D02*
X107111000Y-72620000D01*
X107111000Y-74700000D02*
X107111000Y-75597000D01*
X107151000Y-71759000D02*
X107151000Y-72620000D01*
X107151000Y-74700000D02*
X107151000Y-75561000D01*
X107191000Y-71796000D02*
X107191000Y-72620000D01*
X107191000Y-74700000D02*
X107191000Y-75524000D01*
X107231000Y-71834000D02*
X107231000Y-72620000D01*
X107231000Y-74700000D02*
X107231000Y-75486000D01*
X107271000Y-71875000D02*
X107271000Y-72620000D01*
X107271000Y-74700000D02*
X107271000Y-75445000D01*
X107311000Y-71917000D02*
X107311000Y-72620000D01*
X107311000Y-74700000D02*
X107311000Y-75403000D01*
X107351000Y-71961000D02*
X107351000Y-72620000D01*
X107351000Y-74700000D02*
X107351000Y-75359000D01*
X107391000Y-72007000D02*
X107391000Y-72620000D01*
X107391000Y-74700000D02*
X107391000Y-75313000D01*
X107431000Y-72055000D02*
X107431000Y-72620000D01*
X107431000Y-74700000D02*
X107431000Y-75265000D01*
X107471000Y-72106000D02*
X107471000Y-72620000D01*
X107471000Y-74700000D02*
X107471000Y-75214000D01*
X107511000Y-72160000D02*
X107511000Y-72620000D01*
X107511000Y-74700000D02*
X107511000Y-75160000D01*
X107551000Y-72217000D02*
X107551000Y-72620000D01*
X107551000Y-74700000D02*
X107551000Y-75103000D01*
X107591000Y-72277000D02*
X107591000Y-72620000D01*
X107591000Y-74700000D02*
X107591000Y-75043000D01*
X107631000Y-72341000D02*
X107631000Y-72620000D01*
X107631000Y-74700000D02*
X107631000Y-74979000D01*
X107671000Y-72409000D02*
X107671000Y-72620000D01*
X107671000Y-74700000D02*
X107671000Y-74911000D01*
X107711000Y-72482000D02*
X107711000Y-74838000D01*
X107751000Y-72562000D02*
X107751000Y-74758000D01*
X107791000Y-72649000D02*
X107791000Y-74671000D01*
X107831000Y-72745000D02*
X107831000Y-74575000D01*
X107871000Y-72855000D02*
X107871000Y-74465000D01*
X107911000Y-72983000D02*
X107911000Y-74337000D01*
X107951000Y-73142000D02*
X107951000Y-74178000D01*
X107991000Y-73376000D02*
X107991000Y-73944000D01*
X102585225Y-72185000D02*
X103085225Y-72185000D01*
X102835225Y-71935000D02*
X102835225Y-72435000D01*
G04 #@! TO.C,RN1*
X98840000Y-87760000D02*
X96740000Y-87760000D01*
X98840000Y-82420000D02*
X96740000Y-82420000D01*
G04 #@! TO.C,J1*
X62685000Y-36650000D02*
X62685000Y-39550000D01*
X69395000Y-36650000D02*
X69395000Y-39550000D01*
X64590000Y-41455000D02*
X67490000Y-41455000D01*
X64590000Y-34745000D02*
X67490000Y-34745000D01*
G04 #@! TO.C,FB2*
X74553578Y-81355000D02*
X74036422Y-81355000D01*
X74553578Y-79935000D02*
X74036422Y-79935000D01*
G04 #@! TO.C,C2*
X85351252Y-42470000D02*
X84828748Y-42470000D01*
X85351252Y-43890000D02*
X84828748Y-43890000D01*
G04 #@! TO.C,L1*
X89567936Y-44540000D02*
X90772064Y-44540000D01*
X89567936Y-41820000D02*
X90772064Y-41820000D01*
G04 #@! TO.C,L2*
X90772064Y-49620000D02*
X89567936Y-49620000D01*
X90772064Y-46900000D02*
X89567936Y-46900000D01*
G04 #@! TO.C,C4*
X91500000Y-71120000D02*
G75*
G03X91500000Y-71120000I-2620000J0D01*
G01*
X88880000Y-68540000D02*
X88880000Y-73700000D01*
X88920000Y-68540000D02*
X88920000Y-73700000D01*
X88960000Y-68541000D02*
X88960000Y-73699000D01*
X89000000Y-68542000D02*
X89000000Y-73698000D01*
X89040000Y-68544000D02*
X89040000Y-73696000D01*
X89080000Y-68547000D02*
X89080000Y-73693000D01*
X89120000Y-68551000D02*
X89120000Y-70080000D01*
X89120000Y-72160000D02*
X89120000Y-73689000D01*
X89160000Y-68555000D02*
X89160000Y-70080000D01*
X89160000Y-72160000D02*
X89160000Y-73685000D01*
X89200000Y-68559000D02*
X89200000Y-70080000D01*
X89200000Y-72160000D02*
X89200000Y-73681000D01*
X89240000Y-68564000D02*
X89240000Y-70080000D01*
X89240000Y-72160000D02*
X89240000Y-73676000D01*
X89280000Y-68570000D02*
X89280000Y-70080000D01*
X89280000Y-72160000D02*
X89280000Y-73670000D01*
X89320000Y-68577000D02*
X89320000Y-70080000D01*
X89320000Y-72160000D02*
X89320000Y-73663000D01*
X89360000Y-68584000D02*
X89360000Y-70080000D01*
X89360000Y-72160000D02*
X89360000Y-73656000D01*
X89400000Y-68592000D02*
X89400000Y-70080000D01*
X89400000Y-72160000D02*
X89400000Y-73648000D01*
X89440000Y-68600000D02*
X89440000Y-70080000D01*
X89440000Y-72160000D02*
X89440000Y-73640000D01*
X89480000Y-68609000D02*
X89480000Y-70080000D01*
X89480000Y-72160000D02*
X89480000Y-73631000D01*
X89520000Y-68619000D02*
X89520000Y-70080000D01*
X89520000Y-72160000D02*
X89520000Y-73621000D01*
X89560000Y-68629000D02*
X89560000Y-70080000D01*
X89560000Y-72160000D02*
X89560000Y-73611000D01*
X89601000Y-68640000D02*
X89601000Y-70080000D01*
X89601000Y-72160000D02*
X89601000Y-73600000D01*
X89641000Y-68652000D02*
X89641000Y-70080000D01*
X89641000Y-72160000D02*
X89641000Y-73588000D01*
X89681000Y-68665000D02*
X89681000Y-70080000D01*
X89681000Y-72160000D02*
X89681000Y-73575000D01*
X89721000Y-68678000D02*
X89721000Y-70080000D01*
X89721000Y-72160000D02*
X89721000Y-73562000D01*
X89761000Y-68692000D02*
X89761000Y-70080000D01*
X89761000Y-72160000D02*
X89761000Y-73548000D01*
X89801000Y-68706000D02*
X89801000Y-70080000D01*
X89801000Y-72160000D02*
X89801000Y-73534000D01*
X89841000Y-68722000D02*
X89841000Y-70080000D01*
X89841000Y-72160000D02*
X89841000Y-73518000D01*
X89881000Y-68738000D02*
X89881000Y-70080000D01*
X89881000Y-72160000D02*
X89881000Y-73502000D01*
X89921000Y-68755000D02*
X89921000Y-70080000D01*
X89921000Y-72160000D02*
X89921000Y-73485000D01*
X89961000Y-68772000D02*
X89961000Y-70080000D01*
X89961000Y-72160000D02*
X89961000Y-73468000D01*
X90001000Y-68791000D02*
X90001000Y-70080000D01*
X90001000Y-72160000D02*
X90001000Y-73449000D01*
X90041000Y-68810000D02*
X90041000Y-70080000D01*
X90041000Y-72160000D02*
X90041000Y-73430000D01*
X90081000Y-68830000D02*
X90081000Y-70080000D01*
X90081000Y-72160000D02*
X90081000Y-73410000D01*
X90121000Y-68852000D02*
X90121000Y-70080000D01*
X90121000Y-72160000D02*
X90121000Y-73388000D01*
X90161000Y-68873000D02*
X90161000Y-70080000D01*
X90161000Y-72160000D02*
X90161000Y-73367000D01*
X90201000Y-68896000D02*
X90201000Y-70080000D01*
X90201000Y-72160000D02*
X90201000Y-73344000D01*
X90241000Y-68920000D02*
X90241000Y-70080000D01*
X90241000Y-72160000D02*
X90241000Y-73320000D01*
X90281000Y-68945000D02*
X90281000Y-70080000D01*
X90281000Y-72160000D02*
X90281000Y-73295000D01*
X90321000Y-68971000D02*
X90321000Y-70080000D01*
X90321000Y-72160000D02*
X90321000Y-73269000D01*
X90361000Y-68998000D02*
X90361000Y-70080000D01*
X90361000Y-72160000D02*
X90361000Y-73242000D01*
X90401000Y-69025000D02*
X90401000Y-70080000D01*
X90401000Y-72160000D02*
X90401000Y-73215000D01*
X90441000Y-69055000D02*
X90441000Y-70080000D01*
X90441000Y-72160000D02*
X90441000Y-73185000D01*
X90481000Y-69085000D02*
X90481000Y-70080000D01*
X90481000Y-72160000D02*
X90481000Y-73155000D01*
X90521000Y-69116000D02*
X90521000Y-70080000D01*
X90521000Y-72160000D02*
X90521000Y-73124000D01*
X90561000Y-69149000D02*
X90561000Y-70080000D01*
X90561000Y-72160000D02*
X90561000Y-73091000D01*
X90601000Y-69183000D02*
X90601000Y-70080000D01*
X90601000Y-72160000D02*
X90601000Y-73057000D01*
X90641000Y-69219000D02*
X90641000Y-70080000D01*
X90641000Y-72160000D02*
X90641000Y-73021000D01*
X90681000Y-69256000D02*
X90681000Y-70080000D01*
X90681000Y-72160000D02*
X90681000Y-72984000D01*
X90721000Y-69294000D02*
X90721000Y-70080000D01*
X90721000Y-72160000D02*
X90721000Y-72946000D01*
X90761000Y-69335000D02*
X90761000Y-70080000D01*
X90761000Y-72160000D02*
X90761000Y-72905000D01*
X90801000Y-69377000D02*
X90801000Y-70080000D01*
X90801000Y-72160000D02*
X90801000Y-72863000D01*
X90841000Y-69421000D02*
X90841000Y-70080000D01*
X90841000Y-72160000D02*
X90841000Y-72819000D01*
X90881000Y-69467000D02*
X90881000Y-70080000D01*
X90881000Y-72160000D02*
X90881000Y-72773000D01*
X90921000Y-69515000D02*
X90921000Y-70080000D01*
X90921000Y-72160000D02*
X90921000Y-72725000D01*
X90961000Y-69566000D02*
X90961000Y-70080000D01*
X90961000Y-72160000D02*
X90961000Y-72674000D01*
X91001000Y-69620000D02*
X91001000Y-70080000D01*
X91001000Y-72160000D02*
X91001000Y-72620000D01*
X91041000Y-69677000D02*
X91041000Y-70080000D01*
X91041000Y-72160000D02*
X91041000Y-72563000D01*
X91081000Y-69737000D02*
X91081000Y-70080000D01*
X91081000Y-72160000D02*
X91081000Y-72503000D01*
X91121000Y-69801000D02*
X91121000Y-70080000D01*
X91121000Y-72160000D02*
X91121000Y-72439000D01*
X91161000Y-69869000D02*
X91161000Y-70080000D01*
X91161000Y-72160000D02*
X91161000Y-72371000D01*
X91201000Y-69942000D02*
X91201000Y-72298000D01*
X91241000Y-70022000D02*
X91241000Y-72218000D01*
X91281000Y-70109000D02*
X91281000Y-72131000D01*
X91321000Y-70205000D02*
X91321000Y-72035000D01*
X91361000Y-70315000D02*
X91361000Y-71925000D01*
X91401000Y-70443000D02*
X91401000Y-71797000D01*
X91441000Y-70602000D02*
X91441000Y-71638000D01*
X91481000Y-70836000D02*
X91481000Y-71404000D01*
X86075225Y-69645000D02*
X86575225Y-69645000D01*
X86325225Y-69395000D02*
X86325225Y-69895000D01*
G04 #@! TO.C,FB1*
X82291422Y-69140000D02*
X82808578Y-69140000D01*
X82291422Y-70560000D02*
X82808578Y-70560000D01*
G04 #@! TO.C,CN2*
X69850000Y-97256600D02*
X69850000Y-135356600D01*
X69850000Y-135356600D02*
X64770000Y-135356600D01*
X64770000Y-135356600D02*
X64770000Y-97256600D01*
X64770000Y-97256600D02*
X69850000Y-97256600D01*
G04 #@! TO.C,CN3*
X115570000Y-65261001D02*
X115570000Y-90661001D01*
X115570000Y-90661001D02*
X110490000Y-90661001D01*
X110490000Y-90661001D02*
X110490000Y-65261001D01*
X110490000Y-65261001D02*
X115570000Y-65261001D01*
G04 #@! TO.C,CN4*
X110455001Y-92185001D02*
X115535001Y-92185001D01*
X110455001Y-135365001D02*
X110455001Y-92185001D01*
X115535001Y-135365001D02*
X110455001Y-135365001D01*
X115535001Y-92185001D02*
X115535001Y-135365001D01*
G04 #@! TO.C,CN1*
X64770000Y-74396600D02*
X69850000Y-74396600D01*
X64770000Y-94716600D02*
X64770000Y-74396600D01*
X69850000Y-94716600D02*
X64770000Y-94716600D01*
X69850000Y-74396600D02*
X69850000Y-94716600D01*
G04 #@! TO.C,U2*
D11*
X90978095Y-35772380D02*
X90978095Y-36581904D01*
X91025714Y-36677142D01*
X91073333Y-36724761D01*
X91168571Y-36772380D01*
X91359047Y-36772380D01*
X91454285Y-36724761D01*
X91501904Y-36677142D01*
X91549523Y-36581904D01*
X91549523Y-35772380D01*
X91978095Y-35867619D02*
X92025714Y-35820000D01*
X92120952Y-35772380D01*
X92359047Y-35772380D01*
X92454285Y-35820000D01*
X92501904Y-35867619D01*
X92549523Y-35962857D01*
X92549523Y-36058095D01*
X92501904Y-36200952D01*
X91930476Y-36772380D01*
X92549523Y-36772380D01*
G04 #@! TO.C,U11*
X100361904Y-154312380D02*
X100361904Y-155121904D01*
X100409523Y-155217142D01*
X100457142Y-155264761D01*
X100552380Y-155312380D01*
X100742857Y-155312380D01*
X100838095Y-155264761D01*
X100885714Y-155217142D01*
X100933333Y-155121904D01*
X100933333Y-154312380D01*
X101933333Y-155312380D02*
X101361904Y-155312380D01*
X101647619Y-155312380D02*
X101647619Y-154312380D01*
X101552380Y-154455238D01*
X101457142Y-154550476D01*
X101361904Y-154598095D01*
X102885714Y-155312380D02*
X102314285Y-155312380D01*
X102600000Y-155312380D02*
X102600000Y-154312380D01*
X102504761Y-154455238D01*
X102409523Y-154550476D01*
X102314285Y-154598095D01*
G04 #@! TO.C,U9*
X72898095Y-45172380D02*
X72898095Y-45981904D01*
X72945714Y-46077142D01*
X72993333Y-46124761D01*
X73088571Y-46172380D01*
X73279047Y-46172380D01*
X73374285Y-46124761D01*
X73421904Y-46077142D01*
X73469523Y-45981904D01*
X73469523Y-45172380D01*
X73993333Y-46172380D02*
X74183809Y-46172380D01*
X74279047Y-46124761D01*
X74326666Y-46077142D01*
X74421904Y-45934285D01*
X74469523Y-45743809D01*
X74469523Y-45362857D01*
X74421904Y-45267619D01*
X74374285Y-45220000D01*
X74279047Y-45172380D01*
X74088571Y-45172380D01*
X73993333Y-45220000D01*
X73945714Y-45267619D01*
X73898095Y-45362857D01*
X73898095Y-45600952D01*
X73945714Y-45696190D01*
X73993333Y-45743809D01*
X74088571Y-45791428D01*
X74279047Y-45791428D01*
X74374285Y-45743809D01*
X74421904Y-45696190D01*
X74469523Y-45600952D01*
G04 #@! TO.C,TP14*
X97956904Y-99782380D02*
X98528333Y-99782380D01*
X98242619Y-100782380D02*
X98242619Y-99782380D01*
X98861666Y-100782380D02*
X98861666Y-99782380D01*
X99242619Y-99782380D01*
X99337857Y-99830000D01*
X99385476Y-99877619D01*
X99433095Y-99972857D01*
X99433095Y-100115714D01*
X99385476Y-100210952D01*
X99337857Y-100258571D01*
X99242619Y-100306190D01*
X98861666Y-100306190D01*
X100385476Y-100782380D02*
X99814047Y-100782380D01*
X100099761Y-100782380D02*
X100099761Y-99782380D01*
X100004523Y-99925238D01*
X99909285Y-100020476D01*
X99814047Y-100068095D01*
X101242619Y-100115714D02*
X101242619Y-100782380D01*
X101004523Y-99734761D02*
X100766428Y-100449047D01*
X101385476Y-100449047D01*
G04 #@! TO.C,C21*
X66647142Y-64552142D02*
X66599523Y-64599761D01*
X66456666Y-64647380D01*
X66361428Y-64647380D01*
X66218571Y-64599761D01*
X66123333Y-64504523D01*
X66075714Y-64409285D01*
X66028095Y-64218809D01*
X66028095Y-64075952D01*
X66075714Y-63885476D01*
X66123333Y-63790238D01*
X66218571Y-63695000D01*
X66361428Y-63647380D01*
X66456666Y-63647380D01*
X66599523Y-63695000D01*
X66647142Y-63742619D01*
X67028095Y-63742619D02*
X67075714Y-63695000D01*
X67170952Y-63647380D01*
X67409047Y-63647380D01*
X67504285Y-63695000D01*
X67551904Y-63742619D01*
X67599523Y-63837857D01*
X67599523Y-63933095D01*
X67551904Y-64075952D01*
X66980476Y-64647380D01*
X67599523Y-64647380D01*
X68551904Y-64647380D02*
X67980476Y-64647380D01*
X68266190Y-64647380D02*
X68266190Y-63647380D01*
X68170952Y-63790238D01*
X68075714Y-63885476D01*
X67980476Y-63933095D01*
G04 #@! TO.C,U5*
X74168095Y-69242380D02*
X74168095Y-70051904D01*
X74215714Y-70147142D01*
X74263333Y-70194761D01*
X74358571Y-70242380D01*
X74549047Y-70242380D01*
X74644285Y-70194761D01*
X74691904Y-70147142D01*
X74739523Y-70051904D01*
X74739523Y-69242380D01*
X75691904Y-69242380D02*
X75215714Y-69242380D01*
X75168095Y-69718571D01*
X75215714Y-69670952D01*
X75310952Y-69623333D01*
X75549047Y-69623333D01*
X75644285Y-69670952D01*
X75691904Y-69718571D01*
X75739523Y-69813809D01*
X75739523Y-70051904D01*
X75691904Y-70147142D01*
X75644285Y-70194761D01*
X75549047Y-70242380D01*
X75310952Y-70242380D01*
X75215714Y-70194761D01*
X75168095Y-70147142D01*
G04 #@! TO.C,J3*
X73326666Y-129202380D02*
X73326666Y-129916666D01*
X73279047Y-130059523D01*
X73183809Y-130154761D01*
X73040952Y-130202380D01*
X72945714Y-130202380D01*
X73707619Y-129202380D02*
X74326666Y-129202380D01*
X73993333Y-129583333D01*
X74136190Y-129583333D01*
X74231428Y-129630952D01*
X74279047Y-129678571D01*
X74326666Y-129773809D01*
X74326666Y-130011904D01*
X74279047Y-130107142D01*
X74231428Y-130154761D01*
X74136190Y-130202380D01*
X73850476Y-130202380D01*
X73755238Y-130154761D01*
X73707619Y-130107142D01*
G04 #@! TO.C,R1*
X73493333Y-35002380D02*
X73160000Y-34526190D01*
X72921904Y-35002380D02*
X72921904Y-34002380D01*
X73302857Y-34002380D01*
X73398095Y-34050000D01*
X73445714Y-34097619D01*
X73493333Y-34192857D01*
X73493333Y-34335714D01*
X73445714Y-34430952D01*
X73398095Y-34478571D01*
X73302857Y-34526190D01*
X72921904Y-34526190D01*
X74445714Y-35002380D02*
X73874285Y-35002380D01*
X74160000Y-35002380D02*
X74160000Y-34002380D01*
X74064761Y-34145238D01*
X73969523Y-34240476D01*
X73874285Y-34288095D01*
G04 #@! TO.C,R4*
X79843333Y-51252380D02*
X79510000Y-50776190D01*
X79271904Y-51252380D02*
X79271904Y-50252380D01*
X79652857Y-50252380D01*
X79748095Y-50300000D01*
X79795714Y-50347619D01*
X79843333Y-50442857D01*
X79843333Y-50585714D01*
X79795714Y-50680952D01*
X79748095Y-50728571D01*
X79652857Y-50776190D01*
X79271904Y-50776190D01*
X80700476Y-50585714D02*
X80700476Y-51252380D01*
X80462380Y-50204761D02*
X80224285Y-50919047D01*
X80843333Y-50919047D01*
G04 #@! TO.C,R5*
X87463333Y-51512380D02*
X87130000Y-51036190D01*
X86891904Y-51512380D02*
X86891904Y-50512380D01*
X87272857Y-50512380D01*
X87368095Y-50560000D01*
X87415714Y-50607619D01*
X87463333Y-50702857D01*
X87463333Y-50845714D01*
X87415714Y-50940952D01*
X87368095Y-50988571D01*
X87272857Y-51036190D01*
X86891904Y-51036190D01*
X88368095Y-50512380D02*
X87891904Y-50512380D01*
X87844285Y-50988571D01*
X87891904Y-50940952D01*
X87987142Y-50893333D01*
X88225238Y-50893333D01*
X88320476Y-50940952D01*
X88368095Y-50988571D01*
X88415714Y-51083809D01*
X88415714Y-51321904D01*
X88368095Y-51417142D01*
X88320476Y-51464761D01*
X88225238Y-51512380D01*
X87987142Y-51512380D01*
X87891904Y-51464761D01*
X87844285Y-51417142D01*
G04 #@! TO.C,C20*
X72352143Y-91797142D02*
X72304524Y-91844761D01*
X72161667Y-91892380D01*
X72066429Y-91892380D01*
X71923572Y-91844761D01*
X71828334Y-91749523D01*
X71780715Y-91654285D01*
X71733096Y-91463809D01*
X71733096Y-91320952D01*
X71780715Y-91130476D01*
X71828334Y-91035238D01*
X71923572Y-90940000D01*
X72066429Y-90892380D01*
X72161667Y-90892380D01*
X72304524Y-90940000D01*
X72352143Y-90987619D01*
X72733096Y-90987619D02*
X72780715Y-90940000D01*
X72875953Y-90892380D01*
X73114048Y-90892380D01*
X73209286Y-90940000D01*
X73256905Y-90987619D01*
X73304524Y-91082857D01*
X73304524Y-91178095D01*
X73256905Y-91320952D01*
X72685477Y-91892380D01*
X73304524Y-91892380D01*
X73923572Y-90892380D02*
X74018810Y-90892380D01*
X74114048Y-90940000D01*
X74161667Y-90987619D01*
X74209286Y-91082857D01*
X74256905Y-91273333D01*
X74256905Y-91511428D01*
X74209286Y-91701904D01*
X74161667Y-91797142D01*
X74114048Y-91844761D01*
X74018810Y-91892380D01*
X73923572Y-91892380D01*
X73828334Y-91844761D01*
X73780715Y-91797142D01*
X73733096Y-91701904D01*
X73685477Y-91511428D01*
X73685477Y-91273333D01*
X73733096Y-91082857D01*
X73780715Y-90987619D01*
X73828334Y-90940000D01*
X73923572Y-90892380D01*
G04 #@! TO.C,U12*
X73691904Y-84182380D02*
X73691904Y-84991904D01*
X73739523Y-85087142D01*
X73787142Y-85134761D01*
X73882380Y-85182380D01*
X74072857Y-85182380D01*
X74168095Y-85134761D01*
X74215714Y-85087142D01*
X74263333Y-84991904D01*
X74263333Y-84182380D01*
X75263333Y-85182380D02*
X74691904Y-85182380D01*
X74977619Y-85182380D02*
X74977619Y-84182380D01*
X74882380Y-84325238D01*
X74787142Y-84420476D01*
X74691904Y-84468095D01*
X75644285Y-84277619D02*
X75691904Y-84230000D01*
X75787142Y-84182380D01*
X76025238Y-84182380D01*
X76120476Y-84230000D01*
X76168095Y-84277619D01*
X76215714Y-84372857D01*
X76215714Y-84468095D01*
X76168095Y-84610952D01*
X75596666Y-85182380D01*
X76215714Y-85182380D01*
G04 #@! TO.C,TP7*
X101608095Y-78192380D02*
X102179523Y-78192380D01*
X101893809Y-79192380D02*
X101893809Y-78192380D01*
X102512857Y-79192380D02*
X102512857Y-78192380D01*
X102893809Y-78192380D01*
X102989047Y-78240000D01*
X103036666Y-78287619D01*
X103084285Y-78382857D01*
X103084285Y-78525714D01*
X103036666Y-78620952D01*
X102989047Y-78668571D01*
X102893809Y-78716190D01*
X102512857Y-78716190D01*
X103417619Y-78192380D02*
X104084285Y-78192380D01*
X103655714Y-79192380D01*
G04 #@! TO.C,LS1*
X77767142Y-111332380D02*
X77290952Y-111332380D01*
X77290952Y-110332380D01*
X78052857Y-111284761D02*
X78195714Y-111332380D01*
X78433809Y-111332380D01*
X78529047Y-111284761D01*
X78576666Y-111237142D01*
X78624285Y-111141904D01*
X78624285Y-111046666D01*
X78576666Y-110951428D01*
X78529047Y-110903809D01*
X78433809Y-110856190D01*
X78243333Y-110808571D01*
X78148095Y-110760952D01*
X78100476Y-110713333D01*
X78052857Y-110618095D01*
X78052857Y-110522857D01*
X78100476Y-110427619D01*
X78148095Y-110380000D01*
X78243333Y-110332380D01*
X78481428Y-110332380D01*
X78624285Y-110380000D01*
X79576666Y-111332380D02*
X79005238Y-111332380D01*
X79290952Y-111332380D02*
X79290952Y-110332380D01*
X79195714Y-110475238D01*
X79100476Y-110570476D01*
X79005238Y-110618095D01*
X79629047Y-108351428D02*
X80390952Y-108351428D01*
X80010000Y-108732380D02*
X80010000Y-107970476D01*
G04 #@! TO.C,C19*
X71747142Y-95607142D02*
X71699523Y-95654761D01*
X71556666Y-95702380D01*
X71461428Y-95702380D01*
X71318571Y-95654761D01*
X71223333Y-95559523D01*
X71175714Y-95464285D01*
X71128095Y-95273809D01*
X71128095Y-95130952D01*
X71175714Y-94940476D01*
X71223333Y-94845238D01*
X71318571Y-94750000D01*
X71461428Y-94702380D01*
X71556666Y-94702380D01*
X71699523Y-94750000D01*
X71747142Y-94797619D01*
X72699523Y-95702380D02*
X72128095Y-95702380D01*
X72413809Y-95702380D02*
X72413809Y-94702380D01*
X72318571Y-94845238D01*
X72223333Y-94940476D01*
X72128095Y-94988095D01*
X73175714Y-95702380D02*
X73366190Y-95702380D01*
X73461428Y-95654761D01*
X73509047Y-95607142D01*
X73604285Y-95464285D01*
X73651904Y-95273809D01*
X73651904Y-94892857D01*
X73604285Y-94797619D01*
X73556666Y-94750000D01*
X73461428Y-94702380D01*
X73270952Y-94702380D01*
X73175714Y-94750000D01*
X73128095Y-94797619D01*
X73080476Y-94892857D01*
X73080476Y-95130952D01*
X73128095Y-95226190D01*
X73175714Y-95273809D01*
X73270952Y-95321428D01*
X73461428Y-95321428D01*
X73556666Y-95273809D01*
X73604285Y-95226190D01*
X73651904Y-95130952D01*
G04 #@! TO.C,RN4*
X116149523Y-54102380D02*
X115816190Y-53626190D01*
X115578095Y-54102380D02*
X115578095Y-53102380D01*
X115959047Y-53102380D01*
X116054285Y-53150000D01*
X116101904Y-53197619D01*
X116149523Y-53292857D01*
X116149523Y-53435714D01*
X116101904Y-53530952D01*
X116054285Y-53578571D01*
X115959047Y-53626190D01*
X115578095Y-53626190D01*
X116578095Y-54102380D02*
X116578095Y-53102380D01*
X117149523Y-54102380D01*
X117149523Y-53102380D01*
X118054285Y-53435714D02*
X118054285Y-54102380D01*
X117816190Y-53054761D02*
X117578095Y-53769047D01*
X118197142Y-53769047D01*
G04 #@! TO.C,TP1*
X114308095Y-140422380D02*
X114879523Y-140422380D01*
X114593809Y-141422380D02*
X114593809Y-140422380D01*
X115212857Y-141422380D02*
X115212857Y-140422380D01*
X115593809Y-140422380D01*
X115689047Y-140470000D01*
X115736666Y-140517619D01*
X115784285Y-140612857D01*
X115784285Y-140755714D01*
X115736666Y-140850952D01*
X115689047Y-140898571D01*
X115593809Y-140946190D01*
X115212857Y-140946190D01*
X116736666Y-141422380D02*
X116165238Y-141422380D01*
X116450952Y-141422380D02*
X116450952Y-140422380D01*
X116355714Y-140565238D01*
X116260476Y-140660476D01*
X116165238Y-140708095D01*
G04 #@! TO.C,TP2*
X58428095Y-45172380D02*
X58999523Y-45172380D01*
X58713809Y-46172380D02*
X58713809Y-45172380D01*
X59332857Y-46172380D02*
X59332857Y-45172380D01*
X59713809Y-45172380D01*
X59809047Y-45220000D01*
X59856666Y-45267619D01*
X59904285Y-45362857D01*
X59904285Y-45505714D01*
X59856666Y-45600952D01*
X59809047Y-45648571D01*
X59713809Y-45696190D01*
X59332857Y-45696190D01*
X60285238Y-45267619D02*
X60332857Y-45220000D01*
X60428095Y-45172380D01*
X60666190Y-45172380D01*
X60761428Y-45220000D01*
X60809047Y-45267619D01*
X60856666Y-45362857D01*
X60856666Y-45458095D01*
X60809047Y-45600952D01*
X60237619Y-46172380D01*
X60856666Y-46172380D01*
G04 #@! TO.C,D8*
X79906904Y-124952380D02*
X79906904Y-123952380D01*
X80145000Y-123952380D01*
X80287857Y-124000000D01*
X80383095Y-124095238D01*
X80430714Y-124190476D01*
X80478333Y-124380952D01*
X80478333Y-124523809D01*
X80430714Y-124714285D01*
X80383095Y-124809523D01*
X80287857Y-124904761D01*
X80145000Y-124952380D01*
X79906904Y-124952380D01*
X81049761Y-124380952D02*
X80954523Y-124333333D01*
X80906904Y-124285714D01*
X80859285Y-124190476D01*
X80859285Y-124142857D01*
X80906904Y-124047619D01*
X80954523Y-124000000D01*
X81049761Y-123952380D01*
X81240238Y-123952380D01*
X81335476Y-124000000D01*
X81383095Y-124047619D01*
X81430714Y-124142857D01*
X81430714Y-124190476D01*
X81383095Y-124285714D01*
X81335476Y-124333333D01*
X81240238Y-124380952D01*
X81049761Y-124380952D01*
X80954523Y-124428571D01*
X80906904Y-124476190D01*
X80859285Y-124571428D01*
X80859285Y-124761904D01*
X80906904Y-124857142D01*
X80954523Y-124904761D01*
X81049761Y-124952380D01*
X81240238Y-124952380D01*
X81335476Y-124904761D01*
X81383095Y-124857142D01*
X81430714Y-124761904D01*
X81430714Y-124571428D01*
X81383095Y-124476190D01*
X81335476Y-124428571D01*
X81240238Y-124380952D01*
G04 #@! TO.C,D7*
X80541904Y-39822380D02*
X80541904Y-38822380D01*
X80780000Y-38822380D01*
X80922857Y-38870000D01*
X81018095Y-38965238D01*
X81065714Y-39060476D01*
X81113333Y-39250952D01*
X81113333Y-39393809D01*
X81065714Y-39584285D01*
X81018095Y-39679523D01*
X80922857Y-39774761D01*
X80780000Y-39822380D01*
X80541904Y-39822380D01*
X81446666Y-38822380D02*
X82113333Y-38822380D01*
X81684761Y-39822380D01*
G04 #@! TO.C,D1*
X89431904Y-104632380D02*
X89431904Y-103632380D01*
X89670000Y-103632380D01*
X89812857Y-103680000D01*
X89908095Y-103775238D01*
X89955714Y-103870476D01*
X90003333Y-104060952D01*
X90003333Y-104203809D01*
X89955714Y-104394285D01*
X89908095Y-104489523D01*
X89812857Y-104584761D01*
X89670000Y-104632380D01*
X89431904Y-104632380D01*
X90955714Y-104632380D02*
X90384285Y-104632380D01*
X90670000Y-104632380D02*
X90670000Y-103632380D01*
X90574761Y-103775238D01*
X90479523Y-103870476D01*
X90384285Y-103918095D01*
G04 #@! TO.C,C18*
X107287142Y-135037142D02*
X107239523Y-135084761D01*
X107096666Y-135132380D01*
X107001428Y-135132380D01*
X106858571Y-135084761D01*
X106763333Y-134989523D01*
X106715714Y-134894285D01*
X106668095Y-134703809D01*
X106668095Y-134560952D01*
X106715714Y-134370476D01*
X106763333Y-134275238D01*
X106858571Y-134180000D01*
X107001428Y-134132380D01*
X107096666Y-134132380D01*
X107239523Y-134180000D01*
X107287142Y-134227619D01*
X108239523Y-135132380D02*
X107668095Y-135132380D01*
X107953809Y-135132380D02*
X107953809Y-134132380D01*
X107858571Y-134275238D01*
X107763333Y-134370476D01*
X107668095Y-134418095D01*
X108810952Y-134560952D02*
X108715714Y-134513333D01*
X108668095Y-134465714D01*
X108620476Y-134370476D01*
X108620476Y-134322857D01*
X108668095Y-134227619D01*
X108715714Y-134180000D01*
X108810952Y-134132380D01*
X109001428Y-134132380D01*
X109096666Y-134180000D01*
X109144285Y-134227619D01*
X109191904Y-134322857D01*
X109191904Y-134370476D01*
X109144285Y-134465714D01*
X109096666Y-134513333D01*
X109001428Y-134560952D01*
X108810952Y-134560952D01*
X108715714Y-134608571D01*
X108668095Y-134656190D01*
X108620476Y-134751428D01*
X108620476Y-134941904D01*
X108668095Y-135037142D01*
X108715714Y-135084761D01*
X108810952Y-135132380D01*
X109001428Y-135132380D01*
X109096666Y-135084761D01*
X109144285Y-135037142D01*
X109191904Y-134941904D01*
X109191904Y-134751428D01*
X109144285Y-134656190D01*
X109096666Y-134608571D01*
X109001428Y-134560952D01*
G04 #@! TO.C,C16*
X79367142Y-88047142D02*
X79319523Y-88094761D01*
X79176666Y-88142380D01*
X79081428Y-88142380D01*
X78938571Y-88094761D01*
X78843333Y-87999523D01*
X78795714Y-87904285D01*
X78748095Y-87713809D01*
X78748095Y-87570952D01*
X78795714Y-87380476D01*
X78843333Y-87285238D01*
X78938571Y-87190000D01*
X79081428Y-87142380D01*
X79176666Y-87142380D01*
X79319523Y-87190000D01*
X79367142Y-87237619D01*
X80319523Y-88142380D02*
X79748095Y-88142380D01*
X80033809Y-88142380D02*
X80033809Y-87142380D01*
X79938571Y-87285238D01*
X79843333Y-87380476D01*
X79748095Y-87428095D01*
X81176666Y-87142380D02*
X80986190Y-87142380D01*
X80890952Y-87190000D01*
X80843333Y-87237619D01*
X80748095Y-87380476D01*
X80700476Y-87570952D01*
X80700476Y-87951904D01*
X80748095Y-88047142D01*
X80795714Y-88094761D01*
X80890952Y-88142380D01*
X81081428Y-88142380D01*
X81176666Y-88094761D01*
X81224285Y-88047142D01*
X81271904Y-87951904D01*
X81271904Y-87713809D01*
X81224285Y-87618571D01*
X81176666Y-87570952D01*
X81081428Y-87523333D01*
X80890952Y-87523333D01*
X80795714Y-87570952D01*
X80748095Y-87618571D01*
X80700476Y-87713809D01*
G04 #@! TO.C,C17*
X64742142Y-44867142D02*
X64694523Y-44914761D01*
X64551666Y-44962380D01*
X64456428Y-44962380D01*
X64313571Y-44914761D01*
X64218333Y-44819523D01*
X64170714Y-44724285D01*
X64123095Y-44533809D01*
X64123095Y-44390952D01*
X64170714Y-44200476D01*
X64218333Y-44105238D01*
X64313571Y-44010000D01*
X64456428Y-43962380D01*
X64551666Y-43962380D01*
X64694523Y-44010000D01*
X64742142Y-44057619D01*
X65694523Y-44962380D02*
X65123095Y-44962380D01*
X65408809Y-44962380D02*
X65408809Y-43962380D01*
X65313571Y-44105238D01*
X65218333Y-44200476D01*
X65123095Y-44248095D01*
X66027857Y-43962380D02*
X66694523Y-43962380D01*
X66265952Y-44962380D01*
G04 #@! TO.C,C15*
X86947142Y-98187142D02*
X86899523Y-98234761D01*
X86756666Y-98282380D01*
X86661428Y-98282380D01*
X86518571Y-98234761D01*
X86423333Y-98139523D01*
X86375714Y-98044285D01*
X86328095Y-97853809D01*
X86328095Y-97710952D01*
X86375714Y-97520476D01*
X86423333Y-97425238D01*
X86518571Y-97330000D01*
X86661428Y-97282380D01*
X86756666Y-97282380D01*
X86899523Y-97330000D01*
X86947142Y-97377619D01*
X87899523Y-98282380D02*
X87328095Y-98282380D01*
X87613809Y-98282380D02*
X87613809Y-97282380D01*
X87518571Y-97425238D01*
X87423333Y-97520476D01*
X87328095Y-97568095D01*
X88804285Y-97282380D02*
X88328095Y-97282380D01*
X88280476Y-97758571D01*
X88328095Y-97710952D01*
X88423333Y-97663333D01*
X88661428Y-97663333D01*
X88756666Y-97710952D01*
X88804285Y-97758571D01*
X88851904Y-97853809D01*
X88851904Y-98091904D01*
X88804285Y-98187142D01*
X88756666Y-98234761D01*
X88661428Y-98282380D01*
X88423333Y-98282380D01*
X88328095Y-98234761D01*
X88280476Y-98187142D01*
G04 #@! TO.C,D2*
X89431904Y-110982380D02*
X89431904Y-109982380D01*
X89670000Y-109982380D01*
X89812857Y-110030000D01*
X89908095Y-110125238D01*
X89955714Y-110220476D01*
X90003333Y-110410952D01*
X90003333Y-110553809D01*
X89955714Y-110744285D01*
X89908095Y-110839523D01*
X89812857Y-110934761D01*
X89670000Y-110982380D01*
X89431904Y-110982380D01*
X90384285Y-110077619D02*
X90431904Y-110030000D01*
X90527142Y-109982380D01*
X90765238Y-109982380D01*
X90860476Y-110030000D01*
X90908095Y-110077619D01*
X90955714Y-110172857D01*
X90955714Y-110268095D01*
X90908095Y-110410952D01*
X90336666Y-110982380D01*
X90955714Y-110982380D01*
G04 #@! TO.C,D5*
X95781904Y-117332380D02*
X95781904Y-116332380D01*
X96020000Y-116332380D01*
X96162857Y-116380000D01*
X96258095Y-116475238D01*
X96305714Y-116570476D01*
X96353333Y-116760952D01*
X96353333Y-116903809D01*
X96305714Y-117094285D01*
X96258095Y-117189523D01*
X96162857Y-117284761D01*
X96020000Y-117332380D01*
X95781904Y-117332380D01*
X97258095Y-116332380D02*
X96781904Y-116332380D01*
X96734285Y-116808571D01*
X96781904Y-116760952D01*
X96877142Y-116713333D01*
X97115238Y-116713333D01*
X97210476Y-116760952D01*
X97258095Y-116808571D01*
X97305714Y-116903809D01*
X97305714Y-117141904D01*
X97258095Y-117237142D01*
X97210476Y-117284761D01*
X97115238Y-117332380D01*
X96877142Y-117332380D01*
X96781904Y-117284761D01*
X96734285Y-117237142D01*
G04 #@! TO.C,D6*
X95781904Y-123682380D02*
X95781904Y-122682380D01*
X96020000Y-122682380D01*
X96162857Y-122730000D01*
X96258095Y-122825238D01*
X96305714Y-122920476D01*
X96353333Y-123110952D01*
X96353333Y-123253809D01*
X96305714Y-123444285D01*
X96258095Y-123539523D01*
X96162857Y-123634761D01*
X96020000Y-123682380D01*
X95781904Y-123682380D01*
X97210476Y-122682380D02*
X97020000Y-122682380D01*
X96924761Y-122730000D01*
X96877142Y-122777619D01*
X96781904Y-122920476D01*
X96734285Y-123110952D01*
X96734285Y-123491904D01*
X96781904Y-123587142D01*
X96829523Y-123634761D01*
X96924761Y-123682380D01*
X97115238Y-123682380D01*
X97210476Y-123634761D01*
X97258095Y-123587142D01*
X97305714Y-123491904D01*
X97305714Y-123253809D01*
X97258095Y-123158571D01*
X97210476Y-123110952D01*
X97115238Y-123063333D01*
X96924761Y-123063333D01*
X96829523Y-123110952D01*
X96781904Y-123158571D01*
X96734285Y-123253809D01*
G04 #@! TO.C,RN2*
X104719523Y-117602380D02*
X104386190Y-117126190D01*
X104148095Y-117602380D02*
X104148095Y-116602380D01*
X104529047Y-116602380D01*
X104624285Y-116650000D01*
X104671904Y-116697619D01*
X104719523Y-116792857D01*
X104719523Y-116935714D01*
X104671904Y-117030952D01*
X104624285Y-117078571D01*
X104529047Y-117126190D01*
X104148095Y-117126190D01*
X105148095Y-117602380D02*
X105148095Y-116602380D01*
X105719523Y-117602380D01*
X105719523Y-116602380D01*
X106148095Y-116697619D02*
X106195714Y-116650000D01*
X106290952Y-116602380D01*
X106529047Y-116602380D01*
X106624285Y-116650000D01*
X106671904Y-116697619D01*
X106719523Y-116792857D01*
X106719523Y-116888095D01*
X106671904Y-117030952D01*
X106100476Y-117602380D01*
X106719523Y-117602380D01*
G04 #@! TO.C,RN3*
X104719523Y-108712380D02*
X104386190Y-108236190D01*
X104148095Y-108712380D02*
X104148095Y-107712380D01*
X104529047Y-107712380D01*
X104624285Y-107760000D01*
X104671904Y-107807619D01*
X104719523Y-107902857D01*
X104719523Y-108045714D01*
X104671904Y-108140952D01*
X104624285Y-108188571D01*
X104529047Y-108236190D01*
X104148095Y-108236190D01*
X105148095Y-108712380D02*
X105148095Y-107712380D01*
X105719523Y-108712380D01*
X105719523Y-107712380D01*
X106100476Y-107712380D02*
X106719523Y-107712380D01*
X106386190Y-108093333D01*
X106529047Y-108093333D01*
X106624285Y-108140952D01*
X106671904Y-108188571D01*
X106719523Y-108283809D01*
X106719523Y-108521904D01*
X106671904Y-108617142D01*
X106624285Y-108664761D01*
X106529047Y-108712380D01*
X106243333Y-108712380D01*
X106148095Y-108664761D01*
X106100476Y-108617142D01*
G04 #@! TO.C,J2*
X73326666Y-115232380D02*
X73326666Y-115946666D01*
X73279047Y-116089523D01*
X73183809Y-116184761D01*
X73040952Y-116232380D01*
X72945714Y-116232380D01*
X73755238Y-115327619D02*
X73802857Y-115280000D01*
X73898095Y-115232380D01*
X74136190Y-115232380D01*
X74231428Y-115280000D01*
X74279047Y-115327619D01*
X74326666Y-115422857D01*
X74326666Y-115518095D01*
X74279047Y-115660952D01*
X73707619Y-116232380D01*
X74326666Y-116232380D01*
G04 #@! TO.C,D4*
X89431904Y-123682380D02*
X89431904Y-122682380D01*
X89670000Y-122682380D01*
X89812857Y-122730000D01*
X89908095Y-122825238D01*
X89955714Y-122920476D01*
X90003333Y-123110952D01*
X90003333Y-123253809D01*
X89955714Y-123444285D01*
X89908095Y-123539523D01*
X89812857Y-123634761D01*
X89670000Y-123682380D01*
X89431904Y-123682380D01*
X90860476Y-123015714D02*
X90860476Y-123682380D01*
X90622380Y-122634761D02*
X90384285Y-123349047D01*
X91003333Y-123349047D01*
G04 #@! TO.C,D3*
X89431904Y-117332380D02*
X89431904Y-116332380D01*
X89670000Y-116332380D01*
X89812857Y-116380000D01*
X89908095Y-116475238D01*
X89955714Y-116570476D01*
X90003333Y-116760952D01*
X90003333Y-116903809D01*
X89955714Y-117094285D01*
X89908095Y-117189523D01*
X89812857Y-117284761D01*
X89670000Y-117332380D01*
X89431904Y-117332380D01*
X90336666Y-116332380D02*
X90955714Y-116332380D01*
X90622380Y-116713333D01*
X90765238Y-116713333D01*
X90860476Y-116760952D01*
X90908095Y-116808571D01*
X90955714Y-116903809D01*
X90955714Y-117141904D01*
X90908095Y-117237142D01*
X90860476Y-117284761D01*
X90765238Y-117332380D01*
X90479523Y-117332380D01*
X90384285Y-117284761D01*
X90336666Y-117237142D01*
G04 #@! TO.C,C13*
X106017142Y-85507142D02*
X105969523Y-85554761D01*
X105826666Y-85602380D01*
X105731428Y-85602380D01*
X105588571Y-85554761D01*
X105493333Y-85459523D01*
X105445714Y-85364285D01*
X105398095Y-85173809D01*
X105398095Y-85030952D01*
X105445714Y-84840476D01*
X105493333Y-84745238D01*
X105588571Y-84650000D01*
X105731428Y-84602380D01*
X105826666Y-84602380D01*
X105969523Y-84650000D01*
X106017142Y-84697619D01*
X106969523Y-85602380D02*
X106398095Y-85602380D01*
X106683809Y-85602380D02*
X106683809Y-84602380D01*
X106588571Y-84745238D01*
X106493333Y-84840476D01*
X106398095Y-84888095D01*
X107302857Y-84602380D02*
X107921904Y-84602380D01*
X107588571Y-84983333D01*
X107731428Y-84983333D01*
X107826666Y-85030952D01*
X107874285Y-85078571D01*
X107921904Y-85173809D01*
X107921904Y-85411904D01*
X107874285Y-85507142D01*
X107826666Y-85554761D01*
X107731428Y-85602380D01*
X107445714Y-85602380D01*
X107350476Y-85554761D01*
X107302857Y-85507142D01*
G04 #@! TO.C,C12*
X119987142Y-47407142D02*
X119939523Y-47454761D01*
X119796666Y-47502380D01*
X119701428Y-47502380D01*
X119558571Y-47454761D01*
X119463333Y-47359523D01*
X119415714Y-47264285D01*
X119368095Y-47073809D01*
X119368095Y-46930952D01*
X119415714Y-46740476D01*
X119463333Y-46645238D01*
X119558571Y-46550000D01*
X119701428Y-46502380D01*
X119796666Y-46502380D01*
X119939523Y-46550000D01*
X119987142Y-46597619D01*
X120939523Y-47502380D02*
X120368095Y-47502380D01*
X120653809Y-47502380D02*
X120653809Y-46502380D01*
X120558571Y-46645238D01*
X120463333Y-46740476D01*
X120368095Y-46788095D01*
X121320476Y-46597619D02*
X121368095Y-46550000D01*
X121463333Y-46502380D01*
X121701428Y-46502380D01*
X121796666Y-46550000D01*
X121844285Y-46597619D01*
X121891904Y-46692857D01*
X121891904Y-46788095D01*
X121844285Y-46930952D01*
X121272857Y-47502380D01*
X121891904Y-47502380D01*
G04 #@! TO.C,C14*
X74267142Y-56297142D02*
X74219523Y-56344761D01*
X74076666Y-56392380D01*
X73981428Y-56392380D01*
X73838571Y-56344761D01*
X73743333Y-56249523D01*
X73695714Y-56154285D01*
X73648095Y-55963809D01*
X73648095Y-55820952D01*
X73695714Y-55630476D01*
X73743333Y-55535238D01*
X73838571Y-55440000D01*
X73981428Y-55392380D01*
X74076666Y-55392380D01*
X74219523Y-55440000D01*
X74267142Y-55487619D01*
X75219523Y-56392380D02*
X74648095Y-56392380D01*
X74933809Y-56392380D02*
X74933809Y-55392380D01*
X74838571Y-55535238D01*
X74743333Y-55630476D01*
X74648095Y-55678095D01*
X76076666Y-55725714D02*
X76076666Y-56392380D01*
X75838571Y-55344761D02*
X75600476Y-56059047D01*
X76219523Y-56059047D01*
G04 #@! TO.C,U10*
X86391904Y-89782380D02*
X86391904Y-90591904D01*
X86439523Y-90687142D01*
X86487142Y-90734761D01*
X86582380Y-90782380D01*
X86772857Y-90782380D01*
X86868095Y-90734761D01*
X86915714Y-90687142D01*
X86963333Y-90591904D01*
X86963333Y-89782380D01*
X87963333Y-90782380D02*
X87391904Y-90782380D01*
X87677619Y-90782380D02*
X87677619Y-89782380D01*
X87582380Y-89925238D01*
X87487142Y-90020476D01*
X87391904Y-90068095D01*
X88582380Y-89782380D02*
X88677619Y-89782380D01*
X88772857Y-89830000D01*
X88820476Y-89877619D01*
X88868095Y-89972857D01*
X88915714Y-90163333D01*
X88915714Y-90401428D01*
X88868095Y-90591904D01*
X88820476Y-90687142D01*
X88772857Y-90734761D01*
X88677619Y-90782380D01*
X88582380Y-90782380D01*
X88487142Y-90734761D01*
X88439523Y-90687142D01*
X88391904Y-90591904D01*
X88344285Y-90401428D01*
X88344285Y-90163333D01*
X88391904Y-89972857D01*
X88439523Y-89877619D01*
X88487142Y-89830000D01*
X88582380Y-89782380D01*
G04 #@! TO.C,C8*
X74803333Y-80327142D02*
X74755714Y-80374761D01*
X74612857Y-80422380D01*
X74517619Y-80422380D01*
X74374761Y-80374761D01*
X74279523Y-80279523D01*
X74231904Y-80184285D01*
X74184285Y-79993809D01*
X74184285Y-79850952D01*
X74231904Y-79660476D01*
X74279523Y-79565238D01*
X74374761Y-79470000D01*
X74517619Y-79422380D01*
X74612857Y-79422380D01*
X74755714Y-79470000D01*
X74803333Y-79517619D01*
X75374761Y-79850952D02*
X75279523Y-79803333D01*
X75231904Y-79755714D01*
X75184285Y-79660476D01*
X75184285Y-79612857D01*
X75231904Y-79517619D01*
X75279523Y-79470000D01*
X75374761Y-79422380D01*
X75565238Y-79422380D01*
X75660476Y-79470000D01*
X75708095Y-79517619D01*
X75755714Y-79612857D01*
X75755714Y-79660476D01*
X75708095Y-79755714D01*
X75660476Y-79803333D01*
X75565238Y-79850952D01*
X75374761Y-79850952D01*
X75279523Y-79898571D01*
X75231904Y-79946190D01*
X75184285Y-80041428D01*
X75184285Y-80231904D01*
X75231904Y-80327142D01*
X75279523Y-80374761D01*
X75374761Y-80422380D01*
X75565238Y-80422380D01*
X75660476Y-80374761D01*
X75708095Y-80327142D01*
X75755714Y-80231904D01*
X75755714Y-80041428D01*
X75708095Y-79946190D01*
X75660476Y-79898571D01*
X75565238Y-79850952D01*
G04 #@! TO.C,C11*
X89527142Y-61057142D02*
X89479523Y-61104761D01*
X89336666Y-61152380D01*
X89241428Y-61152380D01*
X89098571Y-61104761D01*
X89003333Y-61009523D01*
X88955714Y-60914285D01*
X88908095Y-60723809D01*
X88908095Y-60580952D01*
X88955714Y-60390476D01*
X89003333Y-60295238D01*
X89098571Y-60200000D01*
X89241428Y-60152380D01*
X89336666Y-60152380D01*
X89479523Y-60200000D01*
X89527142Y-60247619D01*
X90479523Y-61152380D02*
X89908095Y-61152380D01*
X90193809Y-61152380D02*
X90193809Y-60152380D01*
X90098571Y-60295238D01*
X90003333Y-60390476D01*
X89908095Y-60438095D01*
X91431904Y-61152380D02*
X90860476Y-61152380D01*
X91146190Y-61152380D02*
X91146190Y-60152380D01*
X91050952Y-60295238D01*
X90955714Y-60390476D01*
X90860476Y-60438095D01*
G04 #@! TO.C,C10*
X85717142Y-37447142D02*
X85669523Y-37494761D01*
X85526666Y-37542380D01*
X85431428Y-37542380D01*
X85288571Y-37494761D01*
X85193333Y-37399523D01*
X85145714Y-37304285D01*
X85098095Y-37113809D01*
X85098095Y-36970952D01*
X85145714Y-36780476D01*
X85193333Y-36685238D01*
X85288571Y-36590000D01*
X85431428Y-36542380D01*
X85526666Y-36542380D01*
X85669523Y-36590000D01*
X85717142Y-36637619D01*
X86669523Y-37542380D02*
X86098095Y-37542380D01*
X86383809Y-37542380D02*
X86383809Y-36542380D01*
X86288571Y-36685238D01*
X86193333Y-36780476D01*
X86098095Y-36828095D01*
X87288571Y-36542380D02*
X87383809Y-36542380D01*
X87479047Y-36590000D01*
X87526666Y-36637619D01*
X87574285Y-36732857D01*
X87621904Y-36923333D01*
X87621904Y-37161428D01*
X87574285Y-37351904D01*
X87526666Y-37447142D01*
X87479047Y-37494761D01*
X87383809Y-37542380D01*
X87288571Y-37542380D01*
X87193333Y-37494761D01*
X87145714Y-37447142D01*
X87098095Y-37351904D01*
X87050476Y-37161428D01*
X87050476Y-36923333D01*
X87098095Y-36732857D01*
X87145714Y-36637619D01*
X87193333Y-36590000D01*
X87288571Y-36542380D01*
G04 #@! TO.C,C9*
X73710833Y-51417142D02*
X73663214Y-51464761D01*
X73520357Y-51512380D01*
X73425119Y-51512380D01*
X73282261Y-51464761D01*
X73187023Y-51369523D01*
X73139404Y-51274285D01*
X73091785Y-51083809D01*
X73091785Y-50940952D01*
X73139404Y-50750476D01*
X73187023Y-50655238D01*
X73282261Y-50560000D01*
X73425119Y-50512380D01*
X73520357Y-50512380D01*
X73663214Y-50560000D01*
X73710833Y-50607619D01*
X74187023Y-51512380D02*
X74377500Y-51512380D01*
X74472738Y-51464761D01*
X74520357Y-51417142D01*
X74615595Y-51274285D01*
X74663214Y-51083809D01*
X74663214Y-50702857D01*
X74615595Y-50607619D01*
X74567976Y-50560000D01*
X74472738Y-50512380D01*
X74282261Y-50512380D01*
X74187023Y-50560000D01*
X74139404Y-50607619D01*
X74091785Y-50702857D01*
X74091785Y-50940952D01*
X74139404Y-51036190D01*
X74187023Y-51083809D01*
X74282261Y-51131428D01*
X74472738Y-51131428D01*
X74567976Y-51083809D01*
X74615595Y-51036190D01*
X74663214Y-50940952D01*
G04 #@! TO.C,C7*
X83653333Y-62847142D02*
X83605714Y-62894761D01*
X83462857Y-62942380D01*
X83367619Y-62942380D01*
X83224761Y-62894761D01*
X83129523Y-62799523D01*
X83081904Y-62704285D01*
X83034285Y-62513809D01*
X83034285Y-62370952D01*
X83081904Y-62180476D01*
X83129523Y-62085238D01*
X83224761Y-61990000D01*
X83367619Y-61942380D01*
X83462857Y-61942380D01*
X83605714Y-61990000D01*
X83653333Y-62037619D01*
X83986666Y-61942380D02*
X84653333Y-61942380D01*
X84224761Y-62942380D01*
G04 #@! TO.C,C6*
X90003333Y-62847142D02*
X89955714Y-62894761D01*
X89812857Y-62942380D01*
X89717619Y-62942380D01*
X89574761Y-62894761D01*
X89479523Y-62799523D01*
X89431904Y-62704285D01*
X89384285Y-62513809D01*
X89384285Y-62370952D01*
X89431904Y-62180476D01*
X89479523Y-62085238D01*
X89574761Y-61990000D01*
X89717619Y-61942380D01*
X89812857Y-61942380D01*
X89955714Y-61990000D01*
X90003333Y-62037619D01*
X90860476Y-61942380D02*
X90670000Y-61942380D01*
X90574761Y-61990000D01*
X90527142Y-62037619D01*
X90431904Y-62180476D01*
X90384285Y-62370952D01*
X90384285Y-62751904D01*
X90431904Y-62847142D01*
X90479523Y-62894761D01*
X90574761Y-62942380D01*
X90765238Y-62942380D01*
X90860476Y-62894761D01*
X90908095Y-62847142D01*
X90955714Y-62751904D01*
X90955714Y-62513809D01*
X90908095Y-62418571D01*
X90860476Y-62370952D01*
X90765238Y-62323333D01*
X90574761Y-62323333D01*
X90479523Y-62370952D01*
X90431904Y-62418571D01*
X90384285Y-62513809D01*
G04 #@! TO.C,C5*
X73493333Y-40997142D02*
X73445714Y-41044761D01*
X73302857Y-41092380D01*
X73207619Y-41092380D01*
X73064761Y-41044761D01*
X72969523Y-40949523D01*
X72921904Y-40854285D01*
X72874285Y-40663809D01*
X72874285Y-40520952D01*
X72921904Y-40330476D01*
X72969523Y-40235238D01*
X73064761Y-40140000D01*
X73207619Y-40092380D01*
X73302857Y-40092380D01*
X73445714Y-40140000D01*
X73493333Y-40187619D01*
X74398095Y-40092380D02*
X73921904Y-40092380D01*
X73874285Y-40568571D01*
X73921904Y-40520952D01*
X74017142Y-40473333D01*
X74255238Y-40473333D01*
X74350476Y-40520952D01*
X74398095Y-40568571D01*
X74445714Y-40663809D01*
X74445714Y-40901904D01*
X74398095Y-40997142D01*
X74350476Y-41044761D01*
X74255238Y-41092380D01*
X74017142Y-41092380D01*
X73921904Y-41044761D01*
X73874285Y-40997142D01*
G04 #@! TO.C,U8*
X95758095Y-67737380D02*
X95758095Y-68546904D01*
X95805714Y-68642142D01*
X95853333Y-68689761D01*
X95948571Y-68737380D01*
X96139047Y-68737380D01*
X96234285Y-68689761D01*
X96281904Y-68642142D01*
X96329523Y-68546904D01*
X96329523Y-67737380D01*
X96948571Y-68165952D02*
X96853333Y-68118333D01*
X96805714Y-68070714D01*
X96758095Y-67975476D01*
X96758095Y-67927857D01*
X96805714Y-67832619D01*
X96853333Y-67785000D01*
X96948571Y-67737380D01*
X97139047Y-67737380D01*
X97234285Y-67785000D01*
X97281904Y-67832619D01*
X97329523Y-67927857D01*
X97329523Y-67975476D01*
X97281904Y-68070714D01*
X97234285Y-68118333D01*
X97139047Y-68165952D01*
X96948571Y-68165952D01*
X96853333Y-68213571D01*
X96805714Y-68261190D01*
X96758095Y-68356428D01*
X96758095Y-68546904D01*
X96805714Y-68642142D01*
X96853333Y-68689761D01*
X96948571Y-68737380D01*
X97139047Y-68737380D01*
X97234285Y-68689761D01*
X97281904Y-68642142D01*
X97329523Y-68546904D01*
X97329523Y-68356428D01*
X97281904Y-68261190D01*
X97234285Y-68213571D01*
X97139047Y-68165952D01*
G04 #@! TO.C,TP6*
X62873095Y-52792380D02*
X63444523Y-52792380D01*
X63158809Y-53792380D02*
X63158809Y-52792380D01*
X63777857Y-53792380D02*
X63777857Y-52792380D01*
X64158809Y-52792380D01*
X64254047Y-52840000D01*
X64301666Y-52887619D01*
X64349285Y-52982857D01*
X64349285Y-53125714D01*
X64301666Y-53220952D01*
X64254047Y-53268571D01*
X64158809Y-53316190D01*
X63777857Y-53316190D01*
X65206428Y-52792380D02*
X65015952Y-52792380D01*
X64920714Y-52840000D01*
X64873095Y-52887619D01*
X64777857Y-53030476D01*
X64730238Y-53220952D01*
X64730238Y-53601904D01*
X64777857Y-53697142D01*
X64825476Y-53744761D01*
X64920714Y-53792380D01*
X65111190Y-53792380D01*
X65206428Y-53744761D01*
X65254047Y-53697142D01*
X65301666Y-53601904D01*
X65301666Y-53363809D01*
X65254047Y-53268571D01*
X65206428Y-53220952D01*
X65111190Y-53173333D01*
X64920714Y-53173333D01*
X64825476Y-53220952D01*
X64777857Y-53268571D01*
X64730238Y-53363809D01*
G04 #@! TO.C,TP13*
X115101904Y-42632380D02*
X115673333Y-42632380D01*
X115387619Y-43632380D02*
X115387619Y-42632380D01*
X116006666Y-43632380D02*
X116006666Y-42632380D01*
X116387619Y-42632380D01*
X116482857Y-42680000D01*
X116530476Y-42727619D01*
X116578095Y-42822857D01*
X116578095Y-42965714D01*
X116530476Y-43060952D01*
X116482857Y-43108571D01*
X116387619Y-43156190D01*
X116006666Y-43156190D01*
X117530476Y-43632380D02*
X116959047Y-43632380D01*
X117244761Y-43632380D02*
X117244761Y-42632380D01*
X117149523Y-42775238D01*
X117054285Y-42870476D01*
X116959047Y-42918095D01*
X117863809Y-42632380D02*
X118482857Y-42632380D01*
X118149523Y-43013333D01*
X118292380Y-43013333D01*
X118387619Y-43060952D01*
X118435238Y-43108571D01*
X118482857Y-43203809D01*
X118482857Y-43441904D01*
X118435238Y-43537142D01*
X118387619Y-43584761D01*
X118292380Y-43632380D01*
X118006666Y-43632380D01*
X117911428Y-43584761D01*
X117863809Y-43537142D01*
G04 #@! TO.C,TP12*
X77001904Y-112482380D02*
X77573333Y-112482380D01*
X77287619Y-113482380D02*
X77287619Y-112482380D01*
X77906666Y-113482380D02*
X77906666Y-112482380D01*
X78287619Y-112482380D01*
X78382857Y-112530000D01*
X78430476Y-112577619D01*
X78478095Y-112672857D01*
X78478095Y-112815714D01*
X78430476Y-112910952D01*
X78382857Y-112958571D01*
X78287619Y-113006190D01*
X77906666Y-113006190D01*
X79430476Y-113482380D02*
X78859047Y-113482380D01*
X79144761Y-113482380D02*
X79144761Y-112482380D01*
X79049523Y-112625238D01*
X78954285Y-112720476D01*
X78859047Y-112768095D01*
X79811428Y-112577619D02*
X79859047Y-112530000D01*
X79954285Y-112482380D01*
X80192380Y-112482380D01*
X80287619Y-112530000D01*
X80335238Y-112577619D01*
X80382857Y-112672857D01*
X80382857Y-112768095D01*
X80335238Y-112910952D01*
X79763809Y-113482380D01*
X80382857Y-113482380D01*
G04 #@! TO.C,TP11*
X77001904Y-118832380D02*
X77573333Y-118832380D01*
X77287619Y-119832380D02*
X77287619Y-118832380D01*
X77906666Y-119832380D02*
X77906666Y-118832380D01*
X78287619Y-118832380D01*
X78382857Y-118880000D01*
X78430476Y-118927619D01*
X78478095Y-119022857D01*
X78478095Y-119165714D01*
X78430476Y-119260952D01*
X78382857Y-119308571D01*
X78287619Y-119356190D01*
X77906666Y-119356190D01*
X79430476Y-119832380D02*
X78859047Y-119832380D01*
X79144761Y-119832380D02*
X79144761Y-118832380D01*
X79049523Y-118975238D01*
X78954285Y-119070476D01*
X78859047Y-119118095D01*
X80382857Y-119832380D02*
X79811428Y-119832380D01*
X80097142Y-119832380D02*
X80097142Y-118832380D01*
X80001904Y-118975238D01*
X79906666Y-119070476D01*
X79811428Y-119118095D01*
G04 #@! TO.C,TP10*
X97956904Y-103592380D02*
X98528333Y-103592380D01*
X98242619Y-104592380D02*
X98242619Y-103592380D01*
X98861666Y-104592380D02*
X98861666Y-103592380D01*
X99242619Y-103592380D01*
X99337857Y-103640000D01*
X99385476Y-103687619D01*
X99433095Y-103782857D01*
X99433095Y-103925714D01*
X99385476Y-104020952D01*
X99337857Y-104068571D01*
X99242619Y-104116190D01*
X98861666Y-104116190D01*
X100385476Y-104592380D02*
X99814047Y-104592380D01*
X100099761Y-104592380D02*
X100099761Y-103592380D01*
X100004523Y-103735238D01*
X99909285Y-103830476D01*
X99814047Y-103878095D01*
X101004523Y-103592380D02*
X101099761Y-103592380D01*
X101195000Y-103640000D01*
X101242619Y-103687619D01*
X101290238Y-103782857D01*
X101337857Y-103973333D01*
X101337857Y-104211428D01*
X101290238Y-104401904D01*
X101242619Y-104497142D01*
X101195000Y-104544761D01*
X101099761Y-104592380D01*
X101004523Y-104592380D01*
X100909285Y-104544761D01*
X100861666Y-104497142D01*
X100814047Y-104401904D01*
X100766428Y-104211428D01*
X100766428Y-103973333D01*
X100814047Y-103782857D01*
X100861666Y-103687619D01*
X100909285Y-103640000D01*
X101004523Y-103592380D01*
G04 #@! TO.C,TP8*
X57793095Y-52792380D02*
X58364523Y-52792380D01*
X58078809Y-53792380D02*
X58078809Y-52792380D01*
X58697857Y-53792380D02*
X58697857Y-52792380D01*
X59078809Y-52792380D01*
X59174047Y-52840000D01*
X59221666Y-52887619D01*
X59269285Y-52982857D01*
X59269285Y-53125714D01*
X59221666Y-53220952D01*
X59174047Y-53268571D01*
X59078809Y-53316190D01*
X58697857Y-53316190D01*
X59840714Y-53220952D02*
X59745476Y-53173333D01*
X59697857Y-53125714D01*
X59650238Y-53030476D01*
X59650238Y-52982857D01*
X59697857Y-52887619D01*
X59745476Y-52840000D01*
X59840714Y-52792380D01*
X60031190Y-52792380D01*
X60126428Y-52840000D01*
X60174047Y-52887619D01*
X60221666Y-52982857D01*
X60221666Y-53030476D01*
X60174047Y-53125714D01*
X60126428Y-53173333D01*
X60031190Y-53220952D01*
X59840714Y-53220952D01*
X59745476Y-53268571D01*
X59697857Y-53316190D01*
X59650238Y-53411428D01*
X59650238Y-53601904D01*
X59697857Y-53697142D01*
X59745476Y-53744761D01*
X59840714Y-53792380D01*
X60031190Y-53792380D01*
X60126428Y-53744761D01*
X60174047Y-53697142D01*
X60221666Y-53601904D01*
X60221666Y-53411428D01*
X60174047Y-53316190D01*
X60126428Y-53268571D01*
X60031190Y-53220952D01*
G04 #@! TO.C,TP5*
X81288095Y-35012380D02*
X81859523Y-35012380D01*
X81573809Y-36012380D02*
X81573809Y-35012380D01*
X82192857Y-36012380D02*
X82192857Y-35012380D01*
X82573809Y-35012380D01*
X82669047Y-35060000D01*
X82716666Y-35107619D01*
X82764285Y-35202857D01*
X82764285Y-35345714D01*
X82716666Y-35440952D01*
X82669047Y-35488571D01*
X82573809Y-35536190D01*
X82192857Y-35536190D01*
X83669047Y-35012380D02*
X83192857Y-35012380D01*
X83145238Y-35488571D01*
X83192857Y-35440952D01*
X83288095Y-35393333D01*
X83526190Y-35393333D01*
X83621428Y-35440952D01*
X83669047Y-35488571D01*
X83716666Y-35583809D01*
X83716666Y-35821904D01*
X83669047Y-35917142D01*
X83621428Y-35964761D01*
X83526190Y-36012380D01*
X83288095Y-36012380D01*
X83192857Y-35964761D01*
X83145238Y-35917142D01*
G04 #@! TO.C,TP4*
X67318095Y-52792380D02*
X67889523Y-52792380D01*
X67603809Y-53792380D02*
X67603809Y-52792380D01*
X68222857Y-53792380D02*
X68222857Y-52792380D01*
X68603809Y-52792380D01*
X68699047Y-52840000D01*
X68746666Y-52887619D01*
X68794285Y-52982857D01*
X68794285Y-53125714D01*
X68746666Y-53220952D01*
X68699047Y-53268571D01*
X68603809Y-53316190D01*
X68222857Y-53316190D01*
X69651428Y-53125714D02*
X69651428Y-53792380D01*
X69413333Y-52744761D02*
X69175238Y-53459047D01*
X69794285Y-53459047D01*
G04 #@! TO.C,TP3*
X81923095Y-72477380D02*
X82494523Y-72477380D01*
X82208809Y-73477380D02*
X82208809Y-72477380D01*
X82827857Y-73477380D02*
X82827857Y-72477380D01*
X83208809Y-72477380D01*
X83304047Y-72525000D01*
X83351666Y-72572619D01*
X83399285Y-72667857D01*
X83399285Y-72810714D01*
X83351666Y-72905952D01*
X83304047Y-72953571D01*
X83208809Y-73001190D01*
X82827857Y-73001190D01*
X83732619Y-72477380D02*
X84351666Y-72477380D01*
X84018333Y-72858333D01*
X84161190Y-72858333D01*
X84256428Y-72905952D01*
X84304047Y-72953571D01*
X84351666Y-73048809D01*
X84351666Y-73286904D01*
X84304047Y-73382142D01*
X84256428Y-73429761D01*
X84161190Y-73477380D01*
X83875476Y-73477380D01*
X83780238Y-73429761D01*
X83732619Y-73382142D01*
G04 #@! TO.C,TP9*
X106688095Y-78192380D02*
X107259523Y-78192380D01*
X106973809Y-79192380D02*
X106973809Y-78192380D01*
X107592857Y-79192380D02*
X107592857Y-78192380D01*
X107973809Y-78192380D01*
X108069047Y-78240000D01*
X108116666Y-78287619D01*
X108164285Y-78382857D01*
X108164285Y-78525714D01*
X108116666Y-78620952D01*
X108069047Y-78668571D01*
X107973809Y-78716190D01*
X107592857Y-78716190D01*
X108640476Y-79192380D02*
X108830952Y-79192380D01*
X108926190Y-79144761D01*
X108973809Y-79097142D01*
X109069047Y-78954285D01*
X109116666Y-78763809D01*
X109116666Y-78382857D01*
X109069047Y-78287619D01*
X109021428Y-78240000D01*
X108926190Y-78192380D01*
X108735714Y-78192380D01*
X108640476Y-78240000D01*
X108592857Y-78287619D01*
X108545238Y-78382857D01*
X108545238Y-78620952D01*
X108592857Y-78716190D01*
X108640476Y-78763809D01*
X108735714Y-78811428D01*
X108926190Y-78811428D01*
X109021428Y-78763809D01*
X109069047Y-78716190D01*
X109116666Y-78620952D01*
G04 #@! TO.C,U3*
X83058095Y-55332380D02*
X83058095Y-56141904D01*
X83105714Y-56237142D01*
X83153333Y-56284761D01*
X83248571Y-56332380D01*
X83439047Y-56332380D01*
X83534285Y-56284761D01*
X83581904Y-56237142D01*
X83629523Y-56141904D01*
X83629523Y-55332380D01*
X84010476Y-55332380D02*
X84629523Y-55332380D01*
X84296190Y-55713333D01*
X84439047Y-55713333D01*
X84534285Y-55760952D01*
X84581904Y-55808571D01*
X84629523Y-55903809D01*
X84629523Y-56141904D01*
X84581904Y-56237142D01*
X84534285Y-56284761D01*
X84439047Y-56332380D01*
X84153333Y-56332380D01*
X84058095Y-56284761D01*
X84010476Y-56237142D01*
G04 #@! TO.C,U7*
X95758095Y-89882380D02*
X95758095Y-90691904D01*
X95805714Y-90787142D01*
X95853333Y-90834761D01*
X95948571Y-90882380D01*
X96139047Y-90882380D01*
X96234285Y-90834761D01*
X96281904Y-90787142D01*
X96329523Y-90691904D01*
X96329523Y-89882380D01*
X96710476Y-89882380D02*
X97377142Y-89882380D01*
X96948571Y-90882380D01*
G04 #@! TO.C,U6*
X74168095Y-62892380D02*
X74168095Y-63701904D01*
X74215714Y-63797142D01*
X74263333Y-63844761D01*
X74358571Y-63892380D01*
X74549047Y-63892380D01*
X74644285Y-63844761D01*
X74691904Y-63797142D01*
X74739523Y-63701904D01*
X74739523Y-62892380D01*
X75644285Y-62892380D02*
X75453809Y-62892380D01*
X75358571Y-62940000D01*
X75310952Y-62987619D01*
X75215714Y-63130476D01*
X75168095Y-63320952D01*
X75168095Y-63701904D01*
X75215714Y-63797142D01*
X75263333Y-63844761D01*
X75358571Y-63892380D01*
X75549047Y-63892380D01*
X75644285Y-63844761D01*
X75691904Y-63797142D01*
X75739523Y-63701904D01*
X75739523Y-63463809D01*
X75691904Y-63368571D01*
X75644285Y-63320952D01*
X75549047Y-63273333D01*
X75358571Y-63273333D01*
X75263333Y-63320952D01*
X75215714Y-63368571D01*
X75168095Y-63463809D01*
G04 #@! TO.C,U4*
X85598095Y-76627380D02*
X85598095Y-77436904D01*
X85645714Y-77532142D01*
X85693333Y-77579761D01*
X85788571Y-77627380D01*
X85979047Y-77627380D01*
X86074285Y-77579761D01*
X86121904Y-77532142D01*
X86169523Y-77436904D01*
X86169523Y-76627380D01*
X87074285Y-76960714D02*
X87074285Y-77627380D01*
X86836190Y-76579761D02*
X86598095Y-77294047D01*
X87217142Y-77294047D01*
G04 #@! TO.C,C3*
X84923333Y-50267142D02*
X84875714Y-50314761D01*
X84732857Y-50362380D01*
X84637619Y-50362380D01*
X84494761Y-50314761D01*
X84399523Y-50219523D01*
X84351904Y-50124285D01*
X84304285Y-49933809D01*
X84304285Y-49790952D01*
X84351904Y-49600476D01*
X84399523Y-49505238D01*
X84494761Y-49410000D01*
X84637619Y-49362380D01*
X84732857Y-49362380D01*
X84875714Y-49410000D01*
X84923333Y-49457619D01*
X85256666Y-49362380D02*
X85875714Y-49362380D01*
X85542380Y-49743333D01*
X85685238Y-49743333D01*
X85780476Y-49790952D01*
X85828095Y-49838571D01*
X85875714Y-49933809D01*
X85875714Y-50171904D01*
X85828095Y-50267142D01*
X85780476Y-50314761D01*
X85685238Y-50362380D01*
X85399523Y-50362380D01*
X85304285Y-50314761D01*
X85256666Y-50267142D01*
G04 #@! TO.C,C1*
X105223333Y-70267142D02*
X105175714Y-70314761D01*
X105032857Y-70362380D01*
X104937619Y-70362380D01*
X104794761Y-70314761D01*
X104699523Y-70219523D01*
X104651904Y-70124285D01*
X104604285Y-69933809D01*
X104604285Y-69790952D01*
X104651904Y-69600476D01*
X104699523Y-69505238D01*
X104794761Y-69410000D01*
X104937619Y-69362380D01*
X105032857Y-69362380D01*
X105175714Y-69410000D01*
X105223333Y-69457619D01*
X106175714Y-70362380D02*
X105604285Y-70362380D01*
X105890000Y-70362380D02*
X105890000Y-69362380D01*
X105794761Y-69505238D01*
X105699523Y-69600476D01*
X105604285Y-69648095D01*
G04 #@! TO.C,RN1*
X97099523Y-82042380D02*
X96766190Y-81566190D01*
X96528095Y-82042380D02*
X96528095Y-81042380D01*
X96909047Y-81042380D01*
X97004285Y-81090000D01*
X97051904Y-81137619D01*
X97099523Y-81232857D01*
X97099523Y-81375714D01*
X97051904Y-81470952D01*
X97004285Y-81518571D01*
X96909047Y-81566190D01*
X96528095Y-81566190D01*
X97528095Y-82042380D02*
X97528095Y-81042380D01*
X98099523Y-82042380D01*
X98099523Y-81042380D01*
X99099523Y-82042380D02*
X98528095Y-82042380D01*
X98813809Y-82042380D02*
X98813809Y-81042380D01*
X98718571Y-81185238D01*
X98623333Y-81280476D01*
X98528095Y-81328095D01*
G04 #@! TO.C,J1*
X60626666Y-42632380D02*
X60626666Y-43346666D01*
X60579047Y-43489523D01*
X60483809Y-43584761D01*
X60340952Y-43632380D01*
X60245714Y-43632380D01*
X61626666Y-43632380D02*
X61055238Y-43632380D01*
X61340952Y-43632380D02*
X61340952Y-42632380D01*
X61245714Y-42775238D01*
X61150476Y-42870476D01*
X61055238Y-42918095D01*
G04 #@! TO.C,FB2*
X77271666Y-80573571D02*
X76938333Y-80573571D01*
X76938333Y-81097380D02*
X76938333Y-80097380D01*
X77414523Y-80097380D01*
X78128809Y-80573571D02*
X78271666Y-80621190D01*
X78319285Y-80668809D01*
X78366904Y-80764047D01*
X78366904Y-80906904D01*
X78319285Y-81002142D01*
X78271666Y-81049761D01*
X78176428Y-81097380D01*
X77795476Y-81097380D01*
X77795476Y-80097380D01*
X78128809Y-80097380D01*
X78224047Y-80145000D01*
X78271666Y-80192619D01*
X78319285Y-80287857D01*
X78319285Y-80383095D01*
X78271666Y-80478333D01*
X78224047Y-80525952D01*
X78128809Y-80573571D01*
X77795476Y-80573571D01*
X78747857Y-80192619D02*
X78795476Y-80145000D01*
X78890714Y-80097380D01*
X79128809Y-80097380D01*
X79224047Y-80145000D01*
X79271666Y-80192619D01*
X79319285Y-80287857D01*
X79319285Y-80383095D01*
X79271666Y-80525952D01*
X78700238Y-81097380D01*
X79319285Y-81097380D01*
G04 #@! TO.C,C2*
X84923333Y-45187142D02*
X84875714Y-45234761D01*
X84732857Y-45282380D01*
X84637619Y-45282380D01*
X84494761Y-45234761D01*
X84399523Y-45139523D01*
X84351904Y-45044285D01*
X84304285Y-44853809D01*
X84304285Y-44710952D01*
X84351904Y-44520476D01*
X84399523Y-44425238D01*
X84494761Y-44330000D01*
X84637619Y-44282380D01*
X84732857Y-44282380D01*
X84875714Y-44330000D01*
X84923333Y-44377619D01*
X85304285Y-44377619D02*
X85351904Y-44330000D01*
X85447142Y-44282380D01*
X85685238Y-44282380D01*
X85780476Y-44330000D01*
X85828095Y-44377619D01*
X85875714Y-44472857D01*
X85875714Y-44568095D01*
X85828095Y-44710952D01*
X85256666Y-45282380D01*
X85875714Y-45282380D01*
G04 #@! TO.C,L1*
X91273333Y-41092380D02*
X90797142Y-41092380D01*
X90797142Y-40092380D01*
X92130476Y-41092380D02*
X91559047Y-41092380D01*
X91844761Y-41092380D02*
X91844761Y-40092380D01*
X91749523Y-40235238D01*
X91654285Y-40330476D01*
X91559047Y-40378095D01*
G04 #@! TO.C,L2*
X91273333Y-46172380D02*
X90797142Y-46172380D01*
X90797142Y-45172380D01*
X91559047Y-45267619D02*
X91606666Y-45220000D01*
X91701904Y-45172380D01*
X91940000Y-45172380D01*
X92035238Y-45220000D01*
X92082857Y-45267619D01*
X92130476Y-45362857D01*
X92130476Y-45458095D01*
X92082857Y-45600952D01*
X91511428Y-46172380D01*
X92130476Y-46172380D01*
G04 #@! TO.C,C4*
X88713333Y-67727142D02*
X88665714Y-67774761D01*
X88522857Y-67822380D01*
X88427619Y-67822380D01*
X88284761Y-67774761D01*
X88189523Y-67679523D01*
X88141904Y-67584285D01*
X88094285Y-67393809D01*
X88094285Y-67250952D01*
X88141904Y-67060476D01*
X88189523Y-66965238D01*
X88284761Y-66870000D01*
X88427619Y-66822380D01*
X88522857Y-66822380D01*
X88665714Y-66870000D01*
X88713333Y-66917619D01*
X89570476Y-67155714D02*
X89570476Y-67822380D01*
X89332380Y-66774761D02*
X89094285Y-67489047D01*
X89713333Y-67489047D01*
G04 #@! TO.C,FB1*
X81716666Y-68128571D02*
X81383333Y-68128571D01*
X81383333Y-68652380D02*
X81383333Y-67652380D01*
X81859523Y-67652380D01*
X82573809Y-68128571D02*
X82716666Y-68176190D01*
X82764285Y-68223809D01*
X82811904Y-68319047D01*
X82811904Y-68461904D01*
X82764285Y-68557142D01*
X82716666Y-68604761D01*
X82621428Y-68652380D01*
X82240476Y-68652380D01*
X82240476Y-67652380D01*
X82573809Y-67652380D01*
X82669047Y-67700000D01*
X82716666Y-67747619D01*
X82764285Y-67842857D01*
X82764285Y-67938095D01*
X82716666Y-68033333D01*
X82669047Y-68080952D01*
X82573809Y-68128571D01*
X82240476Y-68128571D01*
X83764285Y-68652380D02*
X83192857Y-68652380D01*
X83478571Y-68652380D02*
X83478571Y-67652380D01*
X83383333Y-67795238D01*
X83288095Y-67890476D01*
X83192857Y-67938095D01*
G04 #@! TO.C,CN2*
X66619523Y-96877142D02*
X66571904Y-96924761D01*
X66429047Y-96972380D01*
X66333809Y-96972380D01*
X66190952Y-96924761D01*
X66095714Y-96829523D01*
X66048095Y-96734285D01*
X66000476Y-96543809D01*
X66000476Y-96400952D01*
X66048095Y-96210476D01*
X66095714Y-96115238D01*
X66190952Y-96020000D01*
X66333809Y-95972380D01*
X66429047Y-95972380D01*
X66571904Y-96020000D01*
X66619523Y-96067619D01*
X67048095Y-96972380D02*
X67048095Y-95972380D01*
X67619523Y-96972380D01*
X67619523Y-95972380D01*
X68048095Y-96067619D02*
X68095714Y-96020000D01*
X68190952Y-95972380D01*
X68429047Y-95972380D01*
X68524285Y-96020000D01*
X68571904Y-96067619D01*
X68619523Y-96162857D01*
X68619523Y-96258095D01*
X68571904Y-96400952D01*
X68000476Y-96972380D01*
X68619523Y-96972380D01*
G04 #@! TO.C,CN3*
X111069523Y-65127142D02*
X111021904Y-65174761D01*
X110879047Y-65222380D01*
X110783809Y-65222380D01*
X110640952Y-65174761D01*
X110545714Y-65079523D01*
X110498095Y-64984285D01*
X110450476Y-64793809D01*
X110450476Y-64650952D01*
X110498095Y-64460476D01*
X110545714Y-64365238D01*
X110640952Y-64270000D01*
X110783809Y-64222380D01*
X110879047Y-64222380D01*
X111021904Y-64270000D01*
X111069523Y-64317619D01*
X111498095Y-65222380D02*
X111498095Y-64222380D01*
X112069523Y-65222380D01*
X112069523Y-64222380D01*
X112450476Y-64222380D02*
X113069523Y-64222380D01*
X112736190Y-64603333D01*
X112879047Y-64603333D01*
X112974285Y-64650952D01*
X113021904Y-64698571D01*
X113069523Y-64793809D01*
X113069523Y-65031904D01*
X113021904Y-65127142D01*
X112974285Y-65174761D01*
X112879047Y-65222380D01*
X112593333Y-65222380D01*
X112498095Y-65174761D01*
X112450476Y-65127142D01*
G04 #@! TO.C,CN4*
X112304524Y-91797142D02*
X112256905Y-91844761D01*
X112114048Y-91892380D01*
X112018810Y-91892380D01*
X111875953Y-91844761D01*
X111780715Y-91749523D01*
X111733096Y-91654285D01*
X111685477Y-91463809D01*
X111685477Y-91320952D01*
X111733096Y-91130476D01*
X111780715Y-91035238D01*
X111875953Y-90940000D01*
X112018810Y-90892380D01*
X112114048Y-90892380D01*
X112256905Y-90940000D01*
X112304524Y-90987619D01*
X112733096Y-91892380D02*
X112733096Y-90892380D01*
X113304524Y-91892380D01*
X113304524Y-90892380D01*
X114209286Y-91225714D02*
X114209286Y-91892380D01*
X113971191Y-90844761D02*
X113733096Y-91559047D01*
X114352143Y-91559047D01*
G04 #@! TO.C,CN1*
X67889523Y-74017142D02*
X67841904Y-74064761D01*
X67699047Y-74112380D01*
X67603809Y-74112380D01*
X67460952Y-74064761D01*
X67365714Y-73969523D01*
X67318095Y-73874285D01*
X67270476Y-73683809D01*
X67270476Y-73540952D01*
X67318095Y-73350476D01*
X67365714Y-73255238D01*
X67460952Y-73160000D01*
X67603809Y-73112380D01*
X67699047Y-73112380D01*
X67841904Y-73160000D01*
X67889523Y-73207619D01*
X68318095Y-74112380D02*
X68318095Y-73112380D01*
X68889523Y-74112380D01*
X68889523Y-73112380D01*
X69889523Y-74112380D02*
X69318095Y-74112380D01*
X69603809Y-74112380D02*
X69603809Y-73112380D01*
X69508571Y-73255238D01*
X69413333Y-73350476D01*
X69318095Y-73398095D01*
G04 #@! TD*
M02*
