G04 #@! TF.GenerationSoftware,KiCad,Pcbnew,(5.0.1)-3*
G04 #@! TF.CreationDate,2019-01-05T13:11:41+10:00*
G04 #@! TF.ProjectId,stmsplat1,73746D73706C6174312E6B696361645F,rev?*
G04 #@! TF.SameCoordinates,Original*
G04 #@! TF.FileFunction,Paste,Top*
G04 #@! TF.FilePolarity,Positive*
%FSLAX46Y46*%
G04 Gerber Fmt 4.6, Leading zero omitted, Abs format (unit mm)*
G04 Created by KiCad (PCBNEW (5.0.1)-3) date 05/01/2019 13:11:41*
%MOMM*%
%LPD*%
G01*
G04 APERTURE LIST*
%ADD10C,0.200000*%
%ADD11R,1.458400X0.548400*%
%ADD12R,1.348400X0.348400*%
%ADD13C,0.100000*%
%ADD14C,1.221800*%
%ADD15C,1.321800*%
%ADD16C,0.946800*%
%ADD17R,0.958400X0.548400*%
%ADD18R,0.798400X0.798400*%
%ADD19R,1.296800X2.396800*%
%ADD20R,1.596800X3.296800*%
%ADD21R,0.746800X0.346800*%
%ADD22R,1.296800X0.396800*%
%ADD23R,1.398400X0.348400*%
%ADD24R,1.298400X0.198400*%
%ADD25C,0.771800*%
G04 APERTURE END LIST*
D10*
X125100000Y-33800000D02*
X125090000Y-33790000D01*
D11*
G04 #@! TO.C,U9*
X72310000Y-47310000D03*
X72310000Y-48260000D03*
X72310000Y-49210000D03*
X75010000Y-49210000D03*
X75010000Y-47310000D03*
X75010000Y-48260000D03*
G04 #@! TD*
D12*
G04 #@! TO.C,U5*
X77130000Y-71415000D03*
X77130000Y-72065000D03*
X77130000Y-72715000D03*
X77130000Y-73365000D03*
X72730000Y-73365000D03*
X72730000Y-72715000D03*
X72730000Y-72065000D03*
X72730000Y-71415000D03*
G04 #@! TD*
D13*
G04 #@! TO.C,R1*
G36*
X72590059Y-35607632D02*
X72610867Y-35610719D01*
X72631272Y-35615830D01*
X72651078Y-35622916D01*
X72670093Y-35631910D01*
X72688136Y-35642725D01*
X72705032Y-35655255D01*
X72720618Y-35669382D01*
X72734745Y-35684968D01*
X72747275Y-35701864D01*
X72758090Y-35719907D01*
X72767084Y-35738922D01*
X72774170Y-35758728D01*
X72779281Y-35779133D01*
X72782368Y-35799941D01*
X72783400Y-35820951D01*
X72783400Y-37839049D01*
X72782368Y-37860059D01*
X72779281Y-37880867D01*
X72774170Y-37901272D01*
X72767084Y-37921078D01*
X72758090Y-37940093D01*
X72747275Y-37958136D01*
X72734745Y-37975032D01*
X72720618Y-37990618D01*
X72705032Y-38004745D01*
X72688136Y-38017275D01*
X72670093Y-38028090D01*
X72651078Y-38037084D01*
X72631272Y-38044170D01*
X72610867Y-38049281D01*
X72590059Y-38052368D01*
X72569049Y-38053400D01*
X71775951Y-38053400D01*
X71754941Y-38052368D01*
X71734133Y-38049281D01*
X71713728Y-38044170D01*
X71693922Y-38037084D01*
X71674907Y-38028090D01*
X71656864Y-38017275D01*
X71639968Y-38004745D01*
X71624382Y-37990618D01*
X71610255Y-37975032D01*
X71597725Y-37958136D01*
X71586910Y-37940093D01*
X71577916Y-37921078D01*
X71570830Y-37901272D01*
X71565719Y-37880867D01*
X71562632Y-37860059D01*
X71561600Y-37839049D01*
X71561600Y-35820951D01*
X71562632Y-35799941D01*
X71565719Y-35779133D01*
X71570830Y-35758728D01*
X71577916Y-35738922D01*
X71586910Y-35719907D01*
X71597725Y-35701864D01*
X71610255Y-35684968D01*
X71624382Y-35669382D01*
X71639968Y-35655255D01*
X71656864Y-35642725D01*
X71674907Y-35631910D01*
X71693922Y-35622916D01*
X71713728Y-35615830D01*
X71734133Y-35610719D01*
X71754941Y-35607632D01*
X71775951Y-35606600D01*
X72569049Y-35606600D01*
X72590059Y-35607632D01*
X72590059Y-35607632D01*
G37*
D14*
X72172500Y-36830000D03*
D13*
G36*
X75565059Y-35607632D02*
X75585867Y-35610719D01*
X75606272Y-35615830D01*
X75626078Y-35622916D01*
X75645093Y-35631910D01*
X75663136Y-35642725D01*
X75680032Y-35655255D01*
X75695618Y-35669382D01*
X75709745Y-35684968D01*
X75722275Y-35701864D01*
X75733090Y-35719907D01*
X75742084Y-35738922D01*
X75749170Y-35758728D01*
X75754281Y-35779133D01*
X75757368Y-35799941D01*
X75758400Y-35820951D01*
X75758400Y-37839049D01*
X75757368Y-37860059D01*
X75754281Y-37880867D01*
X75749170Y-37901272D01*
X75742084Y-37921078D01*
X75733090Y-37940093D01*
X75722275Y-37958136D01*
X75709745Y-37975032D01*
X75695618Y-37990618D01*
X75680032Y-38004745D01*
X75663136Y-38017275D01*
X75645093Y-38028090D01*
X75626078Y-38037084D01*
X75606272Y-38044170D01*
X75585867Y-38049281D01*
X75565059Y-38052368D01*
X75544049Y-38053400D01*
X74750951Y-38053400D01*
X74729941Y-38052368D01*
X74709133Y-38049281D01*
X74688728Y-38044170D01*
X74668922Y-38037084D01*
X74649907Y-38028090D01*
X74631864Y-38017275D01*
X74614968Y-38004745D01*
X74599382Y-37990618D01*
X74585255Y-37975032D01*
X74572725Y-37958136D01*
X74561910Y-37940093D01*
X74552916Y-37921078D01*
X74545830Y-37901272D01*
X74540719Y-37880867D01*
X74537632Y-37860059D01*
X74536600Y-37839049D01*
X74536600Y-35820951D01*
X74537632Y-35799941D01*
X74540719Y-35779133D01*
X74545830Y-35758728D01*
X74552916Y-35738922D01*
X74561910Y-35719907D01*
X74572725Y-35701864D01*
X74585255Y-35684968D01*
X74599382Y-35669382D01*
X74614968Y-35655255D01*
X74631864Y-35642725D01*
X74649907Y-35631910D01*
X74668922Y-35622916D01*
X74688728Y-35615830D01*
X74709133Y-35610719D01*
X74729941Y-35607632D01*
X74750951Y-35606600D01*
X75544049Y-35606600D01*
X75565059Y-35607632D01*
X75565059Y-35607632D01*
G37*
D14*
X75147500Y-36830000D03*
G04 #@! TD*
D13*
G04 #@! TO.C,R4*
G36*
X80677952Y-52117643D02*
X80698987Y-52120764D01*
X80719614Y-52125930D01*
X80739636Y-52133094D01*
X80758859Y-52142186D01*
X80777098Y-52153118D01*
X80794178Y-52165786D01*
X80809934Y-52180066D01*
X80824214Y-52195822D01*
X80836882Y-52212902D01*
X80847814Y-52231141D01*
X80856906Y-52250364D01*
X80864070Y-52270386D01*
X80869236Y-52291013D01*
X80872357Y-52312048D01*
X80873400Y-52333287D01*
X80873400Y-54346713D01*
X80872357Y-54367952D01*
X80869236Y-54388987D01*
X80864070Y-54409614D01*
X80856906Y-54429636D01*
X80847814Y-54448859D01*
X80836882Y-54467098D01*
X80824214Y-54484178D01*
X80809934Y-54499934D01*
X80794178Y-54514214D01*
X80777098Y-54526882D01*
X80758859Y-54537814D01*
X80739636Y-54546906D01*
X80719614Y-54554070D01*
X80698987Y-54559236D01*
X80677952Y-54562357D01*
X80656713Y-54563400D01*
X79768287Y-54563400D01*
X79747048Y-54562357D01*
X79726013Y-54559236D01*
X79705386Y-54554070D01*
X79685364Y-54546906D01*
X79666141Y-54537814D01*
X79647902Y-54526882D01*
X79630822Y-54514214D01*
X79615066Y-54499934D01*
X79600786Y-54484178D01*
X79588118Y-54467098D01*
X79577186Y-54448859D01*
X79568094Y-54429636D01*
X79560930Y-54409614D01*
X79555764Y-54388987D01*
X79552643Y-54367952D01*
X79551600Y-54346713D01*
X79551600Y-52333287D01*
X79552643Y-52312048D01*
X79555764Y-52291013D01*
X79560930Y-52270386D01*
X79568094Y-52250364D01*
X79577186Y-52231141D01*
X79588118Y-52212902D01*
X79600786Y-52195822D01*
X79615066Y-52180066D01*
X79630822Y-52165786D01*
X79647902Y-52153118D01*
X79666141Y-52142186D01*
X79685364Y-52133094D01*
X79705386Y-52125930D01*
X79726013Y-52120764D01*
X79747048Y-52117643D01*
X79768287Y-52116600D01*
X80656713Y-52116600D01*
X80677952Y-52117643D01*
X80677952Y-52117643D01*
G37*
D15*
X80212500Y-53340000D03*
D13*
G36*
X85352952Y-52117643D02*
X85373987Y-52120764D01*
X85394614Y-52125930D01*
X85414636Y-52133094D01*
X85433859Y-52142186D01*
X85452098Y-52153118D01*
X85469178Y-52165786D01*
X85484934Y-52180066D01*
X85499214Y-52195822D01*
X85511882Y-52212902D01*
X85522814Y-52231141D01*
X85531906Y-52250364D01*
X85539070Y-52270386D01*
X85544236Y-52291013D01*
X85547357Y-52312048D01*
X85548400Y-52333287D01*
X85548400Y-54346713D01*
X85547357Y-54367952D01*
X85544236Y-54388987D01*
X85539070Y-54409614D01*
X85531906Y-54429636D01*
X85522814Y-54448859D01*
X85511882Y-54467098D01*
X85499214Y-54484178D01*
X85484934Y-54499934D01*
X85469178Y-54514214D01*
X85452098Y-54526882D01*
X85433859Y-54537814D01*
X85414636Y-54546906D01*
X85394614Y-54554070D01*
X85373987Y-54559236D01*
X85352952Y-54562357D01*
X85331713Y-54563400D01*
X84443287Y-54563400D01*
X84422048Y-54562357D01*
X84401013Y-54559236D01*
X84380386Y-54554070D01*
X84360364Y-54546906D01*
X84341141Y-54537814D01*
X84322902Y-54526882D01*
X84305822Y-54514214D01*
X84290066Y-54499934D01*
X84275786Y-54484178D01*
X84263118Y-54467098D01*
X84252186Y-54448859D01*
X84243094Y-54429636D01*
X84235930Y-54409614D01*
X84230764Y-54388987D01*
X84227643Y-54367952D01*
X84226600Y-54346713D01*
X84226600Y-52333287D01*
X84227643Y-52312048D01*
X84230764Y-52291013D01*
X84235930Y-52270386D01*
X84243094Y-52250364D01*
X84252186Y-52231141D01*
X84263118Y-52212902D01*
X84275786Y-52195822D01*
X84290066Y-52180066D01*
X84305822Y-52165786D01*
X84322902Y-52153118D01*
X84341141Y-52142186D01*
X84360364Y-52133094D01*
X84380386Y-52125930D01*
X84401013Y-52120764D01*
X84422048Y-52117643D01*
X84443287Y-52116600D01*
X85331713Y-52116600D01*
X85352952Y-52117643D01*
X85352952Y-52117643D01*
G37*
D15*
X84887500Y-53340000D03*
G04 #@! TD*
D13*
G04 #@! TO.C,R5*
G36*
X88297952Y-52117643D02*
X88318987Y-52120764D01*
X88339614Y-52125930D01*
X88359636Y-52133094D01*
X88378859Y-52142186D01*
X88397098Y-52153118D01*
X88414178Y-52165786D01*
X88429934Y-52180066D01*
X88444214Y-52195822D01*
X88456882Y-52212902D01*
X88467814Y-52231141D01*
X88476906Y-52250364D01*
X88484070Y-52270386D01*
X88489236Y-52291013D01*
X88492357Y-52312048D01*
X88493400Y-52333287D01*
X88493400Y-54346713D01*
X88492357Y-54367952D01*
X88489236Y-54388987D01*
X88484070Y-54409614D01*
X88476906Y-54429636D01*
X88467814Y-54448859D01*
X88456882Y-54467098D01*
X88444214Y-54484178D01*
X88429934Y-54499934D01*
X88414178Y-54514214D01*
X88397098Y-54526882D01*
X88378859Y-54537814D01*
X88359636Y-54546906D01*
X88339614Y-54554070D01*
X88318987Y-54559236D01*
X88297952Y-54562357D01*
X88276713Y-54563400D01*
X87388287Y-54563400D01*
X87367048Y-54562357D01*
X87346013Y-54559236D01*
X87325386Y-54554070D01*
X87305364Y-54546906D01*
X87286141Y-54537814D01*
X87267902Y-54526882D01*
X87250822Y-54514214D01*
X87235066Y-54499934D01*
X87220786Y-54484178D01*
X87208118Y-54467098D01*
X87197186Y-54448859D01*
X87188094Y-54429636D01*
X87180930Y-54409614D01*
X87175764Y-54388987D01*
X87172643Y-54367952D01*
X87171600Y-54346713D01*
X87171600Y-52333287D01*
X87172643Y-52312048D01*
X87175764Y-52291013D01*
X87180930Y-52270386D01*
X87188094Y-52250364D01*
X87197186Y-52231141D01*
X87208118Y-52212902D01*
X87220786Y-52195822D01*
X87235066Y-52180066D01*
X87250822Y-52165786D01*
X87267902Y-52153118D01*
X87286141Y-52142186D01*
X87305364Y-52133094D01*
X87325386Y-52125930D01*
X87346013Y-52120764D01*
X87367048Y-52117643D01*
X87388287Y-52116600D01*
X88276713Y-52116600D01*
X88297952Y-52117643D01*
X88297952Y-52117643D01*
G37*
D15*
X87832500Y-53340000D03*
D13*
G36*
X92972952Y-52117643D02*
X92993987Y-52120764D01*
X93014614Y-52125930D01*
X93034636Y-52133094D01*
X93053859Y-52142186D01*
X93072098Y-52153118D01*
X93089178Y-52165786D01*
X93104934Y-52180066D01*
X93119214Y-52195822D01*
X93131882Y-52212902D01*
X93142814Y-52231141D01*
X93151906Y-52250364D01*
X93159070Y-52270386D01*
X93164236Y-52291013D01*
X93167357Y-52312048D01*
X93168400Y-52333287D01*
X93168400Y-54346713D01*
X93167357Y-54367952D01*
X93164236Y-54388987D01*
X93159070Y-54409614D01*
X93151906Y-54429636D01*
X93142814Y-54448859D01*
X93131882Y-54467098D01*
X93119214Y-54484178D01*
X93104934Y-54499934D01*
X93089178Y-54514214D01*
X93072098Y-54526882D01*
X93053859Y-54537814D01*
X93034636Y-54546906D01*
X93014614Y-54554070D01*
X92993987Y-54559236D01*
X92972952Y-54562357D01*
X92951713Y-54563400D01*
X92063287Y-54563400D01*
X92042048Y-54562357D01*
X92021013Y-54559236D01*
X92000386Y-54554070D01*
X91980364Y-54546906D01*
X91961141Y-54537814D01*
X91942902Y-54526882D01*
X91925822Y-54514214D01*
X91910066Y-54499934D01*
X91895786Y-54484178D01*
X91883118Y-54467098D01*
X91872186Y-54448859D01*
X91863094Y-54429636D01*
X91855930Y-54409614D01*
X91850764Y-54388987D01*
X91847643Y-54367952D01*
X91846600Y-54346713D01*
X91846600Y-52333287D01*
X91847643Y-52312048D01*
X91850764Y-52291013D01*
X91855930Y-52270386D01*
X91863094Y-52250364D01*
X91872186Y-52231141D01*
X91883118Y-52212902D01*
X91895786Y-52195822D01*
X91910066Y-52180066D01*
X91925822Y-52165786D01*
X91942902Y-52153118D01*
X91961141Y-52142186D01*
X91980364Y-52133094D01*
X92000386Y-52125930D01*
X92021013Y-52120764D01*
X92042048Y-52117643D01*
X92063287Y-52116600D01*
X92951713Y-52116600D01*
X92972952Y-52117643D01*
X92972952Y-52117643D01*
G37*
D15*
X92507500Y-53340000D03*
G04 #@! TD*
D13*
G04 #@! TO.C,C20*
G36*
X77512749Y-90842591D02*
X77532729Y-90845555D01*
X77552323Y-90850463D01*
X77571341Y-90857267D01*
X77589600Y-90865904D01*
X77606925Y-90876288D01*
X77623149Y-90888320D01*
X77638115Y-90901885D01*
X77651680Y-90916851D01*
X77663712Y-90933075D01*
X77674096Y-90950400D01*
X77682733Y-90968659D01*
X77689537Y-90987677D01*
X77694445Y-91007271D01*
X77697409Y-91027251D01*
X77698400Y-91047425D01*
X77698400Y-91832575D01*
X77697409Y-91852749D01*
X77694445Y-91872729D01*
X77689537Y-91892323D01*
X77682733Y-91911341D01*
X77674096Y-91929600D01*
X77663712Y-91946925D01*
X77651680Y-91963149D01*
X77638115Y-91978115D01*
X77623149Y-91991680D01*
X77606925Y-92003712D01*
X77589600Y-92014096D01*
X77571341Y-92022733D01*
X77552323Y-92029537D01*
X77532729Y-92034445D01*
X77512749Y-92037409D01*
X77492575Y-92038400D01*
X76957425Y-92038400D01*
X76937251Y-92037409D01*
X76917271Y-92034445D01*
X76897677Y-92029537D01*
X76878659Y-92022733D01*
X76860400Y-92014096D01*
X76843075Y-92003712D01*
X76826851Y-91991680D01*
X76811885Y-91978115D01*
X76798320Y-91963149D01*
X76786288Y-91946925D01*
X76775904Y-91929600D01*
X76767267Y-91911341D01*
X76760463Y-91892323D01*
X76755555Y-91872729D01*
X76752591Y-91852749D01*
X76751600Y-91832575D01*
X76751600Y-91047425D01*
X76752591Y-91027251D01*
X76755555Y-91007271D01*
X76760463Y-90987677D01*
X76767267Y-90968659D01*
X76775904Y-90950400D01*
X76786288Y-90933075D01*
X76798320Y-90916851D01*
X76811885Y-90901885D01*
X76826851Y-90888320D01*
X76843075Y-90876288D01*
X76860400Y-90865904D01*
X76878659Y-90857267D01*
X76897677Y-90850463D01*
X76917271Y-90845555D01*
X76937251Y-90842591D01*
X76957425Y-90841600D01*
X77492575Y-90841600D01*
X77512749Y-90842591D01*
X77512749Y-90842591D01*
G37*
D16*
X77225000Y-91440000D03*
D13*
G36*
X75462749Y-90842591D02*
X75482729Y-90845555D01*
X75502323Y-90850463D01*
X75521341Y-90857267D01*
X75539600Y-90865904D01*
X75556925Y-90876288D01*
X75573149Y-90888320D01*
X75588115Y-90901885D01*
X75601680Y-90916851D01*
X75613712Y-90933075D01*
X75624096Y-90950400D01*
X75632733Y-90968659D01*
X75639537Y-90987677D01*
X75644445Y-91007271D01*
X75647409Y-91027251D01*
X75648400Y-91047425D01*
X75648400Y-91832575D01*
X75647409Y-91852749D01*
X75644445Y-91872729D01*
X75639537Y-91892323D01*
X75632733Y-91911341D01*
X75624096Y-91929600D01*
X75613712Y-91946925D01*
X75601680Y-91963149D01*
X75588115Y-91978115D01*
X75573149Y-91991680D01*
X75556925Y-92003712D01*
X75539600Y-92014096D01*
X75521341Y-92022733D01*
X75502323Y-92029537D01*
X75482729Y-92034445D01*
X75462749Y-92037409D01*
X75442575Y-92038400D01*
X74907425Y-92038400D01*
X74887251Y-92037409D01*
X74867271Y-92034445D01*
X74847677Y-92029537D01*
X74828659Y-92022733D01*
X74810400Y-92014096D01*
X74793075Y-92003712D01*
X74776851Y-91991680D01*
X74761885Y-91978115D01*
X74748320Y-91963149D01*
X74736288Y-91946925D01*
X74725904Y-91929600D01*
X74717267Y-91911341D01*
X74710463Y-91892323D01*
X74705555Y-91872729D01*
X74702591Y-91852749D01*
X74701600Y-91832575D01*
X74701600Y-91047425D01*
X74702591Y-91027251D01*
X74705555Y-91007271D01*
X74710463Y-90987677D01*
X74717267Y-90968659D01*
X74725904Y-90950400D01*
X74736288Y-90933075D01*
X74748320Y-90916851D01*
X74761885Y-90901885D01*
X74776851Y-90888320D01*
X74793075Y-90876288D01*
X74810400Y-90865904D01*
X74828659Y-90857267D01*
X74847677Y-90850463D01*
X74867271Y-90845555D01*
X74887251Y-90842591D01*
X74907425Y-90841600D01*
X75442575Y-90841600D01*
X75462749Y-90842591D01*
X75462749Y-90842591D01*
G37*
D16*
X75175000Y-91440000D03*
G04 #@! TD*
D17*
G04 #@! TO.C,U12*
X73830000Y-86680000D03*
X73830000Y-87630000D03*
X73830000Y-88580000D03*
X76030000Y-88580000D03*
X76030000Y-86680000D03*
G04 #@! TD*
D18*
G04 #@! TO.C,RN4*
X115340000Y-55150000D03*
X115340000Y-59150000D03*
X115340000Y-56490000D03*
X115340000Y-57810000D03*
X118340000Y-56490000D03*
X118340000Y-55150000D03*
X118340000Y-59150000D03*
X118340000Y-57810000D03*
G04 #@! TD*
D19*
G04 #@! TO.C,D8*
X79145000Y-127000000D03*
X82145000Y-127000000D03*
G04 #@! TD*
D20*
G04 #@! TO.C,D7*
X78740000Y-46950000D03*
X78740000Y-41950000D03*
G04 #@! TD*
D19*
G04 #@! TO.C,D1*
X88670000Y-106680000D03*
X91670000Y-106680000D03*
G04 #@! TD*
G04 #@! TO.C,D2*
X91670000Y-113030000D03*
X88670000Y-113030000D03*
G04 #@! TD*
G04 #@! TO.C,D5*
X95020000Y-119380000D03*
X98020000Y-119380000D03*
G04 #@! TD*
G04 #@! TO.C,D6*
X98020000Y-125730000D03*
X95020000Y-125730000D03*
G04 #@! TD*
D18*
G04 #@! TO.C,RN2*
X106910000Y-121310000D03*
X106910000Y-122650000D03*
X106910000Y-118650000D03*
X106910000Y-119990000D03*
X103910000Y-121310000D03*
X103910000Y-119990000D03*
X103910000Y-122650000D03*
X103910000Y-118650000D03*
G04 #@! TD*
G04 #@! TO.C,RN3*
X103910000Y-109760000D03*
X103910000Y-113760000D03*
X103910000Y-111100000D03*
X103910000Y-112420000D03*
X106910000Y-111100000D03*
X106910000Y-109760000D03*
X106910000Y-113760000D03*
X106910000Y-112420000D03*
G04 #@! TD*
D19*
G04 #@! TO.C,D4*
X91670000Y-125730000D03*
X88670000Y-125730000D03*
G04 #@! TD*
G04 #@! TO.C,D3*
X88670000Y-119380000D03*
X91670000Y-119380000D03*
G04 #@! TD*
D21*
G04 #@! TO.C,U10*
X86555000Y-95855000D03*
X86555000Y-92105000D03*
X86555000Y-93355000D03*
X86555000Y-94605000D03*
X88705000Y-92105000D03*
X88705000Y-93355000D03*
X88705000Y-94605000D03*
X88705000Y-95855000D03*
G04 #@! TD*
D13*
G04 #@! TO.C,C11*
G36*
X92075059Y-57197632D02*
X92095867Y-57200719D01*
X92116272Y-57205830D01*
X92136078Y-57212916D01*
X92155093Y-57221910D01*
X92173136Y-57232725D01*
X92190032Y-57245255D01*
X92205618Y-57259382D01*
X92219745Y-57274968D01*
X92232275Y-57291864D01*
X92243090Y-57309907D01*
X92252084Y-57328922D01*
X92259170Y-57348728D01*
X92264281Y-57369133D01*
X92267368Y-57389941D01*
X92268400Y-57410951D01*
X92268400Y-59429049D01*
X92267368Y-59450059D01*
X92264281Y-59470867D01*
X92259170Y-59491272D01*
X92252084Y-59511078D01*
X92243090Y-59530093D01*
X92232275Y-59548136D01*
X92219745Y-59565032D01*
X92205618Y-59580618D01*
X92190032Y-59594745D01*
X92173136Y-59607275D01*
X92155093Y-59618090D01*
X92136078Y-59627084D01*
X92116272Y-59634170D01*
X92095867Y-59639281D01*
X92075059Y-59642368D01*
X92054049Y-59643400D01*
X91260951Y-59643400D01*
X91239941Y-59642368D01*
X91219133Y-59639281D01*
X91198728Y-59634170D01*
X91178922Y-59627084D01*
X91159907Y-59618090D01*
X91141864Y-59607275D01*
X91124968Y-59594745D01*
X91109382Y-59580618D01*
X91095255Y-59565032D01*
X91082725Y-59548136D01*
X91071910Y-59530093D01*
X91062916Y-59511078D01*
X91055830Y-59491272D01*
X91050719Y-59470867D01*
X91047632Y-59450059D01*
X91046600Y-59429049D01*
X91046600Y-57410951D01*
X91047632Y-57389941D01*
X91050719Y-57369133D01*
X91055830Y-57348728D01*
X91062916Y-57328922D01*
X91071910Y-57309907D01*
X91082725Y-57291864D01*
X91095255Y-57274968D01*
X91109382Y-57259382D01*
X91124968Y-57245255D01*
X91141864Y-57232725D01*
X91159907Y-57221910D01*
X91178922Y-57212916D01*
X91198728Y-57205830D01*
X91219133Y-57200719D01*
X91239941Y-57197632D01*
X91260951Y-57196600D01*
X92054049Y-57196600D01*
X92075059Y-57197632D01*
X92075059Y-57197632D01*
G37*
D14*
X91657500Y-58420000D03*
D13*
G36*
X89100059Y-57197632D02*
X89120867Y-57200719D01*
X89141272Y-57205830D01*
X89161078Y-57212916D01*
X89180093Y-57221910D01*
X89198136Y-57232725D01*
X89215032Y-57245255D01*
X89230618Y-57259382D01*
X89244745Y-57274968D01*
X89257275Y-57291864D01*
X89268090Y-57309907D01*
X89277084Y-57328922D01*
X89284170Y-57348728D01*
X89289281Y-57369133D01*
X89292368Y-57389941D01*
X89293400Y-57410951D01*
X89293400Y-59429049D01*
X89292368Y-59450059D01*
X89289281Y-59470867D01*
X89284170Y-59491272D01*
X89277084Y-59511078D01*
X89268090Y-59530093D01*
X89257275Y-59548136D01*
X89244745Y-59565032D01*
X89230618Y-59580618D01*
X89215032Y-59594745D01*
X89198136Y-59607275D01*
X89180093Y-59618090D01*
X89161078Y-59627084D01*
X89141272Y-59634170D01*
X89120867Y-59639281D01*
X89100059Y-59642368D01*
X89079049Y-59643400D01*
X88285951Y-59643400D01*
X88264941Y-59642368D01*
X88244133Y-59639281D01*
X88223728Y-59634170D01*
X88203922Y-59627084D01*
X88184907Y-59618090D01*
X88166864Y-59607275D01*
X88149968Y-59594745D01*
X88134382Y-59580618D01*
X88120255Y-59565032D01*
X88107725Y-59548136D01*
X88096910Y-59530093D01*
X88087916Y-59511078D01*
X88080830Y-59491272D01*
X88075719Y-59470867D01*
X88072632Y-59450059D01*
X88071600Y-59429049D01*
X88071600Y-57410951D01*
X88072632Y-57389941D01*
X88075719Y-57369133D01*
X88080830Y-57348728D01*
X88087916Y-57328922D01*
X88096910Y-57309907D01*
X88107725Y-57291864D01*
X88120255Y-57274968D01*
X88134382Y-57259382D01*
X88149968Y-57245255D01*
X88166864Y-57232725D01*
X88184907Y-57221910D01*
X88203922Y-57212916D01*
X88223728Y-57205830D01*
X88244133Y-57200719D01*
X88264941Y-57197632D01*
X88285951Y-57196600D01*
X89079049Y-57196600D01*
X89100059Y-57197632D01*
X89100059Y-57197632D01*
G37*
D14*
X88682500Y-58420000D03*
G04 #@! TD*
D13*
G04 #@! TO.C,C10*
G36*
X88265059Y-38147632D02*
X88285867Y-38150719D01*
X88306272Y-38155830D01*
X88326078Y-38162916D01*
X88345093Y-38171910D01*
X88363136Y-38182725D01*
X88380032Y-38195255D01*
X88395618Y-38209382D01*
X88409745Y-38224968D01*
X88422275Y-38241864D01*
X88433090Y-38259907D01*
X88442084Y-38278922D01*
X88449170Y-38298728D01*
X88454281Y-38319133D01*
X88457368Y-38339941D01*
X88458400Y-38360951D01*
X88458400Y-40379049D01*
X88457368Y-40400059D01*
X88454281Y-40420867D01*
X88449170Y-40441272D01*
X88442084Y-40461078D01*
X88433090Y-40480093D01*
X88422275Y-40498136D01*
X88409745Y-40515032D01*
X88395618Y-40530618D01*
X88380032Y-40544745D01*
X88363136Y-40557275D01*
X88345093Y-40568090D01*
X88326078Y-40577084D01*
X88306272Y-40584170D01*
X88285867Y-40589281D01*
X88265059Y-40592368D01*
X88244049Y-40593400D01*
X87450951Y-40593400D01*
X87429941Y-40592368D01*
X87409133Y-40589281D01*
X87388728Y-40584170D01*
X87368922Y-40577084D01*
X87349907Y-40568090D01*
X87331864Y-40557275D01*
X87314968Y-40544745D01*
X87299382Y-40530618D01*
X87285255Y-40515032D01*
X87272725Y-40498136D01*
X87261910Y-40480093D01*
X87252916Y-40461078D01*
X87245830Y-40441272D01*
X87240719Y-40420867D01*
X87237632Y-40400059D01*
X87236600Y-40379049D01*
X87236600Y-38360951D01*
X87237632Y-38339941D01*
X87240719Y-38319133D01*
X87245830Y-38298728D01*
X87252916Y-38278922D01*
X87261910Y-38259907D01*
X87272725Y-38241864D01*
X87285255Y-38224968D01*
X87299382Y-38209382D01*
X87314968Y-38195255D01*
X87331864Y-38182725D01*
X87349907Y-38171910D01*
X87368922Y-38162916D01*
X87388728Y-38155830D01*
X87409133Y-38150719D01*
X87429941Y-38147632D01*
X87450951Y-38146600D01*
X88244049Y-38146600D01*
X88265059Y-38147632D01*
X88265059Y-38147632D01*
G37*
D14*
X87847500Y-39370000D03*
D13*
G36*
X85290059Y-38147632D02*
X85310867Y-38150719D01*
X85331272Y-38155830D01*
X85351078Y-38162916D01*
X85370093Y-38171910D01*
X85388136Y-38182725D01*
X85405032Y-38195255D01*
X85420618Y-38209382D01*
X85434745Y-38224968D01*
X85447275Y-38241864D01*
X85458090Y-38259907D01*
X85467084Y-38278922D01*
X85474170Y-38298728D01*
X85479281Y-38319133D01*
X85482368Y-38339941D01*
X85483400Y-38360951D01*
X85483400Y-40379049D01*
X85482368Y-40400059D01*
X85479281Y-40420867D01*
X85474170Y-40441272D01*
X85467084Y-40461078D01*
X85458090Y-40480093D01*
X85447275Y-40498136D01*
X85434745Y-40515032D01*
X85420618Y-40530618D01*
X85405032Y-40544745D01*
X85388136Y-40557275D01*
X85370093Y-40568090D01*
X85351078Y-40577084D01*
X85331272Y-40584170D01*
X85310867Y-40589281D01*
X85290059Y-40592368D01*
X85269049Y-40593400D01*
X84475951Y-40593400D01*
X84454941Y-40592368D01*
X84434133Y-40589281D01*
X84413728Y-40584170D01*
X84393922Y-40577084D01*
X84374907Y-40568090D01*
X84356864Y-40557275D01*
X84339968Y-40544745D01*
X84324382Y-40530618D01*
X84310255Y-40515032D01*
X84297725Y-40498136D01*
X84286910Y-40480093D01*
X84277916Y-40461078D01*
X84270830Y-40441272D01*
X84265719Y-40420867D01*
X84262632Y-40400059D01*
X84261600Y-40379049D01*
X84261600Y-38360951D01*
X84262632Y-38339941D01*
X84265719Y-38319133D01*
X84270830Y-38298728D01*
X84277916Y-38278922D01*
X84286910Y-38259907D01*
X84297725Y-38241864D01*
X84310255Y-38224968D01*
X84324382Y-38209382D01*
X84339968Y-38195255D01*
X84356864Y-38182725D01*
X84374907Y-38171910D01*
X84393922Y-38162916D01*
X84413728Y-38155830D01*
X84434133Y-38150719D01*
X84454941Y-38147632D01*
X84475951Y-38146600D01*
X85269049Y-38146600D01*
X85290059Y-38147632D01*
X85290059Y-38147632D01*
G37*
D14*
X84872500Y-39370000D03*
G04 #@! TD*
D13*
G04 #@! TO.C,C9*
G36*
X72807559Y-52117632D02*
X72828367Y-52120719D01*
X72848772Y-52125830D01*
X72868578Y-52132916D01*
X72887593Y-52141910D01*
X72905636Y-52152725D01*
X72922532Y-52165255D01*
X72938118Y-52179382D01*
X72952245Y-52194968D01*
X72964775Y-52211864D01*
X72975590Y-52229907D01*
X72984584Y-52248922D01*
X72991670Y-52268728D01*
X72996781Y-52289133D01*
X72999868Y-52309941D01*
X73000900Y-52330951D01*
X73000900Y-54349049D01*
X72999868Y-54370059D01*
X72996781Y-54390867D01*
X72991670Y-54411272D01*
X72984584Y-54431078D01*
X72975590Y-54450093D01*
X72964775Y-54468136D01*
X72952245Y-54485032D01*
X72938118Y-54500618D01*
X72922532Y-54514745D01*
X72905636Y-54527275D01*
X72887593Y-54538090D01*
X72868578Y-54547084D01*
X72848772Y-54554170D01*
X72828367Y-54559281D01*
X72807559Y-54562368D01*
X72786549Y-54563400D01*
X71993451Y-54563400D01*
X71972441Y-54562368D01*
X71951633Y-54559281D01*
X71931228Y-54554170D01*
X71911422Y-54547084D01*
X71892407Y-54538090D01*
X71874364Y-54527275D01*
X71857468Y-54514745D01*
X71841882Y-54500618D01*
X71827755Y-54485032D01*
X71815225Y-54468136D01*
X71804410Y-54450093D01*
X71795416Y-54431078D01*
X71788330Y-54411272D01*
X71783219Y-54390867D01*
X71780132Y-54370059D01*
X71779100Y-54349049D01*
X71779100Y-52330951D01*
X71780132Y-52309941D01*
X71783219Y-52289133D01*
X71788330Y-52268728D01*
X71795416Y-52248922D01*
X71804410Y-52229907D01*
X71815225Y-52211864D01*
X71827755Y-52194968D01*
X71841882Y-52179382D01*
X71857468Y-52165255D01*
X71874364Y-52152725D01*
X71892407Y-52141910D01*
X71911422Y-52132916D01*
X71931228Y-52125830D01*
X71951633Y-52120719D01*
X71972441Y-52117632D01*
X71993451Y-52116600D01*
X72786549Y-52116600D01*
X72807559Y-52117632D01*
X72807559Y-52117632D01*
G37*
D14*
X72390000Y-53340000D03*
D13*
G36*
X75782559Y-52117632D02*
X75803367Y-52120719D01*
X75823772Y-52125830D01*
X75843578Y-52132916D01*
X75862593Y-52141910D01*
X75880636Y-52152725D01*
X75897532Y-52165255D01*
X75913118Y-52179382D01*
X75927245Y-52194968D01*
X75939775Y-52211864D01*
X75950590Y-52229907D01*
X75959584Y-52248922D01*
X75966670Y-52268728D01*
X75971781Y-52289133D01*
X75974868Y-52309941D01*
X75975900Y-52330951D01*
X75975900Y-54349049D01*
X75974868Y-54370059D01*
X75971781Y-54390867D01*
X75966670Y-54411272D01*
X75959584Y-54431078D01*
X75950590Y-54450093D01*
X75939775Y-54468136D01*
X75927245Y-54485032D01*
X75913118Y-54500618D01*
X75897532Y-54514745D01*
X75880636Y-54527275D01*
X75862593Y-54538090D01*
X75843578Y-54547084D01*
X75823772Y-54554170D01*
X75803367Y-54559281D01*
X75782559Y-54562368D01*
X75761549Y-54563400D01*
X74968451Y-54563400D01*
X74947441Y-54562368D01*
X74926633Y-54559281D01*
X74906228Y-54554170D01*
X74886422Y-54547084D01*
X74867407Y-54538090D01*
X74849364Y-54527275D01*
X74832468Y-54514745D01*
X74816882Y-54500618D01*
X74802755Y-54485032D01*
X74790225Y-54468136D01*
X74779410Y-54450093D01*
X74770416Y-54431078D01*
X74763330Y-54411272D01*
X74758219Y-54390867D01*
X74755132Y-54370059D01*
X74754100Y-54349049D01*
X74754100Y-52330951D01*
X74755132Y-52309941D01*
X74758219Y-52289133D01*
X74763330Y-52268728D01*
X74770416Y-52248922D01*
X74779410Y-52229907D01*
X74790225Y-52211864D01*
X74802755Y-52194968D01*
X74816882Y-52179382D01*
X74832468Y-52165255D01*
X74849364Y-52152725D01*
X74867407Y-52141910D01*
X74886422Y-52132916D01*
X74906228Y-52125830D01*
X74926633Y-52120719D01*
X74947441Y-52117632D01*
X74968451Y-52116600D01*
X75761549Y-52116600D01*
X75782559Y-52117632D01*
X75782559Y-52117632D01*
G37*
D14*
X75365000Y-53340000D03*
G04 #@! TD*
D13*
G04 #@! TO.C,C7*
G36*
X82750059Y-63547632D02*
X82770867Y-63550719D01*
X82791272Y-63555830D01*
X82811078Y-63562916D01*
X82830093Y-63571910D01*
X82848136Y-63582725D01*
X82865032Y-63595255D01*
X82880618Y-63609382D01*
X82894745Y-63624968D01*
X82907275Y-63641864D01*
X82918090Y-63659907D01*
X82927084Y-63678922D01*
X82934170Y-63698728D01*
X82939281Y-63719133D01*
X82942368Y-63739941D01*
X82943400Y-63760951D01*
X82943400Y-65779049D01*
X82942368Y-65800059D01*
X82939281Y-65820867D01*
X82934170Y-65841272D01*
X82927084Y-65861078D01*
X82918090Y-65880093D01*
X82907275Y-65898136D01*
X82894745Y-65915032D01*
X82880618Y-65930618D01*
X82865032Y-65944745D01*
X82848136Y-65957275D01*
X82830093Y-65968090D01*
X82811078Y-65977084D01*
X82791272Y-65984170D01*
X82770867Y-65989281D01*
X82750059Y-65992368D01*
X82729049Y-65993400D01*
X81935951Y-65993400D01*
X81914941Y-65992368D01*
X81894133Y-65989281D01*
X81873728Y-65984170D01*
X81853922Y-65977084D01*
X81834907Y-65968090D01*
X81816864Y-65957275D01*
X81799968Y-65944745D01*
X81784382Y-65930618D01*
X81770255Y-65915032D01*
X81757725Y-65898136D01*
X81746910Y-65880093D01*
X81737916Y-65861078D01*
X81730830Y-65841272D01*
X81725719Y-65820867D01*
X81722632Y-65800059D01*
X81721600Y-65779049D01*
X81721600Y-63760951D01*
X81722632Y-63739941D01*
X81725719Y-63719133D01*
X81730830Y-63698728D01*
X81737916Y-63678922D01*
X81746910Y-63659907D01*
X81757725Y-63641864D01*
X81770255Y-63624968D01*
X81784382Y-63609382D01*
X81799968Y-63595255D01*
X81816864Y-63582725D01*
X81834907Y-63571910D01*
X81853922Y-63562916D01*
X81873728Y-63555830D01*
X81894133Y-63550719D01*
X81914941Y-63547632D01*
X81935951Y-63546600D01*
X82729049Y-63546600D01*
X82750059Y-63547632D01*
X82750059Y-63547632D01*
G37*
D14*
X82332500Y-64770000D03*
D13*
G36*
X85725059Y-63547632D02*
X85745867Y-63550719D01*
X85766272Y-63555830D01*
X85786078Y-63562916D01*
X85805093Y-63571910D01*
X85823136Y-63582725D01*
X85840032Y-63595255D01*
X85855618Y-63609382D01*
X85869745Y-63624968D01*
X85882275Y-63641864D01*
X85893090Y-63659907D01*
X85902084Y-63678922D01*
X85909170Y-63698728D01*
X85914281Y-63719133D01*
X85917368Y-63739941D01*
X85918400Y-63760951D01*
X85918400Y-65779049D01*
X85917368Y-65800059D01*
X85914281Y-65820867D01*
X85909170Y-65841272D01*
X85902084Y-65861078D01*
X85893090Y-65880093D01*
X85882275Y-65898136D01*
X85869745Y-65915032D01*
X85855618Y-65930618D01*
X85840032Y-65944745D01*
X85823136Y-65957275D01*
X85805093Y-65968090D01*
X85786078Y-65977084D01*
X85766272Y-65984170D01*
X85745867Y-65989281D01*
X85725059Y-65992368D01*
X85704049Y-65993400D01*
X84910951Y-65993400D01*
X84889941Y-65992368D01*
X84869133Y-65989281D01*
X84848728Y-65984170D01*
X84828922Y-65977084D01*
X84809907Y-65968090D01*
X84791864Y-65957275D01*
X84774968Y-65944745D01*
X84759382Y-65930618D01*
X84745255Y-65915032D01*
X84732725Y-65898136D01*
X84721910Y-65880093D01*
X84712916Y-65861078D01*
X84705830Y-65841272D01*
X84700719Y-65820867D01*
X84697632Y-65800059D01*
X84696600Y-65779049D01*
X84696600Y-63760951D01*
X84697632Y-63739941D01*
X84700719Y-63719133D01*
X84705830Y-63698728D01*
X84712916Y-63678922D01*
X84721910Y-63659907D01*
X84732725Y-63641864D01*
X84745255Y-63624968D01*
X84759382Y-63609382D01*
X84774968Y-63595255D01*
X84791864Y-63582725D01*
X84809907Y-63571910D01*
X84828922Y-63562916D01*
X84848728Y-63555830D01*
X84869133Y-63550719D01*
X84889941Y-63547632D01*
X84910951Y-63546600D01*
X85704049Y-63546600D01*
X85725059Y-63547632D01*
X85725059Y-63547632D01*
G37*
D14*
X85307500Y-64770000D03*
G04 #@! TD*
D13*
G04 #@! TO.C,C6*
G36*
X92075059Y-63547632D02*
X92095867Y-63550719D01*
X92116272Y-63555830D01*
X92136078Y-63562916D01*
X92155093Y-63571910D01*
X92173136Y-63582725D01*
X92190032Y-63595255D01*
X92205618Y-63609382D01*
X92219745Y-63624968D01*
X92232275Y-63641864D01*
X92243090Y-63659907D01*
X92252084Y-63678922D01*
X92259170Y-63698728D01*
X92264281Y-63719133D01*
X92267368Y-63739941D01*
X92268400Y-63760951D01*
X92268400Y-65779049D01*
X92267368Y-65800059D01*
X92264281Y-65820867D01*
X92259170Y-65841272D01*
X92252084Y-65861078D01*
X92243090Y-65880093D01*
X92232275Y-65898136D01*
X92219745Y-65915032D01*
X92205618Y-65930618D01*
X92190032Y-65944745D01*
X92173136Y-65957275D01*
X92155093Y-65968090D01*
X92136078Y-65977084D01*
X92116272Y-65984170D01*
X92095867Y-65989281D01*
X92075059Y-65992368D01*
X92054049Y-65993400D01*
X91260951Y-65993400D01*
X91239941Y-65992368D01*
X91219133Y-65989281D01*
X91198728Y-65984170D01*
X91178922Y-65977084D01*
X91159907Y-65968090D01*
X91141864Y-65957275D01*
X91124968Y-65944745D01*
X91109382Y-65930618D01*
X91095255Y-65915032D01*
X91082725Y-65898136D01*
X91071910Y-65880093D01*
X91062916Y-65861078D01*
X91055830Y-65841272D01*
X91050719Y-65820867D01*
X91047632Y-65800059D01*
X91046600Y-65779049D01*
X91046600Y-63760951D01*
X91047632Y-63739941D01*
X91050719Y-63719133D01*
X91055830Y-63698728D01*
X91062916Y-63678922D01*
X91071910Y-63659907D01*
X91082725Y-63641864D01*
X91095255Y-63624968D01*
X91109382Y-63609382D01*
X91124968Y-63595255D01*
X91141864Y-63582725D01*
X91159907Y-63571910D01*
X91178922Y-63562916D01*
X91198728Y-63555830D01*
X91219133Y-63550719D01*
X91239941Y-63547632D01*
X91260951Y-63546600D01*
X92054049Y-63546600D01*
X92075059Y-63547632D01*
X92075059Y-63547632D01*
G37*
D14*
X91657500Y-64770000D03*
D13*
G36*
X89100059Y-63547632D02*
X89120867Y-63550719D01*
X89141272Y-63555830D01*
X89161078Y-63562916D01*
X89180093Y-63571910D01*
X89198136Y-63582725D01*
X89215032Y-63595255D01*
X89230618Y-63609382D01*
X89244745Y-63624968D01*
X89257275Y-63641864D01*
X89268090Y-63659907D01*
X89277084Y-63678922D01*
X89284170Y-63698728D01*
X89289281Y-63719133D01*
X89292368Y-63739941D01*
X89293400Y-63760951D01*
X89293400Y-65779049D01*
X89292368Y-65800059D01*
X89289281Y-65820867D01*
X89284170Y-65841272D01*
X89277084Y-65861078D01*
X89268090Y-65880093D01*
X89257275Y-65898136D01*
X89244745Y-65915032D01*
X89230618Y-65930618D01*
X89215032Y-65944745D01*
X89198136Y-65957275D01*
X89180093Y-65968090D01*
X89161078Y-65977084D01*
X89141272Y-65984170D01*
X89120867Y-65989281D01*
X89100059Y-65992368D01*
X89079049Y-65993400D01*
X88285951Y-65993400D01*
X88264941Y-65992368D01*
X88244133Y-65989281D01*
X88223728Y-65984170D01*
X88203922Y-65977084D01*
X88184907Y-65968090D01*
X88166864Y-65957275D01*
X88149968Y-65944745D01*
X88134382Y-65930618D01*
X88120255Y-65915032D01*
X88107725Y-65898136D01*
X88096910Y-65880093D01*
X88087916Y-65861078D01*
X88080830Y-65841272D01*
X88075719Y-65820867D01*
X88072632Y-65800059D01*
X88071600Y-65779049D01*
X88071600Y-63760951D01*
X88072632Y-63739941D01*
X88075719Y-63719133D01*
X88080830Y-63698728D01*
X88087916Y-63678922D01*
X88096910Y-63659907D01*
X88107725Y-63641864D01*
X88120255Y-63624968D01*
X88134382Y-63609382D01*
X88149968Y-63595255D01*
X88166864Y-63582725D01*
X88184907Y-63571910D01*
X88203922Y-63562916D01*
X88223728Y-63555830D01*
X88244133Y-63550719D01*
X88264941Y-63547632D01*
X88285951Y-63546600D01*
X89079049Y-63546600D01*
X89100059Y-63547632D01*
X89100059Y-63547632D01*
G37*
D14*
X88682500Y-64770000D03*
G04 #@! TD*
D13*
G04 #@! TO.C,C5*
G36*
X75565059Y-41957632D02*
X75585867Y-41960719D01*
X75606272Y-41965830D01*
X75626078Y-41972916D01*
X75645093Y-41981910D01*
X75663136Y-41992725D01*
X75680032Y-42005255D01*
X75695618Y-42019382D01*
X75709745Y-42034968D01*
X75722275Y-42051864D01*
X75733090Y-42069907D01*
X75742084Y-42088922D01*
X75749170Y-42108728D01*
X75754281Y-42129133D01*
X75757368Y-42149941D01*
X75758400Y-42170951D01*
X75758400Y-44189049D01*
X75757368Y-44210059D01*
X75754281Y-44230867D01*
X75749170Y-44251272D01*
X75742084Y-44271078D01*
X75733090Y-44290093D01*
X75722275Y-44308136D01*
X75709745Y-44325032D01*
X75695618Y-44340618D01*
X75680032Y-44354745D01*
X75663136Y-44367275D01*
X75645093Y-44378090D01*
X75626078Y-44387084D01*
X75606272Y-44394170D01*
X75585867Y-44399281D01*
X75565059Y-44402368D01*
X75544049Y-44403400D01*
X74750951Y-44403400D01*
X74729941Y-44402368D01*
X74709133Y-44399281D01*
X74688728Y-44394170D01*
X74668922Y-44387084D01*
X74649907Y-44378090D01*
X74631864Y-44367275D01*
X74614968Y-44354745D01*
X74599382Y-44340618D01*
X74585255Y-44325032D01*
X74572725Y-44308136D01*
X74561910Y-44290093D01*
X74552916Y-44271078D01*
X74545830Y-44251272D01*
X74540719Y-44230867D01*
X74537632Y-44210059D01*
X74536600Y-44189049D01*
X74536600Y-42170951D01*
X74537632Y-42149941D01*
X74540719Y-42129133D01*
X74545830Y-42108728D01*
X74552916Y-42088922D01*
X74561910Y-42069907D01*
X74572725Y-42051864D01*
X74585255Y-42034968D01*
X74599382Y-42019382D01*
X74614968Y-42005255D01*
X74631864Y-41992725D01*
X74649907Y-41981910D01*
X74668922Y-41972916D01*
X74688728Y-41965830D01*
X74709133Y-41960719D01*
X74729941Y-41957632D01*
X74750951Y-41956600D01*
X75544049Y-41956600D01*
X75565059Y-41957632D01*
X75565059Y-41957632D01*
G37*
D14*
X75147500Y-43180000D03*
D13*
G36*
X72590059Y-41957632D02*
X72610867Y-41960719D01*
X72631272Y-41965830D01*
X72651078Y-41972916D01*
X72670093Y-41981910D01*
X72688136Y-41992725D01*
X72705032Y-42005255D01*
X72720618Y-42019382D01*
X72734745Y-42034968D01*
X72747275Y-42051864D01*
X72758090Y-42069907D01*
X72767084Y-42088922D01*
X72774170Y-42108728D01*
X72779281Y-42129133D01*
X72782368Y-42149941D01*
X72783400Y-42170951D01*
X72783400Y-44189049D01*
X72782368Y-44210059D01*
X72779281Y-44230867D01*
X72774170Y-44251272D01*
X72767084Y-44271078D01*
X72758090Y-44290093D01*
X72747275Y-44308136D01*
X72734745Y-44325032D01*
X72720618Y-44340618D01*
X72705032Y-44354745D01*
X72688136Y-44367275D01*
X72670093Y-44378090D01*
X72651078Y-44387084D01*
X72631272Y-44394170D01*
X72610867Y-44399281D01*
X72590059Y-44402368D01*
X72569049Y-44403400D01*
X71775951Y-44403400D01*
X71754941Y-44402368D01*
X71734133Y-44399281D01*
X71713728Y-44394170D01*
X71693922Y-44387084D01*
X71674907Y-44378090D01*
X71656864Y-44367275D01*
X71639968Y-44354745D01*
X71624382Y-44340618D01*
X71610255Y-44325032D01*
X71597725Y-44308136D01*
X71586910Y-44290093D01*
X71577916Y-44271078D01*
X71570830Y-44251272D01*
X71565719Y-44230867D01*
X71562632Y-44210059D01*
X71561600Y-44189049D01*
X71561600Y-42170951D01*
X71562632Y-42149941D01*
X71565719Y-42129133D01*
X71570830Y-42108728D01*
X71577916Y-42088922D01*
X71586910Y-42069907D01*
X71597725Y-42051864D01*
X71610255Y-42034968D01*
X71624382Y-42019382D01*
X71639968Y-42005255D01*
X71656864Y-41992725D01*
X71674907Y-41981910D01*
X71693922Y-41972916D01*
X71713728Y-41965830D01*
X71734133Y-41960719D01*
X71754941Y-41957632D01*
X71775951Y-41956600D01*
X72569049Y-41956600D01*
X72590059Y-41957632D01*
X72590059Y-41957632D01*
G37*
D14*
X72172500Y-43180000D03*
G04 #@! TD*
D22*
G04 #@! TO.C,U8*
X93820000Y-69850000D03*
X93820000Y-71120000D03*
X93820000Y-72390000D03*
X93820000Y-73660000D03*
X93820000Y-74930000D03*
X93820000Y-76200000D03*
X93820000Y-77470000D03*
X99220000Y-77470000D03*
X99220000Y-76200000D03*
X99220000Y-74930000D03*
X99220000Y-73660000D03*
X99220000Y-72390000D03*
X99220000Y-71120000D03*
X99220000Y-69850000D03*
G04 #@! TD*
D11*
G04 #@! TO.C,U3*
X81200000Y-57470000D03*
X81200000Y-58420000D03*
X81200000Y-59370000D03*
X83900000Y-59370000D03*
X83900000Y-57470000D03*
X83900000Y-58420000D03*
G04 #@! TD*
D23*
G04 #@! TO.C,U7*
X93570000Y-91705000D03*
X93570000Y-92355000D03*
X93570000Y-93005000D03*
X93570000Y-93655000D03*
X93570000Y-94305000D03*
X93570000Y-94955000D03*
X93570000Y-95605000D03*
X93570000Y-96255000D03*
X99470000Y-96255000D03*
X99470000Y-95605000D03*
X99470000Y-94955000D03*
X99470000Y-94305000D03*
X99470000Y-93655000D03*
X99470000Y-93005000D03*
X99470000Y-92355000D03*
X99470000Y-91705000D03*
G04 #@! TD*
D24*
G04 #@! TO.C,U6*
X72730000Y-65040000D03*
X72730000Y-65540000D03*
X72730000Y-66040000D03*
X72730000Y-66540000D03*
X72730000Y-67040000D03*
X77130000Y-67040000D03*
X77130000Y-66540000D03*
X77130000Y-66040000D03*
X77130000Y-65540000D03*
X77130000Y-65040000D03*
G04 #@! TD*
D22*
G04 #@! TO.C,U4*
X83660000Y-78740000D03*
X83660000Y-80010000D03*
X83660000Y-81280000D03*
X83660000Y-82550000D03*
X83660000Y-83820000D03*
X83660000Y-85090000D03*
X83660000Y-86360000D03*
X89060000Y-86360000D03*
X89060000Y-85090000D03*
X89060000Y-83820000D03*
X89060000Y-82550000D03*
X89060000Y-81280000D03*
X89060000Y-80010000D03*
X89060000Y-78740000D03*
G04 #@! TD*
D13*
G04 #@! TO.C,C3*
G36*
X86402749Y-47662591D02*
X86422729Y-47665555D01*
X86442323Y-47670463D01*
X86461341Y-47677267D01*
X86479600Y-47685904D01*
X86496925Y-47696288D01*
X86513149Y-47708320D01*
X86528115Y-47721885D01*
X86541680Y-47736851D01*
X86553712Y-47753075D01*
X86564096Y-47770400D01*
X86572733Y-47788659D01*
X86579537Y-47807677D01*
X86584445Y-47827271D01*
X86587409Y-47847251D01*
X86588400Y-47867425D01*
X86588400Y-48652575D01*
X86587409Y-48672749D01*
X86584445Y-48692729D01*
X86579537Y-48712323D01*
X86572733Y-48731341D01*
X86564096Y-48749600D01*
X86553712Y-48766925D01*
X86541680Y-48783149D01*
X86528115Y-48798115D01*
X86513149Y-48811680D01*
X86496925Y-48823712D01*
X86479600Y-48834096D01*
X86461341Y-48842733D01*
X86442323Y-48849537D01*
X86422729Y-48854445D01*
X86402749Y-48857409D01*
X86382575Y-48858400D01*
X85847425Y-48858400D01*
X85827251Y-48857409D01*
X85807271Y-48854445D01*
X85787677Y-48849537D01*
X85768659Y-48842733D01*
X85750400Y-48834096D01*
X85733075Y-48823712D01*
X85716851Y-48811680D01*
X85701885Y-48798115D01*
X85688320Y-48783149D01*
X85676288Y-48766925D01*
X85665904Y-48749600D01*
X85657267Y-48731341D01*
X85650463Y-48712323D01*
X85645555Y-48692729D01*
X85642591Y-48672749D01*
X85641600Y-48652575D01*
X85641600Y-47867425D01*
X85642591Y-47847251D01*
X85645555Y-47827271D01*
X85650463Y-47807677D01*
X85657267Y-47788659D01*
X85665904Y-47770400D01*
X85676288Y-47753075D01*
X85688320Y-47736851D01*
X85701885Y-47721885D01*
X85716851Y-47708320D01*
X85733075Y-47696288D01*
X85750400Y-47685904D01*
X85768659Y-47677267D01*
X85787677Y-47670463D01*
X85807271Y-47665555D01*
X85827251Y-47662591D01*
X85847425Y-47661600D01*
X86382575Y-47661600D01*
X86402749Y-47662591D01*
X86402749Y-47662591D01*
G37*
D16*
X86115000Y-48260000D03*
D13*
G36*
X84352749Y-47662591D02*
X84372729Y-47665555D01*
X84392323Y-47670463D01*
X84411341Y-47677267D01*
X84429600Y-47685904D01*
X84446925Y-47696288D01*
X84463149Y-47708320D01*
X84478115Y-47721885D01*
X84491680Y-47736851D01*
X84503712Y-47753075D01*
X84514096Y-47770400D01*
X84522733Y-47788659D01*
X84529537Y-47807677D01*
X84534445Y-47827271D01*
X84537409Y-47847251D01*
X84538400Y-47867425D01*
X84538400Y-48652575D01*
X84537409Y-48672749D01*
X84534445Y-48692729D01*
X84529537Y-48712323D01*
X84522733Y-48731341D01*
X84514096Y-48749600D01*
X84503712Y-48766925D01*
X84491680Y-48783149D01*
X84478115Y-48798115D01*
X84463149Y-48811680D01*
X84446925Y-48823712D01*
X84429600Y-48834096D01*
X84411341Y-48842733D01*
X84392323Y-48849537D01*
X84372729Y-48854445D01*
X84352749Y-48857409D01*
X84332575Y-48858400D01*
X83797425Y-48858400D01*
X83777251Y-48857409D01*
X83757271Y-48854445D01*
X83737677Y-48849537D01*
X83718659Y-48842733D01*
X83700400Y-48834096D01*
X83683075Y-48823712D01*
X83666851Y-48811680D01*
X83651885Y-48798115D01*
X83638320Y-48783149D01*
X83626288Y-48766925D01*
X83615904Y-48749600D01*
X83607267Y-48731341D01*
X83600463Y-48712323D01*
X83595555Y-48692729D01*
X83592591Y-48672749D01*
X83591600Y-48652575D01*
X83591600Y-47867425D01*
X83592591Y-47847251D01*
X83595555Y-47827271D01*
X83600463Y-47807677D01*
X83607267Y-47788659D01*
X83615904Y-47770400D01*
X83626288Y-47753075D01*
X83638320Y-47736851D01*
X83651885Y-47721885D01*
X83666851Y-47708320D01*
X83683075Y-47696288D01*
X83700400Y-47685904D01*
X83718659Y-47677267D01*
X83737677Y-47670463D01*
X83757271Y-47665555D01*
X83777251Y-47662591D01*
X83797425Y-47661600D01*
X84332575Y-47661600D01*
X84352749Y-47662591D01*
X84352749Y-47662591D01*
G37*
D16*
X84065000Y-48260000D03*
G04 #@! TD*
D18*
G04 #@! TO.C,RN1*
X96290000Y-83090000D03*
X96290000Y-87090000D03*
X96290000Y-84430000D03*
X96290000Y-85750000D03*
X99290000Y-84430000D03*
X99290000Y-83090000D03*
X99290000Y-87090000D03*
X99290000Y-85750000D03*
G04 #@! TD*
D13*
G04 #@! TO.C,FB2*
G36*
X75444362Y-80047529D02*
X75463093Y-80050307D01*
X75481460Y-80054908D01*
X75499289Y-80061287D01*
X75516406Y-80069383D01*
X75532647Y-80079118D01*
X75547856Y-80090398D01*
X75561886Y-80103114D01*
X75574602Y-80117144D01*
X75585882Y-80132353D01*
X75595617Y-80148594D01*
X75603713Y-80165711D01*
X75610092Y-80183540D01*
X75614693Y-80201907D01*
X75617471Y-80220638D01*
X75618400Y-80239550D01*
X75618400Y-81050450D01*
X75617471Y-81069362D01*
X75614693Y-81088093D01*
X75610092Y-81106460D01*
X75603713Y-81124289D01*
X75595617Y-81141406D01*
X75585882Y-81157647D01*
X75574602Y-81172856D01*
X75561886Y-81186886D01*
X75547856Y-81199602D01*
X75532647Y-81210882D01*
X75516406Y-81220617D01*
X75499289Y-81228713D01*
X75481460Y-81235092D01*
X75463093Y-81239693D01*
X75444362Y-81242471D01*
X75425450Y-81243400D01*
X75039550Y-81243400D01*
X75020638Y-81242471D01*
X75001907Y-81239693D01*
X74983540Y-81235092D01*
X74965711Y-81228713D01*
X74948594Y-81220617D01*
X74932353Y-81210882D01*
X74917144Y-81199602D01*
X74903114Y-81186886D01*
X74890398Y-81172856D01*
X74879118Y-81157647D01*
X74869383Y-81141406D01*
X74861287Y-81124289D01*
X74854908Y-81106460D01*
X74850307Y-81088093D01*
X74847529Y-81069362D01*
X74846600Y-81050450D01*
X74846600Y-80239550D01*
X74847529Y-80220638D01*
X74850307Y-80201907D01*
X74854908Y-80183540D01*
X74861287Y-80165711D01*
X74869383Y-80148594D01*
X74879118Y-80132353D01*
X74890398Y-80117144D01*
X74903114Y-80103114D01*
X74917144Y-80090398D01*
X74932353Y-80079118D01*
X74948594Y-80069383D01*
X74965711Y-80061287D01*
X74983540Y-80054908D01*
X75001907Y-80050307D01*
X75020638Y-80047529D01*
X75039550Y-80046600D01*
X75425450Y-80046600D01*
X75444362Y-80047529D01*
X75444362Y-80047529D01*
G37*
D25*
X75232500Y-80645000D03*
D13*
G36*
X73569362Y-80047529D02*
X73588093Y-80050307D01*
X73606460Y-80054908D01*
X73624289Y-80061287D01*
X73641406Y-80069383D01*
X73657647Y-80079118D01*
X73672856Y-80090398D01*
X73686886Y-80103114D01*
X73699602Y-80117144D01*
X73710882Y-80132353D01*
X73720617Y-80148594D01*
X73728713Y-80165711D01*
X73735092Y-80183540D01*
X73739693Y-80201907D01*
X73742471Y-80220638D01*
X73743400Y-80239550D01*
X73743400Y-81050450D01*
X73742471Y-81069362D01*
X73739693Y-81088093D01*
X73735092Y-81106460D01*
X73728713Y-81124289D01*
X73720617Y-81141406D01*
X73710882Y-81157647D01*
X73699602Y-81172856D01*
X73686886Y-81186886D01*
X73672856Y-81199602D01*
X73657647Y-81210882D01*
X73641406Y-81220617D01*
X73624289Y-81228713D01*
X73606460Y-81235092D01*
X73588093Y-81239693D01*
X73569362Y-81242471D01*
X73550450Y-81243400D01*
X73164550Y-81243400D01*
X73145638Y-81242471D01*
X73126907Y-81239693D01*
X73108540Y-81235092D01*
X73090711Y-81228713D01*
X73073594Y-81220617D01*
X73057353Y-81210882D01*
X73042144Y-81199602D01*
X73028114Y-81186886D01*
X73015398Y-81172856D01*
X73004118Y-81157647D01*
X72994383Y-81141406D01*
X72986287Y-81124289D01*
X72979908Y-81106460D01*
X72975307Y-81088093D01*
X72972529Y-81069362D01*
X72971600Y-81050450D01*
X72971600Y-80239550D01*
X72972529Y-80220638D01*
X72975307Y-80201907D01*
X72979908Y-80183540D01*
X72986287Y-80165711D01*
X72994383Y-80148594D01*
X73004118Y-80132353D01*
X73015398Y-80117144D01*
X73028114Y-80103114D01*
X73042144Y-80090398D01*
X73057353Y-80079118D01*
X73073594Y-80069383D01*
X73090711Y-80061287D01*
X73108540Y-80054908D01*
X73126907Y-80050307D01*
X73145638Y-80047529D01*
X73164550Y-80046600D01*
X73550450Y-80046600D01*
X73569362Y-80047529D01*
X73569362Y-80047529D01*
G37*
D25*
X73357500Y-80645000D03*
G04 #@! TD*
D13*
G04 #@! TO.C,C2*
G36*
X84352749Y-42582591D02*
X84372729Y-42585555D01*
X84392323Y-42590463D01*
X84411341Y-42597267D01*
X84429600Y-42605904D01*
X84446925Y-42616288D01*
X84463149Y-42628320D01*
X84478115Y-42641885D01*
X84491680Y-42656851D01*
X84503712Y-42673075D01*
X84514096Y-42690400D01*
X84522733Y-42708659D01*
X84529537Y-42727677D01*
X84534445Y-42747271D01*
X84537409Y-42767251D01*
X84538400Y-42787425D01*
X84538400Y-43572575D01*
X84537409Y-43592749D01*
X84534445Y-43612729D01*
X84529537Y-43632323D01*
X84522733Y-43651341D01*
X84514096Y-43669600D01*
X84503712Y-43686925D01*
X84491680Y-43703149D01*
X84478115Y-43718115D01*
X84463149Y-43731680D01*
X84446925Y-43743712D01*
X84429600Y-43754096D01*
X84411341Y-43762733D01*
X84392323Y-43769537D01*
X84372729Y-43774445D01*
X84352749Y-43777409D01*
X84332575Y-43778400D01*
X83797425Y-43778400D01*
X83777251Y-43777409D01*
X83757271Y-43774445D01*
X83737677Y-43769537D01*
X83718659Y-43762733D01*
X83700400Y-43754096D01*
X83683075Y-43743712D01*
X83666851Y-43731680D01*
X83651885Y-43718115D01*
X83638320Y-43703149D01*
X83626288Y-43686925D01*
X83615904Y-43669600D01*
X83607267Y-43651341D01*
X83600463Y-43632323D01*
X83595555Y-43612729D01*
X83592591Y-43592749D01*
X83591600Y-43572575D01*
X83591600Y-42787425D01*
X83592591Y-42767251D01*
X83595555Y-42747271D01*
X83600463Y-42727677D01*
X83607267Y-42708659D01*
X83615904Y-42690400D01*
X83626288Y-42673075D01*
X83638320Y-42656851D01*
X83651885Y-42641885D01*
X83666851Y-42628320D01*
X83683075Y-42616288D01*
X83700400Y-42605904D01*
X83718659Y-42597267D01*
X83737677Y-42590463D01*
X83757271Y-42585555D01*
X83777251Y-42582591D01*
X83797425Y-42581600D01*
X84332575Y-42581600D01*
X84352749Y-42582591D01*
X84352749Y-42582591D01*
G37*
D16*
X84065000Y-43180000D03*
D13*
G36*
X86402749Y-42582591D02*
X86422729Y-42585555D01*
X86442323Y-42590463D01*
X86461341Y-42597267D01*
X86479600Y-42605904D01*
X86496925Y-42616288D01*
X86513149Y-42628320D01*
X86528115Y-42641885D01*
X86541680Y-42656851D01*
X86553712Y-42673075D01*
X86564096Y-42690400D01*
X86572733Y-42708659D01*
X86579537Y-42727677D01*
X86584445Y-42747271D01*
X86587409Y-42767251D01*
X86588400Y-42787425D01*
X86588400Y-43572575D01*
X86587409Y-43592749D01*
X86584445Y-43612729D01*
X86579537Y-43632323D01*
X86572733Y-43651341D01*
X86564096Y-43669600D01*
X86553712Y-43686925D01*
X86541680Y-43703149D01*
X86528115Y-43718115D01*
X86513149Y-43731680D01*
X86496925Y-43743712D01*
X86479600Y-43754096D01*
X86461341Y-43762733D01*
X86442323Y-43769537D01*
X86422729Y-43774445D01*
X86402749Y-43777409D01*
X86382575Y-43778400D01*
X85847425Y-43778400D01*
X85827251Y-43777409D01*
X85807271Y-43774445D01*
X85787677Y-43769537D01*
X85768659Y-43762733D01*
X85750400Y-43754096D01*
X85733075Y-43743712D01*
X85716851Y-43731680D01*
X85701885Y-43718115D01*
X85688320Y-43703149D01*
X85676288Y-43686925D01*
X85665904Y-43669600D01*
X85657267Y-43651341D01*
X85650463Y-43632323D01*
X85645555Y-43612729D01*
X85642591Y-43592749D01*
X85641600Y-43572575D01*
X85641600Y-42787425D01*
X85642591Y-42767251D01*
X85645555Y-42747271D01*
X85650463Y-42727677D01*
X85657267Y-42708659D01*
X85665904Y-42690400D01*
X85676288Y-42673075D01*
X85688320Y-42656851D01*
X85701885Y-42641885D01*
X85716851Y-42628320D01*
X85733075Y-42616288D01*
X85750400Y-42605904D01*
X85768659Y-42597267D01*
X85787677Y-42590463D01*
X85807271Y-42585555D01*
X85827251Y-42582591D01*
X85847425Y-42581600D01*
X86382575Y-42581600D01*
X86402749Y-42582591D01*
X86402749Y-42582591D01*
G37*
D16*
X86115000Y-43180000D03*
G04 #@! TD*
D13*
G04 #@! TO.C,L1*
G36*
X92075059Y-41957632D02*
X92095867Y-41960719D01*
X92116272Y-41965830D01*
X92136078Y-41972916D01*
X92155093Y-41981910D01*
X92173136Y-41992725D01*
X92190032Y-42005255D01*
X92205618Y-42019382D01*
X92219745Y-42034968D01*
X92232275Y-42051864D01*
X92243090Y-42069907D01*
X92252084Y-42088922D01*
X92259170Y-42108728D01*
X92264281Y-42129133D01*
X92267368Y-42149941D01*
X92268400Y-42170951D01*
X92268400Y-44189049D01*
X92267368Y-44210059D01*
X92264281Y-44230867D01*
X92259170Y-44251272D01*
X92252084Y-44271078D01*
X92243090Y-44290093D01*
X92232275Y-44308136D01*
X92219745Y-44325032D01*
X92205618Y-44340618D01*
X92190032Y-44354745D01*
X92173136Y-44367275D01*
X92155093Y-44378090D01*
X92136078Y-44387084D01*
X92116272Y-44394170D01*
X92095867Y-44399281D01*
X92075059Y-44402368D01*
X92054049Y-44403400D01*
X91260951Y-44403400D01*
X91239941Y-44402368D01*
X91219133Y-44399281D01*
X91198728Y-44394170D01*
X91178922Y-44387084D01*
X91159907Y-44378090D01*
X91141864Y-44367275D01*
X91124968Y-44354745D01*
X91109382Y-44340618D01*
X91095255Y-44325032D01*
X91082725Y-44308136D01*
X91071910Y-44290093D01*
X91062916Y-44271078D01*
X91055830Y-44251272D01*
X91050719Y-44230867D01*
X91047632Y-44210059D01*
X91046600Y-44189049D01*
X91046600Y-42170951D01*
X91047632Y-42149941D01*
X91050719Y-42129133D01*
X91055830Y-42108728D01*
X91062916Y-42088922D01*
X91071910Y-42069907D01*
X91082725Y-42051864D01*
X91095255Y-42034968D01*
X91109382Y-42019382D01*
X91124968Y-42005255D01*
X91141864Y-41992725D01*
X91159907Y-41981910D01*
X91178922Y-41972916D01*
X91198728Y-41965830D01*
X91219133Y-41960719D01*
X91239941Y-41957632D01*
X91260951Y-41956600D01*
X92054049Y-41956600D01*
X92075059Y-41957632D01*
X92075059Y-41957632D01*
G37*
D14*
X91657500Y-43180000D03*
D13*
G36*
X89100059Y-41957632D02*
X89120867Y-41960719D01*
X89141272Y-41965830D01*
X89161078Y-41972916D01*
X89180093Y-41981910D01*
X89198136Y-41992725D01*
X89215032Y-42005255D01*
X89230618Y-42019382D01*
X89244745Y-42034968D01*
X89257275Y-42051864D01*
X89268090Y-42069907D01*
X89277084Y-42088922D01*
X89284170Y-42108728D01*
X89289281Y-42129133D01*
X89292368Y-42149941D01*
X89293400Y-42170951D01*
X89293400Y-44189049D01*
X89292368Y-44210059D01*
X89289281Y-44230867D01*
X89284170Y-44251272D01*
X89277084Y-44271078D01*
X89268090Y-44290093D01*
X89257275Y-44308136D01*
X89244745Y-44325032D01*
X89230618Y-44340618D01*
X89215032Y-44354745D01*
X89198136Y-44367275D01*
X89180093Y-44378090D01*
X89161078Y-44387084D01*
X89141272Y-44394170D01*
X89120867Y-44399281D01*
X89100059Y-44402368D01*
X89079049Y-44403400D01*
X88285951Y-44403400D01*
X88264941Y-44402368D01*
X88244133Y-44399281D01*
X88223728Y-44394170D01*
X88203922Y-44387084D01*
X88184907Y-44378090D01*
X88166864Y-44367275D01*
X88149968Y-44354745D01*
X88134382Y-44340618D01*
X88120255Y-44325032D01*
X88107725Y-44308136D01*
X88096910Y-44290093D01*
X88087916Y-44271078D01*
X88080830Y-44251272D01*
X88075719Y-44230867D01*
X88072632Y-44210059D01*
X88071600Y-44189049D01*
X88071600Y-42170951D01*
X88072632Y-42149941D01*
X88075719Y-42129133D01*
X88080830Y-42108728D01*
X88087916Y-42088922D01*
X88096910Y-42069907D01*
X88107725Y-42051864D01*
X88120255Y-42034968D01*
X88134382Y-42019382D01*
X88149968Y-42005255D01*
X88166864Y-41992725D01*
X88184907Y-41981910D01*
X88203922Y-41972916D01*
X88223728Y-41965830D01*
X88244133Y-41960719D01*
X88264941Y-41957632D01*
X88285951Y-41956600D01*
X89079049Y-41956600D01*
X89100059Y-41957632D01*
X89100059Y-41957632D01*
G37*
D14*
X88682500Y-43180000D03*
G04 #@! TD*
D13*
G04 #@! TO.C,L2*
G36*
X92075059Y-47037632D02*
X92095867Y-47040719D01*
X92116272Y-47045830D01*
X92136078Y-47052916D01*
X92155093Y-47061910D01*
X92173136Y-47072725D01*
X92190032Y-47085255D01*
X92205618Y-47099382D01*
X92219745Y-47114968D01*
X92232275Y-47131864D01*
X92243090Y-47149907D01*
X92252084Y-47168922D01*
X92259170Y-47188728D01*
X92264281Y-47209133D01*
X92267368Y-47229941D01*
X92268400Y-47250951D01*
X92268400Y-49269049D01*
X92267368Y-49290059D01*
X92264281Y-49310867D01*
X92259170Y-49331272D01*
X92252084Y-49351078D01*
X92243090Y-49370093D01*
X92232275Y-49388136D01*
X92219745Y-49405032D01*
X92205618Y-49420618D01*
X92190032Y-49434745D01*
X92173136Y-49447275D01*
X92155093Y-49458090D01*
X92136078Y-49467084D01*
X92116272Y-49474170D01*
X92095867Y-49479281D01*
X92075059Y-49482368D01*
X92054049Y-49483400D01*
X91260951Y-49483400D01*
X91239941Y-49482368D01*
X91219133Y-49479281D01*
X91198728Y-49474170D01*
X91178922Y-49467084D01*
X91159907Y-49458090D01*
X91141864Y-49447275D01*
X91124968Y-49434745D01*
X91109382Y-49420618D01*
X91095255Y-49405032D01*
X91082725Y-49388136D01*
X91071910Y-49370093D01*
X91062916Y-49351078D01*
X91055830Y-49331272D01*
X91050719Y-49310867D01*
X91047632Y-49290059D01*
X91046600Y-49269049D01*
X91046600Y-47250951D01*
X91047632Y-47229941D01*
X91050719Y-47209133D01*
X91055830Y-47188728D01*
X91062916Y-47168922D01*
X91071910Y-47149907D01*
X91082725Y-47131864D01*
X91095255Y-47114968D01*
X91109382Y-47099382D01*
X91124968Y-47085255D01*
X91141864Y-47072725D01*
X91159907Y-47061910D01*
X91178922Y-47052916D01*
X91198728Y-47045830D01*
X91219133Y-47040719D01*
X91239941Y-47037632D01*
X91260951Y-47036600D01*
X92054049Y-47036600D01*
X92075059Y-47037632D01*
X92075059Y-47037632D01*
G37*
D14*
X91657500Y-48260000D03*
D13*
G36*
X89100059Y-47037632D02*
X89120867Y-47040719D01*
X89141272Y-47045830D01*
X89161078Y-47052916D01*
X89180093Y-47061910D01*
X89198136Y-47072725D01*
X89215032Y-47085255D01*
X89230618Y-47099382D01*
X89244745Y-47114968D01*
X89257275Y-47131864D01*
X89268090Y-47149907D01*
X89277084Y-47168922D01*
X89284170Y-47188728D01*
X89289281Y-47209133D01*
X89292368Y-47229941D01*
X89293400Y-47250951D01*
X89293400Y-49269049D01*
X89292368Y-49290059D01*
X89289281Y-49310867D01*
X89284170Y-49331272D01*
X89277084Y-49351078D01*
X89268090Y-49370093D01*
X89257275Y-49388136D01*
X89244745Y-49405032D01*
X89230618Y-49420618D01*
X89215032Y-49434745D01*
X89198136Y-49447275D01*
X89180093Y-49458090D01*
X89161078Y-49467084D01*
X89141272Y-49474170D01*
X89120867Y-49479281D01*
X89100059Y-49482368D01*
X89079049Y-49483400D01*
X88285951Y-49483400D01*
X88264941Y-49482368D01*
X88244133Y-49479281D01*
X88223728Y-49474170D01*
X88203922Y-49467084D01*
X88184907Y-49458090D01*
X88166864Y-49447275D01*
X88149968Y-49434745D01*
X88134382Y-49420618D01*
X88120255Y-49405032D01*
X88107725Y-49388136D01*
X88096910Y-49370093D01*
X88087916Y-49351078D01*
X88080830Y-49331272D01*
X88075719Y-49310867D01*
X88072632Y-49290059D01*
X88071600Y-49269049D01*
X88071600Y-47250951D01*
X88072632Y-47229941D01*
X88075719Y-47209133D01*
X88080830Y-47188728D01*
X88087916Y-47168922D01*
X88096910Y-47149907D01*
X88107725Y-47131864D01*
X88120255Y-47114968D01*
X88134382Y-47099382D01*
X88149968Y-47085255D01*
X88166864Y-47072725D01*
X88184907Y-47061910D01*
X88203922Y-47052916D01*
X88223728Y-47045830D01*
X88244133Y-47040719D01*
X88264941Y-47037632D01*
X88285951Y-47036600D01*
X89079049Y-47036600D01*
X89100059Y-47037632D01*
X89100059Y-47037632D01*
G37*
D14*
X88682500Y-48260000D03*
G04 #@! TD*
D13*
G04 #@! TO.C,FB1*
G36*
X81824362Y-69252529D02*
X81843093Y-69255307D01*
X81861460Y-69259908D01*
X81879289Y-69266287D01*
X81896406Y-69274383D01*
X81912647Y-69284118D01*
X81927856Y-69295398D01*
X81941886Y-69308114D01*
X81954602Y-69322144D01*
X81965882Y-69337353D01*
X81975617Y-69353594D01*
X81983713Y-69370711D01*
X81990092Y-69388540D01*
X81994693Y-69406907D01*
X81997471Y-69425638D01*
X81998400Y-69444550D01*
X81998400Y-70255450D01*
X81997471Y-70274362D01*
X81994693Y-70293093D01*
X81990092Y-70311460D01*
X81983713Y-70329289D01*
X81975617Y-70346406D01*
X81965882Y-70362647D01*
X81954602Y-70377856D01*
X81941886Y-70391886D01*
X81927856Y-70404602D01*
X81912647Y-70415882D01*
X81896406Y-70425617D01*
X81879289Y-70433713D01*
X81861460Y-70440092D01*
X81843093Y-70444693D01*
X81824362Y-70447471D01*
X81805450Y-70448400D01*
X81419550Y-70448400D01*
X81400638Y-70447471D01*
X81381907Y-70444693D01*
X81363540Y-70440092D01*
X81345711Y-70433713D01*
X81328594Y-70425617D01*
X81312353Y-70415882D01*
X81297144Y-70404602D01*
X81283114Y-70391886D01*
X81270398Y-70377856D01*
X81259118Y-70362647D01*
X81249383Y-70346406D01*
X81241287Y-70329289D01*
X81234908Y-70311460D01*
X81230307Y-70293093D01*
X81227529Y-70274362D01*
X81226600Y-70255450D01*
X81226600Y-69444550D01*
X81227529Y-69425638D01*
X81230307Y-69406907D01*
X81234908Y-69388540D01*
X81241287Y-69370711D01*
X81249383Y-69353594D01*
X81259118Y-69337353D01*
X81270398Y-69322144D01*
X81283114Y-69308114D01*
X81297144Y-69295398D01*
X81312353Y-69284118D01*
X81328594Y-69274383D01*
X81345711Y-69266287D01*
X81363540Y-69259908D01*
X81381907Y-69255307D01*
X81400638Y-69252529D01*
X81419550Y-69251600D01*
X81805450Y-69251600D01*
X81824362Y-69252529D01*
X81824362Y-69252529D01*
G37*
D25*
X81612500Y-69850000D03*
D13*
G36*
X83699362Y-69252529D02*
X83718093Y-69255307D01*
X83736460Y-69259908D01*
X83754289Y-69266287D01*
X83771406Y-69274383D01*
X83787647Y-69284118D01*
X83802856Y-69295398D01*
X83816886Y-69308114D01*
X83829602Y-69322144D01*
X83840882Y-69337353D01*
X83850617Y-69353594D01*
X83858713Y-69370711D01*
X83865092Y-69388540D01*
X83869693Y-69406907D01*
X83872471Y-69425638D01*
X83873400Y-69444550D01*
X83873400Y-70255450D01*
X83872471Y-70274362D01*
X83869693Y-70293093D01*
X83865092Y-70311460D01*
X83858713Y-70329289D01*
X83850617Y-70346406D01*
X83840882Y-70362647D01*
X83829602Y-70377856D01*
X83816886Y-70391886D01*
X83802856Y-70404602D01*
X83787647Y-70415882D01*
X83771406Y-70425617D01*
X83754289Y-70433713D01*
X83736460Y-70440092D01*
X83718093Y-70444693D01*
X83699362Y-70447471D01*
X83680450Y-70448400D01*
X83294550Y-70448400D01*
X83275638Y-70447471D01*
X83256907Y-70444693D01*
X83238540Y-70440092D01*
X83220711Y-70433713D01*
X83203594Y-70425617D01*
X83187353Y-70415882D01*
X83172144Y-70404602D01*
X83158114Y-70391886D01*
X83145398Y-70377856D01*
X83134118Y-70362647D01*
X83124383Y-70346406D01*
X83116287Y-70329289D01*
X83109908Y-70311460D01*
X83105307Y-70293093D01*
X83102529Y-70274362D01*
X83101600Y-70255450D01*
X83101600Y-69444550D01*
X83102529Y-69425638D01*
X83105307Y-69406907D01*
X83109908Y-69388540D01*
X83116287Y-69370711D01*
X83124383Y-69353594D01*
X83134118Y-69337353D01*
X83145398Y-69322144D01*
X83158114Y-69308114D01*
X83172144Y-69295398D01*
X83187353Y-69284118D01*
X83203594Y-69274383D01*
X83220711Y-69266287D01*
X83238540Y-69259908D01*
X83256907Y-69255307D01*
X83275638Y-69252529D01*
X83294550Y-69251600D01*
X83680450Y-69251600D01*
X83699362Y-69252529D01*
X83699362Y-69252529D01*
G37*
D25*
X83487500Y-69850000D03*
G04 #@! TD*
M02*
