G04 #@! TF.GenerationSoftware,KiCad,Pcbnew,(5.0.1)-3*
G04 #@! TF.CreationDate,2019-01-05T13:11:41+10:00*
G04 #@! TF.ProjectId,stmsplat1,73746D73706C6174312E6B696361645F,rev?*
G04 #@! TF.SameCoordinates,Original*
G04 #@! TF.FileFunction,Copper,L1,Top,Signal*
G04 #@! TF.FilePolarity,Positive*
%FSLAX46Y46*%
G04 Gerber Fmt 4.6, Leading zero omitted, Abs format (unit mm)*
G04 Created by KiCad (PCBNEW (5.0.1)-3) date 05/01/2019 13:11:41*
%MOMM*%
%LPD*%
G01*
G04 APERTURE LIST*
G04 #@! TA.AperFunction,ComponentPad*
%ADD10C,1.520000*%
G04 #@! TD*
G04 #@! TA.AperFunction,ComponentPad*
%ADD11R,1.600000X1.600000*%
G04 #@! TD*
G04 #@! TA.AperFunction,ComponentPad*
%ADD12O,1.600000X1.600000*%
G04 #@! TD*
G04 #@! TA.AperFunction,SMDPad,CuDef*
%ADD13R,1.560000X0.650000*%
G04 #@! TD*
G04 #@! TA.AperFunction,ComponentPad*
%ADD14C,1.700000*%
G04 #@! TD*
G04 #@! TA.AperFunction,ComponentPad*
%ADD15C,2.000000*%
G04 #@! TD*
G04 #@! TA.AperFunction,ComponentPad*
%ADD16C,1.600000*%
G04 #@! TD*
G04 #@! TA.AperFunction,SMDPad,CuDef*
%ADD17R,1.450000X0.450000*%
G04 #@! TD*
G04 #@! TA.AperFunction,ComponentPad*
%ADD18R,1.700000X1.700000*%
G04 #@! TD*
G04 #@! TA.AperFunction,ComponentPad*
%ADD19O,1.700000X1.700000*%
G04 #@! TD*
G04 #@! TA.AperFunction,Conductor*
%ADD20C,0.100000*%
G04 #@! TD*
G04 #@! TA.AperFunction,SMDPad,CuDef*
%ADD21C,1.425000*%
G04 #@! TD*
G04 #@! TA.AperFunction,SMDPad,CuDef*
%ADD22C,1.525000*%
G04 #@! TD*
G04 #@! TA.AperFunction,SMDPad,CuDef*
%ADD23C,1.150000*%
G04 #@! TD*
G04 #@! TA.AperFunction,SMDPad,CuDef*
%ADD24R,1.060000X0.650000*%
G04 #@! TD*
G04 #@! TA.AperFunction,SMDPad,CuDef*
%ADD25R,0.900000X0.900000*%
G04 #@! TD*
G04 #@! TA.AperFunction,SMDPad,CuDef*
%ADD26R,1.500000X2.600000*%
G04 #@! TD*
G04 #@! TA.AperFunction,SMDPad,CuDef*
%ADD27R,1.800000X3.500000*%
G04 #@! TD*
G04 #@! TA.AperFunction,SMDPad,CuDef*
%ADD28R,0.950000X0.550000*%
G04 #@! TD*
G04 #@! TA.AperFunction,SMDPad,CuDef*
%ADD29R,1.500000X0.600000*%
G04 #@! TD*
G04 #@! TA.AperFunction,SMDPad,CuDef*
%ADD30R,1.500000X0.450000*%
G04 #@! TD*
G04 #@! TA.AperFunction,SMDPad,CuDef*
%ADD31R,1.400000X0.300000*%
G04 #@! TD*
G04 #@! TA.AperFunction,ComponentPad*
%ADD32C,2.050000*%
G04 #@! TD*
G04 #@! TA.AperFunction,ComponentPad*
%ADD33C,2.250000*%
G04 #@! TD*
G04 #@! TA.AperFunction,SMDPad,CuDef*
%ADD34C,0.975000*%
G04 #@! TD*
G04 #@! TA.AperFunction,ComponentPad*
%ADD35R,1.727200X1.727200*%
G04 #@! TD*
G04 #@! TA.AperFunction,ComponentPad*
%ADD36O,1.727200X1.727200*%
G04 #@! TD*
G04 #@! TA.AperFunction,ViaPad*
%ADD37C,0.800000*%
G04 #@! TD*
G04 #@! TA.AperFunction,ViaPad*
%ADD38C,1.400000*%
G04 #@! TD*
G04 #@! TA.AperFunction,ViaPad*
%ADD39C,0.900000*%
G04 #@! TD*
G04 #@! TA.AperFunction,Conductor*
%ADD40C,0.250000*%
G04 #@! TD*
G04 #@! TA.AperFunction,Conductor*
%ADD41C,0.750000*%
G04 #@! TD*
G04 #@! TA.AperFunction,Conductor*
%ADD42C,1.000000*%
G04 #@! TD*
G04 #@! TA.AperFunction,Conductor*
%ADD43C,0.300000*%
G04 #@! TD*
G04 #@! TA.AperFunction,Conductor*
%ADD44C,1.500000*%
G04 #@! TD*
G04 #@! TA.AperFunction,Conductor*
%ADD45C,0.500000*%
G04 #@! TD*
G04 #@! TA.AperFunction,Conductor*
%ADD46C,2.000000*%
G04 #@! TD*
G04 #@! TA.AperFunction,Conductor*
%ADD47C,0.254000*%
G04 #@! TD*
G04 APERTURE END LIST*
D10*
G04 #@! TO.P,U2,8*
G04 #@! TO.N,N/C*
X105410000Y-58170000D03*
G04 #@! TO.P,U2,2*
G04 #@! TO.N,GND*
X97790000Y-58170000D03*
G04 #@! TO.P,U2,4*
G04 #@! TO.N,/PC6*
X100330000Y-58170000D03*
G04 #@! TO.P,U2,10*
G04 #@! TO.N,N/C*
X107950000Y-58170000D03*
G04 #@! TO.P,U2,6*
X102870000Y-58170000D03*
G04 #@! TO.P,U2,9*
X107950000Y-66040000D03*
G04 #@! TO.P,U2,7*
X105410000Y-66040000D03*
G04 #@! TO.P,U2,5*
G04 #@! TO.N,/PB10*
X102870000Y-66040000D03*
G04 #@! TO.P,U2,3*
G04 #@! TO.N,/PG9*
X100330000Y-66040000D03*
G04 #@! TO.P,U2,1*
G04 #@! TO.N,/P3V3*
X97790000Y-66040000D03*
G04 #@! TD*
D11*
G04 #@! TO.P,U11,1*
G04 #@! TO.N,/P3V3*
X101600000Y-149860000D03*
D12*
G04 #@! TO.P,U11,11*
G04 #@! TO.N,Net-(U11-Pad11)*
X79600000Y-131860000D03*
G04 #@! TO.P,U11,2*
G04 #@! TO.N,/PC11*
X101600000Y-147860000D03*
G04 #@! TO.P,U11,12*
G04 #@! TO.N,/PA15*
X79600000Y-133860000D03*
G04 #@! TO.P,U11,3*
G04 #@! TO.N,/PA0*
X101600000Y-145860000D03*
G04 #@! TO.P,U11,13*
G04 #@! TO.N,Net-(D8-Pad2)*
X79600000Y-135860000D03*
G04 #@! TO.P,U11,4*
G04 #@! TO.N,Net-(U11-Pad4)*
X101600000Y-143860000D03*
G04 #@! TO.P,U11,14*
G04 #@! TO.N,Net-(U11-Pad14)*
X79600000Y-137860000D03*
G04 #@! TO.P,U11,5*
G04 #@! TO.N,/PE15*
X101600000Y-141860000D03*
G04 #@! TO.P,U11,15*
G04 #@! TO.N,Net-(U11-Pad15)*
X79600000Y-139860000D03*
G04 #@! TO.P,U11,6*
G04 #@! TO.N,Net-(U11-Pad6)*
X101600000Y-139860000D03*
G04 #@! TO.P,U11,16*
G04 #@! TO.N,/PB15*
X79600000Y-141860000D03*
G04 #@! TO.P,U11,7*
G04 #@! TO.N,Net-(U11-Pad7)*
X101600000Y-137860000D03*
G04 #@! TO.P,U11,17*
G04 #@! TO.N,Net-(U11-Pad17)*
X79600000Y-143860000D03*
G04 #@! TO.P,U11,8*
G04 #@! TO.N,Net-(U11-Pad8)*
X101600000Y-135860000D03*
G04 #@! TO.P,U11,18*
G04 #@! TO.N,Net-(U11-Pad18)*
X79600000Y-145860000D03*
G04 #@! TO.P,U11,9*
G04 #@! TO.N,/PE10*
X101600000Y-133860000D03*
G04 #@! TO.P,U11,19*
G04 #@! TO.N,Net-(TP12-Pad1)*
X79600000Y-147860000D03*
G04 #@! TO.P,U11,10*
G04 #@! TO.N,GND*
X101600000Y-131860000D03*
G04 #@! TO.P,U11,20*
G04 #@! TO.N,Net-(TP11-Pad1)*
X79600000Y-149860000D03*
G04 #@! TD*
D13*
G04 #@! TO.P,U9,1*
G04 #@! TO.N,Net-(C9-Pad1)*
X72310000Y-47310000D03*
G04 #@! TO.P,U9,2*
G04 #@! TO.N,AGND*
X72310000Y-48260000D03*
G04 #@! TO.P,U9,3*
G04 #@! TO.N,Net-(C10-Pad1)*
X72310000Y-49210000D03*
G04 #@! TO.P,U9,4*
G04 #@! TO.N,Net-(U8-Pad2)*
X75010000Y-49210000D03*
G04 #@! TO.P,U9,6*
G04 #@! TO.N,Net-(U8-Pad4)*
X75010000Y-47310000D03*
G04 #@! TO.P,U9,5*
G04 #@! TO.N,Net-(C5-Pad1)*
X75010000Y-48260000D03*
G04 #@! TD*
D14*
G04 #@! TO.P,U1,148*
G04 #@! TO.N,N/C*
X121885001Y-40115001D03*
G04 #@! TO.P,U1,147*
X121885001Y-37575001D03*
G04 #@! TO.P,U1,146*
X58385001Y-40115001D03*
G04 #@! TO.P,U1,145*
X58385001Y-37575001D03*
G04 #@! TO.P,U1,144*
G04 #@! TO.N,Net-(U1-Pad144)*
X121885001Y-154415001D03*
G04 #@! TO.P,U1,143*
G04 #@! TO.N,Net-(U1-Pad143)*
X119345001Y-154415001D03*
G04 #@! TO.P,U1,142*
G04 #@! TO.N,Net-(U1-Pad142)*
X121885001Y-151875001D03*
G04 #@! TO.P,U1,141*
G04 #@! TO.N,Net-(U1-Pad141)*
X119345001Y-151875001D03*
G04 #@! TO.P,U1,140*
G04 #@! TO.N,Net-(U1-Pad140)*
X121885001Y-149335001D03*
G04 #@! TO.P,U1,139*
G04 #@! TO.N,Net-(U1-Pad139)*
X119345001Y-149335001D03*
G04 #@! TO.P,U1,138*
G04 #@! TO.N,Net-(U1-Pad138)*
X121885001Y-146795001D03*
G04 #@! TO.P,U1,137*
G04 #@! TO.N,Net-(U1-Pad137)*
X119345001Y-146795001D03*
G04 #@! TO.P,U1,136*
G04 #@! TO.N,Net-(U1-Pad136)*
X121885001Y-144255001D03*
G04 #@! TO.P,U1,135*
G04 #@! TO.N,Net-(U1-Pad135)*
X119345001Y-144255001D03*
G04 #@! TO.P,U1,134*
G04 #@! TO.N,Net-(U1-Pad134)*
X121885001Y-141715001D03*
G04 #@! TO.P,U1,133*
G04 #@! TO.N,Net-(U1-Pad133)*
X119345001Y-141715001D03*
G04 #@! TO.P,U1,132*
G04 #@! TO.N,Net-(U1-Pad132)*
X121885001Y-139175001D03*
G04 #@! TO.P,U1,131*
G04 #@! TO.N,Net-(U1-Pad131)*
X119345001Y-139175001D03*
G04 #@! TO.P,U1,130*
G04 #@! TO.N,Net-(U1-Pad130)*
X121885001Y-136635001D03*
G04 #@! TO.P,U1,129*
G04 #@! TO.N,Net-(U1-Pad129)*
X119345001Y-136635001D03*
G04 #@! TO.P,U1,128*
G04 #@! TO.N,Net-(U1-Pad128)*
X121885001Y-134095001D03*
G04 #@! TO.P,U1,127*
G04 #@! TO.N,Net-(U1-Pad127)*
X119345001Y-134095001D03*
G04 #@! TO.P,U1,126*
G04 #@! TO.N,Net-(U1-Pad126)*
X121885001Y-131555001D03*
G04 #@! TO.P,U1,125*
G04 #@! TO.N,Net-(U1-Pad125)*
X119345001Y-131555001D03*
G04 #@! TO.P,U1,124*
G04 #@! TO.N,Net-(U1-Pad124)*
X121885001Y-129015001D03*
G04 #@! TO.P,U1,123*
G04 #@! TO.N,Net-(U1-Pad123)*
X119345001Y-129015001D03*
G04 #@! TO.P,U1,122*
G04 #@! TO.N,Net-(U1-Pad122)*
X121885001Y-126475001D03*
G04 #@! TO.P,U1,121*
G04 #@! TO.N,Net-(U1-Pad121)*
X119345001Y-126475001D03*
G04 #@! TO.P,U1,120*
G04 #@! TO.N,Net-(U1-Pad120)*
X121885001Y-123935001D03*
G04 #@! TO.P,U1,119*
G04 #@! TO.N,Net-(U1-Pad119)*
X119345001Y-123935001D03*
G04 #@! TO.P,U1,118*
G04 #@! TO.N,Net-(U1-Pad118)*
X121885001Y-121395001D03*
G04 #@! TO.P,U1,117*
G04 #@! TO.N,Net-(U1-Pad117)*
X119345001Y-121395001D03*
G04 #@! TO.P,U1,116*
G04 #@! TO.N,Net-(U1-Pad116)*
X121885001Y-118855001D03*
G04 #@! TO.P,U1,115*
G04 #@! TO.N,Net-(U1-Pad115)*
X119345001Y-118855001D03*
G04 #@! TO.P,U1,114*
G04 #@! TO.N,Net-(U1-Pad114)*
X121885001Y-116315001D03*
G04 #@! TO.P,U1,113*
G04 #@! TO.N,Net-(U1-Pad113)*
X119345001Y-116315001D03*
G04 #@! TO.P,U1,112*
G04 #@! TO.N,Net-(U1-Pad112)*
X121885001Y-113775001D03*
G04 #@! TO.P,U1,111*
G04 #@! TO.N,Net-(U1-Pad111)*
X119345001Y-113775001D03*
G04 #@! TO.P,U1,110*
G04 #@! TO.N,Net-(U1-Pad110)*
X121885001Y-111235001D03*
G04 #@! TO.P,U1,109*
G04 #@! TO.N,Net-(U1-Pad109)*
X119345001Y-111235001D03*
G04 #@! TO.P,U1,108*
G04 #@! TO.N,Net-(U1-Pad108)*
X121885001Y-108695001D03*
G04 #@! TO.P,U1,107*
G04 #@! TO.N,Net-(U1-Pad107)*
X119345001Y-108695001D03*
G04 #@! TO.P,U1,106*
G04 #@! TO.N,Net-(U1-Pad106)*
X121885001Y-106155001D03*
G04 #@! TO.P,U1,105*
G04 #@! TO.N,Net-(U1-Pad105)*
X119345001Y-106155001D03*
G04 #@! TO.P,U1,104*
G04 #@! TO.N,Net-(U1-Pad104)*
X121885001Y-103615001D03*
G04 #@! TO.P,U1,103*
G04 #@! TO.N,Net-(U1-Pad103)*
X119345001Y-103615001D03*
G04 #@! TO.P,U1,102*
G04 #@! TO.N,Net-(U1-Pad102)*
X121885001Y-101075001D03*
G04 #@! TO.P,U1,101*
G04 #@! TO.N,Net-(U1-Pad101)*
X119345001Y-101075001D03*
G04 #@! TO.P,U1,100*
G04 #@! TO.N,Net-(U1-Pad100)*
X121885001Y-98535001D03*
G04 #@! TO.P,U1,99*
G04 #@! TO.N,Net-(U1-Pad99)*
X119345001Y-98535001D03*
G04 #@! TO.P,U1,98*
G04 #@! TO.N,Net-(U1-Pad98)*
X121885001Y-95995001D03*
G04 #@! TO.P,U1,97*
G04 #@! TO.N,Net-(U1-Pad97)*
X119345001Y-95995001D03*
G04 #@! TO.P,U1,96*
G04 #@! TO.N,Net-(U1-Pad96)*
X121885001Y-93455001D03*
G04 #@! TO.P,U1,95*
G04 #@! TO.N,Net-(U1-Pad95)*
X119345001Y-93455001D03*
G04 #@! TO.P,U1,94*
G04 #@! TO.N,Net-(U1-Pad94)*
X121885001Y-90915001D03*
G04 #@! TO.P,U1,93*
G04 #@! TO.N,Net-(U1-Pad93)*
X119345001Y-90915001D03*
G04 #@! TO.P,U1,92*
G04 #@! TO.N,Net-(U1-Pad92)*
X121885001Y-88375001D03*
G04 #@! TO.P,U1,91*
G04 #@! TO.N,Net-(U1-Pad91)*
X119345001Y-88375001D03*
G04 #@! TO.P,U1,90*
G04 #@! TO.N,Net-(U1-Pad90)*
X121885001Y-85835001D03*
G04 #@! TO.P,U1,89*
G04 #@! TO.N,Net-(U1-Pad89)*
X119345001Y-85835001D03*
G04 #@! TO.P,U1,88*
G04 #@! TO.N,Net-(U1-Pad88)*
X121885001Y-83295001D03*
G04 #@! TO.P,U1,87*
G04 #@! TO.N,Net-(U1-Pad87)*
X119345001Y-83295001D03*
G04 #@! TO.P,U1,86*
G04 #@! TO.N,Net-(U1-Pad86)*
X121885001Y-80755001D03*
G04 #@! TO.P,U1,85*
G04 #@! TO.N,Net-(U1-Pad85)*
X119345001Y-80755001D03*
G04 #@! TO.P,U1,84*
G04 #@! TO.N,Net-(U1-Pad84)*
X121885001Y-78215001D03*
G04 #@! TO.P,U1,83*
G04 #@! TO.N,Net-(U1-Pad83)*
X119345001Y-78215001D03*
G04 #@! TO.P,U1,82*
G04 #@! TO.N,Net-(U1-Pad82)*
X121885001Y-75675001D03*
G04 #@! TO.P,U1,81*
G04 #@! TO.N,Net-(U1-Pad81)*
X119345001Y-75675001D03*
G04 #@! TO.P,U1,80*
G04 #@! TO.N,Net-(U1-Pad80)*
X121885001Y-73135001D03*
G04 #@! TO.P,U1,79*
G04 #@! TO.N,Net-(U1-Pad79)*
X119345001Y-73135001D03*
G04 #@! TO.P,U1,78*
G04 #@! TO.N,Net-(U1-Pad78)*
X121885001Y-70595001D03*
G04 #@! TO.P,U1,77*
G04 #@! TO.N,Net-(U1-Pad77)*
X119345001Y-70595001D03*
G04 #@! TO.P,U1,76*
G04 #@! TO.N,Net-(U1-Pad76)*
X121885001Y-68055001D03*
G04 #@! TO.P,U1,75*
G04 #@! TO.N,Net-(U1-Pad75)*
X119345001Y-68055001D03*
G04 #@! TO.P,U1,74*
G04 #@! TO.N,Net-(U1-Pad74)*
X121885001Y-65515001D03*
G04 #@! TO.P,U1,73*
G04 #@! TO.N,Net-(U1-Pad73)*
X119345001Y-65515001D03*
G04 #@! TO.P,U1,72*
G04 #@! TO.N,Net-(U1-Pad72)*
X60925001Y-154415001D03*
G04 #@! TO.P,U1,71*
G04 #@! TO.N,Net-(U1-Pad71)*
X58385001Y-154415001D03*
G04 #@! TO.P,U1,70*
G04 #@! TO.N,Net-(U1-Pad70)*
X60925001Y-151875001D03*
G04 #@! TO.P,U1,69*
G04 #@! TO.N,Net-(U1-Pad69)*
X58385001Y-151875001D03*
G04 #@! TO.P,U1,68*
G04 #@! TO.N,Net-(U1-Pad68)*
X60925001Y-149335001D03*
G04 #@! TO.P,U1,67*
G04 #@! TO.N,Net-(U1-Pad67)*
X58385001Y-149335001D03*
G04 #@! TO.P,U1,66*
G04 #@! TO.N,Net-(U1-Pad66)*
X60925001Y-146795001D03*
G04 #@! TO.P,U1,65*
G04 #@! TO.N,Net-(U1-Pad65)*
X58385001Y-146795001D03*
G04 #@! TO.P,U1,64*
G04 #@! TO.N,Net-(U1-Pad64)*
X60925001Y-144255001D03*
G04 #@! TO.P,U1,63*
G04 #@! TO.N,Net-(U1-Pad63)*
X58385001Y-144255001D03*
G04 #@! TO.P,U1,62*
G04 #@! TO.N,Net-(U1-Pad62)*
X60925001Y-141715001D03*
G04 #@! TO.P,U1,61*
G04 #@! TO.N,Net-(U1-Pad61)*
X58385001Y-141715001D03*
G04 #@! TO.P,U1,60*
G04 #@! TO.N,Net-(U1-Pad60)*
X60925001Y-139175001D03*
G04 #@! TO.P,U1,59*
G04 #@! TO.N,Net-(U1-Pad59)*
X58385001Y-139175001D03*
G04 #@! TO.P,U1,58*
G04 #@! TO.N,Net-(U1-Pad58)*
X60925001Y-136635001D03*
G04 #@! TO.P,U1,57*
G04 #@! TO.N,Net-(U1-Pad57)*
X58385001Y-136635001D03*
G04 #@! TO.P,U1,56*
G04 #@! TO.N,Net-(U1-Pad56)*
X60925001Y-134095001D03*
G04 #@! TO.P,U1,55*
G04 #@! TO.N,Net-(U1-Pad55)*
X58385001Y-134095001D03*
G04 #@! TO.P,U1,54*
G04 #@! TO.N,Net-(U1-Pad54)*
X60925001Y-131555001D03*
G04 #@! TO.P,U1,53*
G04 #@! TO.N,Net-(U1-Pad53)*
X58385001Y-131555001D03*
G04 #@! TO.P,U1,52*
G04 #@! TO.N,Net-(U1-Pad52)*
X60925001Y-129015001D03*
G04 #@! TO.P,U1,51*
G04 #@! TO.N,Net-(U1-Pad51)*
X58385001Y-129015001D03*
G04 #@! TO.P,U1,50*
G04 #@! TO.N,Net-(U1-Pad50)*
X60925001Y-126475001D03*
G04 #@! TO.P,U1,49*
G04 #@! TO.N,Net-(U1-Pad49)*
X58385001Y-126475001D03*
G04 #@! TO.P,U1,48*
G04 #@! TO.N,Net-(U1-Pad48)*
X60925001Y-123935001D03*
G04 #@! TO.P,U1,47*
G04 #@! TO.N,Net-(U1-Pad47)*
X58385001Y-123935001D03*
G04 #@! TO.P,U1,46*
G04 #@! TO.N,Net-(U1-Pad46)*
X60925001Y-121395001D03*
G04 #@! TO.P,U1,45*
G04 #@! TO.N,Net-(U1-Pad45)*
X58385001Y-121395001D03*
G04 #@! TO.P,U1,44*
G04 #@! TO.N,Net-(U1-Pad44)*
X60925001Y-118855001D03*
G04 #@! TO.P,U1,43*
G04 #@! TO.N,Net-(U1-Pad43)*
X58385001Y-118855001D03*
G04 #@! TO.P,U1,42*
G04 #@! TO.N,Net-(U1-Pad42)*
X60925001Y-116315001D03*
G04 #@! TO.P,U1,41*
G04 #@! TO.N,Net-(U1-Pad41)*
X58385001Y-116315001D03*
G04 #@! TO.P,U1,40*
G04 #@! TO.N,Net-(U1-Pad40)*
X60925001Y-113775001D03*
G04 #@! TO.P,U1,39*
G04 #@! TO.N,Net-(U1-Pad39)*
X58385001Y-113775001D03*
G04 #@! TO.P,U1,38*
G04 #@! TO.N,Net-(U1-Pad38)*
X60925001Y-111235001D03*
G04 #@! TO.P,U1,37*
G04 #@! TO.N,Net-(U1-Pad37)*
X58385001Y-111235001D03*
G04 #@! TO.P,U1,36*
G04 #@! TO.N,Net-(U1-Pad36)*
X60925001Y-108695001D03*
G04 #@! TO.P,U1,35*
G04 #@! TO.N,Net-(U1-Pad35)*
X58385001Y-108695001D03*
G04 #@! TO.P,U1,34*
G04 #@! TO.N,Net-(U1-Pad34)*
X60925001Y-106155001D03*
G04 #@! TO.P,U1,33*
G04 #@! TO.N,Net-(U1-Pad33)*
X58385001Y-106155001D03*
G04 #@! TO.P,U1,32*
G04 #@! TO.N,Net-(U1-Pad32)*
X60925001Y-103615001D03*
G04 #@! TO.P,U1,31*
G04 #@! TO.N,Net-(U1-Pad31)*
X58385001Y-103615001D03*
G04 #@! TO.P,U1,30*
G04 #@! TO.N,Net-(U1-Pad30)*
X60925001Y-101075001D03*
G04 #@! TO.P,U1,29*
G04 #@! TO.N,Net-(U1-Pad29)*
X58385001Y-101075001D03*
G04 #@! TO.P,U1,28*
G04 #@! TO.N,Net-(U1-Pad28)*
X60925001Y-98535001D03*
G04 #@! TO.P,U1,27*
G04 #@! TO.N,Net-(U1-Pad27)*
X58385001Y-98535001D03*
G04 #@! TO.P,U1,26*
G04 #@! TO.N,Net-(U1-Pad26)*
X60925001Y-95995001D03*
G04 #@! TO.P,U1,25*
G04 #@! TO.N,Net-(U1-Pad25)*
X58385001Y-95995001D03*
G04 #@! TO.P,U1,24*
G04 #@! TO.N,Net-(U1-Pad24)*
X60925001Y-93455001D03*
G04 #@! TO.P,U1,23*
G04 #@! TO.N,Net-(U1-Pad23)*
X58385001Y-93455001D03*
G04 #@! TO.P,U1,22*
G04 #@! TO.N,Net-(U1-Pad22)*
X60925001Y-90915001D03*
G04 #@! TO.P,U1,21*
G04 #@! TO.N,Net-(U1-Pad21)*
X58385001Y-90915001D03*
G04 #@! TO.P,U1,20*
G04 #@! TO.N,Net-(U1-Pad20)*
X60925001Y-88375001D03*
G04 #@! TO.P,U1,19*
G04 #@! TO.N,Net-(U1-Pad19)*
X58385001Y-88375001D03*
G04 #@! TO.P,U1,18*
G04 #@! TO.N,Net-(U1-Pad18)*
X60925001Y-85835001D03*
G04 #@! TO.P,U1,17*
G04 #@! TO.N,Net-(U1-Pad17)*
X58385001Y-85835001D03*
G04 #@! TO.P,U1,16*
G04 #@! TO.N,Net-(U1-Pad16)*
X60925001Y-83295001D03*
G04 #@! TO.P,U1,15*
G04 #@! TO.N,Net-(U1-Pad15)*
X58385001Y-83295001D03*
G04 #@! TO.P,U1,14*
G04 #@! TO.N,Net-(U1-Pad14)*
X60925001Y-80755001D03*
G04 #@! TO.P,U1,13*
G04 #@! TO.N,Net-(U1-Pad13)*
X58385001Y-80755001D03*
G04 #@! TO.P,U1,12*
G04 #@! TO.N,Net-(U1-Pad12)*
X60925001Y-78215001D03*
G04 #@! TO.P,U1,11*
G04 #@! TO.N,Net-(U1-Pad11)*
X58385001Y-78215001D03*
G04 #@! TO.P,U1,10*
G04 #@! TO.N,Net-(U1-Pad10)*
X60925001Y-75675001D03*
G04 #@! TO.P,U1,9*
G04 #@! TO.N,Net-(U1-Pad9)*
X58385001Y-75675001D03*
G04 #@! TO.P,U1,8*
G04 #@! TO.N,Net-(U1-Pad8)*
X60925001Y-73135001D03*
G04 #@! TO.P,U1,7*
G04 #@! TO.N,Net-(U1-Pad7)*
X58385001Y-73135001D03*
G04 #@! TO.P,U1,6*
G04 #@! TO.N,Net-(U1-Pad6)*
X60925001Y-70595001D03*
G04 #@! TO.P,U1,5*
G04 #@! TO.N,Net-(U1-Pad5)*
X58385001Y-70595001D03*
G04 #@! TO.P,U1,4*
G04 #@! TO.N,Net-(U1-Pad4)*
X60925001Y-68055001D03*
G04 #@! TO.P,U1,3*
G04 #@! TO.N,Net-(U1-Pad3)*
X58385001Y-68055001D03*
G04 #@! TO.P,U1,2*
G04 #@! TO.N,Net-(U1-Pad2)*
X60925001Y-65515001D03*
G04 #@! TO.P,U1,1*
G04 #@! TO.N,Net-(U1-Pad1)*
X58385001Y-65515001D03*
G04 #@! TD*
D15*
G04 #@! TO.P,TP14,1*
G04 #@! TO.N,Net-(TP14-Pad1)*
X95885000Y-100330000D03*
G04 #@! TD*
D11*
G04 #@! TO.P,C21,1*
G04 #@! TO.N,/+5V*
X66040000Y-67945000D03*
D16*
G04 #@! TO.P,C21,2*
G04 #@! TO.N,GND*
X68540000Y-67945000D03*
G04 #@! TD*
D17*
G04 #@! TO.P,U5,8*
G04 #@! TO.N,Net-(C6-Pad2)*
X77130000Y-71415000D03*
G04 #@! TO.P,U5,7*
G04 #@! TO.N,Net-(RN1-Pad1)*
X77130000Y-72065000D03*
G04 #@! TO.P,U5,6*
G04 #@! TO.N,Net-(C8-Pad1)*
X77130000Y-72715000D03*
G04 #@! TO.P,U5,5*
G04 #@! TO.N,/A3V3*
X77130000Y-73365000D03*
G04 #@! TO.P,U5,4*
G04 #@! TO.N,/LOGOUT*
X72730000Y-73365000D03*
G04 #@! TO.P,U5,3*
G04 #@! TO.N,Net-(U5-Pad3)*
X72730000Y-72715000D03*
G04 #@! TO.P,U5,2*
G04 #@! TO.N,AGND*
X72730000Y-72065000D03*
G04 #@! TO.P,U5,1*
G04 #@! TO.N,Net-(C7-Pad2)*
X72730000Y-71415000D03*
G04 #@! TD*
D18*
G04 #@! TO.P,J3,1*
G04 #@! TO.N,/+3V3*
X73660000Y-132080000D03*
D19*
G04 #@! TO.P,J3,2*
G04 #@! TO.N,/PD6*
X73660000Y-134620000D03*
G04 #@! TO.P,J3,3*
G04 #@! TO.N,/PD5*
X73660000Y-137160000D03*
G04 #@! TO.P,J3,4*
G04 #@! TO.N,GND*
X73660000Y-139700000D03*
G04 #@! TD*
D20*
G04 #@! TO.N,Net-(C5-Pad2)*
G04 #@! TO.C,R1*
G36*
X72659504Y-35506204D02*
X72683773Y-35509804D01*
X72707571Y-35515765D01*
X72730671Y-35524030D01*
X72752849Y-35534520D01*
X72773893Y-35547133D01*
X72793598Y-35561747D01*
X72811777Y-35578223D01*
X72828253Y-35596402D01*
X72842867Y-35616107D01*
X72855480Y-35637151D01*
X72865970Y-35659329D01*
X72874235Y-35682429D01*
X72880196Y-35706227D01*
X72883796Y-35730496D01*
X72885000Y-35755000D01*
X72885000Y-37905000D01*
X72883796Y-37929504D01*
X72880196Y-37953773D01*
X72874235Y-37977571D01*
X72865970Y-38000671D01*
X72855480Y-38022849D01*
X72842867Y-38043893D01*
X72828253Y-38063598D01*
X72811777Y-38081777D01*
X72793598Y-38098253D01*
X72773893Y-38112867D01*
X72752849Y-38125480D01*
X72730671Y-38135970D01*
X72707571Y-38144235D01*
X72683773Y-38150196D01*
X72659504Y-38153796D01*
X72635000Y-38155000D01*
X71710000Y-38155000D01*
X71685496Y-38153796D01*
X71661227Y-38150196D01*
X71637429Y-38144235D01*
X71614329Y-38135970D01*
X71592151Y-38125480D01*
X71571107Y-38112867D01*
X71551402Y-38098253D01*
X71533223Y-38081777D01*
X71516747Y-38063598D01*
X71502133Y-38043893D01*
X71489520Y-38022849D01*
X71479030Y-38000671D01*
X71470765Y-37977571D01*
X71464804Y-37953773D01*
X71461204Y-37929504D01*
X71460000Y-37905000D01*
X71460000Y-35755000D01*
X71461204Y-35730496D01*
X71464804Y-35706227D01*
X71470765Y-35682429D01*
X71479030Y-35659329D01*
X71489520Y-35637151D01*
X71502133Y-35616107D01*
X71516747Y-35596402D01*
X71533223Y-35578223D01*
X71551402Y-35561747D01*
X71571107Y-35547133D01*
X71592151Y-35534520D01*
X71614329Y-35524030D01*
X71637429Y-35515765D01*
X71661227Y-35509804D01*
X71685496Y-35506204D01*
X71710000Y-35505000D01*
X72635000Y-35505000D01*
X72659504Y-35506204D01*
X72659504Y-35506204D01*
G37*
D21*
G04 #@! TD*
G04 #@! TO.P,R1,1*
G04 #@! TO.N,Net-(C5-Pad2)*
X72172500Y-36830000D03*
D20*
G04 #@! TO.N,AGND*
G04 #@! TO.C,R1*
G36*
X75634504Y-35506204D02*
X75658773Y-35509804D01*
X75682571Y-35515765D01*
X75705671Y-35524030D01*
X75727849Y-35534520D01*
X75748893Y-35547133D01*
X75768598Y-35561747D01*
X75786777Y-35578223D01*
X75803253Y-35596402D01*
X75817867Y-35616107D01*
X75830480Y-35637151D01*
X75840970Y-35659329D01*
X75849235Y-35682429D01*
X75855196Y-35706227D01*
X75858796Y-35730496D01*
X75860000Y-35755000D01*
X75860000Y-37905000D01*
X75858796Y-37929504D01*
X75855196Y-37953773D01*
X75849235Y-37977571D01*
X75840970Y-38000671D01*
X75830480Y-38022849D01*
X75817867Y-38043893D01*
X75803253Y-38063598D01*
X75786777Y-38081777D01*
X75768598Y-38098253D01*
X75748893Y-38112867D01*
X75727849Y-38125480D01*
X75705671Y-38135970D01*
X75682571Y-38144235D01*
X75658773Y-38150196D01*
X75634504Y-38153796D01*
X75610000Y-38155000D01*
X74685000Y-38155000D01*
X74660496Y-38153796D01*
X74636227Y-38150196D01*
X74612429Y-38144235D01*
X74589329Y-38135970D01*
X74567151Y-38125480D01*
X74546107Y-38112867D01*
X74526402Y-38098253D01*
X74508223Y-38081777D01*
X74491747Y-38063598D01*
X74477133Y-38043893D01*
X74464520Y-38022849D01*
X74454030Y-38000671D01*
X74445765Y-37977571D01*
X74439804Y-37953773D01*
X74436204Y-37929504D01*
X74435000Y-37905000D01*
X74435000Y-35755000D01*
X74436204Y-35730496D01*
X74439804Y-35706227D01*
X74445765Y-35682429D01*
X74454030Y-35659329D01*
X74464520Y-35637151D01*
X74477133Y-35616107D01*
X74491747Y-35596402D01*
X74508223Y-35578223D01*
X74526402Y-35561747D01*
X74546107Y-35547133D01*
X74567151Y-35534520D01*
X74589329Y-35524030D01*
X74612429Y-35515765D01*
X74636227Y-35509804D01*
X74660496Y-35506204D01*
X74685000Y-35505000D01*
X75610000Y-35505000D01*
X75634504Y-35506204D01*
X75634504Y-35506204D01*
G37*
D21*
G04 #@! TD*
G04 #@! TO.P,R1,2*
G04 #@! TO.N,AGND*
X75147500Y-36830000D03*
D20*
G04 #@! TO.N,Net-(C11-Pad1)*
G04 #@! TO.C,R4*
G36*
X80749505Y-52016204D02*
X80773773Y-52019804D01*
X80797572Y-52025765D01*
X80820671Y-52034030D01*
X80842850Y-52044520D01*
X80863893Y-52057132D01*
X80883599Y-52071747D01*
X80901777Y-52088223D01*
X80918253Y-52106401D01*
X80932868Y-52126107D01*
X80945480Y-52147150D01*
X80955970Y-52169329D01*
X80964235Y-52192428D01*
X80970196Y-52216227D01*
X80973796Y-52240495D01*
X80975000Y-52264999D01*
X80975000Y-54415001D01*
X80973796Y-54439505D01*
X80970196Y-54463773D01*
X80964235Y-54487572D01*
X80955970Y-54510671D01*
X80945480Y-54532850D01*
X80932868Y-54553893D01*
X80918253Y-54573599D01*
X80901777Y-54591777D01*
X80883599Y-54608253D01*
X80863893Y-54622868D01*
X80842850Y-54635480D01*
X80820671Y-54645970D01*
X80797572Y-54654235D01*
X80773773Y-54660196D01*
X80749505Y-54663796D01*
X80725001Y-54665000D01*
X79699999Y-54665000D01*
X79675495Y-54663796D01*
X79651227Y-54660196D01*
X79627428Y-54654235D01*
X79604329Y-54645970D01*
X79582150Y-54635480D01*
X79561107Y-54622868D01*
X79541401Y-54608253D01*
X79523223Y-54591777D01*
X79506747Y-54573599D01*
X79492132Y-54553893D01*
X79479520Y-54532850D01*
X79469030Y-54510671D01*
X79460765Y-54487572D01*
X79454804Y-54463773D01*
X79451204Y-54439505D01*
X79450000Y-54415001D01*
X79450000Y-52264999D01*
X79451204Y-52240495D01*
X79454804Y-52216227D01*
X79460765Y-52192428D01*
X79469030Y-52169329D01*
X79479520Y-52147150D01*
X79492132Y-52126107D01*
X79506747Y-52106401D01*
X79523223Y-52088223D01*
X79541401Y-52071747D01*
X79561107Y-52057132D01*
X79582150Y-52044520D01*
X79604329Y-52034030D01*
X79627428Y-52025765D01*
X79651227Y-52019804D01*
X79675495Y-52016204D01*
X79699999Y-52015000D01*
X80725001Y-52015000D01*
X80749505Y-52016204D01*
X80749505Y-52016204D01*
G37*
D22*
G04 #@! TD*
G04 #@! TO.P,R4,2*
G04 #@! TO.N,Net-(C11-Pad1)*
X80212500Y-53340000D03*
D20*
G04 #@! TO.N,/A3V3*
G04 #@! TO.C,R4*
G36*
X85424505Y-52016204D02*
X85448773Y-52019804D01*
X85472572Y-52025765D01*
X85495671Y-52034030D01*
X85517850Y-52044520D01*
X85538893Y-52057132D01*
X85558599Y-52071747D01*
X85576777Y-52088223D01*
X85593253Y-52106401D01*
X85607868Y-52126107D01*
X85620480Y-52147150D01*
X85630970Y-52169329D01*
X85639235Y-52192428D01*
X85645196Y-52216227D01*
X85648796Y-52240495D01*
X85650000Y-52264999D01*
X85650000Y-54415001D01*
X85648796Y-54439505D01*
X85645196Y-54463773D01*
X85639235Y-54487572D01*
X85630970Y-54510671D01*
X85620480Y-54532850D01*
X85607868Y-54553893D01*
X85593253Y-54573599D01*
X85576777Y-54591777D01*
X85558599Y-54608253D01*
X85538893Y-54622868D01*
X85517850Y-54635480D01*
X85495671Y-54645970D01*
X85472572Y-54654235D01*
X85448773Y-54660196D01*
X85424505Y-54663796D01*
X85400001Y-54665000D01*
X84374999Y-54665000D01*
X84350495Y-54663796D01*
X84326227Y-54660196D01*
X84302428Y-54654235D01*
X84279329Y-54645970D01*
X84257150Y-54635480D01*
X84236107Y-54622868D01*
X84216401Y-54608253D01*
X84198223Y-54591777D01*
X84181747Y-54573599D01*
X84167132Y-54553893D01*
X84154520Y-54532850D01*
X84144030Y-54510671D01*
X84135765Y-54487572D01*
X84129804Y-54463773D01*
X84126204Y-54439505D01*
X84125000Y-54415001D01*
X84125000Y-52264999D01*
X84126204Y-52240495D01*
X84129804Y-52216227D01*
X84135765Y-52192428D01*
X84144030Y-52169329D01*
X84154520Y-52147150D01*
X84167132Y-52126107D01*
X84181747Y-52106401D01*
X84198223Y-52088223D01*
X84216401Y-52071747D01*
X84236107Y-52057132D01*
X84257150Y-52044520D01*
X84279329Y-52034030D01*
X84302428Y-52025765D01*
X84326227Y-52019804D01*
X84350495Y-52016204D01*
X84374999Y-52015000D01*
X85400001Y-52015000D01*
X85424505Y-52016204D01*
X85424505Y-52016204D01*
G37*
D22*
G04 #@! TD*
G04 #@! TO.P,R4,1*
G04 #@! TO.N,/A3V3*
X84887500Y-53340000D03*
D20*
G04 #@! TO.N,Net-(C11-Pad1)*
G04 #@! TO.C,R5*
G36*
X88369505Y-52016204D02*
X88393773Y-52019804D01*
X88417572Y-52025765D01*
X88440671Y-52034030D01*
X88462850Y-52044520D01*
X88483893Y-52057132D01*
X88503599Y-52071747D01*
X88521777Y-52088223D01*
X88538253Y-52106401D01*
X88552868Y-52126107D01*
X88565480Y-52147150D01*
X88575970Y-52169329D01*
X88584235Y-52192428D01*
X88590196Y-52216227D01*
X88593796Y-52240495D01*
X88595000Y-52264999D01*
X88595000Y-54415001D01*
X88593796Y-54439505D01*
X88590196Y-54463773D01*
X88584235Y-54487572D01*
X88575970Y-54510671D01*
X88565480Y-54532850D01*
X88552868Y-54553893D01*
X88538253Y-54573599D01*
X88521777Y-54591777D01*
X88503599Y-54608253D01*
X88483893Y-54622868D01*
X88462850Y-54635480D01*
X88440671Y-54645970D01*
X88417572Y-54654235D01*
X88393773Y-54660196D01*
X88369505Y-54663796D01*
X88345001Y-54665000D01*
X87319999Y-54665000D01*
X87295495Y-54663796D01*
X87271227Y-54660196D01*
X87247428Y-54654235D01*
X87224329Y-54645970D01*
X87202150Y-54635480D01*
X87181107Y-54622868D01*
X87161401Y-54608253D01*
X87143223Y-54591777D01*
X87126747Y-54573599D01*
X87112132Y-54553893D01*
X87099520Y-54532850D01*
X87089030Y-54510671D01*
X87080765Y-54487572D01*
X87074804Y-54463773D01*
X87071204Y-54439505D01*
X87070000Y-54415001D01*
X87070000Y-52264999D01*
X87071204Y-52240495D01*
X87074804Y-52216227D01*
X87080765Y-52192428D01*
X87089030Y-52169329D01*
X87099520Y-52147150D01*
X87112132Y-52126107D01*
X87126747Y-52106401D01*
X87143223Y-52088223D01*
X87161401Y-52071747D01*
X87181107Y-52057132D01*
X87202150Y-52044520D01*
X87224329Y-52034030D01*
X87247428Y-52025765D01*
X87271227Y-52019804D01*
X87295495Y-52016204D01*
X87319999Y-52015000D01*
X88345001Y-52015000D01*
X88369505Y-52016204D01*
X88369505Y-52016204D01*
G37*
D22*
G04 #@! TD*
G04 #@! TO.P,R5,1*
G04 #@! TO.N,Net-(C11-Pad1)*
X87832500Y-53340000D03*
D20*
G04 #@! TO.N,AGND*
G04 #@! TO.C,R5*
G36*
X93044505Y-52016204D02*
X93068773Y-52019804D01*
X93092572Y-52025765D01*
X93115671Y-52034030D01*
X93137850Y-52044520D01*
X93158893Y-52057132D01*
X93178599Y-52071747D01*
X93196777Y-52088223D01*
X93213253Y-52106401D01*
X93227868Y-52126107D01*
X93240480Y-52147150D01*
X93250970Y-52169329D01*
X93259235Y-52192428D01*
X93265196Y-52216227D01*
X93268796Y-52240495D01*
X93270000Y-52264999D01*
X93270000Y-54415001D01*
X93268796Y-54439505D01*
X93265196Y-54463773D01*
X93259235Y-54487572D01*
X93250970Y-54510671D01*
X93240480Y-54532850D01*
X93227868Y-54553893D01*
X93213253Y-54573599D01*
X93196777Y-54591777D01*
X93178599Y-54608253D01*
X93158893Y-54622868D01*
X93137850Y-54635480D01*
X93115671Y-54645970D01*
X93092572Y-54654235D01*
X93068773Y-54660196D01*
X93044505Y-54663796D01*
X93020001Y-54665000D01*
X91994999Y-54665000D01*
X91970495Y-54663796D01*
X91946227Y-54660196D01*
X91922428Y-54654235D01*
X91899329Y-54645970D01*
X91877150Y-54635480D01*
X91856107Y-54622868D01*
X91836401Y-54608253D01*
X91818223Y-54591777D01*
X91801747Y-54573599D01*
X91787132Y-54553893D01*
X91774520Y-54532850D01*
X91764030Y-54510671D01*
X91755765Y-54487572D01*
X91749804Y-54463773D01*
X91746204Y-54439505D01*
X91745000Y-54415001D01*
X91745000Y-52264999D01*
X91746204Y-52240495D01*
X91749804Y-52216227D01*
X91755765Y-52192428D01*
X91764030Y-52169329D01*
X91774520Y-52147150D01*
X91787132Y-52126107D01*
X91801747Y-52106401D01*
X91818223Y-52088223D01*
X91836401Y-52071747D01*
X91856107Y-52057132D01*
X91877150Y-52044520D01*
X91899329Y-52034030D01*
X91922428Y-52025765D01*
X91946227Y-52019804D01*
X91970495Y-52016204D01*
X91994999Y-52015000D01*
X93020001Y-52015000D01*
X93044505Y-52016204D01*
X93044505Y-52016204D01*
G37*
D22*
G04 #@! TD*
G04 #@! TO.P,R5,2*
G04 #@! TO.N,AGND*
X92507500Y-53340000D03*
D20*
G04 #@! TO.N,Net-(C20-Pad1)*
G04 #@! TO.C,C20*
G36*
X77574505Y-90741204D02*
X77598773Y-90744804D01*
X77622572Y-90750765D01*
X77645671Y-90759030D01*
X77667850Y-90769520D01*
X77688893Y-90782132D01*
X77708599Y-90796747D01*
X77726777Y-90813223D01*
X77743253Y-90831401D01*
X77757868Y-90851107D01*
X77770480Y-90872150D01*
X77780970Y-90894329D01*
X77789235Y-90917428D01*
X77795196Y-90941227D01*
X77798796Y-90965495D01*
X77800000Y-90989999D01*
X77800000Y-91890001D01*
X77798796Y-91914505D01*
X77795196Y-91938773D01*
X77789235Y-91962572D01*
X77780970Y-91985671D01*
X77770480Y-92007850D01*
X77757868Y-92028893D01*
X77743253Y-92048599D01*
X77726777Y-92066777D01*
X77708599Y-92083253D01*
X77688893Y-92097868D01*
X77667850Y-92110480D01*
X77645671Y-92120970D01*
X77622572Y-92129235D01*
X77598773Y-92135196D01*
X77574505Y-92138796D01*
X77550001Y-92140000D01*
X76899999Y-92140000D01*
X76875495Y-92138796D01*
X76851227Y-92135196D01*
X76827428Y-92129235D01*
X76804329Y-92120970D01*
X76782150Y-92110480D01*
X76761107Y-92097868D01*
X76741401Y-92083253D01*
X76723223Y-92066777D01*
X76706747Y-92048599D01*
X76692132Y-92028893D01*
X76679520Y-92007850D01*
X76669030Y-91985671D01*
X76660765Y-91962572D01*
X76654804Y-91938773D01*
X76651204Y-91914505D01*
X76650000Y-91890001D01*
X76650000Y-90989999D01*
X76651204Y-90965495D01*
X76654804Y-90941227D01*
X76660765Y-90917428D01*
X76669030Y-90894329D01*
X76679520Y-90872150D01*
X76692132Y-90851107D01*
X76706747Y-90831401D01*
X76723223Y-90813223D01*
X76741401Y-90796747D01*
X76761107Y-90782132D01*
X76782150Y-90769520D01*
X76804329Y-90759030D01*
X76827428Y-90750765D01*
X76851227Y-90744804D01*
X76875495Y-90741204D01*
X76899999Y-90740000D01*
X77550001Y-90740000D01*
X77574505Y-90741204D01*
X77574505Y-90741204D01*
G37*
D23*
G04 #@! TD*
G04 #@! TO.P,C20,1*
G04 #@! TO.N,Net-(C20-Pad1)*
X77225000Y-91440000D03*
D20*
G04 #@! TO.N,GND*
G04 #@! TO.C,C20*
G36*
X75524505Y-90741204D02*
X75548773Y-90744804D01*
X75572572Y-90750765D01*
X75595671Y-90759030D01*
X75617850Y-90769520D01*
X75638893Y-90782132D01*
X75658599Y-90796747D01*
X75676777Y-90813223D01*
X75693253Y-90831401D01*
X75707868Y-90851107D01*
X75720480Y-90872150D01*
X75730970Y-90894329D01*
X75739235Y-90917428D01*
X75745196Y-90941227D01*
X75748796Y-90965495D01*
X75750000Y-90989999D01*
X75750000Y-91890001D01*
X75748796Y-91914505D01*
X75745196Y-91938773D01*
X75739235Y-91962572D01*
X75730970Y-91985671D01*
X75720480Y-92007850D01*
X75707868Y-92028893D01*
X75693253Y-92048599D01*
X75676777Y-92066777D01*
X75658599Y-92083253D01*
X75638893Y-92097868D01*
X75617850Y-92110480D01*
X75595671Y-92120970D01*
X75572572Y-92129235D01*
X75548773Y-92135196D01*
X75524505Y-92138796D01*
X75500001Y-92140000D01*
X74849999Y-92140000D01*
X74825495Y-92138796D01*
X74801227Y-92135196D01*
X74777428Y-92129235D01*
X74754329Y-92120970D01*
X74732150Y-92110480D01*
X74711107Y-92097868D01*
X74691401Y-92083253D01*
X74673223Y-92066777D01*
X74656747Y-92048599D01*
X74642132Y-92028893D01*
X74629520Y-92007850D01*
X74619030Y-91985671D01*
X74610765Y-91962572D01*
X74604804Y-91938773D01*
X74601204Y-91914505D01*
X74600000Y-91890001D01*
X74600000Y-90989999D01*
X74601204Y-90965495D01*
X74604804Y-90941227D01*
X74610765Y-90917428D01*
X74619030Y-90894329D01*
X74629520Y-90872150D01*
X74642132Y-90851107D01*
X74656747Y-90831401D01*
X74673223Y-90813223D01*
X74691401Y-90796747D01*
X74711107Y-90782132D01*
X74732150Y-90769520D01*
X74754329Y-90759030D01*
X74777428Y-90750765D01*
X74801227Y-90744804D01*
X74825495Y-90741204D01*
X74849999Y-90740000D01*
X75500001Y-90740000D01*
X75524505Y-90741204D01*
X75524505Y-90741204D01*
G37*
D23*
G04 #@! TD*
G04 #@! TO.P,C20,2*
G04 #@! TO.N,GND*
X75175000Y-91440000D03*
D24*
G04 #@! TO.P,U12,1*
G04 #@! TO.N,/+5V*
X73830000Y-86680000D03*
G04 #@! TO.P,U12,2*
G04 #@! TO.N,GND*
X73830000Y-87630000D03*
G04 #@! TO.P,U12,3*
G04 #@! TO.N,/+3V3*
X73830000Y-88580000D03*
G04 #@! TO.P,U12,4*
G04 #@! TO.N,Net-(C20-Pad1)*
X76030000Y-88580000D03*
G04 #@! TO.P,U12,5*
G04 #@! TO.N,/P3V3*
X76030000Y-86680000D03*
G04 #@! TD*
D15*
G04 #@! TO.P,TP7,1*
G04 #@! TO.N,Net-(TP7-Pad1)*
X102870000Y-81280000D03*
G04 #@! TD*
D11*
G04 #@! TO.P,LS1,1*
G04 #@! TO.N,Net-(C19-Pad2)*
X80010000Y-106680000D03*
D16*
G04 #@! TO.P,LS1,2*
G04 #@! TO.N,GND*
X76810000Y-106680000D03*
G04 #@! TD*
D11*
G04 #@! TO.P,C19,1*
G04 #@! TO.N,Net-(C19-Pad1)*
X74930000Y-96520000D03*
D16*
G04 #@! TO.P,C19,2*
G04 #@! TO.N,Net-(C19-Pad2)*
X77430000Y-96520000D03*
G04 #@! TD*
D25*
G04 #@! TO.P,RN4,1*
G04 #@! TO.N,/PB10*
X115340000Y-55150000D03*
G04 #@! TO.P,RN4,4*
G04 #@! TO.N,Net-(RN4-Pad4)*
X115340000Y-59150000D03*
G04 #@! TO.P,RN4,2*
G04 #@! TO.N,Net-(RN4-Pad2)*
X115340000Y-56490000D03*
G04 #@! TO.P,RN4,3*
G04 #@! TO.N,Net-(RN4-Pad3)*
X115340000Y-57810000D03*
G04 #@! TO.P,RN4,7*
G04 #@! TO.N,/P3V3*
X118340000Y-56490000D03*
G04 #@! TO.P,RN4,8*
X118340000Y-55150000D03*
G04 #@! TO.P,RN4,5*
X118340000Y-59150000D03*
G04 #@! TO.P,RN4,6*
X118340000Y-57810000D03*
G04 #@! TD*
D15*
G04 #@! TO.P,TP1,1*
G04 #@! TO.N,GND*
X113030000Y-142240000D03*
G04 #@! TD*
G04 #@! TO.P,TP2,1*
G04 #@! TO.N,AGND*
X59690000Y-48895000D03*
G04 #@! TD*
D26*
G04 #@! TO.P,D8,1*
G04 #@! TO.N,/XB_PIO4*
X79145000Y-127000000D03*
G04 #@! TO.P,D8,2*
G04 #@! TO.N,Net-(D8-Pad2)*
X82145000Y-127000000D03*
G04 #@! TD*
D27*
G04 #@! TO.P,D7,1*
G04 #@! TO.N,Net-(C5-Pad1)*
X78740000Y-46950000D03*
G04 #@! TO.P,D7,2*
G04 #@! TO.N,AGND*
X78740000Y-41950000D03*
G04 #@! TD*
D26*
G04 #@! TO.P,D1,1*
G04 #@! TO.N,GND*
X88670000Y-106680000D03*
G04 #@! TO.P,D1,2*
G04 #@! TO.N,Net-(D1-Pad2)*
X91670000Y-106680000D03*
G04 #@! TD*
D11*
G04 #@! TO.P,C18,1*
G04 #@! TO.N,/P3V3*
X106680000Y-138430000D03*
D16*
G04 #@! TO.P,C18,2*
G04 #@! TO.N,GND*
X109180000Y-138430000D03*
G04 #@! TD*
G04 #@! TO.P,C16,2*
G04 #@! TO.N,GND*
X83780000Y-91440000D03*
D11*
G04 #@! TO.P,C16,1*
G04 #@! TO.N,/P3V3*
X81280000Y-91440000D03*
G04 #@! TD*
G04 #@! TO.P,C17,1*
G04 #@! TO.N,/A3V3*
X64135000Y-48260000D03*
D16*
G04 #@! TO.P,C17,2*
G04 #@! TO.N,AGND*
X66635000Y-48260000D03*
G04 #@! TD*
D15*
G04 #@! TO.P,C15,1*
G04 #@! TO.N,Net-(C15-Pad1)*
X85090000Y-100330000D03*
G04 #@! TO.P,C15,2*
G04 #@! TO.N,GND*
X90090000Y-100330000D03*
G04 #@! TD*
D26*
G04 #@! TO.P,D2,2*
G04 #@! TO.N,Net-(D2-Pad2)*
X91670000Y-113030000D03*
G04 #@! TO.P,D2,1*
G04 #@! TO.N,GND*
X88670000Y-113030000D03*
G04 #@! TD*
G04 #@! TO.P,D5,1*
G04 #@! TO.N,GND*
X95020000Y-119380000D03*
G04 #@! TO.P,D5,2*
G04 #@! TO.N,Net-(D5-Pad2)*
X98020000Y-119380000D03*
G04 #@! TD*
G04 #@! TO.P,D6,2*
G04 #@! TO.N,Net-(D6-Pad2)*
X98020000Y-125730000D03*
G04 #@! TO.P,D6,1*
G04 #@! TO.N,GND*
X95020000Y-125730000D03*
G04 #@! TD*
D25*
G04 #@! TO.P,RN2,6*
G04 #@! TO.N,/PD14*
X106910000Y-121310000D03*
G04 #@! TO.P,RN2,5*
G04 #@! TO.N,/PD13*
X106910000Y-122650000D03*
G04 #@! TO.P,RN2,8*
G04 #@! TO.N,/PD11*
X106910000Y-118650000D03*
G04 #@! TO.P,RN2,7*
G04 #@! TO.N,/PD12*
X106910000Y-119990000D03*
G04 #@! TO.P,RN2,3*
G04 #@! TO.N,Net-(D4-Pad2)*
X103910000Y-121310000D03*
G04 #@! TO.P,RN2,2*
G04 #@! TO.N,Net-(D2-Pad2)*
X103910000Y-119990000D03*
G04 #@! TO.P,RN2,4*
G04 #@! TO.N,Net-(D3-Pad2)*
X103910000Y-122650000D03*
G04 #@! TO.P,RN2,1*
G04 #@! TO.N,Net-(D1-Pad2)*
X103910000Y-118650000D03*
G04 #@! TD*
G04 #@! TO.P,RN3,1*
G04 #@! TO.N,Net-(D5-Pad2)*
X103910000Y-109760000D03*
G04 #@! TO.P,RN3,4*
G04 #@! TO.N,Net-(D6-Pad2)*
X103910000Y-113760000D03*
G04 #@! TO.P,RN3,2*
G04 #@! TO.N,GND*
X103910000Y-111100000D03*
G04 #@! TO.P,RN3,3*
G04 #@! TO.N,Net-(RN3-Pad3)*
X103910000Y-112420000D03*
G04 #@! TO.P,RN3,7*
G04 #@! TO.N,/XB_PIO4*
X106910000Y-111100000D03*
G04 #@! TO.P,RN3,8*
G04 #@! TO.N,/PD15*
X106910000Y-109760000D03*
G04 #@! TO.P,RN3,5*
G04 #@! TO.N,/P3V3*
X106910000Y-113760000D03*
G04 #@! TO.P,RN3,6*
G04 #@! TO.N,Net-(RN3-Pad6)*
X106910000Y-112420000D03*
G04 #@! TD*
D18*
G04 #@! TO.P,J2,1*
G04 #@! TO.N,/+5V*
X73660000Y-118110000D03*
D19*
G04 #@! TO.P,J2,2*
G04 #@! TO.N,/PC12*
X73660000Y-120650000D03*
G04 #@! TO.P,J2,3*
G04 #@! TO.N,/PB12*
X73660000Y-123190000D03*
G04 #@! TO.P,J2,4*
G04 #@! TO.N,GND*
X73660000Y-125730000D03*
G04 #@! TD*
D26*
G04 #@! TO.P,D4,2*
G04 #@! TO.N,Net-(D4-Pad2)*
X91670000Y-125730000D03*
G04 #@! TO.P,D4,1*
G04 #@! TO.N,GND*
X88670000Y-125730000D03*
G04 #@! TD*
G04 #@! TO.P,D3,1*
G04 #@! TO.N,GND*
X88670000Y-119380000D03*
G04 #@! TO.P,D3,2*
G04 #@! TO.N,Net-(D3-Pad2)*
X91670000Y-119380000D03*
G04 #@! TD*
D11*
G04 #@! TO.P,C13,1*
G04 #@! TO.N,/P3V3*
X105410000Y-88900000D03*
D16*
G04 #@! TO.P,C13,2*
G04 #@! TO.N,GND*
X107910000Y-88900000D03*
G04 #@! TD*
G04 #@! TO.P,C12,2*
G04 #@! TO.N,GND*
X121880000Y-50800000D03*
D11*
G04 #@! TO.P,C12,1*
G04 #@! TO.N,/P3V3*
X119380000Y-50800000D03*
G04 #@! TD*
G04 #@! TO.P,C14,1*
G04 #@! TO.N,/A3V3*
X73660000Y-59690000D03*
D16*
G04 #@! TO.P,C14,2*
G04 #@! TO.N,AGND*
X76160000Y-59690000D03*
G04 #@! TD*
D28*
G04 #@! TO.P,U10,4*
G04 #@! TO.N,/P3V3*
X86555000Y-95855000D03*
G04 #@! TO.P,U10,1*
X86555000Y-92105000D03*
G04 #@! TO.P,U10,2*
G04 #@! TO.N,Net-(C15-Pad1)*
X86555000Y-93355000D03*
G04 #@! TO.P,U10,3*
G04 #@! TO.N,GND*
X86555000Y-94605000D03*
G04 #@! TO.P,U10,8*
G04 #@! TO.N,/PB6*
X88705000Y-92105000D03*
G04 #@! TO.P,U10,7*
G04 #@! TO.N,/PB9*
X88705000Y-93355000D03*
G04 #@! TO.P,U10,6*
G04 #@! TO.N,Net-(U10-Pad6)*
X88705000Y-94605000D03*
G04 #@! TO.P,U10,5*
G04 #@! TO.N,Net-(TP14-Pad1)*
X88705000Y-95855000D03*
G04 #@! TD*
D15*
G04 #@! TO.P,C8,1*
G04 #@! TO.N,Net-(C8-Pad1)*
X77470000Y-77470000D03*
G04 #@! TO.P,C8,2*
G04 #@! TO.N,AGND*
X72470000Y-77470000D03*
G04 #@! TD*
D20*
G04 #@! TO.N,Net-(C11-Pad1)*
G04 #@! TO.C,C11*
G36*
X92144504Y-57096204D02*
X92168773Y-57099804D01*
X92192571Y-57105765D01*
X92215671Y-57114030D01*
X92237849Y-57124520D01*
X92258893Y-57137133D01*
X92278598Y-57151747D01*
X92296777Y-57168223D01*
X92313253Y-57186402D01*
X92327867Y-57206107D01*
X92340480Y-57227151D01*
X92350970Y-57249329D01*
X92359235Y-57272429D01*
X92365196Y-57296227D01*
X92368796Y-57320496D01*
X92370000Y-57345000D01*
X92370000Y-59495000D01*
X92368796Y-59519504D01*
X92365196Y-59543773D01*
X92359235Y-59567571D01*
X92350970Y-59590671D01*
X92340480Y-59612849D01*
X92327867Y-59633893D01*
X92313253Y-59653598D01*
X92296777Y-59671777D01*
X92278598Y-59688253D01*
X92258893Y-59702867D01*
X92237849Y-59715480D01*
X92215671Y-59725970D01*
X92192571Y-59734235D01*
X92168773Y-59740196D01*
X92144504Y-59743796D01*
X92120000Y-59745000D01*
X91195000Y-59745000D01*
X91170496Y-59743796D01*
X91146227Y-59740196D01*
X91122429Y-59734235D01*
X91099329Y-59725970D01*
X91077151Y-59715480D01*
X91056107Y-59702867D01*
X91036402Y-59688253D01*
X91018223Y-59671777D01*
X91001747Y-59653598D01*
X90987133Y-59633893D01*
X90974520Y-59612849D01*
X90964030Y-59590671D01*
X90955765Y-59567571D01*
X90949804Y-59543773D01*
X90946204Y-59519504D01*
X90945000Y-59495000D01*
X90945000Y-57345000D01*
X90946204Y-57320496D01*
X90949804Y-57296227D01*
X90955765Y-57272429D01*
X90964030Y-57249329D01*
X90974520Y-57227151D01*
X90987133Y-57206107D01*
X91001747Y-57186402D01*
X91018223Y-57168223D01*
X91036402Y-57151747D01*
X91056107Y-57137133D01*
X91077151Y-57124520D01*
X91099329Y-57114030D01*
X91122429Y-57105765D01*
X91146227Y-57099804D01*
X91170496Y-57096204D01*
X91195000Y-57095000D01*
X92120000Y-57095000D01*
X92144504Y-57096204D01*
X92144504Y-57096204D01*
G37*
D21*
G04 #@! TD*
G04 #@! TO.P,C11,1*
G04 #@! TO.N,Net-(C11-Pad1)*
X91657500Y-58420000D03*
D20*
G04 #@! TO.N,Net-(C11-Pad2)*
G04 #@! TO.C,C11*
G36*
X89169504Y-57096204D02*
X89193773Y-57099804D01*
X89217571Y-57105765D01*
X89240671Y-57114030D01*
X89262849Y-57124520D01*
X89283893Y-57137133D01*
X89303598Y-57151747D01*
X89321777Y-57168223D01*
X89338253Y-57186402D01*
X89352867Y-57206107D01*
X89365480Y-57227151D01*
X89375970Y-57249329D01*
X89384235Y-57272429D01*
X89390196Y-57296227D01*
X89393796Y-57320496D01*
X89395000Y-57345000D01*
X89395000Y-59495000D01*
X89393796Y-59519504D01*
X89390196Y-59543773D01*
X89384235Y-59567571D01*
X89375970Y-59590671D01*
X89365480Y-59612849D01*
X89352867Y-59633893D01*
X89338253Y-59653598D01*
X89321777Y-59671777D01*
X89303598Y-59688253D01*
X89283893Y-59702867D01*
X89262849Y-59715480D01*
X89240671Y-59725970D01*
X89217571Y-59734235D01*
X89193773Y-59740196D01*
X89169504Y-59743796D01*
X89145000Y-59745000D01*
X88220000Y-59745000D01*
X88195496Y-59743796D01*
X88171227Y-59740196D01*
X88147429Y-59734235D01*
X88124329Y-59725970D01*
X88102151Y-59715480D01*
X88081107Y-59702867D01*
X88061402Y-59688253D01*
X88043223Y-59671777D01*
X88026747Y-59653598D01*
X88012133Y-59633893D01*
X87999520Y-59612849D01*
X87989030Y-59590671D01*
X87980765Y-59567571D01*
X87974804Y-59543773D01*
X87971204Y-59519504D01*
X87970000Y-59495000D01*
X87970000Y-57345000D01*
X87971204Y-57320496D01*
X87974804Y-57296227D01*
X87980765Y-57272429D01*
X87989030Y-57249329D01*
X87999520Y-57227151D01*
X88012133Y-57206107D01*
X88026747Y-57186402D01*
X88043223Y-57168223D01*
X88061402Y-57151747D01*
X88081107Y-57137133D01*
X88102151Y-57124520D01*
X88124329Y-57114030D01*
X88147429Y-57105765D01*
X88171227Y-57099804D01*
X88195496Y-57096204D01*
X88220000Y-57095000D01*
X89145000Y-57095000D01*
X89169504Y-57096204D01*
X89169504Y-57096204D01*
G37*
D21*
G04 #@! TD*
G04 #@! TO.P,C11,2*
G04 #@! TO.N,Net-(C11-Pad2)*
X88682500Y-58420000D03*
D20*
G04 #@! TO.N,Net-(C10-Pad2)*
G04 #@! TO.C,C10*
G36*
X88334504Y-38046204D02*
X88358773Y-38049804D01*
X88382571Y-38055765D01*
X88405671Y-38064030D01*
X88427849Y-38074520D01*
X88448893Y-38087133D01*
X88468598Y-38101747D01*
X88486777Y-38118223D01*
X88503253Y-38136402D01*
X88517867Y-38156107D01*
X88530480Y-38177151D01*
X88540970Y-38199329D01*
X88549235Y-38222429D01*
X88555196Y-38246227D01*
X88558796Y-38270496D01*
X88560000Y-38295000D01*
X88560000Y-40445000D01*
X88558796Y-40469504D01*
X88555196Y-40493773D01*
X88549235Y-40517571D01*
X88540970Y-40540671D01*
X88530480Y-40562849D01*
X88517867Y-40583893D01*
X88503253Y-40603598D01*
X88486777Y-40621777D01*
X88468598Y-40638253D01*
X88448893Y-40652867D01*
X88427849Y-40665480D01*
X88405671Y-40675970D01*
X88382571Y-40684235D01*
X88358773Y-40690196D01*
X88334504Y-40693796D01*
X88310000Y-40695000D01*
X87385000Y-40695000D01*
X87360496Y-40693796D01*
X87336227Y-40690196D01*
X87312429Y-40684235D01*
X87289329Y-40675970D01*
X87267151Y-40665480D01*
X87246107Y-40652867D01*
X87226402Y-40638253D01*
X87208223Y-40621777D01*
X87191747Y-40603598D01*
X87177133Y-40583893D01*
X87164520Y-40562849D01*
X87154030Y-40540671D01*
X87145765Y-40517571D01*
X87139804Y-40493773D01*
X87136204Y-40469504D01*
X87135000Y-40445000D01*
X87135000Y-38295000D01*
X87136204Y-38270496D01*
X87139804Y-38246227D01*
X87145765Y-38222429D01*
X87154030Y-38199329D01*
X87164520Y-38177151D01*
X87177133Y-38156107D01*
X87191747Y-38136402D01*
X87208223Y-38118223D01*
X87226402Y-38101747D01*
X87246107Y-38087133D01*
X87267151Y-38074520D01*
X87289329Y-38064030D01*
X87312429Y-38055765D01*
X87336227Y-38049804D01*
X87360496Y-38046204D01*
X87385000Y-38045000D01*
X88310000Y-38045000D01*
X88334504Y-38046204D01*
X88334504Y-38046204D01*
G37*
D21*
G04 #@! TD*
G04 #@! TO.P,C10,2*
G04 #@! TO.N,Net-(C10-Pad2)*
X87847500Y-39370000D03*
D20*
G04 #@! TO.N,Net-(C10-Pad1)*
G04 #@! TO.C,C10*
G36*
X85359504Y-38046204D02*
X85383773Y-38049804D01*
X85407571Y-38055765D01*
X85430671Y-38064030D01*
X85452849Y-38074520D01*
X85473893Y-38087133D01*
X85493598Y-38101747D01*
X85511777Y-38118223D01*
X85528253Y-38136402D01*
X85542867Y-38156107D01*
X85555480Y-38177151D01*
X85565970Y-38199329D01*
X85574235Y-38222429D01*
X85580196Y-38246227D01*
X85583796Y-38270496D01*
X85585000Y-38295000D01*
X85585000Y-40445000D01*
X85583796Y-40469504D01*
X85580196Y-40493773D01*
X85574235Y-40517571D01*
X85565970Y-40540671D01*
X85555480Y-40562849D01*
X85542867Y-40583893D01*
X85528253Y-40603598D01*
X85511777Y-40621777D01*
X85493598Y-40638253D01*
X85473893Y-40652867D01*
X85452849Y-40665480D01*
X85430671Y-40675970D01*
X85407571Y-40684235D01*
X85383773Y-40690196D01*
X85359504Y-40693796D01*
X85335000Y-40695000D01*
X84410000Y-40695000D01*
X84385496Y-40693796D01*
X84361227Y-40690196D01*
X84337429Y-40684235D01*
X84314329Y-40675970D01*
X84292151Y-40665480D01*
X84271107Y-40652867D01*
X84251402Y-40638253D01*
X84233223Y-40621777D01*
X84216747Y-40603598D01*
X84202133Y-40583893D01*
X84189520Y-40562849D01*
X84179030Y-40540671D01*
X84170765Y-40517571D01*
X84164804Y-40493773D01*
X84161204Y-40469504D01*
X84160000Y-40445000D01*
X84160000Y-38295000D01*
X84161204Y-38270496D01*
X84164804Y-38246227D01*
X84170765Y-38222429D01*
X84179030Y-38199329D01*
X84189520Y-38177151D01*
X84202133Y-38156107D01*
X84216747Y-38136402D01*
X84233223Y-38118223D01*
X84251402Y-38101747D01*
X84271107Y-38087133D01*
X84292151Y-38074520D01*
X84314329Y-38064030D01*
X84337429Y-38055765D01*
X84361227Y-38049804D01*
X84385496Y-38046204D01*
X84410000Y-38045000D01*
X85335000Y-38045000D01*
X85359504Y-38046204D01*
X85359504Y-38046204D01*
G37*
D21*
G04 #@! TD*
G04 #@! TO.P,C10,1*
G04 #@! TO.N,Net-(C10-Pad1)*
X84872500Y-39370000D03*
D20*
G04 #@! TO.N,Net-(C9-Pad1)*
G04 #@! TO.C,C9*
G36*
X72877004Y-52016204D02*
X72901273Y-52019804D01*
X72925071Y-52025765D01*
X72948171Y-52034030D01*
X72970349Y-52044520D01*
X72991393Y-52057133D01*
X73011098Y-52071747D01*
X73029277Y-52088223D01*
X73045753Y-52106402D01*
X73060367Y-52126107D01*
X73072980Y-52147151D01*
X73083470Y-52169329D01*
X73091735Y-52192429D01*
X73097696Y-52216227D01*
X73101296Y-52240496D01*
X73102500Y-52265000D01*
X73102500Y-54415000D01*
X73101296Y-54439504D01*
X73097696Y-54463773D01*
X73091735Y-54487571D01*
X73083470Y-54510671D01*
X73072980Y-54532849D01*
X73060367Y-54553893D01*
X73045753Y-54573598D01*
X73029277Y-54591777D01*
X73011098Y-54608253D01*
X72991393Y-54622867D01*
X72970349Y-54635480D01*
X72948171Y-54645970D01*
X72925071Y-54654235D01*
X72901273Y-54660196D01*
X72877004Y-54663796D01*
X72852500Y-54665000D01*
X71927500Y-54665000D01*
X71902996Y-54663796D01*
X71878727Y-54660196D01*
X71854929Y-54654235D01*
X71831829Y-54645970D01*
X71809651Y-54635480D01*
X71788607Y-54622867D01*
X71768902Y-54608253D01*
X71750723Y-54591777D01*
X71734247Y-54573598D01*
X71719633Y-54553893D01*
X71707020Y-54532849D01*
X71696530Y-54510671D01*
X71688265Y-54487571D01*
X71682304Y-54463773D01*
X71678704Y-54439504D01*
X71677500Y-54415000D01*
X71677500Y-52265000D01*
X71678704Y-52240496D01*
X71682304Y-52216227D01*
X71688265Y-52192429D01*
X71696530Y-52169329D01*
X71707020Y-52147151D01*
X71719633Y-52126107D01*
X71734247Y-52106402D01*
X71750723Y-52088223D01*
X71768902Y-52071747D01*
X71788607Y-52057133D01*
X71809651Y-52044520D01*
X71831829Y-52034030D01*
X71854929Y-52025765D01*
X71878727Y-52019804D01*
X71902996Y-52016204D01*
X71927500Y-52015000D01*
X72852500Y-52015000D01*
X72877004Y-52016204D01*
X72877004Y-52016204D01*
G37*
D21*
G04 #@! TD*
G04 #@! TO.P,C9,1*
G04 #@! TO.N,Net-(C9-Pad1)*
X72390000Y-53340000D03*
D20*
G04 #@! TO.N,Net-(C9-Pad2)*
G04 #@! TO.C,C9*
G36*
X75852004Y-52016204D02*
X75876273Y-52019804D01*
X75900071Y-52025765D01*
X75923171Y-52034030D01*
X75945349Y-52044520D01*
X75966393Y-52057133D01*
X75986098Y-52071747D01*
X76004277Y-52088223D01*
X76020753Y-52106402D01*
X76035367Y-52126107D01*
X76047980Y-52147151D01*
X76058470Y-52169329D01*
X76066735Y-52192429D01*
X76072696Y-52216227D01*
X76076296Y-52240496D01*
X76077500Y-52265000D01*
X76077500Y-54415000D01*
X76076296Y-54439504D01*
X76072696Y-54463773D01*
X76066735Y-54487571D01*
X76058470Y-54510671D01*
X76047980Y-54532849D01*
X76035367Y-54553893D01*
X76020753Y-54573598D01*
X76004277Y-54591777D01*
X75986098Y-54608253D01*
X75966393Y-54622867D01*
X75945349Y-54635480D01*
X75923171Y-54645970D01*
X75900071Y-54654235D01*
X75876273Y-54660196D01*
X75852004Y-54663796D01*
X75827500Y-54665000D01*
X74902500Y-54665000D01*
X74877996Y-54663796D01*
X74853727Y-54660196D01*
X74829929Y-54654235D01*
X74806829Y-54645970D01*
X74784651Y-54635480D01*
X74763607Y-54622867D01*
X74743902Y-54608253D01*
X74725723Y-54591777D01*
X74709247Y-54573598D01*
X74694633Y-54553893D01*
X74682020Y-54532849D01*
X74671530Y-54510671D01*
X74663265Y-54487571D01*
X74657304Y-54463773D01*
X74653704Y-54439504D01*
X74652500Y-54415000D01*
X74652500Y-52265000D01*
X74653704Y-52240496D01*
X74657304Y-52216227D01*
X74663265Y-52192429D01*
X74671530Y-52169329D01*
X74682020Y-52147151D01*
X74694633Y-52126107D01*
X74709247Y-52106402D01*
X74725723Y-52088223D01*
X74743902Y-52071747D01*
X74763607Y-52057133D01*
X74784651Y-52044520D01*
X74806829Y-52034030D01*
X74829929Y-52025765D01*
X74853727Y-52019804D01*
X74877996Y-52016204D01*
X74902500Y-52015000D01*
X75827500Y-52015000D01*
X75852004Y-52016204D01*
X75852004Y-52016204D01*
G37*
D21*
G04 #@! TD*
G04 #@! TO.P,C9,2*
G04 #@! TO.N,Net-(C9-Pad2)*
X75365000Y-53340000D03*
D20*
G04 #@! TO.N,AGND*
G04 #@! TO.C,C7*
G36*
X82819504Y-63446204D02*
X82843773Y-63449804D01*
X82867571Y-63455765D01*
X82890671Y-63464030D01*
X82912849Y-63474520D01*
X82933893Y-63487133D01*
X82953598Y-63501747D01*
X82971777Y-63518223D01*
X82988253Y-63536402D01*
X83002867Y-63556107D01*
X83015480Y-63577151D01*
X83025970Y-63599329D01*
X83034235Y-63622429D01*
X83040196Y-63646227D01*
X83043796Y-63670496D01*
X83045000Y-63695000D01*
X83045000Y-65845000D01*
X83043796Y-65869504D01*
X83040196Y-65893773D01*
X83034235Y-65917571D01*
X83025970Y-65940671D01*
X83015480Y-65962849D01*
X83002867Y-65983893D01*
X82988253Y-66003598D01*
X82971777Y-66021777D01*
X82953598Y-66038253D01*
X82933893Y-66052867D01*
X82912849Y-66065480D01*
X82890671Y-66075970D01*
X82867571Y-66084235D01*
X82843773Y-66090196D01*
X82819504Y-66093796D01*
X82795000Y-66095000D01*
X81870000Y-66095000D01*
X81845496Y-66093796D01*
X81821227Y-66090196D01*
X81797429Y-66084235D01*
X81774329Y-66075970D01*
X81752151Y-66065480D01*
X81731107Y-66052867D01*
X81711402Y-66038253D01*
X81693223Y-66021777D01*
X81676747Y-66003598D01*
X81662133Y-65983893D01*
X81649520Y-65962849D01*
X81639030Y-65940671D01*
X81630765Y-65917571D01*
X81624804Y-65893773D01*
X81621204Y-65869504D01*
X81620000Y-65845000D01*
X81620000Y-63695000D01*
X81621204Y-63670496D01*
X81624804Y-63646227D01*
X81630765Y-63622429D01*
X81639030Y-63599329D01*
X81649520Y-63577151D01*
X81662133Y-63556107D01*
X81676747Y-63536402D01*
X81693223Y-63518223D01*
X81711402Y-63501747D01*
X81731107Y-63487133D01*
X81752151Y-63474520D01*
X81774329Y-63464030D01*
X81797429Y-63455765D01*
X81821227Y-63449804D01*
X81845496Y-63446204D01*
X81870000Y-63445000D01*
X82795000Y-63445000D01*
X82819504Y-63446204D01*
X82819504Y-63446204D01*
G37*
D21*
G04 #@! TD*
G04 #@! TO.P,C7,1*
G04 #@! TO.N,AGND*
X82332500Y-64770000D03*
D20*
G04 #@! TO.N,Net-(C7-Pad2)*
G04 #@! TO.C,C7*
G36*
X85794504Y-63446204D02*
X85818773Y-63449804D01*
X85842571Y-63455765D01*
X85865671Y-63464030D01*
X85887849Y-63474520D01*
X85908893Y-63487133D01*
X85928598Y-63501747D01*
X85946777Y-63518223D01*
X85963253Y-63536402D01*
X85977867Y-63556107D01*
X85990480Y-63577151D01*
X86000970Y-63599329D01*
X86009235Y-63622429D01*
X86015196Y-63646227D01*
X86018796Y-63670496D01*
X86020000Y-63695000D01*
X86020000Y-65845000D01*
X86018796Y-65869504D01*
X86015196Y-65893773D01*
X86009235Y-65917571D01*
X86000970Y-65940671D01*
X85990480Y-65962849D01*
X85977867Y-65983893D01*
X85963253Y-66003598D01*
X85946777Y-66021777D01*
X85928598Y-66038253D01*
X85908893Y-66052867D01*
X85887849Y-66065480D01*
X85865671Y-66075970D01*
X85842571Y-66084235D01*
X85818773Y-66090196D01*
X85794504Y-66093796D01*
X85770000Y-66095000D01*
X84845000Y-66095000D01*
X84820496Y-66093796D01*
X84796227Y-66090196D01*
X84772429Y-66084235D01*
X84749329Y-66075970D01*
X84727151Y-66065480D01*
X84706107Y-66052867D01*
X84686402Y-66038253D01*
X84668223Y-66021777D01*
X84651747Y-66003598D01*
X84637133Y-65983893D01*
X84624520Y-65962849D01*
X84614030Y-65940671D01*
X84605765Y-65917571D01*
X84599804Y-65893773D01*
X84596204Y-65869504D01*
X84595000Y-65845000D01*
X84595000Y-63695000D01*
X84596204Y-63670496D01*
X84599804Y-63646227D01*
X84605765Y-63622429D01*
X84614030Y-63599329D01*
X84624520Y-63577151D01*
X84637133Y-63556107D01*
X84651747Y-63536402D01*
X84668223Y-63518223D01*
X84686402Y-63501747D01*
X84706107Y-63487133D01*
X84727151Y-63474520D01*
X84749329Y-63464030D01*
X84772429Y-63455765D01*
X84796227Y-63449804D01*
X84820496Y-63446204D01*
X84845000Y-63445000D01*
X85770000Y-63445000D01*
X85794504Y-63446204D01*
X85794504Y-63446204D01*
G37*
D21*
G04 #@! TD*
G04 #@! TO.P,C7,2*
G04 #@! TO.N,Net-(C7-Pad2)*
X85307500Y-64770000D03*
D20*
G04 #@! TO.N,Net-(C6-Pad2)*
G04 #@! TO.C,C6*
G36*
X92144504Y-63446204D02*
X92168773Y-63449804D01*
X92192571Y-63455765D01*
X92215671Y-63464030D01*
X92237849Y-63474520D01*
X92258893Y-63487133D01*
X92278598Y-63501747D01*
X92296777Y-63518223D01*
X92313253Y-63536402D01*
X92327867Y-63556107D01*
X92340480Y-63577151D01*
X92350970Y-63599329D01*
X92359235Y-63622429D01*
X92365196Y-63646227D01*
X92368796Y-63670496D01*
X92370000Y-63695000D01*
X92370000Y-65845000D01*
X92368796Y-65869504D01*
X92365196Y-65893773D01*
X92359235Y-65917571D01*
X92350970Y-65940671D01*
X92340480Y-65962849D01*
X92327867Y-65983893D01*
X92313253Y-66003598D01*
X92296777Y-66021777D01*
X92278598Y-66038253D01*
X92258893Y-66052867D01*
X92237849Y-66065480D01*
X92215671Y-66075970D01*
X92192571Y-66084235D01*
X92168773Y-66090196D01*
X92144504Y-66093796D01*
X92120000Y-66095000D01*
X91195000Y-66095000D01*
X91170496Y-66093796D01*
X91146227Y-66090196D01*
X91122429Y-66084235D01*
X91099329Y-66075970D01*
X91077151Y-66065480D01*
X91056107Y-66052867D01*
X91036402Y-66038253D01*
X91018223Y-66021777D01*
X91001747Y-66003598D01*
X90987133Y-65983893D01*
X90974520Y-65962849D01*
X90964030Y-65940671D01*
X90955765Y-65917571D01*
X90949804Y-65893773D01*
X90946204Y-65869504D01*
X90945000Y-65845000D01*
X90945000Y-63695000D01*
X90946204Y-63670496D01*
X90949804Y-63646227D01*
X90955765Y-63622429D01*
X90964030Y-63599329D01*
X90974520Y-63577151D01*
X90987133Y-63556107D01*
X91001747Y-63536402D01*
X91018223Y-63518223D01*
X91036402Y-63501747D01*
X91056107Y-63487133D01*
X91077151Y-63474520D01*
X91099329Y-63464030D01*
X91122429Y-63455765D01*
X91146227Y-63449804D01*
X91170496Y-63446204D01*
X91195000Y-63445000D01*
X92120000Y-63445000D01*
X92144504Y-63446204D01*
X92144504Y-63446204D01*
G37*
D21*
G04 #@! TD*
G04 #@! TO.P,C6,2*
G04 #@! TO.N,Net-(C6-Pad2)*
X91657500Y-64770000D03*
D20*
G04 #@! TO.N,Net-(C6-Pad1)*
G04 #@! TO.C,C6*
G36*
X89169504Y-63446204D02*
X89193773Y-63449804D01*
X89217571Y-63455765D01*
X89240671Y-63464030D01*
X89262849Y-63474520D01*
X89283893Y-63487133D01*
X89303598Y-63501747D01*
X89321777Y-63518223D01*
X89338253Y-63536402D01*
X89352867Y-63556107D01*
X89365480Y-63577151D01*
X89375970Y-63599329D01*
X89384235Y-63622429D01*
X89390196Y-63646227D01*
X89393796Y-63670496D01*
X89395000Y-63695000D01*
X89395000Y-65845000D01*
X89393796Y-65869504D01*
X89390196Y-65893773D01*
X89384235Y-65917571D01*
X89375970Y-65940671D01*
X89365480Y-65962849D01*
X89352867Y-65983893D01*
X89338253Y-66003598D01*
X89321777Y-66021777D01*
X89303598Y-66038253D01*
X89283893Y-66052867D01*
X89262849Y-66065480D01*
X89240671Y-66075970D01*
X89217571Y-66084235D01*
X89193773Y-66090196D01*
X89169504Y-66093796D01*
X89145000Y-66095000D01*
X88220000Y-66095000D01*
X88195496Y-66093796D01*
X88171227Y-66090196D01*
X88147429Y-66084235D01*
X88124329Y-66075970D01*
X88102151Y-66065480D01*
X88081107Y-66052867D01*
X88061402Y-66038253D01*
X88043223Y-66021777D01*
X88026747Y-66003598D01*
X88012133Y-65983893D01*
X87999520Y-65962849D01*
X87989030Y-65940671D01*
X87980765Y-65917571D01*
X87974804Y-65893773D01*
X87971204Y-65869504D01*
X87970000Y-65845000D01*
X87970000Y-63695000D01*
X87971204Y-63670496D01*
X87974804Y-63646227D01*
X87980765Y-63622429D01*
X87989030Y-63599329D01*
X87999520Y-63577151D01*
X88012133Y-63556107D01*
X88026747Y-63536402D01*
X88043223Y-63518223D01*
X88061402Y-63501747D01*
X88081107Y-63487133D01*
X88102151Y-63474520D01*
X88124329Y-63464030D01*
X88147429Y-63455765D01*
X88171227Y-63449804D01*
X88195496Y-63446204D01*
X88220000Y-63445000D01*
X89145000Y-63445000D01*
X89169504Y-63446204D01*
X89169504Y-63446204D01*
G37*
D21*
G04 #@! TD*
G04 #@! TO.P,C6,1*
G04 #@! TO.N,Net-(C6-Pad1)*
X88682500Y-64770000D03*
D20*
G04 #@! TO.N,Net-(C5-Pad1)*
G04 #@! TO.C,C5*
G36*
X75634504Y-41856204D02*
X75658773Y-41859804D01*
X75682571Y-41865765D01*
X75705671Y-41874030D01*
X75727849Y-41884520D01*
X75748893Y-41897133D01*
X75768598Y-41911747D01*
X75786777Y-41928223D01*
X75803253Y-41946402D01*
X75817867Y-41966107D01*
X75830480Y-41987151D01*
X75840970Y-42009329D01*
X75849235Y-42032429D01*
X75855196Y-42056227D01*
X75858796Y-42080496D01*
X75860000Y-42105000D01*
X75860000Y-44255000D01*
X75858796Y-44279504D01*
X75855196Y-44303773D01*
X75849235Y-44327571D01*
X75840970Y-44350671D01*
X75830480Y-44372849D01*
X75817867Y-44393893D01*
X75803253Y-44413598D01*
X75786777Y-44431777D01*
X75768598Y-44448253D01*
X75748893Y-44462867D01*
X75727849Y-44475480D01*
X75705671Y-44485970D01*
X75682571Y-44494235D01*
X75658773Y-44500196D01*
X75634504Y-44503796D01*
X75610000Y-44505000D01*
X74685000Y-44505000D01*
X74660496Y-44503796D01*
X74636227Y-44500196D01*
X74612429Y-44494235D01*
X74589329Y-44485970D01*
X74567151Y-44475480D01*
X74546107Y-44462867D01*
X74526402Y-44448253D01*
X74508223Y-44431777D01*
X74491747Y-44413598D01*
X74477133Y-44393893D01*
X74464520Y-44372849D01*
X74454030Y-44350671D01*
X74445765Y-44327571D01*
X74439804Y-44303773D01*
X74436204Y-44279504D01*
X74435000Y-44255000D01*
X74435000Y-42105000D01*
X74436204Y-42080496D01*
X74439804Y-42056227D01*
X74445765Y-42032429D01*
X74454030Y-42009329D01*
X74464520Y-41987151D01*
X74477133Y-41966107D01*
X74491747Y-41946402D01*
X74508223Y-41928223D01*
X74526402Y-41911747D01*
X74546107Y-41897133D01*
X74567151Y-41884520D01*
X74589329Y-41874030D01*
X74612429Y-41865765D01*
X74636227Y-41859804D01*
X74660496Y-41856204D01*
X74685000Y-41855000D01*
X75610000Y-41855000D01*
X75634504Y-41856204D01*
X75634504Y-41856204D01*
G37*
D21*
G04 #@! TD*
G04 #@! TO.P,C5,1*
G04 #@! TO.N,Net-(C5-Pad1)*
X75147500Y-43180000D03*
D20*
G04 #@! TO.N,Net-(C5-Pad2)*
G04 #@! TO.C,C5*
G36*
X72659504Y-41856204D02*
X72683773Y-41859804D01*
X72707571Y-41865765D01*
X72730671Y-41874030D01*
X72752849Y-41884520D01*
X72773893Y-41897133D01*
X72793598Y-41911747D01*
X72811777Y-41928223D01*
X72828253Y-41946402D01*
X72842867Y-41966107D01*
X72855480Y-41987151D01*
X72865970Y-42009329D01*
X72874235Y-42032429D01*
X72880196Y-42056227D01*
X72883796Y-42080496D01*
X72885000Y-42105000D01*
X72885000Y-44255000D01*
X72883796Y-44279504D01*
X72880196Y-44303773D01*
X72874235Y-44327571D01*
X72865970Y-44350671D01*
X72855480Y-44372849D01*
X72842867Y-44393893D01*
X72828253Y-44413598D01*
X72811777Y-44431777D01*
X72793598Y-44448253D01*
X72773893Y-44462867D01*
X72752849Y-44475480D01*
X72730671Y-44485970D01*
X72707571Y-44494235D01*
X72683773Y-44500196D01*
X72659504Y-44503796D01*
X72635000Y-44505000D01*
X71710000Y-44505000D01*
X71685496Y-44503796D01*
X71661227Y-44500196D01*
X71637429Y-44494235D01*
X71614329Y-44485970D01*
X71592151Y-44475480D01*
X71571107Y-44462867D01*
X71551402Y-44448253D01*
X71533223Y-44431777D01*
X71516747Y-44413598D01*
X71502133Y-44393893D01*
X71489520Y-44372849D01*
X71479030Y-44350671D01*
X71470765Y-44327571D01*
X71464804Y-44303773D01*
X71461204Y-44279504D01*
X71460000Y-44255000D01*
X71460000Y-42105000D01*
X71461204Y-42080496D01*
X71464804Y-42056227D01*
X71470765Y-42032429D01*
X71479030Y-42009329D01*
X71489520Y-41987151D01*
X71502133Y-41966107D01*
X71516747Y-41946402D01*
X71533223Y-41928223D01*
X71551402Y-41911747D01*
X71571107Y-41897133D01*
X71592151Y-41884520D01*
X71614329Y-41874030D01*
X71637429Y-41865765D01*
X71661227Y-41859804D01*
X71685496Y-41856204D01*
X71710000Y-41855000D01*
X72635000Y-41855000D01*
X72659504Y-41856204D01*
X72659504Y-41856204D01*
G37*
D21*
G04 #@! TD*
G04 #@! TO.P,C5,2*
G04 #@! TO.N,Net-(C5-Pad2)*
X72172500Y-43180000D03*
D29*
G04 #@! TO.P,U8,1*
G04 #@! TO.N,/PE14*
X93820000Y-69850000D03*
G04 #@! TO.P,U8,2*
G04 #@! TO.N,Net-(U8-Pad2)*
X93820000Y-71120000D03*
G04 #@! TO.P,U8,3*
X93820000Y-72390000D03*
G04 #@! TO.P,U8,4*
G04 #@! TO.N,Net-(U8-Pad4)*
X93820000Y-73660000D03*
G04 #@! TO.P,U8,5*
G04 #@! TO.N,Net-(RN4-Pad2)*
X93820000Y-74930000D03*
G04 #@! TO.P,U8,6*
G04 #@! TO.N,Net-(U8-Pad6)*
X93820000Y-76200000D03*
G04 #@! TO.P,U8,7*
G04 #@! TO.N,GND*
X93820000Y-77470000D03*
G04 #@! TO.P,U8,8*
G04 #@! TO.N,Net-(TP7-Pad1)*
X99220000Y-77470000D03*
G04 #@! TO.P,U8,9*
G04 #@! TO.N,Net-(U11-Pad7)*
X99220000Y-76200000D03*
G04 #@! TO.P,U8,10*
G04 #@! TO.N,Net-(U3-Pad6)*
X99220000Y-74930000D03*
G04 #@! TO.P,U8,11*
G04 #@! TO.N,Net-(U3-Pad4)*
X99220000Y-73660000D03*
G04 #@! TO.P,U8,12*
X99220000Y-72390000D03*
G04 #@! TO.P,U8,13*
G04 #@! TO.N,/PE14*
X99220000Y-71120000D03*
G04 #@! TO.P,U8,14*
G04 #@! TO.N,/P3V3*
X99220000Y-69850000D03*
G04 #@! TD*
D15*
G04 #@! TO.P,TP6,1*
G04 #@! TO.N,/LOGOUT*
X64135000Y-56515000D03*
G04 #@! TD*
G04 #@! TO.P,TP13,1*
G04 #@! TO.N,GND*
X116840000Y-45720000D03*
G04 #@! TD*
G04 #@! TO.P,TP12,1*
G04 #@! TO.N,Net-(TP12-Pad1)*
X80010000Y-115570000D03*
G04 #@! TD*
G04 #@! TO.P,TP11,1*
G04 #@! TO.N,Net-(TP11-Pad1)*
X80010000Y-121920000D03*
G04 #@! TD*
G04 #@! TO.P,TP10,1*
G04 #@! TO.N,Net-(TP10-Pad1)*
X95885000Y-105410000D03*
G04 #@! TD*
G04 #@! TO.P,TP8,1*
G04 #@! TO.N,/AMPOUT*
X59690000Y-56515000D03*
G04 #@! TD*
G04 #@! TO.P,TP5,1*
G04 #@! TO.N,Net-(C5-Pad1)*
X78740000Y-36830000D03*
G04 #@! TD*
G04 #@! TO.P,TP4,1*
G04 #@! TO.N,Net-(C11-Pad1)*
X68580000Y-56515000D03*
G04 #@! TD*
G04 #@! TO.P,TP3,1*
G04 #@! TO.N,Net-(TP3-Pad1)*
X85090000Y-74930000D03*
G04 #@! TD*
G04 #@! TO.P,TP9,1*
G04 #@! TO.N,Net-(TP9-Pad1)*
X107950000Y-81280000D03*
G04 #@! TD*
D13*
G04 #@! TO.P,U3,1*
G04 #@! TO.N,Net-(C9-Pad2)*
X81200000Y-57470000D03*
G04 #@! TO.P,U3,2*
G04 #@! TO.N,AGND*
X81200000Y-58420000D03*
G04 #@! TO.P,U3,3*
G04 #@! TO.N,Net-(C11-Pad2)*
X81200000Y-59370000D03*
G04 #@! TO.P,U3,4*
G04 #@! TO.N,Net-(U3-Pad4)*
X83900000Y-59370000D03*
G04 #@! TO.P,U3,6*
G04 #@! TO.N,Net-(U3-Pad6)*
X83900000Y-57470000D03*
G04 #@! TO.P,U3,5*
G04 #@! TO.N,Net-(C6-Pad1)*
X83900000Y-58420000D03*
G04 #@! TD*
D30*
G04 #@! TO.P,U7,1*
G04 #@! TO.N,/PB6*
X93570000Y-91705000D03*
G04 #@! TO.P,U7,2*
G04 #@! TO.N,AGND*
X93570000Y-92355000D03*
G04 #@! TO.P,U7,3*
G04 #@! TO.N,/PB9*
X93570000Y-93005000D03*
G04 #@! TO.P,U7,4*
G04 #@! TO.N,/AMPOUT*
X93570000Y-93655000D03*
G04 #@! TO.P,U7,5*
G04 #@! TO.N,/LOGOUT*
X93570000Y-94305000D03*
G04 #@! TO.P,U7,6*
G04 #@! TO.N,Net-(TP10-Pad1)*
X93570000Y-94955000D03*
G04 #@! TO.P,U7,7*
G04 #@! TO.N,/DAC1*
X93570000Y-95605000D03*
G04 #@! TO.P,U7,8*
G04 #@! TO.N,/PA3*
X93570000Y-96255000D03*
G04 #@! TO.P,U7,9*
G04 #@! TO.N,Net-(U4-Pad12)*
X99470000Y-96255000D03*
G04 #@! TO.P,U7,10*
G04 #@! TO.N,/DAC1*
X99470000Y-95605000D03*
G04 #@! TO.P,U7,11*
G04 #@! TO.N,/SPEAKER_TIM4CH3*
X99470000Y-94955000D03*
G04 #@! TO.P,U7,12*
G04 #@! TO.N,/LOGOUT*
X99470000Y-94305000D03*
G04 #@! TO.P,U7,13*
G04 #@! TO.N,Net-(U7-Pad13)*
X99470000Y-93655000D03*
G04 #@! TO.P,U7,14*
G04 #@! TO.N,/A3V3*
X99470000Y-93005000D03*
G04 #@! TO.P,U7,15*
G04 #@! TO.N,AGND*
X99470000Y-92355000D03*
G04 #@! TO.P,U7,16*
X99470000Y-91705000D03*
G04 #@! TD*
D31*
G04 #@! TO.P,U6,1*
G04 #@! TO.N,/AMPOUT*
X72730000Y-65040000D03*
G04 #@! TO.P,U6,2*
G04 #@! TO.N,Net-(C11-Pad1)*
X72730000Y-65540000D03*
G04 #@! TO.P,U6,3*
G04 #@! TO.N,Net-(U6-Pad3)*
X72730000Y-66040000D03*
G04 #@! TO.P,U6,4*
G04 #@! TO.N,/HALF3V3*
X72730000Y-66540000D03*
G04 #@! TO.P,U6,5*
G04 #@! TO.N,AGND*
X72730000Y-67040000D03*
G04 #@! TO.P,U6,6*
G04 #@! TO.N,/PG2*
X77130000Y-67040000D03*
G04 #@! TO.P,U6,7*
G04 #@! TO.N,/PC3*
X77130000Y-66540000D03*
G04 #@! TO.P,U6,8*
G04 #@! TO.N,/PC2*
X77130000Y-66040000D03*
G04 #@! TO.P,U6,9*
G04 #@! TO.N,/PD3*
X77130000Y-65540000D03*
G04 #@! TO.P,U6,10*
G04 #@! TO.N,/A3V3*
X77130000Y-65040000D03*
G04 #@! TD*
D29*
G04 #@! TO.P,U4,1*
G04 #@! TO.N,Net-(TP3-Pad1)*
X83660000Y-78740000D03*
G04 #@! TO.P,U4,2*
X83660000Y-80010000D03*
G04 #@! TO.P,U4,3*
G04 #@! TO.N,/PA3*
X83660000Y-81280000D03*
G04 #@! TO.P,U4,4*
G04 #@! TO.N,/A3V3*
X83660000Y-82550000D03*
G04 #@! TO.P,U4,5*
G04 #@! TO.N,Net-(U4-Pad12)*
X83660000Y-83820000D03*
G04 #@! TO.P,U4,6*
G04 #@! TO.N,Net-(TP9-Pad1)*
X83660000Y-85090000D03*
G04 #@! TO.P,U4,7*
X83660000Y-86360000D03*
G04 #@! TO.P,U4,8*
G04 #@! TO.N,/HALF3V3*
X89060000Y-86360000D03*
G04 #@! TO.P,U4,9*
X89060000Y-85090000D03*
G04 #@! TO.P,U4,10*
G04 #@! TO.N,Net-(RN1-Pad3)*
X89060000Y-83820000D03*
G04 #@! TO.P,U4,11*
G04 #@! TO.N,AGND*
X89060000Y-82550000D03*
G04 #@! TO.P,U4,12*
G04 #@! TO.N,Net-(U4-Pad12)*
X89060000Y-81280000D03*
G04 #@! TO.P,U4,13*
G04 #@! TO.N,Net-(C19-Pad1)*
X89060000Y-80010000D03*
G04 #@! TO.P,U4,14*
X89060000Y-78740000D03*
G04 #@! TD*
D20*
G04 #@! TO.N,Net-(C11-Pad1)*
G04 #@! TO.C,C3*
G36*
X86464505Y-47561204D02*
X86488773Y-47564804D01*
X86512572Y-47570765D01*
X86535671Y-47579030D01*
X86557850Y-47589520D01*
X86578893Y-47602132D01*
X86598599Y-47616747D01*
X86616777Y-47633223D01*
X86633253Y-47651401D01*
X86647868Y-47671107D01*
X86660480Y-47692150D01*
X86670970Y-47714329D01*
X86679235Y-47737428D01*
X86685196Y-47761227D01*
X86688796Y-47785495D01*
X86690000Y-47809999D01*
X86690000Y-48710001D01*
X86688796Y-48734505D01*
X86685196Y-48758773D01*
X86679235Y-48782572D01*
X86670970Y-48805671D01*
X86660480Y-48827850D01*
X86647868Y-48848893D01*
X86633253Y-48868599D01*
X86616777Y-48886777D01*
X86598599Y-48903253D01*
X86578893Y-48917868D01*
X86557850Y-48930480D01*
X86535671Y-48940970D01*
X86512572Y-48949235D01*
X86488773Y-48955196D01*
X86464505Y-48958796D01*
X86440001Y-48960000D01*
X85789999Y-48960000D01*
X85765495Y-48958796D01*
X85741227Y-48955196D01*
X85717428Y-48949235D01*
X85694329Y-48940970D01*
X85672150Y-48930480D01*
X85651107Y-48917868D01*
X85631401Y-48903253D01*
X85613223Y-48886777D01*
X85596747Y-48868599D01*
X85582132Y-48848893D01*
X85569520Y-48827850D01*
X85559030Y-48805671D01*
X85550765Y-48782572D01*
X85544804Y-48758773D01*
X85541204Y-48734505D01*
X85540000Y-48710001D01*
X85540000Y-47809999D01*
X85541204Y-47785495D01*
X85544804Y-47761227D01*
X85550765Y-47737428D01*
X85559030Y-47714329D01*
X85569520Y-47692150D01*
X85582132Y-47671107D01*
X85596747Y-47651401D01*
X85613223Y-47633223D01*
X85631401Y-47616747D01*
X85651107Y-47602132D01*
X85672150Y-47589520D01*
X85694329Y-47579030D01*
X85717428Y-47570765D01*
X85741227Y-47564804D01*
X85765495Y-47561204D01*
X85789999Y-47560000D01*
X86440001Y-47560000D01*
X86464505Y-47561204D01*
X86464505Y-47561204D01*
G37*
D23*
G04 #@! TD*
G04 #@! TO.P,C3,1*
G04 #@! TO.N,Net-(C11-Pad1)*
X86115000Y-48260000D03*
D20*
G04 #@! TO.N,AGND*
G04 #@! TO.C,C3*
G36*
X84414505Y-47561204D02*
X84438773Y-47564804D01*
X84462572Y-47570765D01*
X84485671Y-47579030D01*
X84507850Y-47589520D01*
X84528893Y-47602132D01*
X84548599Y-47616747D01*
X84566777Y-47633223D01*
X84583253Y-47651401D01*
X84597868Y-47671107D01*
X84610480Y-47692150D01*
X84620970Y-47714329D01*
X84629235Y-47737428D01*
X84635196Y-47761227D01*
X84638796Y-47785495D01*
X84640000Y-47809999D01*
X84640000Y-48710001D01*
X84638796Y-48734505D01*
X84635196Y-48758773D01*
X84629235Y-48782572D01*
X84620970Y-48805671D01*
X84610480Y-48827850D01*
X84597868Y-48848893D01*
X84583253Y-48868599D01*
X84566777Y-48886777D01*
X84548599Y-48903253D01*
X84528893Y-48917868D01*
X84507850Y-48930480D01*
X84485671Y-48940970D01*
X84462572Y-48949235D01*
X84438773Y-48955196D01*
X84414505Y-48958796D01*
X84390001Y-48960000D01*
X83739999Y-48960000D01*
X83715495Y-48958796D01*
X83691227Y-48955196D01*
X83667428Y-48949235D01*
X83644329Y-48940970D01*
X83622150Y-48930480D01*
X83601107Y-48917868D01*
X83581401Y-48903253D01*
X83563223Y-48886777D01*
X83546747Y-48868599D01*
X83532132Y-48848893D01*
X83519520Y-48827850D01*
X83509030Y-48805671D01*
X83500765Y-48782572D01*
X83494804Y-48758773D01*
X83491204Y-48734505D01*
X83490000Y-48710001D01*
X83490000Y-47809999D01*
X83491204Y-47785495D01*
X83494804Y-47761227D01*
X83500765Y-47737428D01*
X83509030Y-47714329D01*
X83519520Y-47692150D01*
X83532132Y-47671107D01*
X83546747Y-47651401D01*
X83563223Y-47633223D01*
X83581401Y-47616747D01*
X83601107Y-47602132D01*
X83622150Y-47589520D01*
X83644329Y-47579030D01*
X83667428Y-47570765D01*
X83691227Y-47564804D01*
X83715495Y-47561204D01*
X83739999Y-47560000D01*
X84390001Y-47560000D01*
X84414505Y-47561204D01*
X84414505Y-47561204D01*
G37*
D23*
G04 #@! TD*
G04 #@! TO.P,C3,2*
G04 #@! TO.N,AGND*
X84065000Y-48260000D03*
D11*
G04 #@! TO.P,C1,1*
G04 #@! TO.N,/P3V3*
X104140000Y-73660000D03*
D16*
G04 #@! TO.P,C1,2*
G04 #@! TO.N,GND*
X106640000Y-73660000D03*
G04 #@! TD*
D25*
G04 #@! TO.P,RN1,1*
G04 #@! TO.N,Net-(RN1-Pad1)*
X96290000Y-83090000D03*
G04 #@! TO.P,RN1,4*
G04 #@! TO.N,Net-(RN1-Pad3)*
X96290000Y-87090000D03*
G04 #@! TO.P,RN1,2*
G04 #@! TO.N,Net-(RN1-Pad2)*
X96290000Y-84430000D03*
G04 #@! TO.P,RN1,3*
G04 #@! TO.N,Net-(RN1-Pad3)*
X96290000Y-85750000D03*
G04 #@! TO.P,RN1,7*
G04 #@! TO.N,/A3V3*
X99290000Y-84430000D03*
G04 #@! TO.P,RN1,8*
X99290000Y-83090000D03*
G04 #@! TO.P,RN1,5*
X99290000Y-87090000D03*
G04 #@! TO.P,RN1,6*
G04 #@! TO.N,AGND*
X99290000Y-85750000D03*
G04 #@! TD*
D32*
G04 #@! TO.P,J1,1*
G04 #@! TO.N,Net-(C5-Pad2)*
X66040000Y-38100000D03*
D33*
G04 #@! TO.P,J1,2*
G04 #@! TO.N,AGND*
X68580000Y-40640000D03*
X68580000Y-35560000D03*
X63500000Y-35560000D03*
X63500000Y-40640000D03*
G04 #@! TD*
D20*
G04 #@! TO.N,AGND*
G04 #@! TO.C,FB2*
G36*
X75500142Y-79946174D02*
X75523803Y-79949684D01*
X75547007Y-79955496D01*
X75569529Y-79963554D01*
X75591153Y-79973782D01*
X75611670Y-79986079D01*
X75630883Y-80000329D01*
X75648607Y-80016393D01*
X75664671Y-80034117D01*
X75678921Y-80053330D01*
X75691218Y-80073847D01*
X75701446Y-80095471D01*
X75709504Y-80117993D01*
X75715316Y-80141197D01*
X75718826Y-80164858D01*
X75720000Y-80188750D01*
X75720000Y-81101250D01*
X75718826Y-81125142D01*
X75715316Y-81148803D01*
X75709504Y-81172007D01*
X75701446Y-81194529D01*
X75691218Y-81216153D01*
X75678921Y-81236670D01*
X75664671Y-81255883D01*
X75648607Y-81273607D01*
X75630883Y-81289671D01*
X75611670Y-81303921D01*
X75591153Y-81316218D01*
X75569529Y-81326446D01*
X75547007Y-81334504D01*
X75523803Y-81340316D01*
X75500142Y-81343826D01*
X75476250Y-81345000D01*
X74988750Y-81345000D01*
X74964858Y-81343826D01*
X74941197Y-81340316D01*
X74917993Y-81334504D01*
X74895471Y-81326446D01*
X74873847Y-81316218D01*
X74853330Y-81303921D01*
X74834117Y-81289671D01*
X74816393Y-81273607D01*
X74800329Y-81255883D01*
X74786079Y-81236670D01*
X74773782Y-81216153D01*
X74763554Y-81194529D01*
X74755496Y-81172007D01*
X74749684Y-81148803D01*
X74746174Y-81125142D01*
X74745000Y-81101250D01*
X74745000Y-80188750D01*
X74746174Y-80164858D01*
X74749684Y-80141197D01*
X74755496Y-80117993D01*
X74763554Y-80095471D01*
X74773782Y-80073847D01*
X74786079Y-80053330D01*
X74800329Y-80034117D01*
X74816393Y-80016393D01*
X74834117Y-80000329D01*
X74853330Y-79986079D01*
X74873847Y-79973782D01*
X74895471Y-79963554D01*
X74917993Y-79955496D01*
X74941197Y-79949684D01*
X74964858Y-79946174D01*
X74988750Y-79945000D01*
X75476250Y-79945000D01*
X75500142Y-79946174D01*
X75500142Y-79946174D01*
G37*
D34*
G04 #@! TD*
G04 #@! TO.P,FB2,1*
G04 #@! TO.N,AGND*
X75232500Y-80645000D03*
D20*
G04 #@! TO.N,GND*
G04 #@! TO.C,FB2*
G36*
X73625142Y-79946174D02*
X73648803Y-79949684D01*
X73672007Y-79955496D01*
X73694529Y-79963554D01*
X73716153Y-79973782D01*
X73736670Y-79986079D01*
X73755883Y-80000329D01*
X73773607Y-80016393D01*
X73789671Y-80034117D01*
X73803921Y-80053330D01*
X73816218Y-80073847D01*
X73826446Y-80095471D01*
X73834504Y-80117993D01*
X73840316Y-80141197D01*
X73843826Y-80164858D01*
X73845000Y-80188750D01*
X73845000Y-81101250D01*
X73843826Y-81125142D01*
X73840316Y-81148803D01*
X73834504Y-81172007D01*
X73826446Y-81194529D01*
X73816218Y-81216153D01*
X73803921Y-81236670D01*
X73789671Y-81255883D01*
X73773607Y-81273607D01*
X73755883Y-81289671D01*
X73736670Y-81303921D01*
X73716153Y-81316218D01*
X73694529Y-81326446D01*
X73672007Y-81334504D01*
X73648803Y-81340316D01*
X73625142Y-81343826D01*
X73601250Y-81345000D01*
X73113750Y-81345000D01*
X73089858Y-81343826D01*
X73066197Y-81340316D01*
X73042993Y-81334504D01*
X73020471Y-81326446D01*
X72998847Y-81316218D01*
X72978330Y-81303921D01*
X72959117Y-81289671D01*
X72941393Y-81273607D01*
X72925329Y-81255883D01*
X72911079Y-81236670D01*
X72898782Y-81216153D01*
X72888554Y-81194529D01*
X72880496Y-81172007D01*
X72874684Y-81148803D01*
X72871174Y-81125142D01*
X72870000Y-81101250D01*
X72870000Y-80188750D01*
X72871174Y-80164858D01*
X72874684Y-80141197D01*
X72880496Y-80117993D01*
X72888554Y-80095471D01*
X72898782Y-80073847D01*
X72911079Y-80053330D01*
X72925329Y-80034117D01*
X72941393Y-80016393D01*
X72959117Y-80000329D01*
X72978330Y-79986079D01*
X72998847Y-79973782D01*
X73020471Y-79963554D01*
X73042993Y-79955496D01*
X73066197Y-79949684D01*
X73089858Y-79946174D01*
X73113750Y-79945000D01*
X73601250Y-79945000D01*
X73625142Y-79946174D01*
X73625142Y-79946174D01*
G37*
D34*
G04 #@! TD*
G04 #@! TO.P,FB2,2*
G04 #@! TO.N,GND*
X73357500Y-80645000D03*
D20*
G04 #@! TO.N,AGND*
G04 #@! TO.C,C2*
G36*
X84414505Y-42481204D02*
X84438773Y-42484804D01*
X84462572Y-42490765D01*
X84485671Y-42499030D01*
X84507850Y-42509520D01*
X84528893Y-42522132D01*
X84548599Y-42536747D01*
X84566777Y-42553223D01*
X84583253Y-42571401D01*
X84597868Y-42591107D01*
X84610480Y-42612150D01*
X84620970Y-42634329D01*
X84629235Y-42657428D01*
X84635196Y-42681227D01*
X84638796Y-42705495D01*
X84640000Y-42729999D01*
X84640000Y-43630001D01*
X84638796Y-43654505D01*
X84635196Y-43678773D01*
X84629235Y-43702572D01*
X84620970Y-43725671D01*
X84610480Y-43747850D01*
X84597868Y-43768893D01*
X84583253Y-43788599D01*
X84566777Y-43806777D01*
X84548599Y-43823253D01*
X84528893Y-43837868D01*
X84507850Y-43850480D01*
X84485671Y-43860970D01*
X84462572Y-43869235D01*
X84438773Y-43875196D01*
X84414505Y-43878796D01*
X84390001Y-43880000D01*
X83739999Y-43880000D01*
X83715495Y-43878796D01*
X83691227Y-43875196D01*
X83667428Y-43869235D01*
X83644329Y-43860970D01*
X83622150Y-43850480D01*
X83601107Y-43837868D01*
X83581401Y-43823253D01*
X83563223Y-43806777D01*
X83546747Y-43788599D01*
X83532132Y-43768893D01*
X83519520Y-43747850D01*
X83509030Y-43725671D01*
X83500765Y-43702572D01*
X83494804Y-43678773D01*
X83491204Y-43654505D01*
X83490000Y-43630001D01*
X83490000Y-42729999D01*
X83491204Y-42705495D01*
X83494804Y-42681227D01*
X83500765Y-42657428D01*
X83509030Y-42634329D01*
X83519520Y-42612150D01*
X83532132Y-42591107D01*
X83546747Y-42571401D01*
X83563223Y-42553223D01*
X83581401Y-42536747D01*
X83601107Y-42522132D01*
X83622150Y-42509520D01*
X83644329Y-42499030D01*
X83667428Y-42490765D01*
X83691227Y-42484804D01*
X83715495Y-42481204D01*
X83739999Y-42480000D01*
X84390001Y-42480000D01*
X84414505Y-42481204D01*
X84414505Y-42481204D01*
G37*
D23*
G04 #@! TD*
G04 #@! TO.P,C2,2*
G04 #@! TO.N,AGND*
X84065000Y-43180000D03*
D20*
G04 #@! TO.N,Net-(C2-Pad1)*
G04 #@! TO.C,C2*
G36*
X86464505Y-42481204D02*
X86488773Y-42484804D01*
X86512572Y-42490765D01*
X86535671Y-42499030D01*
X86557850Y-42509520D01*
X86578893Y-42522132D01*
X86598599Y-42536747D01*
X86616777Y-42553223D01*
X86633253Y-42571401D01*
X86647868Y-42591107D01*
X86660480Y-42612150D01*
X86670970Y-42634329D01*
X86679235Y-42657428D01*
X86685196Y-42681227D01*
X86688796Y-42705495D01*
X86690000Y-42729999D01*
X86690000Y-43630001D01*
X86688796Y-43654505D01*
X86685196Y-43678773D01*
X86679235Y-43702572D01*
X86670970Y-43725671D01*
X86660480Y-43747850D01*
X86647868Y-43768893D01*
X86633253Y-43788599D01*
X86616777Y-43806777D01*
X86598599Y-43823253D01*
X86578893Y-43837868D01*
X86557850Y-43850480D01*
X86535671Y-43860970D01*
X86512572Y-43869235D01*
X86488773Y-43875196D01*
X86464505Y-43878796D01*
X86440001Y-43880000D01*
X85789999Y-43880000D01*
X85765495Y-43878796D01*
X85741227Y-43875196D01*
X85717428Y-43869235D01*
X85694329Y-43860970D01*
X85672150Y-43850480D01*
X85651107Y-43837868D01*
X85631401Y-43823253D01*
X85613223Y-43806777D01*
X85596747Y-43788599D01*
X85582132Y-43768893D01*
X85569520Y-43747850D01*
X85559030Y-43725671D01*
X85550765Y-43702572D01*
X85544804Y-43678773D01*
X85541204Y-43654505D01*
X85540000Y-43630001D01*
X85540000Y-42729999D01*
X85541204Y-42705495D01*
X85544804Y-42681227D01*
X85550765Y-42657428D01*
X85559030Y-42634329D01*
X85569520Y-42612150D01*
X85582132Y-42591107D01*
X85596747Y-42571401D01*
X85613223Y-42553223D01*
X85631401Y-42536747D01*
X85651107Y-42522132D01*
X85672150Y-42509520D01*
X85694329Y-42499030D01*
X85717428Y-42490765D01*
X85741227Y-42484804D01*
X85765495Y-42481204D01*
X85789999Y-42480000D01*
X86440001Y-42480000D01*
X86464505Y-42481204D01*
X86464505Y-42481204D01*
G37*
D23*
G04 #@! TD*
G04 #@! TO.P,C2,1*
G04 #@! TO.N,Net-(C2-Pad1)*
X86115000Y-43180000D03*
D20*
G04 #@! TO.N,Net-(C10-Pad2)*
G04 #@! TO.C,L1*
G36*
X92144504Y-41856204D02*
X92168773Y-41859804D01*
X92192571Y-41865765D01*
X92215671Y-41874030D01*
X92237849Y-41884520D01*
X92258893Y-41897133D01*
X92278598Y-41911747D01*
X92296777Y-41928223D01*
X92313253Y-41946402D01*
X92327867Y-41966107D01*
X92340480Y-41987151D01*
X92350970Y-42009329D01*
X92359235Y-42032429D01*
X92365196Y-42056227D01*
X92368796Y-42080496D01*
X92370000Y-42105000D01*
X92370000Y-44255000D01*
X92368796Y-44279504D01*
X92365196Y-44303773D01*
X92359235Y-44327571D01*
X92350970Y-44350671D01*
X92340480Y-44372849D01*
X92327867Y-44393893D01*
X92313253Y-44413598D01*
X92296777Y-44431777D01*
X92278598Y-44448253D01*
X92258893Y-44462867D01*
X92237849Y-44475480D01*
X92215671Y-44485970D01*
X92192571Y-44494235D01*
X92168773Y-44500196D01*
X92144504Y-44503796D01*
X92120000Y-44505000D01*
X91195000Y-44505000D01*
X91170496Y-44503796D01*
X91146227Y-44500196D01*
X91122429Y-44494235D01*
X91099329Y-44485970D01*
X91077151Y-44475480D01*
X91056107Y-44462867D01*
X91036402Y-44448253D01*
X91018223Y-44431777D01*
X91001747Y-44413598D01*
X90987133Y-44393893D01*
X90974520Y-44372849D01*
X90964030Y-44350671D01*
X90955765Y-44327571D01*
X90949804Y-44303773D01*
X90946204Y-44279504D01*
X90945000Y-44255000D01*
X90945000Y-42105000D01*
X90946204Y-42080496D01*
X90949804Y-42056227D01*
X90955765Y-42032429D01*
X90964030Y-42009329D01*
X90974520Y-41987151D01*
X90987133Y-41966107D01*
X91001747Y-41946402D01*
X91018223Y-41928223D01*
X91036402Y-41911747D01*
X91056107Y-41897133D01*
X91077151Y-41884520D01*
X91099329Y-41874030D01*
X91122429Y-41865765D01*
X91146227Y-41859804D01*
X91170496Y-41856204D01*
X91195000Y-41855000D01*
X92120000Y-41855000D01*
X92144504Y-41856204D01*
X92144504Y-41856204D01*
G37*
D21*
G04 #@! TD*
G04 #@! TO.P,L1,2*
G04 #@! TO.N,Net-(C10-Pad2)*
X91657500Y-43180000D03*
D20*
G04 #@! TO.N,Net-(C2-Pad1)*
G04 #@! TO.C,L1*
G36*
X89169504Y-41856204D02*
X89193773Y-41859804D01*
X89217571Y-41865765D01*
X89240671Y-41874030D01*
X89262849Y-41884520D01*
X89283893Y-41897133D01*
X89303598Y-41911747D01*
X89321777Y-41928223D01*
X89338253Y-41946402D01*
X89352867Y-41966107D01*
X89365480Y-41987151D01*
X89375970Y-42009329D01*
X89384235Y-42032429D01*
X89390196Y-42056227D01*
X89393796Y-42080496D01*
X89395000Y-42105000D01*
X89395000Y-44255000D01*
X89393796Y-44279504D01*
X89390196Y-44303773D01*
X89384235Y-44327571D01*
X89375970Y-44350671D01*
X89365480Y-44372849D01*
X89352867Y-44393893D01*
X89338253Y-44413598D01*
X89321777Y-44431777D01*
X89303598Y-44448253D01*
X89283893Y-44462867D01*
X89262849Y-44475480D01*
X89240671Y-44485970D01*
X89217571Y-44494235D01*
X89193773Y-44500196D01*
X89169504Y-44503796D01*
X89145000Y-44505000D01*
X88220000Y-44505000D01*
X88195496Y-44503796D01*
X88171227Y-44500196D01*
X88147429Y-44494235D01*
X88124329Y-44485970D01*
X88102151Y-44475480D01*
X88081107Y-44462867D01*
X88061402Y-44448253D01*
X88043223Y-44431777D01*
X88026747Y-44413598D01*
X88012133Y-44393893D01*
X87999520Y-44372849D01*
X87989030Y-44350671D01*
X87980765Y-44327571D01*
X87974804Y-44303773D01*
X87971204Y-44279504D01*
X87970000Y-44255000D01*
X87970000Y-42105000D01*
X87971204Y-42080496D01*
X87974804Y-42056227D01*
X87980765Y-42032429D01*
X87989030Y-42009329D01*
X87999520Y-41987151D01*
X88012133Y-41966107D01*
X88026747Y-41946402D01*
X88043223Y-41928223D01*
X88061402Y-41911747D01*
X88081107Y-41897133D01*
X88102151Y-41884520D01*
X88124329Y-41874030D01*
X88147429Y-41865765D01*
X88171227Y-41859804D01*
X88195496Y-41856204D01*
X88220000Y-41855000D01*
X89145000Y-41855000D01*
X89169504Y-41856204D01*
X89169504Y-41856204D01*
G37*
D21*
G04 #@! TD*
G04 #@! TO.P,L1,1*
G04 #@! TO.N,Net-(C2-Pad1)*
X88682500Y-43180000D03*
D20*
G04 #@! TO.N,Net-(C11-Pad1)*
G04 #@! TO.C,L2*
G36*
X92144504Y-46936204D02*
X92168773Y-46939804D01*
X92192571Y-46945765D01*
X92215671Y-46954030D01*
X92237849Y-46964520D01*
X92258893Y-46977133D01*
X92278598Y-46991747D01*
X92296777Y-47008223D01*
X92313253Y-47026402D01*
X92327867Y-47046107D01*
X92340480Y-47067151D01*
X92350970Y-47089329D01*
X92359235Y-47112429D01*
X92365196Y-47136227D01*
X92368796Y-47160496D01*
X92370000Y-47185000D01*
X92370000Y-49335000D01*
X92368796Y-49359504D01*
X92365196Y-49383773D01*
X92359235Y-49407571D01*
X92350970Y-49430671D01*
X92340480Y-49452849D01*
X92327867Y-49473893D01*
X92313253Y-49493598D01*
X92296777Y-49511777D01*
X92278598Y-49528253D01*
X92258893Y-49542867D01*
X92237849Y-49555480D01*
X92215671Y-49565970D01*
X92192571Y-49574235D01*
X92168773Y-49580196D01*
X92144504Y-49583796D01*
X92120000Y-49585000D01*
X91195000Y-49585000D01*
X91170496Y-49583796D01*
X91146227Y-49580196D01*
X91122429Y-49574235D01*
X91099329Y-49565970D01*
X91077151Y-49555480D01*
X91056107Y-49542867D01*
X91036402Y-49528253D01*
X91018223Y-49511777D01*
X91001747Y-49493598D01*
X90987133Y-49473893D01*
X90974520Y-49452849D01*
X90964030Y-49430671D01*
X90955765Y-49407571D01*
X90949804Y-49383773D01*
X90946204Y-49359504D01*
X90945000Y-49335000D01*
X90945000Y-47185000D01*
X90946204Y-47160496D01*
X90949804Y-47136227D01*
X90955765Y-47112429D01*
X90964030Y-47089329D01*
X90974520Y-47067151D01*
X90987133Y-47046107D01*
X91001747Y-47026402D01*
X91018223Y-47008223D01*
X91036402Y-46991747D01*
X91056107Y-46977133D01*
X91077151Y-46964520D01*
X91099329Y-46954030D01*
X91122429Y-46945765D01*
X91146227Y-46939804D01*
X91170496Y-46936204D01*
X91195000Y-46935000D01*
X92120000Y-46935000D01*
X92144504Y-46936204D01*
X92144504Y-46936204D01*
G37*
D21*
G04 #@! TD*
G04 #@! TO.P,L2,1*
G04 #@! TO.N,Net-(C11-Pad1)*
X91657500Y-48260000D03*
D20*
G04 #@! TO.N,Net-(C2-Pad1)*
G04 #@! TO.C,L2*
G36*
X89169504Y-46936204D02*
X89193773Y-46939804D01*
X89217571Y-46945765D01*
X89240671Y-46954030D01*
X89262849Y-46964520D01*
X89283893Y-46977133D01*
X89303598Y-46991747D01*
X89321777Y-47008223D01*
X89338253Y-47026402D01*
X89352867Y-47046107D01*
X89365480Y-47067151D01*
X89375970Y-47089329D01*
X89384235Y-47112429D01*
X89390196Y-47136227D01*
X89393796Y-47160496D01*
X89395000Y-47185000D01*
X89395000Y-49335000D01*
X89393796Y-49359504D01*
X89390196Y-49383773D01*
X89384235Y-49407571D01*
X89375970Y-49430671D01*
X89365480Y-49452849D01*
X89352867Y-49473893D01*
X89338253Y-49493598D01*
X89321777Y-49511777D01*
X89303598Y-49528253D01*
X89283893Y-49542867D01*
X89262849Y-49555480D01*
X89240671Y-49565970D01*
X89217571Y-49574235D01*
X89193773Y-49580196D01*
X89169504Y-49583796D01*
X89145000Y-49585000D01*
X88220000Y-49585000D01*
X88195496Y-49583796D01*
X88171227Y-49580196D01*
X88147429Y-49574235D01*
X88124329Y-49565970D01*
X88102151Y-49555480D01*
X88081107Y-49542867D01*
X88061402Y-49528253D01*
X88043223Y-49511777D01*
X88026747Y-49493598D01*
X88012133Y-49473893D01*
X87999520Y-49452849D01*
X87989030Y-49430671D01*
X87980765Y-49407571D01*
X87974804Y-49383773D01*
X87971204Y-49359504D01*
X87970000Y-49335000D01*
X87970000Y-47185000D01*
X87971204Y-47160496D01*
X87974804Y-47136227D01*
X87980765Y-47112429D01*
X87989030Y-47089329D01*
X87999520Y-47067151D01*
X88012133Y-47046107D01*
X88026747Y-47026402D01*
X88043223Y-47008223D01*
X88061402Y-46991747D01*
X88081107Y-46977133D01*
X88102151Y-46964520D01*
X88124329Y-46954030D01*
X88147429Y-46945765D01*
X88171227Y-46939804D01*
X88195496Y-46936204D01*
X88220000Y-46935000D01*
X89145000Y-46935000D01*
X89169504Y-46936204D01*
X89169504Y-46936204D01*
G37*
D21*
G04 #@! TD*
G04 #@! TO.P,L2,2*
G04 #@! TO.N,Net-(C2-Pad1)*
X88682500Y-48260000D03*
D11*
G04 #@! TO.P,C4,1*
G04 #@! TO.N,/A3V3*
X87630000Y-71120000D03*
D16*
G04 #@! TO.P,C4,2*
G04 #@! TO.N,AGND*
X90130000Y-71120000D03*
G04 #@! TD*
D20*
G04 #@! TO.N,/P3V3*
G04 #@! TO.C,FB1*
G36*
X81880142Y-69151174D02*
X81903803Y-69154684D01*
X81927007Y-69160496D01*
X81949529Y-69168554D01*
X81971153Y-69178782D01*
X81991670Y-69191079D01*
X82010883Y-69205329D01*
X82028607Y-69221393D01*
X82044671Y-69239117D01*
X82058921Y-69258330D01*
X82071218Y-69278847D01*
X82081446Y-69300471D01*
X82089504Y-69322993D01*
X82095316Y-69346197D01*
X82098826Y-69369858D01*
X82100000Y-69393750D01*
X82100000Y-70306250D01*
X82098826Y-70330142D01*
X82095316Y-70353803D01*
X82089504Y-70377007D01*
X82081446Y-70399529D01*
X82071218Y-70421153D01*
X82058921Y-70441670D01*
X82044671Y-70460883D01*
X82028607Y-70478607D01*
X82010883Y-70494671D01*
X81991670Y-70508921D01*
X81971153Y-70521218D01*
X81949529Y-70531446D01*
X81927007Y-70539504D01*
X81903803Y-70545316D01*
X81880142Y-70548826D01*
X81856250Y-70550000D01*
X81368750Y-70550000D01*
X81344858Y-70548826D01*
X81321197Y-70545316D01*
X81297993Y-70539504D01*
X81275471Y-70531446D01*
X81253847Y-70521218D01*
X81233330Y-70508921D01*
X81214117Y-70494671D01*
X81196393Y-70478607D01*
X81180329Y-70460883D01*
X81166079Y-70441670D01*
X81153782Y-70421153D01*
X81143554Y-70399529D01*
X81135496Y-70377007D01*
X81129684Y-70353803D01*
X81126174Y-70330142D01*
X81125000Y-70306250D01*
X81125000Y-69393750D01*
X81126174Y-69369858D01*
X81129684Y-69346197D01*
X81135496Y-69322993D01*
X81143554Y-69300471D01*
X81153782Y-69278847D01*
X81166079Y-69258330D01*
X81180329Y-69239117D01*
X81196393Y-69221393D01*
X81214117Y-69205329D01*
X81233330Y-69191079D01*
X81253847Y-69178782D01*
X81275471Y-69168554D01*
X81297993Y-69160496D01*
X81321197Y-69154684D01*
X81344858Y-69151174D01*
X81368750Y-69150000D01*
X81856250Y-69150000D01*
X81880142Y-69151174D01*
X81880142Y-69151174D01*
G37*
D34*
G04 #@! TD*
G04 #@! TO.P,FB1,1*
G04 #@! TO.N,/P3V3*
X81612500Y-69850000D03*
D20*
G04 #@! TO.N,/A3V3*
G04 #@! TO.C,FB1*
G36*
X83755142Y-69151174D02*
X83778803Y-69154684D01*
X83802007Y-69160496D01*
X83824529Y-69168554D01*
X83846153Y-69178782D01*
X83866670Y-69191079D01*
X83885883Y-69205329D01*
X83903607Y-69221393D01*
X83919671Y-69239117D01*
X83933921Y-69258330D01*
X83946218Y-69278847D01*
X83956446Y-69300471D01*
X83964504Y-69322993D01*
X83970316Y-69346197D01*
X83973826Y-69369858D01*
X83975000Y-69393750D01*
X83975000Y-70306250D01*
X83973826Y-70330142D01*
X83970316Y-70353803D01*
X83964504Y-70377007D01*
X83956446Y-70399529D01*
X83946218Y-70421153D01*
X83933921Y-70441670D01*
X83919671Y-70460883D01*
X83903607Y-70478607D01*
X83885883Y-70494671D01*
X83866670Y-70508921D01*
X83846153Y-70521218D01*
X83824529Y-70531446D01*
X83802007Y-70539504D01*
X83778803Y-70545316D01*
X83755142Y-70548826D01*
X83731250Y-70550000D01*
X83243750Y-70550000D01*
X83219858Y-70548826D01*
X83196197Y-70545316D01*
X83172993Y-70539504D01*
X83150471Y-70531446D01*
X83128847Y-70521218D01*
X83108330Y-70508921D01*
X83089117Y-70494671D01*
X83071393Y-70478607D01*
X83055329Y-70460883D01*
X83041079Y-70441670D01*
X83028782Y-70421153D01*
X83018554Y-70399529D01*
X83010496Y-70377007D01*
X83004684Y-70353803D01*
X83001174Y-70330142D01*
X83000000Y-70306250D01*
X83000000Y-69393750D01*
X83001174Y-69369858D01*
X83004684Y-69346197D01*
X83010496Y-69322993D01*
X83018554Y-69300471D01*
X83028782Y-69278847D01*
X83041079Y-69258330D01*
X83055329Y-69239117D01*
X83071393Y-69221393D01*
X83089117Y-69205329D01*
X83108330Y-69191079D01*
X83128847Y-69178782D01*
X83150471Y-69168554D01*
X83172993Y-69160496D01*
X83196197Y-69154684D01*
X83219858Y-69151174D01*
X83243750Y-69150000D01*
X83731250Y-69150000D01*
X83755142Y-69151174D01*
X83755142Y-69151174D01*
G37*
D34*
G04 #@! TD*
G04 #@! TO.P,FB1,2*
G04 #@! TO.N,/A3V3*
X83487500Y-69850000D03*
D35*
G04 #@! TO.P,CN2,1*
G04 #@! TO.N,/PA3*
X66040000Y-98526600D03*
D36*
G04 #@! TO.P,CN2,2*
G04 #@! TO.N,/PD7*
X68580000Y-98526600D03*
G04 #@! TO.P,CN2,3*
G04 #@! TO.N,/PC0*
X66040000Y-101066600D03*
G04 #@! TO.P,CN2,4*
G04 #@! TO.N,/PD6*
X68580000Y-101066600D03*
G04 #@! TO.P,CN2,5*
G04 #@! TO.N,/PC3*
X66040000Y-103606600D03*
G04 #@! TO.P,CN2,6*
G04 #@! TO.N,/PD5*
X68580000Y-103606600D03*
G04 #@! TO.P,CN2,7*
G04 #@! TO.N,/PF3*
X66040000Y-106146600D03*
G04 #@! TO.P,CN2,8*
G04 #@! TO.N,/PD4*
X68580000Y-106146600D03*
G04 #@! TO.P,CN2,9*
G04 #@! TO.N,/PF5*
X66040000Y-108686600D03*
G04 #@! TO.P,CN2,10*
G04 #@! TO.N,/PD3*
X68580000Y-108686600D03*
G04 #@! TO.P,CN2,11*
G04 #@! TO.N,/PF10*
X66040000Y-111226600D03*
G04 #@! TO.P,CN2,12*
G04 #@! TO.N,GND*
X68580000Y-111226600D03*
G04 #@! TO.P,CN2,13*
G04 #@! TO.N,Net-(CN2-Pad13)*
X66040000Y-113766600D03*
G04 #@! TO.P,CN2,14*
G04 #@! TO.N,/PE2*
X68580000Y-113766600D03*
G04 #@! TO.P,CN2,15*
G04 #@! TO.N,/PA7*
X66040000Y-116306600D03*
G04 #@! TO.P,CN2,16*
G04 #@! TO.N,/PE4*
X68580000Y-116306600D03*
G04 #@! TO.P,CN2,17*
G04 #@! TO.N,/PF2*
X66040000Y-118846600D03*
G04 #@! TO.P,CN2,18*
G04 #@! TO.N,/PE5*
X68580000Y-118846600D03*
G04 #@! TO.P,CN2,19*
G04 #@! TO.N,/PF1*
X66040000Y-121386600D03*
G04 #@! TO.P,CN2,20*
G04 #@! TO.N,/PE6*
X68580000Y-121386600D03*
G04 #@! TO.P,CN2,21*
G04 #@! TO.N,/PF0*
X66040000Y-123926600D03*
G04 #@! TO.P,CN2,22*
G04 #@! TO.N,/PE3*
X68580000Y-123926600D03*
G04 #@! TO.P,CN2,23*
G04 #@! TO.N,GND*
X66040000Y-126466600D03*
G04 #@! TO.P,CN2,24*
G04 #@! TO.N,/PF8*
X68580000Y-126466600D03*
G04 #@! TO.P,CN2,25*
G04 #@! TO.N,/PD0*
X66040000Y-129006600D03*
G04 #@! TO.P,CN2,26*
G04 #@! TO.N,/PF7*
X68580000Y-129006600D03*
G04 #@! TO.P,CN2,27*
G04 #@! TO.N,/PD1*
X66040000Y-131546600D03*
G04 #@! TO.P,CN2,28*
G04 #@! TO.N,/PF9*
X68580000Y-131546600D03*
G04 #@! TO.P,CN2,29*
G04 #@! TO.N,/PG0*
X66040000Y-134086600D03*
G04 #@! TO.P,CN2,30*
G04 #@! TO.N,/PG1*
X68580000Y-134086600D03*
G04 #@! TD*
D35*
G04 #@! TO.P,CN3,1*
G04 #@! TO.N,/PC6*
X111760000Y-66531001D03*
D36*
G04 #@! TO.P,CN3,2*
G04 #@! TO.N,/PB8*
X114300000Y-66531001D03*
G04 #@! TO.P,CN3,3*
G04 #@! TO.N,/PB15*
X111760000Y-69071001D03*
G04 #@! TO.P,CN3,4*
G04 #@! TO.N,/PB9*
X114300000Y-69071001D03*
G04 #@! TO.P,CN3,5*
G04 #@! TO.N,/PB13*
X111760000Y-71611001D03*
G04 #@! TO.P,CN3,6*
G04 #@! TO.N,/AVDD*
X114300000Y-71611001D03*
G04 #@! TO.P,CN3,7*
G04 #@! TO.N,/PB12*
X111760000Y-74151001D03*
G04 #@! TO.P,CN3,8*
G04 #@! TO.N,GND*
X114300000Y-74151001D03*
G04 #@! TO.P,CN3,9*
G04 #@! TO.N,/PA15*
X111760000Y-76691001D03*
G04 #@! TO.P,CN3,10*
G04 #@! TO.N,/PA5*
X114300000Y-76691001D03*
G04 #@! TO.P,CN3,11*
G04 #@! TO.N,/PC7*
X111760000Y-79231001D03*
G04 #@! TO.P,CN3,12*
G04 #@! TO.N,/PA6*
X114300000Y-79231001D03*
G04 #@! TO.P,CN3,13*
G04 #@! TO.N,/PB5*
X111760000Y-81771001D03*
G04 #@! TO.P,CN3,14*
G04 #@! TO.N,/PA7*
X114300000Y-81771001D03*
G04 #@! TO.P,CN3,15*
G04 #@! TO.N,/PB3*
X111760000Y-84311001D03*
G04 #@! TO.P,CN3,16*
G04 #@! TO.N,/PD14*
X114300000Y-84311001D03*
G04 #@! TO.P,CN3,17*
G04 #@! TO.N,/PA4*
X111760000Y-86851001D03*
G04 #@! TO.P,CN3,18*
G04 #@! TO.N,/PD15*
X114300000Y-86851001D03*
G04 #@! TO.P,CN3,19*
G04 #@! TO.N,/PB4*
X111760000Y-89391001D03*
G04 #@! TO.P,CN3,20*
G04 #@! TO.N,/PF12*
X114300000Y-89391001D03*
G04 #@! TD*
G04 #@! TO.P,CN4,30*
G04 #@! TO.N,/PE15*
X114265001Y-129015001D03*
G04 #@! TO.P,CN4,29*
G04 #@! TO.N,/PA0*
X111725001Y-129015001D03*
G04 #@! TO.P,CN4,28*
G04 #@! TO.N,/PE14*
X114265001Y-126475001D03*
G04 #@! TO.P,CN4,27*
G04 #@! TO.N,GND*
X111725001Y-126475001D03*
G04 #@! TO.P,CN4,26*
G04 #@! TO.N,/PE12*
X114265001Y-123935001D03*
G04 #@! TO.P,CN4,25*
G04 #@! TO.N,/PE2*
X111725001Y-123935001D03*
G04 #@! TO.P,CN4,24*
G04 #@! TO.N,/PE10*
X114265001Y-121395001D03*
G04 #@! TO.P,CN4,23*
G04 #@! TO.N,/PD11*
X111725001Y-121395001D03*
G04 #@! TO.P,CN4,22*
G04 #@! TO.N,GND*
X114265001Y-118855001D03*
G04 #@! TO.P,CN4,21*
G04 #@! TO.N,/PD12*
X111725001Y-118855001D03*
G04 #@! TO.P,CN4,20*
G04 #@! TO.N,/PE7*
X114265001Y-116315001D03*
G04 #@! TO.P,CN4,19*
G04 #@! TO.N,/PD13*
X111725001Y-116315001D03*
G04 #@! TO.P,CN4,18*
G04 #@! TO.N,/PE8*
X114265001Y-113775001D03*
G04 #@! TO.P,CN4,17*
G04 #@! TO.N,GND*
X111725001Y-113775001D03*
G04 #@! TO.P,CN4,16*
G04 #@! TO.N,/PG9*
X114265001Y-111235001D03*
G04 #@! TO.P,CN4,15*
G04 #@! TO.N,/PB2*
X111725001Y-111235001D03*
G04 #@! TO.P,CN4,14*
G04 #@! TO.N,/PG14*
X114265001Y-108695001D03*
G04 #@! TO.P,CN4,13*
G04 #@! TO.N,/PB6*
X111725001Y-108695001D03*
G04 #@! TO.P,CN4,12*
G04 #@! TO.N,/PF15*
X114265001Y-106155001D03*
G04 #@! TO.P,CN4,11*
G04 #@! TO.N,/PF4*
X111725001Y-106155001D03*
G04 #@! TO.P,CN4,10*
G04 #@! TO.N,/PE13*
X114265001Y-103615001D03*
G04 #@! TO.P,CN4,9*
G04 #@! TO.N,/PC2*
X111725001Y-103615001D03*
G04 #@! TO.P,CN4,8*
G04 #@! TO.N,/PF14*
X114265001Y-101075001D03*
G04 #@! TO.P,CN4,7*
G04 #@! TO.N,/PB1*
X111725001Y-101075001D03*
G04 #@! TO.P,CN4,6*
G04 #@! TO.N,/PE11*
X114265001Y-98535001D03*
G04 #@! TO.P,CN4,5*
G04 #@! TO.N,GND*
X111725001Y-98535001D03*
G04 #@! TO.P,CN4,4*
G04 #@! TO.N,/PE9*
X114265001Y-95995001D03*
G04 #@! TO.P,CN4,3*
G04 #@! TO.N,AGND*
X111725001Y-95995001D03*
G04 #@! TO.P,CN4,2*
G04 #@! TO.N,/PF13*
X114265001Y-93455001D03*
D35*
G04 #@! TO.P,CN4,1*
G04 #@! TO.N,/AVDD*
X111725001Y-93455001D03*
D36*
G04 #@! TO.P,CN4,31*
G04 #@! TO.N,/PB0*
X111725001Y-131555001D03*
G04 #@! TO.P,CN4,32*
G04 #@! TO.N,/PB10*
X114265001Y-131555001D03*
G04 #@! TO.P,CN4,33*
G04 #@! TO.N,/PE0*
X111725001Y-134095001D03*
G04 #@! TO.P,CN4,34*
G04 #@! TO.N,/PB11*
X114265001Y-134095001D03*
G04 #@! TD*
G04 #@! TO.P,CN1,16*
G04 #@! TO.N,/PG3*
X68580000Y-93446600D03*
G04 #@! TO.P,CN1,15*
G04 #@! TO.N,/VIN*
X66040000Y-93446600D03*
G04 #@! TO.P,CN1,14*
G04 #@! TO.N,/PG2*
X68580000Y-90906600D03*
G04 #@! TO.P,CN1,13*
G04 #@! TO.N,Net-(CN1-Pad13)*
X66040000Y-90906600D03*
G04 #@! TO.P,CN1,12*
G04 #@! TO.N,/PD2*
X68580000Y-88366600D03*
G04 #@! TO.P,CN1,11*
G04 #@! TO.N,GND*
X66040000Y-88366600D03*
G04 #@! TO.P,CN1,10*
G04 #@! TO.N,/PC12*
X68580000Y-85826600D03*
G04 #@! TO.P,CN1,9*
G04 #@! TO.N,/+5V*
X66040000Y-85826600D03*
G04 #@! TO.P,CN1,8*
G04 #@! TO.N,/PC11*
X68580000Y-83286600D03*
G04 #@! TO.P,CN1,7*
G04 #@! TO.N,/+3V3*
X66040000Y-83286600D03*
G04 #@! TO.P,CN1,6*
G04 #@! TO.N,/PC10*
X68580000Y-80746600D03*
G04 #@! TO.P,CN1,5*
G04 #@! TO.N,/RESET*
X66040000Y-80746600D03*
G04 #@! TO.P,CN1,4*
G04 #@! TO.N,/PC9*
X68580000Y-78206600D03*
G04 #@! TO.P,CN1,3*
G04 #@! TO.N,/IOREF*
X66040000Y-78206600D03*
G04 #@! TO.P,CN1,2*
G04 #@! TO.N,/PC8*
X68580000Y-75666600D03*
D35*
G04 #@! TO.P,CN1,1*
G04 #@! TO.N,Net-(CN1-Pad1)*
X66040000Y-75666600D03*
G04 #@! TD*
D37*
G04 #@! TO.N,Net-(U3-Pad4)*
X96520000Y-72390000D03*
X91440000Y-60960000D03*
X86360000Y-60960000D03*
X86360000Y-59055000D03*
G04 #@! TO.N,Net-(U3-Pad6)*
X101600000Y-71755000D03*
X89535000Y-55880000D03*
G04 #@! TO.N,/PG2*
X74930000Y-66675000D03*
X73662102Y-69217102D03*
G04 #@! TO.N,/PC12*
X63575012Y-117434509D03*
D38*
G04 #@! TO.N,/+5V*
X70485000Y-135255000D03*
D37*
X71120000Y-120650000D03*
D39*
X73660000Y-85090000D03*
D37*
G04 #@! TO.N,/PC11*
X103505000Y-99150010D03*
G04 #@! TO.N,/+3V3*
X73025000Y-90170000D03*
X71755000Y-106680000D03*
X80010000Y-110490000D03*
X76835000Y-128905000D03*
G04 #@! TO.N,/PA0*
X104775000Y-144780000D03*
X105410000Y-129540000D03*
G04 #@! TO.N,/PE14*
X96390918Y-123176125D03*
X97245010Y-68775476D03*
G04 #@! TO.N,/PE2*
X84455000Y-113030000D03*
X95314807Y-122734873D03*
G04 #@! TO.N,/PE10*
X102412462Y-123375010D03*
G04 #@! TO.N,/PD11*
X110135020Y-119511382D03*
G04 #@! TO.N,/PG9*
X101477660Y-108556412D03*
G04 #@! TO.N,/PB6*
X91555010Y-91697409D03*
X93980000Y-109855000D03*
G04 #@! TO.N,/PC2*
X79985000Y-67945000D03*
X80010000Y-102870000D03*
G04 #@! TO.N,/AVDD*
X109855000Y-90805000D03*
G04 #@! TO.N,/PB10*
X104140000Y-60325000D03*
X104684990Y-130810000D03*
G04 #@! TO.N,/PA3*
X85725000Y-81280000D03*
X83678994Y-94394092D03*
X83777802Y-97157905D03*
G04 #@! TO.N,/PC3*
X79375000Y-101600000D03*
X78740000Y-67854990D03*
G04 #@! TO.N,/PD3*
X78998479Y-65906749D03*
X74641609Y-110302174D03*
G04 #@! TO.N,/PA7*
X107315000Y-93980000D03*
X85725000Y-116205000D03*
X93980000Y-115570000D03*
X108327973Y-117208653D03*
G04 #@! TO.N,/PC6*
X102235000Y-62865000D03*
G04 #@! TO.N,/PB15*
X98425000Y-135255000D03*
X102083433Y-69455396D03*
G04 #@! TO.N,/PB9*
X100328077Y-90629420D03*
X95885000Y-91440000D03*
X95885000Y-93345000D03*
X102809701Y-70142824D03*
G04 #@! TO.N,/PB12*
X71907784Y-80491081D03*
X78740000Y-111125000D03*
X73406000Y-109220000D03*
G04 #@! TO.N,/PA15*
X108675010Y-126270021D03*
X99695793Y-124549994D03*
D38*
G04 #@! TO.N,GND*
X82550000Y-109855000D03*
X82980001Y-104140000D03*
D37*
X109855000Y-113030000D03*
D39*
G04 #@! TO.N,/A3V3*
X77470000Y-82550000D03*
X81280000Y-82550000D03*
D37*
X78749367Y-74262141D03*
X94728060Y-87834980D03*
X97827545Y-93105010D03*
G04 #@! TO.N,Net-(RN1-Pad1)*
X94705010Y-83508372D03*
X96577005Y-74437564D03*
G04 #@! TO.N,/AMPOUT*
X76200000Y-64135000D03*
X91440088Y-93345000D03*
G04 #@! TO.N,/LOGOUT*
X70485000Y-72390000D03*
X74930000Y-73660000D03*
X78105000Y-90170000D03*
X89419990Y-89936452D03*
X90920010Y-95021089D03*
G04 #@! TO.N,Net-(U4-Pad12)*
X95123000Y-96774000D03*
X92837000Y-81026000D03*
G04 #@! TO.N,Net-(C5-Pad1)*
X74930000Y-40640000D03*
G04 #@! TO.N,Net-(TP10-Pad1)*
X95840253Y-95079979D03*
G04 #@! TO.N,Net-(C6-Pad1)*
X86995000Y-62865000D03*
X85652885Y-58347885D03*
G04 #@! TO.N,Net-(C6-Pad2)*
X86995000Y-67310000D03*
X86995000Y-67310000D03*
X80851090Y-71129947D03*
G04 #@! TO.N,Net-(C8-Pad1)*
X79375000Y-73025000D03*
G04 #@! TO.N,Net-(C7-Pad2)*
X84421334Y-66917990D03*
X74570011Y-71390343D03*
G04 #@! TO.N,/HALF3V3*
X80010000Y-69850000D03*
X85725000Y-85725000D03*
G04 #@! TO.N,Net-(C11-Pad1)*
X86360000Y-46355000D03*
X90170000Y-46355000D03*
X86470102Y-51355155D03*
X81994845Y-51355155D03*
X70866000Y-65278000D03*
G04 #@! TO.N,Net-(C9-Pad2)*
X78105000Y-53975000D03*
X78740000Y-57150000D03*
G04 #@! TO.N,Net-(C10-Pad1)*
X82550000Y-39370000D03*
X69867450Y-49512550D03*
G04 #@! TO.N,Net-(D3-Pad2)*
X90805000Y-121920000D03*
X95967932Y-121730011D03*
G04 #@! TO.N,Net-(D4-Pad2)*
X92075000Y-123190000D03*
X94476491Y-123280080D03*
G04 #@! TO.N,Net-(D6-Pad2)*
X102235000Y-127000000D03*
X102992619Y-115356659D03*
G04 #@! TO.N,Net-(D5-Pad2)*
X98837026Y-118071552D03*
X99785010Y-109397274D03*
D39*
G04 #@! TO.N,AGND*
X81915000Y-74930000D03*
X91440000Y-82550000D03*
D38*
X102210000Y-85750000D03*
X102485001Y-91336448D03*
D39*
X74126073Y-82179025D03*
D37*
X72390000Y-68492092D03*
G04 #@! TO.N,Net-(C15-Pad1)*
X85090000Y-93345000D03*
G04 #@! TO.N,Net-(U11-Pad7)*
X101600000Y-76200000D03*
G04 #@! TO.N,Net-(D1-Pad2)*
X93980000Y-106680000D03*
X95282537Y-116390012D03*
G04 #@! TO.N,/XB_PIO4*
X80645000Y-129540000D03*
X99060000Y-107315000D03*
X108585000Y-111125000D03*
X108585000Y-107315000D03*
G04 #@! TO.N,Net-(TP9-Pad1)*
X93980000Y-81280000D03*
X93980000Y-86884969D03*
G04 #@! TO.N,Net-(RN4-Pad2)*
X96153991Y-75343700D03*
X95653583Y-62991997D03*
G04 #@! TO.N,Net-(C19-Pad1)*
X85725000Y-80010000D03*
X76835000Y-80645000D03*
G04 #@! TO.N,Net-(TP3-Pad1)*
X81915000Y-78740000D03*
D39*
G04 #@! TO.N,/P3V3*
X81280000Y-88265000D03*
D37*
X105964998Y-114935000D03*
X90170000Y-88900000D03*
X90221170Y-94224577D03*
G04 #@! TO.N,Net-(TP7-Pad1)*
X97790000Y-77470000D03*
X98425000Y-80820066D03*
G04 #@! TO.N,Net-(TP14-Pad1)*
X90169992Y-96749968D03*
X92329000Y-99695000D03*
G04 #@! TO.N,Net-(U8-Pad2)*
X88265000Y-55880000D03*
X92480022Y-71120000D03*
G04 #@! TO.N,Net-(U8-Pad4)*
X76835000Y-46990000D03*
X92016251Y-73243479D03*
G04 #@! TD*
D40*
G04 #@! TO.N,Net-(U3-Pad4)*
X99220000Y-72390000D02*
X99220000Y-73660000D01*
X99220000Y-72390000D02*
X96520000Y-72390000D01*
X91440000Y-60960000D02*
X86360000Y-60960000D01*
X83984999Y-59454999D02*
X83900000Y-59370000D01*
X85960001Y-59454999D02*
X83984999Y-59454999D01*
X86360000Y-59055000D02*
X85960001Y-59454999D01*
G04 #@! TO.N,Net-(U3-Pad6)*
X101600000Y-73000000D02*
X101600000Y-71755000D01*
X99220000Y-74930000D02*
X99670000Y-74930000D01*
X99670000Y-74930000D02*
X101600000Y-73000000D01*
X84930000Y-57470000D02*
X83900000Y-57470000D01*
X85630010Y-56769990D02*
X84930000Y-57470000D01*
X88645010Y-56769990D02*
X85630010Y-56769990D01*
X89535000Y-55880000D02*
X88645010Y-56769990D01*
G04 #@! TO.N,/PG2*
X76180000Y-67040000D02*
X75815000Y-66675000D01*
X77130000Y-67040000D02*
X76180000Y-67040000D01*
X75815000Y-66675000D02*
X74930000Y-66675000D01*
X71884102Y-69217102D02*
X73662102Y-69217102D01*
X69088000Y-66421000D02*
X71884102Y-69217102D01*
X65469471Y-92095201D02*
X63151388Y-89777118D01*
X68580000Y-90906600D02*
X67391399Y-92095201D01*
X63151388Y-89777118D02*
X63151388Y-68166612D01*
X63151388Y-68166612D02*
X64897000Y-66421000D01*
X67391399Y-92095201D02*
X65469471Y-92095201D01*
X64897000Y-66421000D02*
X69088000Y-66421000D01*
G04 #@! TO.N,/PC12*
X70485000Y-119634000D02*
X72009000Y-119634000D01*
X67330201Y-120035201D02*
X70083799Y-120035201D01*
X64140697Y-117434509D02*
X64364187Y-117657999D01*
X63575012Y-117434509D02*
X64140697Y-117434509D01*
X73025000Y-120650000D02*
X73660000Y-120650000D01*
X64364187Y-117657999D02*
X66610529Y-117657999D01*
X66610529Y-117657999D02*
X67228601Y-118276071D01*
X72009000Y-119634000D02*
X73025000Y-120650000D01*
X67228601Y-118276071D02*
X67228601Y-119933601D01*
X70083799Y-120035201D02*
X70485000Y-119634000D01*
X67228601Y-119933601D02*
X67330201Y-120035201D01*
D41*
G04 #@! TO.N,/+5V*
X73830000Y-86680000D02*
X73830000Y-85260000D01*
X73830000Y-85260000D02*
X73660000Y-85090000D01*
D42*
X71184999Y-134555001D02*
X70485000Y-135255000D01*
X71184999Y-134049999D02*
X71184999Y-134555001D01*
X71120000Y-133985000D02*
X71184999Y-134049999D01*
X71120000Y-120650000D02*
X71120000Y-133985000D01*
D40*
G04 #@! TO.N,/PC11*
X86310585Y-98425000D02*
X102214305Y-98425000D01*
X83280584Y-95394999D02*
X86310585Y-98425000D01*
X75381254Y-95394999D02*
X83280584Y-95394999D01*
X69768601Y-84475201D02*
X69768601Y-89782346D01*
X69768601Y-89782346D02*
X75381254Y-95394999D01*
X102214305Y-98425000D02*
X102939315Y-99150010D01*
X102939315Y-99150010D02*
X103505000Y-99150010D01*
X68580000Y-83286600D02*
X69768601Y-84475201D01*
G04 #@! TO.N,/+3V3*
X73025000Y-89385000D02*
X73830000Y-88580000D01*
X73025000Y-90170000D02*
X73025000Y-89385000D01*
D43*
X76835000Y-128905000D02*
X73660000Y-132080000D01*
X71755000Y-106680000D02*
X73163999Y-108088999D01*
X77608999Y-108088999D02*
X79610001Y-110090001D01*
X79610001Y-110090001D02*
X80010000Y-110490000D01*
X73163999Y-108088999D02*
X77608999Y-108088999D01*
D40*
G04 #@! TO.N,/PE15*
X115128600Y-129878600D02*
X114265001Y-129015001D01*
X115453602Y-130203602D02*
X115128600Y-129878600D01*
X115453602Y-138147402D02*
X115453602Y-130203602D01*
X112686005Y-140914999D02*
X115453602Y-138147402D01*
X102545001Y-140914999D02*
X112686005Y-140914999D01*
X101600000Y-141860000D02*
X102545001Y-140914999D01*
G04 #@! TO.N,/PA0*
X101600000Y-145860000D02*
X103695000Y-145860000D01*
X103695000Y-145860000D02*
X104775000Y-144780000D01*
X111200002Y-129540000D02*
X111725001Y-129015001D01*
X105410000Y-129540000D02*
X111200002Y-129540000D01*
G04 #@! TO.N,/PE14*
X114265001Y-126475001D02*
X112975001Y-125185001D01*
X102052833Y-125545011D02*
X99683947Y-123176125D01*
X99683947Y-123176125D02*
X96956603Y-123176125D01*
X109530088Y-125545011D02*
X102052833Y-125545011D01*
X109890097Y-125185001D02*
X109530088Y-125545011D01*
X112975001Y-125185001D02*
X109890097Y-125185001D01*
X96956603Y-123176125D02*
X96390918Y-123176125D01*
X93820000Y-69850000D02*
X96170486Y-69850000D01*
X99220000Y-71120000D02*
X98770000Y-71120000D01*
X97245010Y-69595010D02*
X97245010Y-69341161D01*
X97245010Y-69341161D02*
X97245010Y-68775476D01*
X96170486Y-69850000D02*
X96845011Y-69175475D01*
X96845011Y-69175475D02*
X97245010Y-68775476D01*
X98770000Y-71120000D02*
X97245010Y-69595010D01*
G04 #@! TO.N,/PE2*
X83718400Y-113766600D02*
X69801314Y-113766600D01*
X69801314Y-113766600D02*
X68580000Y-113766600D01*
X84455000Y-113030000D02*
X83718400Y-113766600D01*
X96319847Y-122451101D02*
X96315934Y-122455013D01*
X99937707Y-122451101D02*
X96319847Y-122451101D01*
X102502754Y-125016148D02*
X99937707Y-122451101D01*
X95594667Y-122455013D02*
X95314807Y-122734873D01*
X96315934Y-122455013D02*
X95594667Y-122455013D01*
X107503853Y-125016148D02*
X102502754Y-125016148D01*
X108585000Y-123935001D02*
X107503853Y-125016148D01*
X112436590Y-123935001D02*
X108585000Y-123935001D01*
G04 #@! TO.N,/PE10*
X107269993Y-123775009D02*
X102812461Y-123775009D01*
X108461400Y-122583602D02*
X107269993Y-123775009D01*
X113076400Y-122583602D02*
X108461400Y-122583602D01*
X114265001Y-121395001D02*
X113076400Y-122583602D01*
X102812461Y-123775009D02*
X102412462Y-123375010D01*
G04 #@! TO.N,/PD11*
X109735021Y-119111383D02*
X110135020Y-119511382D01*
X109273638Y-118650000D02*
X109735021Y-119111383D01*
X106910000Y-118650000D02*
X109273638Y-118650000D01*
G04 #@! TO.N,/PD12*
X111725001Y-118855001D02*
X110861402Y-119718600D01*
X107610000Y-119990000D02*
X106910000Y-119990000D01*
X107856384Y-120236384D02*
X107610000Y-119990000D01*
X110861402Y-119858004D02*
X110483022Y-120236384D01*
X110861402Y-119718600D02*
X110861402Y-119858004D01*
X110483022Y-120236384D02*
X107856384Y-120236384D01*
G04 #@! TO.N,/PD13*
X105537000Y-121977000D02*
X106210000Y-122650000D01*
X108225982Y-118131982D02*
X107741714Y-117647714D01*
X106253286Y-117647714D02*
X105537000Y-118364000D01*
X108481146Y-118131982D02*
X108225982Y-118131982D01*
X105537000Y-118364000D02*
X105537000Y-121977000D01*
X107741714Y-117647714D02*
X106253286Y-117647714D01*
X110298127Y-116315001D02*
X108481146Y-118131982D01*
X111725001Y-116315001D02*
X110298127Y-116315001D01*
X106210000Y-122650000D02*
X106910000Y-122650000D01*
G04 #@! TO.N,/PG9*
X111154472Y-109883602D02*
X109827282Y-108556412D01*
X102043345Y-108556412D02*
X101477660Y-108556412D01*
X109827282Y-108556412D02*
X102043345Y-108556412D01*
X112913602Y-109883602D02*
X111154472Y-109883602D01*
X114265001Y-111235001D02*
X112913602Y-109883602D01*
G04 #@! TO.N,/PB6*
X91562601Y-91705000D02*
X91555010Y-91697409D01*
X93570000Y-91705000D02*
X91562601Y-91705000D01*
X88705000Y-92105000D02*
X89430000Y-92105000D01*
X89430000Y-92105000D02*
X89837591Y-91697409D01*
X89837591Y-91697409D02*
X91555010Y-91697409D01*
X99616600Y-107831402D02*
X97593002Y-109855000D01*
X97593002Y-109855000D02*
X94545685Y-109855000D01*
X94545685Y-109855000D02*
X93980000Y-109855000D01*
X108236999Y-108040001D02*
X108028400Y-107831402D01*
X111725001Y-108695001D02*
X111070001Y-108040001D01*
X108028400Y-107831402D02*
X99616600Y-107831402D01*
X111070001Y-108040001D02*
X108236999Y-108040001D01*
G04 #@! TO.N,/PC2*
X77130000Y-66040000D02*
X78106410Y-66040000D01*
X78106410Y-66040000D02*
X79585001Y-67518591D01*
X79585001Y-67518591D02*
X79585001Y-67545001D01*
X79585001Y-67545001D02*
X79985000Y-67945000D01*
X91255998Y-102870000D02*
X92000999Y-103615001D01*
X92000999Y-103615001D02*
X110503687Y-103615001D01*
X80010000Y-102870000D02*
X91255998Y-102870000D01*
X110503687Y-103615001D02*
X111725001Y-103615001D01*
D43*
G04 #@! TO.N,/AVDD*
X109855000Y-76799871D02*
X109855000Y-90805000D01*
X111290269Y-75364602D02*
X109855000Y-76799871D01*
X113086399Y-74620732D02*
X112342529Y-75364602D01*
X113086399Y-72824602D02*
X113086399Y-74620732D01*
X112342529Y-75364602D02*
X111290269Y-75364602D01*
X114300000Y-71611001D02*
X113086399Y-72824602D01*
G04 #@! TO.N,/PB10*
X112612802Y-55150000D02*
X107437802Y-60325000D01*
X107437802Y-60325000D02*
X104705685Y-60325000D01*
X115340000Y-55150000D02*
X112612802Y-55150000D01*
X104705685Y-60325000D02*
X104140000Y-60325000D01*
D40*
X105084989Y-130410001D02*
X104684990Y-130810000D01*
X114265001Y-131555001D02*
X113076400Y-130366400D01*
X113076400Y-130366400D02*
X105128590Y-130366400D01*
X105128590Y-130366400D02*
X105084989Y-130410001D01*
G04 #@! TO.N,/PA3*
X83660000Y-81280000D02*
X84110000Y-81280000D01*
X84110000Y-81280000D02*
X85725000Y-81280000D01*
X66115001Y-99715201D02*
X81220506Y-99715201D01*
X66040000Y-99640200D02*
X66115001Y-99715201D01*
X83377803Y-97557904D02*
X83777802Y-97157905D01*
X66040000Y-98526600D02*
X66040000Y-99640200D01*
X81220506Y-99715201D02*
X83377803Y-97557904D01*
X91325011Y-97974989D02*
X87259891Y-97974989D01*
X87259891Y-97974989D02*
X84078993Y-94794091D01*
X84078993Y-94794091D02*
X83678994Y-94394092D01*
X93570000Y-96255000D02*
X93045000Y-96255000D01*
X93045000Y-96255000D02*
X91325011Y-97974989D01*
G04 #@! TO.N,/PC3*
X66903599Y-102743001D02*
X66040000Y-103606600D01*
X78557001Y-102417999D02*
X67228601Y-102417999D01*
X67228601Y-102417999D02*
X66903599Y-102743001D01*
X79375000Y-101600000D02*
X78557001Y-102417999D01*
X77970000Y-66540000D02*
X78340001Y-66910001D01*
X78340001Y-66910001D02*
X78340001Y-67454991D01*
X78340001Y-67454991D02*
X78740000Y-67854990D01*
X77130000Y-66540000D02*
X77970000Y-66540000D01*
D43*
G04 #@! TO.N,/PD3*
X77130000Y-65540000D02*
X78631730Y-65540000D01*
X78631730Y-65540000D02*
X78998479Y-65906749D01*
D40*
X68580000Y-108686600D02*
X70195574Y-110302174D01*
X74075924Y-110302174D02*
X74641609Y-110302174D01*
X70195574Y-110302174D02*
X74075924Y-110302174D01*
D43*
G04 #@! TO.N,/PA7*
X108967131Y-93980000D02*
X107315000Y-93980000D01*
X112973601Y-89973530D02*
X108967131Y-93980000D01*
X114300000Y-81771001D02*
X112973601Y-83097400D01*
X112973601Y-83097400D02*
X112973601Y-89973530D01*
D40*
X98047000Y-115665002D02*
X94075002Y-115665002D01*
X94075002Y-115665002D02*
X93980000Y-115570000D01*
D43*
X107927974Y-116808654D02*
X108327973Y-117208653D01*
X106420580Y-116808654D02*
X107927974Y-116808654D01*
X102614918Y-117383152D02*
X105846082Y-117383152D01*
X100896768Y-115665002D02*
X102614918Y-117383152D01*
X105846082Y-117383152D02*
X106420580Y-116808654D01*
X98047000Y-115665002D02*
X100896768Y-115665002D01*
X67253601Y-117520201D02*
X66903599Y-117170199D01*
X84709000Y-117221000D02*
X78232000Y-117221000D01*
X66903599Y-117170199D02*
X66040000Y-116306600D01*
X85725000Y-116205000D02*
X84709000Y-117221000D01*
X78232000Y-117221000D02*
X77851000Y-116840000D01*
X77851000Y-116840000D02*
X69842730Y-116840000D01*
X69842730Y-116840000D02*
X69162529Y-117520201D01*
X69162529Y-117520201D02*
X67253601Y-117520201D01*
G04 #@! TO.N,/PC6*
X110596400Y-66531001D02*
X106930399Y-62865000D01*
X111760000Y-66531001D02*
X110596400Y-66531001D01*
X106930399Y-62865000D02*
X102235000Y-62865000D01*
D40*
G04 #@! TO.N,/PB15*
X81125000Y-140335000D02*
X79600000Y-141860000D01*
X86205000Y-135255000D02*
X81125000Y-140335000D01*
X98425000Y-135255000D02*
X86205000Y-135255000D01*
X102467828Y-69071001D02*
X102083433Y-69455396D01*
X111760000Y-69071001D02*
X102467828Y-69071001D01*
G04 #@! TO.N,/PB9*
X100328077Y-90629420D02*
X96695580Y-90629420D01*
X96695580Y-90629420D02*
X95885000Y-91440000D01*
X95485001Y-92945001D02*
X93629999Y-92945001D01*
X93629999Y-92945001D02*
X93570000Y-93005000D01*
X95885000Y-93345000D02*
X95485001Y-92945001D01*
X88705000Y-93355000D02*
X88905000Y-93355000D01*
X92659998Y-93005000D02*
X93570000Y-93005000D01*
X89640002Y-92619998D02*
X92274996Y-92619998D01*
X92274996Y-92619998D02*
X92659998Y-93005000D01*
X88905000Y-93355000D02*
X89640002Y-92619998D01*
X113111399Y-70259602D02*
X103492164Y-70259602D01*
X114300000Y-69071001D02*
X113111399Y-70259602D01*
X103492164Y-70259602D02*
X103375386Y-70142824D01*
X103375386Y-70142824D02*
X102809701Y-70142824D01*
D43*
G04 #@! TO.N,/PB12*
X78740000Y-111125000D02*
X76835000Y-109220000D01*
X73971685Y-109220000D02*
X73406000Y-109220000D01*
X76835000Y-109220000D02*
X73971685Y-109220000D01*
D40*
X72307783Y-80091082D02*
X71907784Y-80491081D01*
X78106001Y-76144999D02*
X76253866Y-76144999D01*
X106765989Y-79145012D02*
X93369012Y-79145012D01*
X111760000Y-74151001D02*
X106765989Y-79145012D01*
X78320993Y-76359991D02*
X78106001Y-76144999D01*
X93369012Y-79145012D02*
X91948000Y-77724000D01*
X91948000Y-77724000D02*
X85253766Y-77724000D01*
X76253866Y-76144999D02*
X72307783Y-80091082D01*
X85253766Y-77724000D02*
X83889757Y-76359991D01*
X83889757Y-76359991D02*
X78320993Y-76359991D01*
G04 #@! TO.N,/PA15*
X100421405Y-124549994D02*
X100261478Y-124549994D01*
X102141432Y-126270021D02*
X100421405Y-124549994D01*
X100261478Y-124549994D02*
X99695793Y-124549994D01*
X108675010Y-126270021D02*
X102141432Y-126270021D01*
D43*
G04 #@! TO.N,/PD14*
X107660000Y-121310000D02*
X106910000Y-121310000D01*
X114300000Y-84311001D02*
X115521314Y-84311001D01*
X111209772Y-120181400D02*
X110081172Y-121310000D01*
X114734732Y-120181400D02*
X111209772Y-120181400D01*
X110081172Y-121310000D02*
X107660000Y-121310000D01*
D40*
X115521314Y-84311001D02*
X115908601Y-84311001D01*
X115908601Y-84311001D02*
X117055900Y-85458300D01*
X117055900Y-117860232D02*
X114734732Y-120181400D01*
X117055900Y-85458300D02*
X117055900Y-117860232D01*
D43*
G04 #@! TO.N,/PD15*
X108490000Y-109760000D02*
X106910000Y-109760000D01*
D40*
X115521314Y-86851001D02*
X116503513Y-87833200D01*
X114300000Y-86851001D02*
X115521314Y-86851001D01*
X114835530Y-112423602D02*
X111153602Y-112423602D01*
X116503513Y-110755619D02*
X114835530Y-112423602D01*
X111153602Y-112423602D02*
X108490000Y-109760000D01*
X116503513Y-87833200D02*
X116503513Y-110755619D01*
D42*
G04 #@! TO.N,GND*
X88670000Y-106130000D02*
X86920000Y-104380000D01*
X88670000Y-106680000D02*
X88670000Y-106130000D01*
X86920000Y-104380000D02*
X83220001Y-104380000D01*
X83220001Y-104380000D02*
X82980001Y-104140000D01*
X82980001Y-104140000D02*
X79350000Y-104140000D01*
X77609999Y-105880001D02*
X76810000Y-106680000D01*
X79350000Y-104140000D02*
X77609999Y-105880001D01*
X88670000Y-106680000D02*
X88670000Y-113030000D01*
X88670000Y-113030000D02*
X88670000Y-119380000D01*
X88670000Y-119380000D02*
X88670000Y-125730000D01*
X88670000Y-126280000D02*
X88670000Y-125730000D01*
X90420000Y-128030000D02*
X88670000Y-126280000D01*
X93270000Y-128030000D02*
X90420000Y-128030000D01*
X95020000Y-126280000D02*
X93270000Y-128030000D01*
D44*
X100800001Y-131060001D02*
X101600000Y-131860000D01*
X99800001Y-131060001D02*
X100800001Y-131060001D01*
X95020000Y-126280000D02*
X99800001Y-131060001D01*
X95020000Y-125730000D02*
X95020000Y-126280000D01*
X102731370Y-131860000D02*
X101600000Y-131860000D01*
X109180000Y-137298630D02*
X103741370Y-131860000D01*
X103741370Y-131860000D02*
X102731370Y-131860000D01*
X109180000Y-138430000D02*
X109180000Y-137298630D01*
D42*
X75875001Y-92940001D02*
X83411369Y-92940001D01*
X75175000Y-92240000D02*
X75875001Y-92940001D01*
X75175000Y-91440000D02*
X75175000Y-92240000D01*
D45*
X73830000Y-87630000D02*
X71755000Y-87630000D01*
D42*
X71755000Y-87630000D02*
X71396996Y-87630000D01*
X73357500Y-80645000D02*
X71755000Y-82247500D01*
D41*
X96295001Y-78445001D02*
X95320000Y-77470000D01*
X95320000Y-77470000D02*
X93820000Y-77470000D01*
D44*
X104708607Y-127620023D02*
X109358665Y-127620023D01*
X101600000Y-131860000D02*
X101600000Y-130728630D01*
X110503687Y-126475001D02*
X111725001Y-126475001D01*
X109358665Y-127620023D02*
X110503687Y-126475001D01*
X101600000Y-130728630D02*
X104708607Y-127620023D01*
D41*
X109462001Y-116038001D02*
X103845001Y-116038001D01*
X111725001Y-113775001D02*
X109462001Y-116038001D01*
X102802087Y-116545001D02*
X101600000Y-115342914D01*
X103338001Y-116545001D02*
X102802087Y-116545001D01*
X101600000Y-115342914D02*
X101600000Y-112210000D01*
X101600000Y-112210000D02*
X102710000Y-111100000D01*
X102710000Y-111100000D02*
X103910000Y-111100000D01*
X103845001Y-116038001D02*
X103338001Y-116545001D01*
D45*
X86555000Y-94605000D02*
X85091998Y-94605000D01*
X85091998Y-94605000D02*
X83780000Y-93293002D01*
D41*
X72810001Y-140549999D02*
X73660000Y-139700000D01*
X64601399Y-138302401D02*
X66848997Y-140549999D01*
X66848997Y-140549999D02*
X72810001Y-140549999D01*
X64601399Y-127905201D02*
X64601399Y-138302401D01*
X66040000Y-126466600D02*
X64601399Y-127905201D01*
D43*
X112938602Y-117528602D02*
X113401402Y-117991402D01*
X112938602Y-114988602D02*
X112938602Y-117528602D01*
X113401402Y-117991402D02*
X114265001Y-118855001D01*
X111725001Y-113775001D02*
X112938602Y-114988602D01*
D41*
X110600001Y-113775001D02*
X111725001Y-113775001D01*
X109855000Y-113030000D02*
X110600001Y-113775001D01*
D44*
X70519999Y-81012499D02*
X71755000Y-82247500D01*
X70519999Y-74922469D02*
X70519999Y-81012499D01*
X68540000Y-72942470D02*
X70519999Y-74922469D01*
D46*
X71755000Y-82247500D02*
X71755000Y-87271996D01*
D42*
X75175000Y-91440000D02*
X72592996Y-91440000D01*
X71755000Y-90602004D02*
X71755000Y-87271996D01*
X72592996Y-91440000D02*
X71755000Y-90602004D01*
X69443599Y-112090199D02*
X68580000Y-111226600D01*
X69578402Y-112225002D02*
X69443599Y-112090199D01*
X82550000Y-109855000D02*
X80179998Y-112225002D01*
X80179998Y-112225002D02*
X69578402Y-112225002D01*
D41*
X74930000Y-124460000D02*
X73660000Y-125730000D01*
X85900000Y-124460000D02*
X74930000Y-124460000D01*
X88670000Y-125730000D02*
X87170000Y-125730000D01*
X87170000Y-125730000D02*
X85900000Y-124460000D01*
D42*
X93270000Y-123980000D02*
X95020000Y-125730000D01*
X95020000Y-119380000D02*
X95020000Y-119930000D01*
X93270000Y-121680000D02*
X93270000Y-123980000D01*
X95020000Y-119930000D02*
X93270000Y-121680000D01*
D41*
X106640000Y-74081000D02*
X102416034Y-78304966D01*
X106640000Y-73660000D02*
X106640000Y-74081000D01*
X100330001Y-78445001D02*
X96295001Y-78445001D01*
X100470036Y-78304966D02*
X100330001Y-78445001D01*
X102416034Y-78304966D02*
X100470036Y-78304966D01*
D44*
X68540000Y-72942470D02*
X68540000Y-67945000D01*
X67822470Y-73660000D02*
X68540000Y-72942470D01*
X64519398Y-73660000D02*
X67822470Y-73660000D01*
X64226399Y-73952999D02*
X64519398Y-73660000D01*
X64226399Y-87774313D02*
X64226399Y-73952999D01*
X66040000Y-88366600D02*
X64818686Y-88366600D01*
X64818686Y-88366600D02*
X64226399Y-87774313D01*
D42*
X83780000Y-92571370D02*
X83780000Y-91440000D01*
X83411369Y-92940001D02*
X83780000Y-92571370D01*
D45*
G04 #@! TO.N,/A3V3*
X82602487Y-55625013D02*
X84054290Y-54173210D01*
X77724987Y-55625013D02*
X82602487Y-55625013D01*
X84054290Y-54173210D02*
X84887500Y-53340000D01*
X73660000Y-59690000D02*
X77724987Y-55625013D01*
D41*
X73660000Y-61240000D02*
X74055001Y-61635001D01*
X74055001Y-61635001D02*
X76072501Y-61635001D01*
X73660000Y-59690000D02*
X73660000Y-61240000D01*
D40*
X78080000Y-65040000D02*
X78182500Y-64937500D01*
X77130000Y-65040000D02*
X78080000Y-65040000D01*
X78182500Y-64937500D02*
X79375000Y-64937500D01*
D41*
X76072501Y-61635001D02*
X79375000Y-64937500D01*
X83487500Y-68979178D02*
X83487500Y-69050000D01*
X79445822Y-64937500D02*
X83487500Y-68979178D01*
X79375000Y-64937500D02*
X79445822Y-64937500D01*
X83487500Y-69050000D02*
X83487500Y-69850000D01*
D45*
X86330000Y-71120000D02*
X85060000Y-69850000D01*
X85060000Y-69850000D02*
X84075000Y-69850000D01*
X87630000Y-71120000D02*
X86330000Y-71120000D01*
X84075000Y-69850000D02*
X83487500Y-69850000D01*
D42*
X81280000Y-82550000D02*
X77470000Y-82550000D01*
D45*
X83660000Y-82550000D02*
X81280000Y-82550000D01*
D40*
X98590000Y-87090000D02*
X99290000Y-87090000D01*
X98514999Y-87014999D02*
X98590000Y-87090000D01*
X98514999Y-84565001D02*
X98514999Y-87014999D01*
X99290000Y-83790000D02*
X98514999Y-84565001D01*
X99290000Y-83090000D02*
X99290000Y-83790000D01*
D43*
X77130000Y-73365000D02*
X77630000Y-73365000D01*
X77630000Y-73365000D02*
X78527141Y-74262141D01*
X78527141Y-74262141D02*
X78749367Y-74262141D01*
X99470000Y-93005000D02*
X97927555Y-93005000D01*
X97927555Y-93005000D02*
X97827545Y-93105010D01*
X99290000Y-84430000D02*
X99290000Y-83090000D01*
D41*
X77869999Y-82949999D02*
X77470000Y-82550000D01*
X98090000Y-87090000D02*
X97050022Y-88129978D01*
X97050022Y-88129978D02*
X90842980Y-88129978D01*
X99290000Y-87090000D02*
X98090000Y-87090000D01*
X90842980Y-88129978D02*
X90638001Y-87924999D01*
X90638001Y-87924999D02*
X82844999Y-87924999D01*
X81280000Y-86360000D02*
X81280000Y-82550000D01*
X82844999Y-87924999D02*
X81280000Y-86360000D01*
X81280000Y-86360000D02*
X77869999Y-82949999D01*
D40*
G04 #@! TO.N,Net-(RN1-Pad1)*
X95105009Y-83108373D02*
X94705010Y-83508372D01*
X95123382Y-83090000D02*
X95105009Y-83108373D01*
X96290000Y-83090000D02*
X95123382Y-83090000D01*
X84950033Y-72065000D02*
X87180033Y-74295000D01*
X95868756Y-74295000D02*
X96011320Y-74437564D01*
X96011320Y-74437564D02*
X96577005Y-74437564D01*
X77130000Y-72065000D02*
X84950033Y-72065000D01*
X87180033Y-74295000D02*
X95868756Y-74295000D01*
G04 #@! TO.N,Net-(RN1-Pad3)*
X89060000Y-83820000D02*
X89510000Y-83820000D01*
X96290000Y-85750000D02*
X96290000Y-87090000D01*
X95590000Y-85750000D02*
X96290000Y-85750000D01*
X92735000Y-85750000D02*
X95590000Y-85750000D01*
X89060000Y-83820000D02*
X90805000Y-83820000D01*
X90805000Y-83820000D02*
X92735000Y-85750000D01*
D43*
G04 #@! TO.N,/AMPOUT*
X76200000Y-64135000D02*
X73185000Y-64135000D01*
X93570000Y-93655000D02*
X91750088Y-93655000D01*
X91750088Y-93655000D02*
X91440088Y-93345000D01*
D40*
X72730000Y-65040000D02*
X72180000Y-65040000D01*
D43*
X73185000Y-64135000D02*
X63881000Y-64135000D01*
X63881000Y-64135000D02*
X62738000Y-62992000D01*
X62738000Y-59563000D02*
X59690000Y-56515000D01*
X62738000Y-62992000D02*
X62738000Y-59563000D01*
X72730000Y-64221000D02*
X72730000Y-65040000D01*
X72644000Y-64135000D02*
X72730000Y-64221000D01*
G04 #@! TO.N,/LOGOUT*
X71460000Y-73365000D02*
X72730000Y-73365000D01*
X70485000Y-72390000D02*
X71460000Y-73365000D01*
D40*
X74635000Y-73365000D02*
X74930000Y-73660000D01*
X72730000Y-73365000D02*
X74635000Y-73365000D01*
X93570000Y-94305000D02*
X99470000Y-94305000D01*
X89186442Y-90170000D02*
X89419990Y-89936452D01*
X78105000Y-90170000D02*
X89186442Y-90170000D01*
X91839203Y-95021089D02*
X91485695Y-95021089D01*
X91485695Y-95021089D02*
X90920010Y-95021089D01*
X92555292Y-94305000D02*
X91839203Y-95021089D01*
X93570000Y-94305000D02*
X92555292Y-94305000D01*
G04 #@! TO.N,/DAC1*
X96603004Y-95605000D02*
X98470000Y-95605000D01*
X98470000Y-95605000D02*
X99470000Y-95605000D01*
X96403015Y-95804989D02*
X96603004Y-95605000D01*
X95166996Y-95605000D02*
X95366985Y-95804989D01*
X93570000Y-95605000D02*
X95166996Y-95605000D01*
X95366985Y-95804989D02*
X96403015Y-95804989D01*
G04 #@! TO.N,Net-(U4-Pad12)*
X83660000Y-83820000D02*
X84660000Y-83820000D01*
X87200000Y-81280000D02*
X89060000Y-81280000D01*
X84660000Y-83820000D02*
X87200000Y-81280000D01*
X95642000Y-96255000D02*
X95123000Y-96774000D01*
X99470000Y-96255000D02*
X95642000Y-96255000D01*
X92837000Y-81026000D02*
X91440000Y-81026000D01*
X91186000Y-81280000D02*
X89060000Y-81280000D01*
X91440000Y-81026000D02*
X91186000Y-81280000D01*
D45*
G04 #@! TO.N,Net-(C2-Pad1)*
X86115000Y-43180000D02*
X88682500Y-43180000D01*
X88682500Y-43180000D02*
X88682500Y-48260000D01*
G04 #@! TO.N,Net-(C5-Pad1)*
X77430000Y-48260000D02*
X75010000Y-48260000D01*
X78740000Y-46950000D02*
X77430000Y-48260000D01*
X78740000Y-46772500D02*
X78740000Y-46950000D01*
X75147500Y-43180000D02*
X78740000Y-46772500D01*
X74930000Y-42962500D02*
X75147500Y-43180000D01*
X74930000Y-40640000D02*
X74930000Y-42962500D01*
D40*
G04 #@! TO.N,Net-(TP10-Pad1)*
X95715274Y-94955000D02*
X95840253Y-95079979D01*
X93570000Y-94955000D02*
X95715274Y-94955000D01*
G04 #@! TO.N,Net-(C6-Pad1)*
X88682500Y-64552500D02*
X88682500Y-64770000D01*
X86995000Y-62865000D02*
X88682500Y-64552500D01*
X85580770Y-58420000D02*
X85652885Y-58347885D01*
X83900000Y-58420000D02*
X85580770Y-58420000D01*
G04 #@! TO.N,Net-(C6-Pad2)*
X91657500Y-64770000D02*
X89117500Y-67310000D01*
X89117500Y-67310000D02*
X86995000Y-67310000D01*
D43*
X77130000Y-71415000D02*
X80566037Y-71415000D01*
X80566037Y-71415000D02*
X80851090Y-71129947D01*
D40*
G04 #@! TO.N,Net-(C8-Pad1)*
X77130000Y-72715000D02*
X78430000Y-72715000D01*
X79065000Y-72715000D02*
X79375000Y-73025000D01*
X78430000Y-72715000D02*
X79065000Y-72715000D01*
D43*
G04 #@! TO.N,Net-(C7-Pad2)*
X84421334Y-66352305D02*
X84421334Y-66917990D01*
X84421334Y-65656166D02*
X84421334Y-66352305D01*
X85307500Y-64770000D02*
X84421334Y-65656166D01*
X72730000Y-71415000D02*
X74545354Y-71415000D01*
X74545354Y-71415000D02*
X74570011Y-71390343D01*
D45*
G04 #@! TO.N,Net-(C5-Pad2)*
X70902500Y-38100000D02*
X72172500Y-36830000D01*
X66040000Y-38100000D02*
X70902500Y-38100000D01*
X71664500Y-38100000D02*
X72172500Y-38608000D01*
X70902500Y-38100000D02*
X71664500Y-38100000D01*
X72172500Y-36830000D02*
X72172500Y-38608000D01*
X72172500Y-38608000D02*
X72172500Y-43180000D01*
D40*
G04 #@! TO.N,/HALF3V3*
X73680000Y-66540000D02*
X74295000Y-67155000D01*
X72730000Y-66540000D02*
X73680000Y-66540000D01*
X74295000Y-67155000D02*
X74295000Y-68580000D01*
X78740000Y-68580000D02*
X80010000Y-69850000D01*
X74295000Y-68580000D02*
X78740000Y-68580000D01*
X89060000Y-85090000D02*
X89060000Y-86360000D01*
X89060000Y-86360000D02*
X87630000Y-86360000D01*
X86995000Y-85725000D02*
X85725000Y-85725000D01*
X87630000Y-86360000D02*
X86995000Y-85725000D01*
D45*
G04 #@! TO.N,Net-(C10-Pad2)*
X87847500Y-39370000D02*
X90170000Y-39370000D01*
X91657500Y-40857500D02*
X91657500Y-43180000D01*
X90170000Y-39370000D02*
X91657500Y-40857500D01*
G04 #@! TO.N,Net-(C11-Pad1)*
X86115000Y-48260000D02*
X86115000Y-46600000D01*
X86115000Y-46600000D02*
X86360000Y-46355000D01*
X90170000Y-46772500D02*
X91657500Y-48260000D01*
X90170000Y-46355000D02*
X90170000Y-46772500D01*
D40*
X86470102Y-51355155D02*
X87832500Y-52717553D01*
X87832500Y-52717553D02*
X87832500Y-53340000D01*
X80212500Y-53137500D02*
X80212500Y-53340000D01*
X81994845Y-51355155D02*
X80212500Y-53137500D01*
D45*
X76428176Y-54875002D02*
X74788178Y-56515000D01*
X80212500Y-53340000D02*
X78677498Y-54875002D01*
X78677498Y-54875002D02*
X76428176Y-54875002D01*
X69994213Y-56515000D02*
X68580000Y-56515000D01*
X74788178Y-56515000D02*
X69994213Y-56515000D01*
D40*
X91657500Y-56302500D02*
X91657500Y-56995000D01*
X91657500Y-56995000D02*
X91657500Y-58420000D01*
X88695000Y-53340000D02*
X91657500Y-56302500D01*
X87832500Y-53340000D02*
X88695000Y-53340000D01*
D43*
X72730000Y-65540000D02*
X71128000Y-65540000D01*
X71128000Y-65540000D02*
X70866000Y-65278000D01*
D40*
G04 #@! TO.N,Net-(C9-Pad2)*
X77470000Y-53340000D02*
X78105000Y-53975000D01*
X75365000Y-53340000D02*
X77470000Y-53340000D01*
X80880000Y-57150000D02*
X81200000Y-57470000D01*
X78740000Y-57150000D02*
X80880000Y-57150000D01*
G04 #@! TO.N,Net-(C11-Pad2)*
X82230000Y-59370000D02*
X81200000Y-59370000D01*
X82930001Y-60070001D02*
X82230000Y-59370000D01*
X87032499Y-60070001D02*
X82930001Y-60070001D01*
X88682500Y-58420000D02*
X87032499Y-60070001D01*
G04 #@! TO.N,Net-(C9-Pad1)*
X73340000Y-47310000D02*
X73660000Y-47630000D01*
X72310000Y-47310000D02*
X73340000Y-47310000D01*
X73660000Y-52070000D02*
X72390000Y-53340000D01*
X73660000Y-47630000D02*
X73660000Y-52070000D01*
D45*
G04 #@! TO.N,Net-(C10-Pad1)*
X84872500Y-39370000D02*
X82550000Y-39370000D01*
X72007450Y-49512550D02*
X72310000Y-49210000D01*
X69867450Y-49512550D02*
X72007450Y-49512550D01*
D40*
G04 #@! TO.N,Net-(D3-Pad2)*
X90805000Y-120245000D02*
X91670000Y-119380000D01*
X90805000Y-121920000D02*
X90805000Y-120245000D01*
X102290011Y-121730011D02*
X96533617Y-121730011D01*
X103910000Y-122650000D02*
X103210000Y-122650000D01*
X96533617Y-121730011D02*
X95967932Y-121730011D01*
X103210000Y-122650000D02*
X102290011Y-121730011D01*
G04 #@! TO.N,Net-(D4-Pad2)*
X92075000Y-125325000D02*
X91670000Y-125730000D01*
X92075000Y-123190000D02*
X92075000Y-125325000D01*
X94476491Y-122090706D02*
X94476491Y-122714395D01*
X95562196Y-121005001D02*
X94476491Y-122090706D01*
X102905001Y-121005001D02*
X95562196Y-121005001D01*
X94476491Y-122714395D02*
X94476491Y-123280080D01*
X103910000Y-121310000D02*
X103210000Y-121310000D01*
X103210000Y-121310000D02*
X102905001Y-121005001D01*
G04 #@! TO.N,Net-(D2-Pad2)*
X100335014Y-117115014D02*
X103210000Y-119990000D01*
X94205014Y-117115014D02*
X100335014Y-117115014D01*
X91670000Y-113030000D02*
X91670000Y-114580000D01*
X91670000Y-114580000D02*
X94205014Y-117115014D01*
X103210000Y-119990000D02*
X103910000Y-119990000D01*
G04 #@! TO.N,Net-(D6-Pad2)*
X98020000Y-125730000D02*
X100965000Y-125730000D01*
X100965000Y-125730000D02*
X102235000Y-127000000D01*
X103013341Y-115356659D02*
X102992619Y-115356659D01*
X103910000Y-113760000D02*
X103910000Y-114460000D01*
X103910000Y-114460000D02*
X103013341Y-115356659D01*
G04 #@! TO.N,Net-(D5-Pad2)*
X98020000Y-118888578D02*
X98437027Y-118471551D01*
X98020000Y-119380000D02*
X98020000Y-118888578D01*
X98437027Y-118471551D02*
X98837026Y-118071552D01*
X100147736Y-109760000D02*
X99785010Y-109397274D01*
X103910000Y-109760000D02*
X100147736Y-109760000D01*
D42*
G04 #@! TO.N,AGND*
X75147500Y-38357500D02*
X78740000Y-41950000D01*
X75147500Y-36830000D02*
X75147500Y-38357500D01*
X82835000Y-41950000D02*
X84065000Y-43180000D01*
X78740000Y-41950000D02*
X82835000Y-41950000D01*
X84065000Y-43180000D02*
X84065000Y-48260000D01*
D45*
X72310000Y-48260000D02*
X68540000Y-48260000D01*
X77430000Y-58420000D02*
X76160000Y-59690000D01*
X81200000Y-58420000D02*
X77430000Y-58420000D01*
X68540000Y-48260000D02*
X66635000Y-48260000D01*
X79920000Y-58420000D02*
X81200000Y-58420000D01*
X79919999Y-62357499D02*
X79920000Y-58420000D01*
X82332500Y-64770000D02*
X79919999Y-62357499D01*
X87170001Y-68160001D02*
X89330001Y-70320001D01*
X84297501Y-68160001D02*
X87170001Y-68160001D01*
X82332500Y-66195000D02*
X84297501Y-68160001D01*
X82332500Y-64770000D02*
X82332500Y-66195000D01*
X89330001Y-70320001D02*
X90130000Y-71120000D01*
D42*
X74544999Y-75395001D02*
X73469999Y-76470001D01*
X73469999Y-76470001D02*
X72470000Y-77470000D01*
D43*
X91440000Y-82550000D02*
X89060000Y-82550000D01*
D42*
X74620012Y-75319988D02*
X74544999Y-75395001D01*
X78522744Y-75395001D02*
X78447731Y-75319988D01*
X81915000Y-74930000D02*
X81449999Y-75395001D01*
X81449999Y-75395001D02*
X78522744Y-75395001D01*
X78447731Y-75319988D02*
X74620012Y-75319988D01*
D41*
X99290000Y-85750000D02*
X102210000Y-85750000D01*
D40*
X99995000Y-92355000D02*
X99470000Y-92355000D01*
X99470000Y-92355000D02*
X99470000Y-91705000D01*
D41*
X91440000Y-82550000D02*
X94153004Y-82550000D01*
X102210000Y-85184315D02*
X102210000Y-85750000D01*
X94153004Y-82550000D02*
X94638005Y-82064999D01*
X94638005Y-82064999D02*
X100501375Y-82064999D01*
X100501375Y-82064999D02*
X102210000Y-83773624D01*
X102210000Y-83773624D02*
X102210000Y-85184315D01*
D43*
X93570000Y-92355000D02*
X99470000Y-92355000D01*
X101466449Y-92355000D02*
X102485001Y-91336448D01*
X99470000Y-92355000D02*
X101466449Y-92355000D01*
D44*
X102870000Y-91533004D02*
X102870000Y-91440000D01*
X111725001Y-95995001D02*
X107331997Y-95995001D01*
X107331997Y-95995001D02*
X102870000Y-91533004D01*
D41*
X74126073Y-81751427D02*
X74126073Y-82179025D01*
X75232500Y-80645000D02*
X74126073Y-81751427D01*
D42*
X74364290Y-36046790D02*
X75147500Y-36830000D01*
X73122490Y-34804990D02*
X74364290Y-36046790D01*
X70926000Y-34804990D02*
X73122490Y-34804990D01*
X70170990Y-35560000D02*
X70926000Y-34804990D01*
X68580000Y-35560000D02*
X70170990Y-35560000D01*
D40*
X72730000Y-68152092D02*
X72390000Y-68492092D01*
X72730000Y-67040000D02*
X72730000Y-68152092D01*
D42*
X84065000Y-49521000D02*
X84065000Y-48260000D01*
X84749154Y-50205154D02*
X84065000Y-49521000D01*
X87022103Y-50205154D02*
X84749154Y-50205154D01*
X87565449Y-50748500D02*
X87022103Y-50205154D01*
X92507500Y-53340000D02*
X89916000Y-50748500D01*
X89916000Y-50748500D02*
X87565449Y-50748500D01*
D40*
X75655002Y-74284998D02*
X74544999Y-75395001D01*
X75655002Y-72861002D02*
X75655002Y-74284998D01*
X75184000Y-72390000D02*
X75655002Y-72861002D01*
X74296410Y-72390000D02*
X75184000Y-72390000D01*
X72730000Y-72065000D02*
X73971410Y-72065000D01*
X73971410Y-72065000D02*
X74296410Y-72390000D01*
D43*
G04 #@! TO.N,Net-(C15-Pad1)*
X86545000Y-93345000D02*
X86555000Y-93355000D01*
X85090000Y-93345000D02*
X86545000Y-93345000D01*
D40*
G04 #@! TO.N,Net-(U11-Pad7)*
X99220000Y-76200000D02*
X101600000Y-76200000D01*
G04 #@! TO.N,Net-(D1-Pad2)*
X93980000Y-106680000D02*
X91670000Y-106680000D01*
X103910000Y-118650000D02*
X102506410Y-118650000D01*
X100246422Y-116390012D02*
X95848222Y-116390012D01*
X102506410Y-118650000D02*
X100246422Y-116390012D01*
X95848222Y-116390012D02*
X95282537Y-116390012D01*
G04 #@! TO.N,Net-(D8-Pad2)*
X82145000Y-133315000D02*
X82145000Y-127000000D01*
X79600000Y-135860000D02*
X82145000Y-133315000D01*
G04 #@! TO.N,/XB_PIO4*
X80645000Y-129050000D02*
X80645000Y-129540000D01*
X79145000Y-127000000D02*
X79145000Y-127550000D01*
X79145000Y-127550000D02*
X80645000Y-129050000D01*
X99060000Y-107315000D02*
X108585000Y-107315000D01*
X108560000Y-111100000D02*
X108585000Y-111125000D01*
X106910000Y-111100000D02*
X108560000Y-111100000D01*
D43*
G04 #@! TO.N,Net-(TP9-Pad1)*
X83660000Y-86360000D02*
X83660000Y-85090000D01*
D40*
X96455002Y-80645000D02*
X94615000Y-80645000D01*
X94615000Y-80645000D02*
X93980000Y-81280000D01*
X84660000Y-86360000D02*
X85524988Y-87224988D01*
X85524988Y-87224988D02*
X93074296Y-87224988D01*
X83660000Y-86360000D02*
X84660000Y-86360000D01*
X93074296Y-87224988D02*
X93414315Y-86884969D01*
X93414315Y-86884969D02*
X93980000Y-86884969D01*
D43*
X97029968Y-80070034D02*
X102094965Y-80070034D01*
X102235000Y-79929999D02*
X103145006Y-79929999D01*
X96455002Y-80645000D02*
X97029968Y-80070034D01*
X102094965Y-80070034D02*
X102235000Y-79929999D01*
X103145006Y-79929999D02*
X103170646Y-79955639D01*
X106950001Y-80280001D02*
X107950000Y-81280000D01*
X103170646Y-79955639D02*
X106625639Y-79955639D01*
X106625639Y-79955639D02*
X106950001Y-80280001D01*
D40*
G04 #@! TO.N,Net-(RN4-Pad2)*
X95740291Y-74930000D02*
X95753992Y-74943701D01*
X93820000Y-74930000D02*
X95740291Y-74930000D01*
X95753992Y-74943701D02*
X96153991Y-75343700D01*
D43*
X97530602Y-61114978D02*
X96053582Y-62591998D01*
X108049022Y-61114978D02*
X97530602Y-61114978D01*
X112674000Y-56490000D02*
X108049022Y-61114978D01*
X115340000Y-56490000D02*
X112674000Y-56490000D01*
X96053582Y-62591998D02*
X95653583Y-62991997D01*
D40*
G04 #@! TO.N,Net-(C19-Pad1)*
X89060000Y-78740000D02*
X89060000Y-80010000D01*
X89060000Y-80010000D02*
X85725000Y-80010000D01*
D43*
X85725000Y-78867000D02*
X85725000Y-79444315D01*
X85725000Y-79444315D02*
X85725000Y-80010000D01*
X84635161Y-77777161D02*
X85725000Y-78867000D01*
X79702839Y-77777161D02*
X84635161Y-77777161D01*
X76835000Y-80645000D02*
X79702839Y-77777161D01*
G04 #@! TO.N,Net-(TP3-Pad1)*
X81915000Y-78740000D02*
X83660000Y-78740000D01*
X81915000Y-79375000D02*
X81915000Y-78740000D01*
X83660000Y-80010000D02*
X82550000Y-80010000D01*
X82550000Y-80010000D02*
X81915000Y-79375000D01*
D42*
G04 #@! TO.N,/P3V3*
X76030000Y-86680000D02*
X79695000Y-86680000D01*
X79695000Y-86680000D02*
X81280000Y-88265000D01*
D41*
X119380000Y-54110000D02*
X118340000Y-55150000D01*
X119380000Y-50800000D02*
X119380000Y-54110000D01*
X118340000Y-55150000D02*
X118340000Y-56490000D01*
X118340000Y-56490000D02*
X118340000Y-57810000D01*
X118340000Y-57810000D02*
X118340000Y-59150000D01*
D45*
X86755000Y-92105000D02*
X88055000Y-90805000D01*
X86555000Y-92105000D02*
X86755000Y-92105000D01*
X89850011Y-90805000D02*
X91440000Y-89215011D01*
D41*
X103860000Y-88900000D02*
X105410000Y-88900000D01*
X90238025Y-89215011D02*
X103544989Y-89215011D01*
X103544989Y-89215011D02*
X103860000Y-88900000D01*
X89984464Y-88961450D02*
X90238025Y-89215011D01*
D45*
X88055000Y-90805000D02*
X89850011Y-90805000D01*
D41*
X81976450Y-88961450D02*
X89984464Y-88961450D01*
X81280000Y-88265000D02*
X81976450Y-88961450D01*
X106910000Y-113989998D02*
X105964998Y-114935000D01*
X106910000Y-113760000D02*
X106910000Y-113989998D01*
D43*
X88199978Y-97499978D02*
X90920002Y-97499978D01*
X86555000Y-95855000D02*
X88199978Y-97499978D01*
X89821171Y-95061167D02*
X89821171Y-94624576D01*
X89821171Y-94624576D02*
X90221170Y-94224577D01*
X90920002Y-96159998D02*
X89821171Y-95061167D01*
X90920002Y-97499978D02*
X90920002Y-96159998D01*
D41*
X101649998Y-70779998D02*
X102068002Y-70779998D01*
X104140000Y-72851996D02*
X104140000Y-73660000D01*
X102068002Y-70779998D02*
X104140000Y-72851996D01*
X100720000Y-69850000D02*
X101649998Y-70779998D01*
X99220000Y-69850000D02*
X100720000Y-69850000D01*
X99220000Y-68800000D02*
X99220000Y-69850000D01*
X99220000Y-67470000D02*
X99220000Y-68800000D01*
X97790000Y-66040000D02*
X99220000Y-67470000D01*
D44*
X96715198Y-66040000D02*
X97790000Y-66040000D01*
D41*
X91505001Y-70079997D02*
X95544998Y-66040000D01*
X91505001Y-71780001D02*
X91505001Y-70079997D01*
X95544998Y-66040000D02*
X96715198Y-66040000D01*
X82042000Y-70279500D02*
X82042000Y-71247000D01*
X81612500Y-69850000D02*
X82042000Y-70279500D01*
X82042000Y-71247000D02*
X85121997Y-71247000D01*
X85121997Y-71247000D02*
X86899997Y-73025000D01*
X86899997Y-73025000D02*
X90260002Y-73025000D01*
X90260002Y-73025000D02*
X91505001Y-71780001D01*
D44*
X94852089Y-66040000D02*
X96715198Y-66040000D01*
X93980000Y-65167911D02*
X94852089Y-66040000D01*
X93980000Y-58674000D02*
X93980000Y-65167911D01*
X119380000Y-50800000D02*
X101854000Y-50800000D01*
X101854000Y-50800000D02*
X93980000Y-58674000D01*
D40*
G04 #@! TO.N,Net-(TP7-Pad1)*
X99220000Y-77470000D02*
X98770000Y-77470000D01*
X99220000Y-77470000D02*
X97790000Y-77470000D01*
X102410066Y-80820066D02*
X102870000Y-81280000D01*
X98425000Y-80820066D02*
X102410066Y-80820066D01*
G04 #@! TO.N,Net-(C20-Pad1)*
X76235000Y-88580000D02*
X76030000Y-88580000D01*
D45*
X76030000Y-88580000D02*
X76896000Y-88580000D01*
X77225000Y-88909000D02*
X77225000Y-91440000D01*
X76896000Y-88580000D02*
X77225000Y-88909000D01*
D43*
G04 #@! TO.N,Net-(TP14-Pad1)*
X88705000Y-95855000D02*
X88905000Y-95855000D01*
X89799968Y-96749968D02*
X90169992Y-96749968D01*
X88905000Y-95855000D02*
X89799968Y-96749968D01*
X92964000Y-100330000D02*
X92728999Y-100094999D01*
X92728999Y-100094999D02*
X92329000Y-99695000D01*
X95885000Y-100330000D02*
X92964000Y-100330000D01*
D40*
G04 #@! TO.N,Net-(U8-Pad2)*
X93820000Y-71120000D02*
X92480022Y-71120000D01*
D43*
X93820000Y-71120000D02*
X94270000Y-71120000D01*
X93820000Y-71570000D02*
X93820000Y-72390000D01*
X94270000Y-71120000D02*
X93820000Y-71570000D01*
D40*
X86694990Y-52676090D02*
X86694990Y-54875675D01*
X86694990Y-54875675D02*
X87699315Y-55880000D01*
X85049065Y-51030165D02*
X86694990Y-52676090D01*
X84407424Y-51030165D02*
X85049065Y-51030165D01*
X82587259Y-49210000D02*
X84407424Y-51030165D01*
X75010000Y-49210000D02*
X82587259Y-49210000D01*
X87699315Y-55880000D02*
X88265000Y-55880000D01*
G04 #@! TO.N,Net-(U8-Pad4)*
X76040000Y-47310000D02*
X76360000Y-46990000D01*
X75010000Y-47310000D02*
X76040000Y-47310000D01*
X76360000Y-46990000D02*
X76835000Y-46990000D01*
X92432772Y-73660000D02*
X92416250Y-73643478D01*
X93820000Y-73660000D02*
X92432772Y-73660000D01*
X92416250Y-73643478D02*
X92016251Y-73243479D01*
G04 #@! TD*
D47*
G04 #@! TO.N,/A3V3*
G36*
X81153000Y-86053394D02*
X77776606Y-82677000D01*
X81153000Y-82677000D01*
X81153000Y-86053394D01*
X81153000Y-86053394D01*
G37*
X81153000Y-86053394D02*
X77776606Y-82677000D01*
X81153000Y-82677000D01*
X81153000Y-86053394D01*
G04 #@! TD*
M02*
