%FSLAX45Y45*%
G04 Gerber Fmt 4.5, Leading zero omitted, Abs format (unit mm)*
G04 Created by KiCad (PCBNEW (5.0.1)-3) date 05/01/2019 13:12:07*
%MOMM*%
%LPD*%
G01*
G04 APERTURE LIST*
%ADD10C,0.150000*%
%ADD11C,0.200000*%
%ADD12C,0.300000*%
G04 APERTURE END LIST*
D10*
X5461000Y-15748000D02*
X5461000Y-3327400D01*
X12573000Y-15748000D02*
X5461000Y-15748000D01*
X12573000Y-3327400D02*
X12573000Y-15748000D01*
X5461000Y-3327400D02*
X12573000Y-3327400D01*
D11*
X6450500Y-6020500D02*
X6750500Y-6320500D01*
X6750500Y-6020500D02*
X6450500Y-6320500D01*
X6577500Y-13640500D02*
X6877500Y-13940500D01*
X6877500Y-13640500D02*
X6577500Y-13940500D01*
X9743500Y-11231500D02*
X10043500Y-11531500D01*
X10043500Y-11231500D02*
X9743500Y-11531500D01*
X11148500Y-13641500D02*
X11448500Y-13941500D01*
X11448500Y-13641500D02*
X11148500Y-13941500D01*
X11278500Y-6151500D02*
X11578500Y-6451500D01*
X11578500Y-6151500D02*
X11278500Y-6451500D01*
X10137000Y-3533000D02*
X10437000Y-3833000D01*
X10437000Y-3533000D02*
X10137000Y-3833000D01*
D12*
X5739928Y-16221214D02*
X5739928Y-15921214D01*
X5811357Y-15921214D01*
X5854214Y-15935500D01*
X5882786Y-15964071D01*
X5897071Y-15992643D01*
X5911357Y-16049786D01*
X5911357Y-16092643D01*
X5897071Y-16149786D01*
X5882786Y-16178357D01*
X5854214Y-16206929D01*
X5811357Y-16221214D01*
X5739928Y-16221214D01*
X6039928Y-16221214D02*
X6039928Y-16021214D01*
X6039928Y-16078357D02*
X6054214Y-16049786D01*
X6068500Y-16035500D01*
X6097071Y-16021214D01*
X6125643Y-16021214D01*
X6225643Y-16221214D02*
X6225643Y-16021214D01*
X6225643Y-15921214D02*
X6211357Y-15935500D01*
X6225643Y-15949786D01*
X6239928Y-15935500D01*
X6225643Y-15921214D01*
X6225643Y-15949786D01*
X6411357Y-16221214D02*
X6382786Y-16206929D01*
X6368500Y-16178357D01*
X6368500Y-15921214D01*
X6568500Y-16221214D02*
X6539928Y-16206929D01*
X6525643Y-16178357D01*
X6525643Y-15921214D01*
X6911357Y-16221214D02*
X6911357Y-15921214D01*
X7011357Y-16135500D01*
X7111357Y-15921214D01*
X7111357Y-16221214D01*
X7382786Y-16221214D02*
X7382786Y-16064071D01*
X7368500Y-16035500D01*
X7339928Y-16021214D01*
X7282786Y-16021214D01*
X7254214Y-16035500D01*
X7382786Y-16206929D02*
X7354214Y-16221214D01*
X7282786Y-16221214D01*
X7254214Y-16206929D01*
X7239928Y-16178357D01*
X7239928Y-16149786D01*
X7254214Y-16121214D01*
X7282786Y-16106929D01*
X7354214Y-16106929D01*
X7382786Y-16092643D01*
X7525643Y-16021214D02*
X7525643Y-16321214D01*
X7525643Y-16035500D02*
X7554214Y-16021214D01*
X7611357Y-16021214D01*
X7639928Y-16035500D01*
X7654214Y-16049786D01*
X7668500Y-16078357D01*
X7668500Y-16164071D01*
X7654214Y-16192643D01*
X7639928Y-16206929D01*
X7611357Y-16221214D01*
X7554214Y-16221214D01*
X7525643Y-16206929D01*
X7797071Y-16192643D02*
X7811357Y-16206929D01*
X7797071Y-16221214D01*
X7782786Y-16206929D01*
X7797071Y-16192643D01*
X7797071Y-16221214D01*
X7797071Y-16035500D02*
X7811357Y-16049786D01*
X7797071Y-16064071D01*
X7782786Y-16049786D01*
X7797071Y-16035500D01*
X7797071Y-16064071D01*
X5153500Y-16565500D02*
X5453500Y-16865500D01*
X5453500Y-16565500D02*
X5153500Y-16865500D01*
X5711357Y-16551214D02*
X5897071Y-16551214D01*
X5797071Y-16665500D01*
X5839928Y-16665500D01*
X5868500Y-16679786D01*
X5882786Y-16694071D01*
X5897071Y-16722643D01*
X5897071Y-16794072D01*
X5882786Y-16822643D01*
X5868500Y-16836929D01*
X5839928Y-16851214D01*
X5754214Y-16851214D01*
X5725643Y-16836929D01*
X5711357Y-16822643D01*
X6025643Y-16822643D02*
X6039928Y-16836929D01*
X6025643Y-16851214D01*
X6011357Y-16836929D01*
X6025643Y-16822643D01*
X6025643Y-16851214D01*
X6225643Y-16551214D02*
X6254214Y-16551214D01*
X6282786Y-16565500D01*
X6297071Y-16579786D01*
X6311357Y-16608357D01*
X6325643Y-16665500D01*
X6325643Y-16736929D01*
X6311357Y-16794072D01*
X6297071Y-16822643D01*
X6282786Y-16836929D01*
X6254214Y-16851214D01*
X6225643Y-16851214D01*
X6197071Y-16836929D01*
X6182786Y-16822643D01*
X6168500Y-16794072D01*
X6154214Y-16736929D01*
X6154214Y-16665500D01*
X6168500Y-16608357D01*
X6182786Y-16579786D01*
X6197071Y-16565500D01*
X6225643Y-16551214D01*
X6511357Y-16551214D02*
X6539928Y-16551214D01*
X6568500Y-16565500D01*
X6582786Y-16579786D01*
X6597071Y-16608357D01*
X6611357Y-16665500D01*
X6611357Y-16736929D01*
X6597071Y-16794072D01*
X6582786Y-16822643D01*
X6568500Y-16836929D01*
X6539928Y-16851214D01*
X6511357Y-16851214D01*
X6482786Y-16836929D01*
X6468500Y-16822643D01*
X6454214Y-16794072D01*
X6439928Y-16736929D01*
X6439928Y-16665500D01*
X6454214Y-16608357D01*
X6468500Y-16579786D01*
X6482786Y-16565500D01*
X6511357Y-16551214D01*
X6739928Y-16851214D02*
X6739928Y-16651214D01*
X6739928Y-16679786D02*
X6754214Y-16665500D01*
X6782786Y-16651214D01*
X6825643Y-16651214D01*
X6854214Y-16665500D01*
X6868500Y-16694071D01*
X6868500Y-16851214D01*
X6868500Y-16694071D02*
X6882786Y-16665500D01*
X6911357Y-16651214D01*
X6954214Y-16651214D01*
X6982786Y-16665500D01*
X6997071Y-16694071D01*
X6997071Y-16851214D01*
X7139928Y-16851214D02*
X7139928Y-16651214D01*
X7139928Y-16679786D02*
X7154214Y-16665500D01*
X7182786Y-16651214D01*
X7225643Y-16651214D01*
X7254214Y-16665500D01*
X7268500Y-16694071D01*
X7268500Y-16851214D01*
X7268500Y-16694071D02*
X7282786Y-16665500D01*
X7311357Y-16651214D01*
X7354214Y-16651214D01*
X7382786Y-16665500D01*
X7397071Y-16694071D01*
X7397071Y-16851214D01*
X7982786Y-16536929D02*
X7725643Y-16922643D01*
X8368500Y-16551214D02*
X8397071Y-16551214D01*
X8425643Y-16565500D01*
X8439928Y-16579786D01*
X8454214Y-16608357D01*
X8468500Y-16665500D01*
X8468500Y-16736929D01*
X8454214Y-16794072D01*
X8439928Y-16822643D01*
X8425643Y-16836929D01*
X8397071Y-16851214D01*
X8368500Y-16851214D01*
X8339928Y-16836929D01*
X8325643Y-16822643D01*
X8311357Y-16794072D01*
X8297071Y-16736929D01*
X8297071Y-16665500D01*
X8311357Y-16608357D01*
X8325643Y-16579786D01*
X8339928Y-16565500D01*
X8368500Y-16551214D01*
X8597071Y-16822643D02*
X8611357Y-16836929D01*
X8597071Y-16851214D01*
X8582786Y-16836929D01*
X8597071Y-16822643D01*
X8597071Y-16851214D01*
X8897071Y-16851214D02*
X8725643Y-16851214D01*
X8811357Y-16851214D02*
X8811357Y-16551214D01*
X8782786Y-16594071D01*
X8754214Y-16622643D01*
X8725643Y-16636929D01*
X9182786Y-16851214D02*
X9011357Y-16851214D01*
X9097071Y-16851214D02*
X9097071Y-16551214D01*
X9068500Y-16594071D01*
X9039928Y-16622643D01*
X9011357Y-16636929D01*
X9354214Y-16679786D02*
X9325643Y-16665500D01*
X9311357Y-16651214D01*
X9297071Y-16622643D01*
X9297071Y-16608357D01*
X9311357Y-16579786D01*
X9325643Y-16565500D01*
X9354214Y-16551214D01*
X9411357Y-16551214D01*
X9439928Y-16565500D01*
X9454214Y-16579786D01*
X9468500Y-16608357D01*
X9468500Y-16622643D01*
X9454214Y-16651214D01*
X9439928Y-16665500D01*
X9411357Y-16679786D01*
X9354214Y-16679786D01*
X9325643Y-16694071D01*
X9311357Y-16708357D01*
X9297071Y-16736929D01*
X9297071Y-16794072D01*
X9311357Y-16822643D01*
X9325643Y-16836929D01*
X9354214Y-16851214D01*
X9411357Y-16851214D01*
X9439928Y-16836929D01*
X9454214Y-16822643D01*
X9468500Y-16794072D01*
X9468500Y-16736929D01*
X9454214Y-16708357D01*
X9439928Y-16694071D01*
X9411357Y-16679786D01*
X9582786Y-16551214D02*
X9582786Y-16608357D01*
X9697071Y-16551214D02*
X9697071Y-16608357D01*
X10139928Y-16965500D02*
X10125643Y-16951214D01*
X10097071Y-16908357D01*
X10082786Y-16879786D01*
X10068500Y-16836929D01*
X10054214Y-16765500D01*
X10054214Y-16708357D01*
X10068500Y-16636929D01*
X10082786Y-16594071D01*
X10097071Y-16565500D01*
X10125643Y-16522643D01*
X10139928Y-16508357D01*
X10382786Y-16551214D02*
X10325643Y-16551214D01*
X10297071Y-16565500D01*
X10282786Y-16579786D01*
X10254214Y-16622643D01*
X10239928Y-16679786D01*
X10239928Y-16794072D01*
X10254214Y-16822643D01*
X10268500Y-16836929D01*
X10297071Y-16851214D01*
X10354214Y-16851214D01*
X10382786Y-16836929D01*
X10397071Y-16822643D01*
X10411357Y-16794072D01*
X10411357Y-16722643D01*
X10397071Y-16694071D01*
X10382786Y-16679786D01*
X10354214Y-16665500D01*
X10297071Y-16665500D01*
X10268500Y-16679786D01*
X10254214Y-16694071D01*
X10239928Y-16722643D01*
X10768500Y-16851214D02*
X10768500Y-16551214D01*
X10897071Y-16851214D02*
X10897071Y-16694071D01*
X10882786Y-16665500D01*
X10854214Y-16651214D01*
X10811357Y-16651214D01*
X10782786Y-16665500D01*
X10768500Y-16679786D01*
X11082786Y-16851214D02*
X11054214Y-16836929D01*
X11039928Y-16822643D01*
X11025643Y-16794072D01*
X11025643Y-16708357D01*
X11039928Y-16679786D01*
X11054214Y-16665500D01*
X11082786Y-16651214D01*
X11125643Y-16651214D01*
X11154214Y-16665500D01*
X11168500Y-16679786D01*
X11182786Y-16708357D01*
X11182786Y-16794072D01*
X11168500Y-16822643D01*
X11154214Y-16836929D01*
X11125643Y-16851214D01*
X11082786Y-16851214D01*
X11354214Y-16851214D02*
X11325643Y-16836929D01*
X11311357Y-16808357D01*
X11311357Y-16551214D01*
X11582786Y-16836929D02*
X11554214Y-16851214D01*
X11497071Y-16851214D01*
X11468500Y-16836929D01*
X11454214Y-16808357D01*
X11454214Y-16694071D01*
X11468500Y-16665500D01*
X11497071Y-16651214D01*
X11554214Y-16651214D01*
X11582786Y-16665500D01*
X11597071Y-16694071D01*
X11597071Y-16722643D01*
X11454214Y-16751214D01*
X11711357Y-16836929D02*
X11739928Y-16851214D01*
X11797071Y-16851214D01*
X11825643Y-16836929D01*
X11839928Y-16808357D01*
X11839928Y-16794072D01*
X11825643Y-16765500D01*
X11797071Y-16751214D01*
X11754214Y-16751214D01*
X11725643Y-16736929D01*
X11711357Y-16708357D01*
X11711357Y-16694071D01*
X11725643Y-16665500D01*
X11754214Y-16651214D01*
X11797071Y-16651214D01*
X11825643Y-16665500D01*
X11939928Y-16965500D02*
X11954214Y-16951214D01*
X11982786Y-16908357D01*
X11997071Y-16879786D01*
X12011357Y-16836929D01*
X12025643Y-16765500D01*
X12025643Y-16708357D01*
X12011357Y-16636929D01*
X11997071Y-16594071D01*
X11982786Y-16565500D01*
X11954214Y-16522643D01*
X11939928Y-16508357D01*
X12482786Y-16965500D02*
X12468500Y-16951214D01*
X12439928Y-16908357D01*
X12425643Y-16879786D01*
X12411357Y-16836929D01*
X12397071Y-16765500D01*
X12397071Y-16708357D01*
X12411357Y-16636929D01*
X12425643Y-16594071D01*
X12439928Y-16565500D01*
X12468500Y-16522643D01*
X12482786Y-16508357D01*
X12597071Y-16651214D02*
X12597071Y-16851214D01*
X12597071Y-16679786D02*
X12611357Y-16665500D01*
X12639928Y-16651214D01*
X12682786Y-16651214D01*
X12711357Y-16665500D01*
X12725643Y-16694071D01*
X12725643Y-16851214D01*
X12911357Y-16851214D02*
X12882786Y-16836929D01*
X12868500Y-16822643D01*
X12854214Y-16794072D01*
X12854214Y-16708357D01*
X12868500Y-16679786D01*
X12882786Y-16665500D01*
X12911357Y-16651214D01*
X12954214Y-16651214D01*
X12982786Y-16665500D01*
X12997071Y-16679786D01*
X13011357Y-16708357D01*
X13011357Y-16794072D01*
X12997071Y-16822643D01*
X12982786Y-16836929D01*
X12954214Y-16851214D01*
X12911357Y-16851214D01*
X13097071Y-16651214D02*
X13211357Y-16651214D01*
X13139928Y-16551214D02*
X13139928Y-16808357D01*
X13154214Y-16836929D01*
X13182786Y-16851214D01*
X13211357Y-16851214D01*
X13539928Y-16651214D02*
X13539928Y-16951214D01*
X13539928Y-16665500D02*
X13568500Y-16651214D01*
X13625643Y-16651214D01*
X13654214Y-16665500D01*
X13668500Y-16679786D01*
X13682786Y-16708357D01*
X13682786Y-16794072D01*
X13668500Y-16822643D01*
X13654214Y-16836929D01*
X13625643Y-16851214D01*
X13568500Y-16851214D01*
X13539928Y-16836929D01*
X13854214Y-16851214D02*
X13825643Y-16836929D01*
X13811357Y-16808357D01*
X13811357Y-16551214D01*
X14097071Y-16851214D02*
X14097071Y-16694071D01*
X14082786Y-16665500D01*
X14054214Y-16651214D01*
X13997071Y-16651214D01*
X13968500Y-16665500D01*
X14097071Y-16836929D02*
X14068500Y-16851214D01*
X13997071Y-16851214D01*
X13968500Y-16836929D01*
X13954214Y-16808357D01*
X13954214Y-16779786D01*
X13968500Y-16751214D01*
X13997071Y-16736929D01*
X14068500Y-16736929D01*
X14097071Y-16722643D01*
X14197071Y-16651214D02*
X14311357Y-16651214D01*
X14239928Y-16551214D02*
X14239928Y-16808357D01*
X14254214Y-16836929D01*
X14282786Y-16851214D01*
X14311357Y-16851214D01*
X14525643Y-16836929D02*
X14497071Y-16851214D01*
X14439928Y-16851214D01*
X14411357Y-16836929D01*
X14397071Y-16808357D01*
X14397071Y-16694071D01*
X14411357Y-16665500D01*
X14439928Y-16651214D01*
X14497071Y-16651214D01*
X14525643Y-16665500D01*
X14539928Y-16694071D01*
X14539928Y-16722643D01*
X14397071Y-16751214D01*
X14797071Y-16851214D02*
X14797071Y-16551214D01*
X14797071Y-16836929D02*
X14768500Y-16851214D01*
X14711357Y-16851214D01*
X14682786Y-16836929D01*
X14668500Y-16822643D01*
X14654214Y-16794072D01*
X14654214Y-16708357D01*
X14668500Y-16679786D01*
X14682786Y-16665500D01*
X14711357Y-16651214D01*
X14768500Y-16651214D01*
X14797071Y-16665500D01*
X14911357Y-16965500D02*
X14925643Y-16951214D01*
X14954214Y-16908357D01*
X14968500Y-16879786D01*
X14982786Y-16836929D01*
X14997071Y-16765500D01*
X14997071Y-16708357D01*
X14982786Y-16636929D01*
X14968500Y-16594071D01*
X14954214Y-16565500D01*
X14925643Y-16522643D01*
X14911357Y-16508357D01*
M02*
