M48
;DRILL file {KiCad (5.0.1)-3} date 05/01/2019 12:23:52
;FORMAT={-:-/ absolute / inch / decimal}
FMAT,2
INCH,TZ
T1C0.0157
T2C0.0197
T3C0.0295
T4C0.0315
T5C0.0358
T6C0.0394
T7C0.0400
T8C0.0591
T9C0.0669
%
G90
G05
M72
T1
X2.503Y-4.6234
X2.7507Y-1.9493
X2.775Y-2.85
X2.79Y-2.57
X2.8Y-4.75
X2.825Y-4.2
X2.831Y-3.1689
X2.85Y-2.6965
X2.875Y-3.55
X2.89Y-4.3
X2.9001Y-2.7251
X2.9358Y-2.8106
X2.9386Y-4.3426
X2.95Y-1.6
X2.95Y-2.625
X2.95Y-2.9
X3.Y-2.525
X3.025Y-1.85
X3.025Y-3.175
X3.025Y-5.075
X3.075Y-2.125
X3.075Y-3.55
X3.1Y-2.25
X3.1Y-2.6715
X3.1Y-4.375
X3.1004Y-2.9237
X3.1102Y-2.5948
X3.125Y-2.875
X3.125Y-4.
X3.149Y-2.675
X3.15Y-2.75
X3.15Y-4.05
X3.15Y-4.35
X3.175Y-5.1
X3.1831Y-2.8004
X3.225Y-3.1
X3.2281Y-2.0219
X3.25Y-1.55
X3.2944Y-3.7163
X3.2983Y-3.8251
X3.3237Y-2.6346
X3.325Y-4.45
X3.35Y-3.675
X3.3722Y-2.2972
X3.375Y-3.15
X3.375Y-3.2
X3.375Y-3.375
X3.375Y-4.575
X3.4Y-1.825
X3.4Y-2.325
X3.4Y-2.4
X3.4043Y-2.0219
X3.425Y-2.475
X3.425Y-2.65
X3.425Y-2.65
X3.475Y-2.2
X3.5205Y-3.5408
X3.525Y-2.2
X3.55Y-3.8091
X3.55Y-1.825
X3.55Y-3.5
X3.552Y-3.7096
X3.575Y-4.8
X3.5795Y-3.741
X3.6Y-2.4
X3.6Y-3.675
X3.6045Y-3.6101
X3.6227Y-2.8836
X3.625Y-4.85
X3.635Y-3.925
X3.6409Y-2.8
X3.655Y-3.19
X3.7Y-3.2
X3.7Y-3.4207
X3.7Y-4.2
X3.7Y-4.325
X3.7Y-4.55
X3.7195Y-4.8535
X3.7285Y-3.2877
X3.7295Y-3.4581
X3.745Y-3.81
X3.7513Y-4.5823
X3.7526Y-4.8321
X3.7659Y-2.48
X3.7732Y-3.7433
X3.775Y-3.6
X3.775Y-3.675
X3.7783Y-4.7925
X3.7856Y-2.9663
X3.7949Y-4.8495
X3.8Y-2.85
X3.8022Y-2.9306
X3.8285Y-2.7077
X3.85Y-3.05
X3.8515Y-3.6656
X3.875Y-3.1819
X3.875Y-5.325
X3.8912Y-4.6485
X3.9Y-4.225
X3.925Y-4.9035
X3.9285Y-4.307
X3.9499Y-3.5681
X3.9952Y-4.2739
X4.Y-2.825
X4.Y-3.
X4.019Y-2.7345
X4.025Y-2.475
X4.025Y-5.
X4.032Y-4.8573
X4.0476Y-2.7615
X4.0548Y-4.5416
X4.075Y-3.9035
X4.1Y-2.375
X4.1215Y-5.15
X4.125Y-5.7
X4.15Y-5.1
X4.1719Y-4.525
X4.225Y-3.7
X4.2649Y-4.6145
X4.275Y-4.225
X4.275Y-4.375
X4.2785Y-4.9713
X4.325Y-3.575
X4.325Y-4.45
X4.336Y-4.7052
T2
X2.9Y-3.35
X2.9183Y-3.2354
X3.05Y-3.25
X3.2Y-3.25
X3.2Y-3.475
X3.225Y-2.95
X3.6Y-3.25
T3
X2.775Y-5.325
X3.25Y-4.325
X3.2669Y-4.1
X4.024Y-3.376
X4.0348Y-3.5959
T4
X2.525Y-1.9
X2.6234Y-1.9
X4.1Y-2.9
X4.1984Y-2.9
X2.9Y-2.35
X2.9984Y-2.35
X2.95Y-3.8
X3.0484Y-3.8
X3.1339Y-5.1913
X3.1339Y-5.2701
X3.1339Y-5.3488
X3.1339Y-5.4276
X3.1339Y-5.5063
X3.1339Y-5.585
X3.1339Y-5.6638
X3.1339Y-5.7425
X3.1339Y-5.8213
X3.1339Y-5.9
X4.Y-5.1913
X4.Y-5.2701
X4.Y-5.3488
X4.Y-5.4276
X4.Y-5.5063
X4.Y-5.585
X4.Y-5.6638
X4.Y-5.7425
X4.Y-5.8213
X4.Y-5.9
X4.2Y-5.45
X4.2984Y-5.45
X4.15Y-3.5
X4.2484Y-3.5
X2.6Y-2.675
X2.6984Y-2.675
X3.2Y-3.6
X3.2984Y-3.6
X4.7Y-2.
X4.7984Y-2.
X3.45Y-2.8
X3.5484Y-2.8
T5
X3.85Y-2.2902
X3.85Y-2.6
X3.95Y-2.2902
X3.95Y-2.6
X4.05Y-2.2902
X4.05Y-2.6
X4.15Y-2.2902
X4.15Y-2.6
X4.25Y-2.2902
X4.25Y-2.6
T6
X4.45Y-5.6
X3.775Y-4.15
X4.6Y-1.8
X4.05Y-3.2
X3.35Y-3.95
X3.5469Y-3.95
X3.15Y-4.8
X2.7Y-2.225
X3.15Y-4.55
X2.2986Y-1.4793
X2.2986Y-1.5793
X2.2986Y-2.5793
X2.2986Y-2.6793
X2.2986Y-2.7793
X2.2986Y-2.8793
X2.2986Y-2.9793
X2.2986Y-3.0793
X2.2986Y-3.1793
X2.2986Y-3.2793
X2.2986Y-3.3793
X2.2986Y-3.4793
X2.2986Y-3.5793
X2.2986Y-3.6793
X2.2986Y-3.7793
X2.2986Y-3.8793
X2.2986Y-3.9793
X2.2986Y-4.0793
X2.2986Y-4.1793
X2.2986Y-4.2793
X2.2986Y-4.3793
X2.2986Y-4.4793
X2.2986Y-4.5793
X2.2986Y-4.6793
X2.2986Y-4.7793
X2.2986Y-4.8793
X2.2986Y-4.9793
X2.2986Y-5.0793
X2.2986Y-5.1793
X2.2986Y-5.2793
X2.2986Y-5.3793
X2.2986Y-5.4793
X2.2986Y-5.5793
X2.2986Y-5.6793
X2.2986Y-5.7793
X2.2986Y-5.8793
X2.2986Y-5.9793
X2.2986Y-6.0793
X2.3986Y-2.5793
X2.3986Y-2.6793
X2.3986Y-2.7793
X2.3986Y-2.8793
X2.3986Y-2.9793
X2.3986Y-3.0793
X2.3986Y-3.1793
X2.3986Y-3.2793
X2.3986Y-3.3793
X2.3986Y-3.4793
X2.3986Y-3.5793
X2.3986Y-3.6793
X2.3986Y-3.7793
X2.3986Y-3.8793
X2.3986Y-3.9793
X2.3986Y-4.0793
X2.3986Y-4.1793
X2.3986Y-4.2793
X2.3986Y-4.3793
X2.3986Y-4.4793
X2.3986Y-4.5793
X2.3986Y-4.6793
X2.3986Y-4.7793
X2.3986Y-4.8793
X2.3986Y-4.9793
X2.3986Y-5.0793
X2.3986Y-5.1793
X2.3986Y-5.2793
X2.3986Y-5.3793
X2.3986Y-5.4793
X2.3986Y-5.5793
X2.3986Y-5.6793
X2.3986Y-5.7793
X2.3986Y-5.8793
X2.3986Y-5.9793
X2.3986Y-6.0793
X4.6986Y-2.5793
X4.6986Y-2.6793
X4.6986Y-2.7793
X4.6986Y-2.8793
X4.6986Y-2.9793
X4.6986Y-3.0793
X4.6986Y-3.1793
X4.6986Y-3.2793
X4.6986Y-3.3793
X4.6986Y-3.4793
X4.6986Y-3.5793
X4.6986Y-3.6793
X4.6986Y-3.7793
X4.6986Y-3.8793
X4.6986Y-3.9793
X4.6986Y-4.0793
X4.6986Y-4.1793
X4.6986Y-4.2793
X4.6986Y-4.3793
X4.6986Y-4.4793
X4.6986Y-4.5793
X4.6986Y-4.6793
X4.6986Y-4.7793
X4.6986Y-4.8793
X4.6986Y-4.9793
X4.6986Y-5.0793
X4.6986Y-5.1793
X4.6986Y-5.2793
X4.6986Y-5.3793
X4.6986Y-5.4793
X4.6986Y-5.5793
X4.6986Y-5.6793
X4.6986Y-5.7793
X4.6986Y-5.8793
X4.6986Y-5.9793
X4.6986Y-6.0793
X4.7986Y-1.4793
X4.7986Y-1.5793
X4.7986Y-2.5793
X4.7986Y-2.6793
X4.7986Y-2.7793
X4.7986Y-2.8793
X4.7986Y-2.9793
X4.7986Y-3.0793
X4.7986Y-3.1793
X4.7986Y-3.2793
X4.7986Y-3.3793
X4.7986Y-3.4793
X4.7986Y-3.5793
X4.7986Y-3.6793
X4.7986Y-3.7793
X4.7986Y-3.8793
X4.7986Y-3.9793
X4.7986Y-4.0793
X4.7986Y-4.1793
X4.7986Y-4.2793
X4.7986Y-4.3793
X4.7986Y-4.4793
X4.7986Y-4.5793
X4.7986Y-4.6793
X4.7986Y-4.7793
X4.7986Y-4.8793
X4.7986Y-4.9793
X4.7986Y-5.0793
X4.7986Y-5.1793
X4.7986Y-5.2793
X4.7986Y-5.3793
X4.7986Y-5.4793
X4.7986Y-5.5793
X4.7986Y-5.6793
X4.7986Y-5.7793
X4.7986Y-5.8793
X4.7986Y-5.9793
X4.7986Y-6.0793
X2.525Y-2.225
X2.35Y-2.225
X2.35Y-1.925
X3.775Y-3.95
X3.1Y-1.45
X4.25Y-3.2
X2.9Y-4.65
X2.9Y-4.75
X2.9Y-4.85
X2.9Y-4.95
X2.8531Y-3.05
X3.05Y-3.05
X3.024Y-4.2
X3.15Y-4.2
X2.9Y-5.2
X2.9Y-5.3
X2.9Y-5.4
X2.9Y-5.5
X3.35Y-2.95
T7
X4.4Y-2.6193
X4.4Y-2.7193
X4.4Y-2.8193
X4.4Y-2.9193
X4.4Y-3.0193
X4.4Y-3.1193
X4.4Y-3.2193
X4.4Y-3.3193
X4.4Y-3.4193
X4.4Y-3.5193
X4.5Y-2.6193
X4.5Y-2.7193
X4.5Y-2.8193
X4.5Y-2.9193
X4.5Y-3.0193
X4.5Y-3.1193
X4.5Y-3.2193
X4.5Y-3.3193
X4.5Y-3.4193
X4.5Y-3.5193
X2.6Y-3.879
X2.6Y-3.979
X2.6Y-4.079
X2.6Y-4.179
X2.6Y-4.279
X2.6Y-4.379
X2.6Y-4.479
X2.6Y-4.579
X2.6Y-4.679
X2.6Y-4.779
X2.6Y-4.879
X2.6Y-4.979
X2.6Y-5.079
X2.6Y-5.179
X2.6Y-5.279
X2.7Y-3.879
X2.7Y-3.979
X2.7Y-4.079
X2.7Y-4.179
X2.7Y-4.279
X2.7Y-4.379
X2.7Y-4.479
X2.7Y-4.579
X2.7Y-4.679
X2.7Y-4.779
X2.7Y-4.879
X2.7Y-4.979
X2.7Y-5.079
X2.7Y-5.179
X2.7Y-5.279
X2.6Y-2.979
X2.6Y-3.079
X2.6Y-3.179
X2.6Y-3.279
X2.6Y-3.379
X2.6Y-3.479
X2.6Y-3.579
X2.6Y-3.679
X2.7Y-2.979
X2.7Y-3.079
X2.7Y-3.179
X2.7Y-3.279
X2.7Y-3.379
X2.7Y-3.479
X2.7Y-3.579
X2.7Y-3.679
X4.3986Y-3.6793
X4.3986Y-3.7793
X4.3986Y-3.8793
X4.3986Y-3.9793
X4.3986Y-4.0793
X4.3986Y-4.1793
X4.3986Y-4.2793
X4.3986Y-4.3793
X4.3986Y-4.4793
X4.3986Y-4.5793
X4.3986Y-4.6793
X4.3986Y-4.7793
X4.3986Y-4.8793
X4.3986Y-4.9793
X4.3986Y-5.0793
X4.3986Y-5.1793
X4.3986Y-5.2793
X4.4986Y-3.6793
X4.4986Y-3.7793
X4.4986Y-3.8793
X4.4986Y-3.9793
X4.4986Y-4.0793
X4.4986Y-4.1793
X4.4986Y-4.2793
X4.4986Y-4.3793
X4.4986Y-4.4793
X4.4986Y-4.5793
X4.4986Y-4.6793
X4.4986Y-4.7793
X4.4986Y-4.8793
X4.4986Y-4.9793
X4.4986Y-5.0793
X4.4986Y-5.1793
X4.4986Y-5.2793
T8
X2.6Y-1.5
T9
X2.5Y-1.4
X2.5Y-1.6
X2.7Y-1.4
X2.7Y-1.6
T0
M30
